<?xml version="1.0" encoding="UTF-8"?><svg id="a" xmlns="http://www.w3.org/2000/svg" viewBox="0 0 48 48"><circle id="b" cx="24" cy="24" r="21" fill="#74422b"/><path id="c" d="M33.6,15.04c-.54,0-1.06,.1-1.55,.27l.07-.8-19.01-.09,1.48,16.11c.16,1.69,1.58,2.99,3.28,2.98l9.53-.06c1.68-.01,3.09-1.3,3.24-2.97l.61-6.6c.69,.4,1.49,.63,2.34,.63,2.6,0,4.72-2.12,4.72-4.72s-2.12-4.72-4.72-4.72Zm-5.37,15.51c-.04,.37-.35,.65-.73,.65l-9.63-.09c-.37,0-.68-.28-.73-.65l-.8-8.76,12.82,.09-.94,8.76Zm5.37-8.68c-.96,0-1.76-.64-2.02-1.52l.14-1.53c.35-.69,1.06-1.16,1.88-1.16,1.16,0,2.1,.94,2.1,2.1s-.94,2.1-2.1,2.1Z" fill="#fbfbfb"/><path id="d" d="M33.6,15.07c-.54,0-1.06,.1-1.55,.27l.07-.8-9.81-.05v7.29l6.86,.05-.94,8.76c-.04,.37-.35,.65-.73,.65l-5.19-.05v2.31l5.09-.03c1.68-.01,3.09-1.3,3.24-2.97l.61-6.6c.69,.4,1.49,.63,2.34,.63,2.6,0,4.72-2.12,4.72-4.72s-2.12-4.72-4.72-4.72Zm0,6.83c-.96,0-1.76-.64-2.02-1.52l.14-1.53c.35-.69,1.06-1.16,1.88-1.16,1.16,0,2.1,.94,2.1,2.1s-.94,2.1-2.1,2.1Z" fill="#1f2020" opacity=".1"/><path id="e" d="M27.5,31.23c.37,0,.69-.28,.73-.65l.94-8.76-6.86-.05v9.41l5.19,.05Z" fill="#1f2020" opacity=".2"/></svg>