<?xml version="1.0" encoding="utf-8"?>
<!-- Generator: Adobe Illustrator 23.0.0, SVG Export Plug-In . SVG Version: 6.00 Build 0)  -->
<svg version="1.1" id="Halloween_1_" xmlns="http://www.w3.org/2000/svg" xmlns:xlink="http://www.w3.org/1999/xlink" x="0px"
	 y="0px" viewBox="0 0 1920 1080" style="enable-background:new 0 0 1920 1080;" xml:space="preserve">
<style type="text/css">
	.st0{fill:#FCC000;}
	.st1{fill:#1D2A54;}
	.st2{fill:#E3AF32;}
	.st3{fill:#040000;}
	.st4{fill:#1A2A52;}
	.st5{fill:#F58328;}
	.st6{fill:none;stroke:#1A2A52;stroke-width:2;stroke-miterlimit:10;}
</style>
<g id="Halloweenbelow">
	<g id="pumpkin2light">
		
			<ellipse id="pumpkin2lightright_1_" transform="matrix(0.1441 -0.9896 0.9896 0.1441 419.2216 2530.8035)" class="st0" cx="1672.6" cy="1023.1" rx="55" ry="76.2"/>
		
			<ellipse id="pumpkin2lightleft" transform="matrix(0.9356 -0.353 0.353 0.9356 -264.5479 600.5271)" class="st0" cx="1514.1" cy="1025.6" rx="64.2" ry="47.3"/>
	</g>
	<g id="Halloweenbelowscenery">
		<path id="pumpkin2" class="st1" d="M1587.2,987.3c2.9-2.4,2.9-6.4,5.9-8.9c1.9-1.5,3.9-3.5,3.4-6.3c0-0.1,0.5-0.3,0.8-0.5
			c1.5-1.2,3.1-2.2,4.6-3.5c1.1-1,2-2.1,3-3.2c1.3-1.4,2.3-3.3,3.9-4.1c1.9-0.9,3.8-0.8,5.7-2.8c1.8-1.9,5.1-4.1,8.9-3.3
			c0.5,0.1,1.5-0.3,1.5-0.6c0.3-2.5,2.3-1.9,3.9-1.9c7.2-0.1,14.4,0,21.6-0.1c1.4,0,2.8-0.4,4.1-0.9c1.2-0.4,2.3-1.7,3.4-1.6
			c3.2,0.3,7.3-2,9.5,2.2c0.1,0.2,0.7,0.1,1.1,0.1c5.1,0,10.2,0,15.6,0c0-3.2,0.2-6.3-0.1-9.3c-0.1-1-2.3-1.8-2.5-2.8
			c-0.4-2.1-0.1-4.4-0.1-6.6c4.1,0,7.7,0,11.5,0c0,4.9,0,9.5,0,14.2c0,0.6-0.1,1.5-0.3,1.6c-3.8,0.7-2,3.4-2.6,5.7
			c3.8,1.3,7.4,2.5,11.8,4c1.8,1.7,4.3,4,7.6,7c2.5,0,6-0.2,9.5,0.1c1.5,0.1,2.9,1,4.3,1.5c-0.1,0.3-0.2,0.6-0.3,0.9
			c1.6,0.2,3.1,0.3,4.6,0.5c1.5,2.6,3,5,3.9,6.6c2.6,1.6,4.5,2.7,6.4,4c1.7,1.1,3.3,2.3,4.8,3.6c1.7,1.5,3.4,3,4.9,4.7
			s2.6,3.5,3.9,5.4c0.8,1.2,1.5,2.4,2.2,3.6c0.2-0.1,0.5-0.2,0.7-0.3c0.1,1.5,0.2,2.9,0.2,4.4c0.3-0.1,0.7-0.2,1-0.3
			c0.6,1.2,1.4,2.4,1.7,3.7c0.4,1.6,0.2,4.6,0.8,4.7c3.1,0.7,2.1,2.8,2.1,4.3c0.2,5.7,0.1,11.3,0.1,17c0,2,0,4,0,6.5
			c-3.3,29.4-14.9,36.8-31.9,43.6l-72.6-0.3l-71.5-2.1l-48.6-0.2l-52.1,0.3c0,0-30.6-1.8-39.5-17.6c-7.7-13.8-3.6-15.1-3.8-15.1
			c-3.1-0.3-2.1-2.4-2.3-4.1c-0.2-1.5,0.2-3.4-0.7-4.5c-2.9-3.9-3.1-6.3-0.6-9.1c-0.7-2.2-1.5-3.7-1.6-5.3c-0.1-3.1-0.9-7.3,0.8-9.2
			c2-2.2,1.7-4.1,2-6.2c0.1-0.9,0.1-2.5,0.4-2.5c4.1-0.5,1.8-3.8,3.1-5.4c1.8-1.5,4.4-2.8,4.9-4.7c1.2-4.1,3.9-6,8-6.7
			c0.4-0.1,0.8-0.6,1.2-1c1.5-1.4,3.1-2.8,4.6-4.3c1.7-1.7,3.4-3.4,5.3-5.4c1-0.1,3.8,0,3.9-0.6c1-3.5,4.1-1.9,5.8-2.9
			c2.1-1.9,4.3-3.7,6.7-5.9c0-1-0.1-2.4-0.2-4.3c-2.8-1-5.6-2-8.3-3.2c-1.1-0.5-2.1-1.5-2.8-2.5c-0.4-0.6-0.4-2.1,0.1-2.5
			c2.2-1.8,4.6-3.4,6.8-5c1.2,1,2.6,2,4.3,3.4c0.4,1.5-1,4.5,2.9,4.5c0.1,1.7,0.2,3.2,0.2,3.8c1.6,1.7,2.7,2.7,4.1,4.2
			c1.1-0.2,4-0.3,4.1-0.9c0.6-2.8,2.7-1.8,4.3-1.9c2.8-0.1,5.6,0,8.4,0c0.8,0,2.3-0.2,2.3-0.4c0.4-4,6.7-0.9,6.9-5
			c5.1,0.5,10.8-2,15.3,2.2c1.8-1.9,11.1-3.6,12.4-1.8c1.6,2.3,3.7,1.8,5.8,2.3c4,0.8,7.9,2,11.8,3c0.2,0,0.4,0.3,0.5,0.5
			c2,2.9,4.6,4.9,7.4,4.9c2,1.5,3.3,2.4,4.4,3.5c1.4,1.4,2.4,3.2,3.9,4.4c2.8,2.1,5.1,4.2,5.5,7.6c1,0.8,1.5,2,2.5,2.8
			C1585.2,987.4,1586.8,987.7,1587.2,987.3 M1690.3,1074.5c0.8,0,1.5-0.4,2.3-0.7c1.3-0.6,2.6-1.5,4-1.8c2.1-0.4,4.7,0.7,5.6-2.3
			c0.1-0.3,1.6-0.2,2.4-0.5c1-0.4,2-1,3-1.6c0.5-0.3,0.9-1,1.3-0.9c3.9,0.1,5.6-2.5,7.6-5c1.2-1.5,3.7-2,4.6-3.6
			c1.9-3,3-6.4,4.8-10.4c-3.2,0.4-5.8-1.2-6.7,2.1c-0.1,0.2-0.5,0.4-0.8,0.5c-4.3,1.2-8.6,2.3-13.3,3.6c0.3,4.2-3.5,6.6-6.7,9.2
			c-0.6,0.5-2.6-0.6-3.8-0.6c-2.3,0.3-4.5,0.9-6.8,0.8c-1.2,0-1.5-2.8-1.1-7.5c-3.3,0-6.6,0.1-9.8,0c-1.9-0.1-4.2,0.7-5.1-2
			c-0.1-0.4-1.7-0.5-2.7-0.5c-2.4-0.1-4.9-0.1-7.3-0.1c-1,0-2.4,0.1-2.8-0.4c-4.4-5.3-4.6,1.2-6.8,2c-1,0.3-2,0.5-2.9,0.8
			c-0.9-3.2-3.7-2.2-6-2.3c-6.1-0.2-6.3-0.4-6.1-6.1c0.1-4.3-2.1-6.7-6.5-7.7c-1.7-0.4-3.3-1.6-4.6-2.8c-2.4-2.3-4.4-4.8-6.7-7.2
			c-2.1-2.1-4.4-4-6.5-6.2c-1-1-1.5-2.5-2.2-3.7c-0.4-0.6-0.8-1.1-1.3-1.7c-0.5,0.5-1,1-1.4,1.6c-0.7,1.3-1.5,2.6-2,4
			c-0.4,1.2-0.9,3.4-0.3,3.8c3.3,2.1,2.1,5.2,2.4,8c0.2,1.7-0.6,3.8,2.3,4.3c0.2,0,0.6,0.8,0.5,1.2c-1,3.1,2.6,4,3.6,6.1
			c0.1,0.1,1.8,0,2-0.3c1.2-2.1,1.5-1.9,3.4-0.2c1.7,1.5,3.1,4.1,6.4,4.1c1.9,0,3.5,4.2,2,4.9c-6.1,2.9,0.4,4.8,1.1,5.4
			c2.2,2.3,5.3,4,8.4,5.4c2.9,1.4,6.2,2.1,9.3,3.1c0.6,0.2,1.3,0.1,1.7,0.5c4.3,3.7,9.1,2.9,11.9-1.9c0.4-0.6,1.3-1.2,2.1-1.3
			c1.2-0.2,2.4,0,3.6,0c8.4,0.3,8.4,0.3,9.6,8C1680.8,1074.5,1685.6,1074.5,1690.3,1074.5z M1543.5,1037.7c-0.6,0.5-1.1,1.5-1.6,1.5
			c-3.8,0-5.4,2.8-7.6,4.9c-0.1,0.1-0.1,0.2-0.2,0.2c-3.3,1.1-6.5,2.8-9.9,3.2c-3.2,0.4-4.3,1.3-4,4.1c0.1,1.2,0,2.4,0,3.6
			c-2.4,1.2-5.2-0.1-7.1,2.8c-1.4,2.2-7-0.9-8.6-5c-8.5,0-17.2,0.1-25.8,0c-2.1,0-4.6,0.6-6-2.1c-0.4-0.7-2.9-0.3-4.4-0.3
			c-0.2,0-0.6,1.4-0.4,1.6c2.4,2.1,5,4,7.4,6.1c1.5,1.3,2.7,2.9,4,4.3c0.1,0.1,0,0.3,0.1,0.3c3.1,1.1,6.1,2.3,9.3,3.4
			c0.5,0.2,1.2-0.1,1.7-0.4c1-0.7,2-2.1,3-2.1c3.6-0.2,7.3-0.2,10.9,0.4c0.9,0.1,1.3,2.8,2,4.7c3.6,0,8.5,1.3,11.4-0.3
			c3.5-2,6.9-1.6,10.2-2.5c2.1-0.5,3.9-2.2,5.8-3.4c0.3,0.2,0.5,0.4,0.8,0.6c0-1.1,0-2.2,0-3.3c0-4.2,2.5-6,6.6-7.5
			c2.9-1.1,4.5-1.4,7.4,0.2c3.1,1.7,4.8-2.1,6.8-3.8c2.8-2.2,5.3-4.9,7.8-7.4c0.4-0.4,0.5-1.2,0.6-1.8c0.2-1.5-0.4-3.4,2.3-3.5
			c0.2,0,0.5-0.3,0.5-0.4c-0.2-6.6,5.1-12.5,2.9-19.3c-0.5-1.6-2.2-2.9-3.4-4.2c-0.1-0.1-1.5,0.4-1.7,0.9c-1.2,2.2-2,4.6-3.4,6.7
			c-1.5,2.3-3.5,4.2-5.2,6.4c-0.2,0.3,0.2,1.5,0.6,1.6c3.8,1.4,1.7,4.3,1.6,6.4c0,0.8-2.3,1.6-3.6,2.4c-1.6,1.1-3.2,2.2-4.8,3.4
			c-0.7,0.5-1.5,1.1-2.2,1.6c-0.4-0.9-0.8-1.8-1.1-2.7c-0.2-0.6-0.1-1.3-0.3-2.8C1544.8,1037,1544.1,1037.3,1543.5,1037.7z
			 M1643.6,1008.5c-1.2-0.9-0.6-4.1-0.8-6.2c-0.2-1.5,0.7-3.3-2-4.1c-0.7-0.2-0.6-2.8-0.9-4.3c-0.3-1.1-0.7-2.2-1.1-3.3
			c-0.6,0.7-1,1.6-1.7,2.1c-2.6,2.1-5.4,3.9-7.9,6c-3.2,2.6-6.2,5.4-9.2,8.2c-0.3,0.3-0.5,1.1-0.3,1.5s0.9,0.6,1.4,0.7
			c2,0.2,4.1-0.2,5,2.3c0.1,0.4,1.8,0.3,2.7,0.4c2.1,0.3,4.8-0.7,5.7,2.3c0.1,0.3,1.3,0.3,2,0.4c1.6,0.1,3.2-0.2,4.2,1.8
			c0.4,0.8,2.9,0.8,5.3,1.3C1645.1,1014.2,1647.3,1011.1,1643.6,1008.5z M1721.8,1031.8c-3.1-1.7-2.7-4.5-2.8-7.1
			c0-0.5-0.2-1.3-0.6-1.5c-2.6-0.9-1.8-3.1-2.3-4.9c-0.4-1.3-1.3-2.5-1.9-3.8c-0.5-1.1-0.6-2.3-1-3.5c-0.2-0.5-0.7-1-1.1-1.5
			c-0.5,0.4-1,0.7-1.4,1.1c-1.3,1.4-2.6,2.9-4,4.1c-1.5,1.3-3.2,2.3-4.7,3.6c-2.8,2.5-5.6,5-8.3,7.6c-0.4,0.4-0.7,1.6-0.5,1.7
			c1.8,1.2,3.7,2.7,5.7,3.1c2.9,0.5,6.1,0,9.1,0.3c3.2,0.2,6.8-0.8,9.4,2.2c0.6,0.7,2.7,0.3,4.4,0.4
			C1721.8,1032.9,1722,1032,1721.8,1031.8z M1473.2,1017.8c0,3.9,0.2,7.7-0.1,11.5c-0.1,1.6-1.5,3.1-2,4.7c-0.4,1.5-0.4,3-0.6,4.5
			c0.8,0,1.7,0.2,2.3,0c0.5-0.2,0.7-1.6,0.9-1.6c4.9,1,8.3-3.5,12.8-3c3.4,0.4,4.2-2.9,6.9-3.3c0,0,0.1-1.4-0.1-1.5
			c-4-1.1-5.2-5.9-10.1-6.2c-1.8-0.1-3.5-3-5.5-5C1476.7,1017.8,1475.3,1017.8,1473.2,1017.8z M1531.3,1014.6c3.2,0,5.2,1,6.8-2.1
			c0.8-1.7,4.3-2.1,6.4-3.3c3.4-1.8,6.8-3.8,10.1-5.7c0.1,0-0.6-1.8-1.1-1.9c-4-0.8-6.9-3.4-10.3-5c-2.5-1.1-3.8-5.5-7.9-2.9
			C1533.5,1000.4,1537.5,1008,1531.3,1014.6z M1667.7,1033.4c0.6,0.8,3.3,0.4,5,0.3c0.8,0,1.5-0.7,2.3-1c-0.5-0.5-1.2-0.9-1.6-1.4
			c-0.5-0.9-1.4-2-1.1-2.8c0.9-3.3-1.8-5.2-3.2-7.5c-0.2-0.3-1.6-0.4-1.9-0.2c-2.2,2.3-4.2,4.7-6.3,7c-0.9,0.9-2.1,1.5-3.2,2.2
			C1661.6,1031.4,1665.1,1030.3,1667.7,1033.4z M1587.5,1046.2c-0.1-0.6-0.3-2.2-0.5-4.5c-2.1,1.6-3.8,2.7-5.4,4.1s-3,3.1-4.5,4.7
			c-0.4,0.4-0.9,0.9-1.1,1.4c-0.1,0.2,0.7,0.9,1.1,0.9c5.1,0.1,10.3,0,15.4,0c0-0.4,0-0.8,0-1.2
			C1591,1050,1589.5,1048.4,1587.5,1046.2z M1512.3,1033.6c3.4-1.8,6.7-3.7,10-5.6c0.2-0.1-0.4-1.9-0.6-1.9
			c-4.4,0.2-6.3-3.2-9.7-5.9c-0.9,4.7-0.3,8.9-0.6,13C1511.9,1033.5,1512.2,1033.7,1512.3,1033.6z"/>
		<path id="pumpkin1" class="st1" d="M1410.3,1041.5c-2.4-7-11.9-9.1-13.5-10.3c-1.7-1.2-3.9-1.6-3.9-1.6s-1.8-0.1-4.4-0.2
			c-0.1,0-0.1-0.1-0.1-0.1c-0.2-0.6-0.6-0.5-1-0.5c-0.3,0-0.6,0-0.8-0.1c-0.5-0.3-1-0.7-1.7-1.2c-0.1-0.5-1.3-0.9-1-1.9
			c0,0-0.1-0.1-0.2-0.1c-1-0.6-1.6-1.4-1.4-2.6c0.1-0.6,0-1.2,0.1-1.8c0-0.2,0.1-0.4,0.3-0.6c0.2-0.3,0.6-0.6,0.8-0.8
			c0.5-0.2,1-0.3,1.4-0.5c0.3-0.1,0.5-0.4,0.7-0.5c0.8-0.1,1.7,0,2.2,0c0.5,0.5,0.9,0.8,1.2,1.1c0,0.4,0,0.8,0,1.4
			c-0.3-0.1-0.7-0.1-0.7-0.2c0-0.9-0.6-0.7-1.1-0.7c-0.7,0-1.2,0.1-1.7,0.8c-0.6,0.9-0.9,2.8-0.1,3.6c0.4,0.3,0.8,0.6,1.1,1
			c0.4,0.4,2.4,0.8,2.4,0.4c0.2-1.1,1.1-0.5,1.7-0.9c0.3-0.5-0.2-1.5,0.9-1.6c0,0,0.1-0.3,0.1-0.4c0-1.5,0-3,0-4.2
			c-0.8-0.8-1.3-1.4-2.1-2.1c-1.5,0-3.3,0-5,0c-0.4,0-0.8,0.1-1.2,0.3c-0.8,0.5-1.6,1.2-2.4,1.7c-0.2,0.3-0.3,1.1-0.5,1.1
			c-0.9,0.2-0.7,0.8-0.6,1.3c0.4,1.9-0.9,3.4-1,5.1c0,0.1-0.2,0.2-0.3,0.4c-0.5,0.6-1,1.1-1.6,1.8c-0.8-0.3-1.4,0.2-1.9,0.8
			c-5.9,0.6-8.8,3.4-8.8,3.4c-7.1,0.2-10.4,5.1-13.5,10c-3.1,5-4,21.6,4.5,27.8c8.5,6.2,17.1,7.8,29.4,7.6
			c12.3-0.2,19-6.9,23.7-14.4C1415.1,1056.6,1412.7,1048.5,1410.3,1041.5z"/>
		<path id="tree3" class="st1" d="M1191.9,1013.5c3.4,1.6,7.2,2.2,11,3s5.8,3.1,5,6.8c-4.7-1.7-9.4-3.4-14.1-5
			c-0.2,0.4-0.1,0.2-0.3,0.7c4.6,2.5,9.1,5,13.8,7.5c-4.4,3-8.7,2.2-13.2,0.1l-0.3,1.2c2.3,1.3,4.7,2.6,7.3,4
			c-3.9,3.5-8.6,4-13.3,4.6l0.1,1.1c5.6,0.5,10.9-3.1,16.8-2.7c-0.3,2.1-0.6,4.1-0.9,6c-0.3,0.1-0.3,0.1-0.6,0.1
			c-0.6-1-1.2-2.1-1.8-3.1c-0.3,0.1-0.6,0.2-0.9,0.3c0.2,1.1,0.2,2.3,0.7,3.2c1.3,2.3,1.8,4.6,0.7,7.4c-1.7-2.5-3.4-5-5.1-7.4
			c-0.2,0.1-0.2,0.1-0.4,0.2c0.6,2,1.2,4,1.8,5.7c-0.8,0.5-1.4,0.9-2,1.3c0.5,0.5,0.9,1.2,1.5,1.5c0.7,0.4,1.6,0.6,2.5,0.7
			c2.4,0.3,3,1.1,2.1,3.3c-0.4,0.9-0.9,1.8-1.5,2.8l1.7,0.2c1.6-0.8,3.4-3.6,5.5-3.9c0.6-0.1,1.6-1.1,2.2-0.9c3.6,1,7.6,1.1,9.9,4.8
			c0.3,0.5,1,0.8,1.1,1.4c1.3,5-1.1,7-3.9,9.5c-0.1,0,0.9,2.9-25.4,5.8h13.6c2.2,0.5,81.2,0,80.7-0.1c-34.7-7.9-64.4-0.6-45.7-18.3
			c1-0.9-0.9-1.8,0.1-2.9c1.7-1.9,2.5-4.7,4.1-6.6c2.2-2.7,5.3-4.2,7.5-6.8c2.4-2.7,4.4-5.8,6.8-8.6c0.4-0.4,0.5-1.1,0.9-2
			c-0.7,0.4-2,0.3-2.1,0.5c-4.4,7.9-11.5,11.7-18.2,17c-0.8,0.6-2.6,0-3.9,0c0.5-2.5,0.2-5.8,1.7-7.4c2.7-2.8,7-5.2,12.3-5
			c3.5,0.1,4.3,0.1,5.2-2.3c-3.5,0.7-5.8,0.1-9.4,0.9c2.8-5.3,6.3-6.6,10.6-8.9c-0.2-0.3-0.5-0.7-0.7-1c-3,1.9-6.1,3.9-9.1,5.8
			c-0.2-0.2-0.2-0.2-0.5-0.4c1.6-3,3.2-6,4.8-9.1c-0.4-0.2-0.2-0.2-0.6-0.4c-2,2.3-4,4.4-5.9,6.8c-1.4,1.8-2.3,3.9-3.7,5.6
			c-0.8,1-2.3,1.4-3.7,2.2c-0.1-1.1-0.2-1.4-0.2-1.8c0-0.3,0-0.7,0.1-1c1.6-4.5,3.8-8.5,8.6-10.4c4.2-1.7,6.8-5.3,9.6-8.7
			c-3.1,1.4-5.4,4.2-8.8,4.8c-0.2-0.3-0.2-0.3-0.4-0.6c2.6-3.3,5.1-6.6,7.7-9.9c-5.1,1.2-6.9,6.6-11.5,8.8l-0.4-4
			c-2.1,3.8-1.5,8.2-5.3,10.8c0.1-3.1,0.1-5.9,0.5-8.6c0.1-1,0.9-2.1,1.8-2.8c3.5-2.7,7.1-5.1,10.7-7.7c0.6-0.4,0.9-1.1,1.4-1.7
			c-0.1-0.1-0.3-0.2-0.4-0.3c-3.9,2.9-7.8,5.8-11.7,8.6c-0.3-0.2-0.3-0.2-0.5-0.4c2.2-5.8,6.3-10,11.7-13.2c-0.3-0.3-0.6-0.6-0.9-1
			c-3.5,2.5-7,4.9-10.7,7.5c0.7-3,1.4-6,2.1-9c-0.4-0.2-0.3-0.1-0.7-0.3c-3.7,5.2-4.6,11.6-6.8,17.5c-2.4-2.5-3.6-4.9-2.3-8.1
			c0.5-1.2,0.3-2.7,0.3-4.1c0-0.4-0.5-0.9-0.9-1.5c-0.7,2.3-1.2,4.1-1.7,6c-0.6,0-0.5,0-1,0c-0.6-3-1.2-6-1.8-9.2
			c-0.5,0.4-0.7,0.4-0.7,0.6c-0.1,0.2-0.2,0.5-0.2,0.8c0.5,7.1,1,14.2,5.7,20.1c1.5,1.8,1.9,3.7,1.1,6c-2.3-1.5-4-3.1-4.3-5.9
			c-0.1-1.2-1.2-2.4-1.8-3.6c-0.3,0.1-0.6,0.2-0.9,0.3l0.5,5.2c-2.9-2-5.2-3.6-7.5-5.2c0,0.6,0,1.3-0.1,2c-0.3,0.1-0.6,0.1-0.9,0.2
			c-0.6-1.8-1.5-3.6-1.8-5.4c-0.4-2-0.2-4-0.3-6c-0.5,0-0.3,0-0.8,0c-0.4,2.6-0.8,5.2-1.2,7.8c-0.3,0-0.3,0-0.6,0.1
			c-0.7-2-1.4-3.9-2.4-6.5c-1,3.4,0.1,5.6,1.8,7.2c2.2,2.1,1.8,4.6,2.2,7.2c-4.8-0.4-5.8-1.1-7.8-4.6c-0.9-1.6-1.9-3.1-2.9-4.6
			c-0.2,0.1-0.5,0.3-0.7,0.4c1.1,2,2.2,4.1,3.4,6.5c-6.2-1.9-5.3-8.1-8.6-11.7l0.9,9.1c-5.3,0.4-9.2-2-12.5-5.8
			c-0.2,0.1-0.2,0.1-0.3,0.1l0.1,1.5C1187.2,1010.1,1189.3,1012.3,1191.9,1013.5z M1226.5,1022.1c3.8,3.1,4.5,10.5,1.2,13.9
			c-1.8-1.7-2.7-3.3-2.2-5.8C1226.1,1027.6,1226.2,1024.8,1226.5,1022.1z M1224.4,1029.7c-0.2,0.1-0.5,0.2-0.7,0.3
			c-1.1-3.9-2.2-7.8-3.3-11.8C1224.9,1017.8,1225.9,1023.3,1224.4,1029.7z M1220.5,1037.8c2.8,2.5,2.7,5.6,2.7,8.6
			c0,0.3-1.5,1-2,0.8c-2.2-0.7-3.5-3.7-2.5-6C1219.1,1040.1,1219.9,1039.1,1220.5,1037.8z M1215.7,1032.7c4,1.7,4.5,3.9,1.6,7.7
			c-0.5-1.9-0.9-3.3-1.3-4.8C1215.8,1034.7,1215.8,1033.7,1215.7,1032.7z M1209.6,1019.4c1.7,2.1,3.5,4.2,5.2,6.4
			c-0.2,0.2-0.5,0.4-0.7,0.5C1210.8,1025.5,1209.5,1023,1209.6,1019.4z M1210.6,1031.9c2.1,1.5,3.7,3.4,3.4,6.5
			c-0.2,2.2,0.4,4.4,0.6,7c-0.9,0-1.7-0.1-2.5-0.1c0.3-2.6,0.7-5,1-7.4c-0.2,0-0.5-0.1-0.7-0.1c-0.3,1.2-0.6,2.3-1,3.5
			c-0.2,0-0.5-0.1-0.7-0.1c0.1-2,0.2-4,0.3-6.1c-0.3,0-0.5,0-0.8-0.1c-0.4,3.2-0.7,6.3-1.2,9.8c-1.1-0.9-2.3-1.8-3.5-2.7
			c0.2-0.1,0.5-0.2,0.7-0.2c-0.3-2.3-0.7-4.6-0.8-6.9c0-1.1,0.4-2.8,1.2-3.2C1207.9,1031.3,1209.7,1031.3,1210.6,1031.9z"/>
		<circle id="moom" class="st2" cx="589" cy="948.6" r="83.3"/>
		<path id="tree2" class="st1" d="M431.4,955.6c6.4,3,13.8,4.1,20.8,5.6c7.2,1.6,10.9,5.9,9.6,13c-9-3.2-17.8-6.4-26.7-9.5
			c-0.3,0.8-0.2,0.5-0.6,1.2c8.7,4.7,17.3,9.4,26.1,14.2c-8.3,5.7-16.6,4.2-25,0.2l-0.5,2.2c4.4,2.4,8.9,4.9,13.8,7.6
			c-7.3,6.6-16.4,7.5-25.3,8.7l0.2,2.1c10.7,1,20.6-5.8,31.9-5.2c-0.6,4-1.1,7.7-1.7,11.3c-0.5,0.1-0.5,0.1-1.1,0.2
			c-1.1-2-2.2-4-3.4-5.9c-0.6,0.2-1.1,0.3-1.7,0.5c0.4,2,0.4,4.3,1.4,6.1c2.5,4.3,3.5,8.7,1.4,14.1c-3.2-4.7-6.4-9.4-9.6-14.1
			c-0.5,0.2-0.3,0.2-0.8,0.4c1.2,3.8,2.3,7.5,3.3,10.8c-1.5,1-2.6,1.7-3.7,2.5c1,1,1.8,2.2,2.9,2.8c1.4,0.7,3.1,1.1,4.7,1.3
			c4.5,0.5,5.8,2.1,4.1,6.2c-0.7,1.8-1.8,3.5-2.9,5.3l3.2,0.4c3-1.6,6.4-6.9,10.4-7.4c1.2-0.1,3-2,4.2-1.7c6.8,1.9,14.5,2,18.8,9.1
			c0.6,1,1.9,1.6,2.1,2.7c2.5,9.5-2.1,13.2-7.4,18c-0.1,0.1,1.8,5.6-48.1,11.1h25.7c4.2,0.9,154,0,153-0.2
			c-65.7-15.1-122.2-1-86.6-34.7c1.8-1.7-1.7-3.4,0.2-5.5c3.2-3.5,4.7-8.9,7.7-12.6c4.1-5.1,10-7.9,14.3-12.9
			c4.5-5.2,8.4-11.1,12.9-16.2c0.7-0.8,0.9-2,1.6-3.8c-1.4,0.7-3.7,0.6-3.9,1c-8.3,14.9-21.9,22.2-34.5,32.3
			c-1.5,1.2-4.9,0.1-7.4,0.1c1-4.8,0.4-11,3.3-13.9c5.2-5.4,13.3-9.8,23.3-9.4c6.7,0.3,8.1,0.2,9.9-4.3c-6.6,1.3-11,0.3-17.8,1.7
			c5.3-10.1,11.9-12.5,20-16.9c-0.4-0.6-0.9-1.3-1.3-1.9c-5.8,3.7-11.5,7.3-17.3,11c-0.5-0.4-0.4-0.4-0.9-0.8
			c3-5.7,6.1-11.4,9.1-17.2c-0.7-0.5-0.5-0.3-1.1-0.8c-3.7,4.3-7.7,8.4-11.1,12.9c-2.6,3.3-4.3,7.4-7,10.6c-1.5,1.8-4.3,2.6-7.1,4.2
			c-0.2-2.1-0.3-2.7-0.3-3.4s0-1.3,0.2-1.9c3-8.5,7.2-16,16.3-19.7c8-3.2,12.9-10.1,18.2-16.6c-5.8,2.7-10.3,7.9-16.7,9.2
			c-0.3-0.5-0.3-0.5-0.7-1.1c4.9-6.2,9.7-12.5,14.6-18.7c-9.6,2.3-13,12.4-21.7,16.7l-0.8-7.6c-4.1,7.2-2.8,15.5-10.1,20.5
			c0.3-5.9,0.2-11.1,0.9-16.2c0.2-1.9,1.8-4.1,3.4-5.3c6.6-5.1,13.6-9.8,20.3-14.7c1.1-0.8,1.8-2.2,2.6-3.3
			c-0.3-0.2-0.5-0.4-0.8-0.6c-7.4,5.5-14.7,10.9-22.1,16.4c-0.5-0.4-0.5-0.4-1-0.8c4.1-11,12-18.9,22.2-25c-0.5-0.6-1.1-1.2-1.6-1.8
			c-6.7,4.7-13.3,9.3-20.4,14.3c1.3-5.7,2.6-11.4,3.9-17.1c-0.7-0.3-0.6-0.3-1.2-0.6c-7,9.8-8.7,22-13,33.2
			c-4.6-4.7-6.8-9.2-4.4-15.4c0.9-2.3,0.6-5.2,0.6-7.8c0-0.8-0.9-1.6-1.7-2.9c-1.2,4.3-2.3,7.9-3.3,11.4c-1.1,0-0.9,0-2-0.1
			c-1.1-5.7-2.2-11.4-3.3-17.4c-0.9,0.7-1.3,0.8-1.4,1.1c-0.2,0.4-0.3,1-0.3,1.4c1,13.5,1.8,27,10.9,38.2c2.8,3.4,3.5,7.1,2,11.4
			c-4.4-2.8-7.7-5.8-8.1-11.3c-0.2-2.3-2.2-4.5-3.4-6.8c-0.5,0.2-1.1,0.4-1.6,0.6l1,9.9c-5.5-3.8-9.9-6.7-14.3-9.8
			c0,1.2-0.1,2.5-0.1,3.8c-0.6,0.1-1.1,0.2-1.7,0.4c-1.2-3.4-2.8-6.7-3.5-10.2c-0.7-3.7-0.4-7.6-0.6-11.4c-0.9,0-0.6,0-1.5-0.1
			c-0.7,4.9-1.5,9.8-2.2,14.7c-0.6,0.1-0.5,0.1-1.1,0.1c-1.3-3.7-2.7-7.4-4.5-12.4c-1.8,6.4,0.2,10.6,3.4,13.7
			c4.2,4,3.4,8.8,4.2,13.6c-9-0.8-11-2-14.8-8.8c-1.7-3-3.6-5.8-5.4-8.7c-0.5,0.3-0.9,0.5-1.4,0.8c2.1,3.9,4.1,7.8,6.5,12.3
			c-11.9-3.5-10.1-15.3-16.2-22.1l1.7,17.2c-10.1,0.7-17.4-3.8-23.7-11c-0.3,0.1-0.3,0.1-0.6,0.3l0.3,2.8
			C422.5,949,426.5,953.3,431.4,955.6z M497,971.9c7.2,5.9,8.6,20,2.3,26.3c-3.4-3.2-5.2-6.2-4.1-11
			C496.3,982.3,496.4,977,497,971.9z M493,986.2c-0.5,0.2-0.9,0.3-1.4,0.5c-2.1-7.4-4.2-14.8-6.3-22.4
			C494,963.7,495.8,974.1,493,986.2z M485.7,1001.6c5.4,4.8,5.1,10.7,5.1,16.3c0,0.6-2.8,1.9-3.8,1.6c-4.2-1.4-6.6-7-4.8-11.3
			C483.1,1006,484.4,1004,485.7,1001.6z M476.6,992c7.6,3.3,8.6,7.4,3,14.5c-0.9-3.5-1.8-6.3-2.4-9.1
			C476.8,995.7,476.8,993.9,476.6,992z M465,966.7c3.3,4,6.6,8.1,9.9,12.1c-0.4,0.3-0.9,0.7-1.3,1
			C467.2,978.2,464.8,973.5,465,966.7z M466.9,990.5c4.1,2.8,7.1,6.5,6.5,12.4c-0.4,4.1,0.7,8.4,1.2,13.3c-1.8-0.1-3.3-0.2-4.6-0.2
			c0.7-4.9,1.3-9.5,1.9-14.1c-0.4-0.1-0.9-0.1-1.3-0.2c-0.6,2.2-1.2,4.4-1.8,6.6c-0.4-0.1-0.9-0.1-1.3-0.2c0.2-3.8,0.3-7.7,0.5-11.5
			c-0.5,0-1-0.1-1.5-0.1c-0.7,6-1.4,12-2.2,18.6c-2.1-1.6-4.4-3.4-6.7-5.2c0.5-0.1,0.9-0.3,1.4-0.4c-0.5-4.3-1.4-8.7-1.5-13
			c0-2.1,0.8-5.3,2.2-6C461.7,989.3,465.2,989.3,466.9,990.5z"/>
		<path id="tree1" class="st1" d="M266.6,1029.7c2.3,1.1,5,1.5,7.6,2c2.6,0.6,4,2.1,3.5,4.7c-3.3-1.2-6.5-2.3-9.7-3.5
			c-0.1,0.3-0.1,0.2-0.2,0.5c3.2,1.7,6.3,3.4,9.5,5.2c-3,2.1-6,1.5-9.1,0.1l-0.2,0.8c1.6,0.9,3.2,1.8,5,2.8c-2.7,2.4-6,2.7-9.2,3.2
			l0.1,0.8c3.9,0.4,7.5-2.1,11.6-1.9c-0.2,1.5-0.4,2.8-0.6,4.1c-0.2,0-0.2,0-0.4,0.1c-0.4-0.7-0.8-1.4-1.2-2.2
			c-0.2,0.1-0.4,0.1-0.6,0.2c0.2,0.7,0.1,1.6,0.5,2.2c0.9,1.6,1.3,3.2,0.5,5.1c-1.2-1.7-2.3-3.4-3.5-5.1c-0.2,0.1-0.1,0.1-0.3,0.1
			c0.4,1.4,0.9,2.7,1.2,3.9c-0.6,0.4-1,0.6-1.4,0.9c0.3,0.3,0.6,0.8,1.1,1c0.5,0.3,1.1,0.4,1.7,0.5c1.6,0.2,2.1,0.8,1.5,2.2
			c-0.3,0.7-0.7,1.3-1.1,1.9l1.1,0.1c1.1-0.6,2.3-2.5,3.8-2.7c0.4-0.1,1.1-0.7,1.5-0.6c2.5,0.7,5.3,0.7,6.8,3.3
			c0.2,0.4,0.7,0.6,0.8,1c0.9,3.5-0.8,4.8-2.7,6.5c0,0,0.6,2-17.5,4h9.4c1.5,0.3,56.1,0,55.7-0.1c-23.9-5.5-44.5-0.4-31.5-12.6
			c0.7-0.6-0.6-1.2,0.1-2c1.2-1.3,1.7-3.2,2.8-4.6c1.5-1.9,3.6-2.9,5.2-4.7c1.6-1.9,3.1-4,4.7-5.9c0.3-0.3,0.3-0.7,0.6-1.4
			c-0.5,0.2-1.4,0.2-1.4,0.3c-3,5.4-8,8.1-12.6,11.7c-0.6,0.4-1.8,0-2.7,0c0.4-1.7,0.2-4,1.2-5.1c1.9-2,4.8-3.6,8.5-3.4
			c2.4,0.1,2.9,0.1,3.6-1.6c-2.4,0.5-4,0.1-6.5,0.6c1.9-3.7,4.3-4.6,7.3-6.1c-0.2-0.2-0.3-0.5-0.5-0.7c-2.1,1.3-4.2,2.7-6.3,4
			c-0.2-0.2-0.1-0.1-0.3-0.3c1.1-2.1,2.2-4.2,3.3-6.3c-0.2-0.2-0.2-0.1-0.4-0.3c-1.4,1.6-2.8,3.1-4.1,4.7c-0.9,1.2-1.6,2.7-2.6,3.9
			c-0.6,0.7-1.6,1-2.6,1.5c-0.1-0.8-0.1-1-0.1-1.2s0-0.5,0.1-0.7c1.1-3.1,2.6-5.8,5.9-7.2c2.9-1.2,4.7-3.7,6.6-6
			c-2.1,1-3.8,2.9-6.1,3.3c-0.1-0.2-0.1-0.2-0.2-0.4c1.8-2.3,3.5-4.5,5.3-6.8c-3.5,0.8-4.7,4.5-7.9,6.1l-0.3-2.8
			c-1.5,2.6-1,5.6-3.7,7.5c0.1-2.1,0.1-4,0.3-5.9c0.1-0.7,0.6-1.5,1.2-1.9c2.4-1.8,4.9-3.6,7.4-5.4c0.4-0.3,0.6-0.8,1-1.2
			c-0.1-0.1-0.2-0.1-0.3-0.2c-2.7,2-5.4,4-8.1,6c-0.2-0.1-0.2-0.1-0.4-0.3c1.5-4,4.4-6.9,8.1-9.1c-0.2-0.2-0.4-0.4-0.6-0.7
			c-2.4,1.7-4.9,3.4-7.4,5.2c0.5-2.1,1-4.1,1.4-6.2c-0.3-0.1-0.2-0.1-0.5-0.2c-2.6,3.6-3.2,8-4.7,12.1c-1.7-1.7-2.5-3.4-1.6-5.6
			c0.3-0.8,0.2-1.9,0.2-2.8c0-0.3-0.3-0.6-0.6-1.1c-0.5,1.6-0.8,2.9-1.2,4.2c-0.4,0-0.3,0-0.7,0c-0.4-2.1-0.8-4.2-1.2-6.3
			c-0.3,0.2-0.5,0.3-0.5,0.4c-0.1,0.2-0.1,0.3-0.1,0.5c0.4,4.9,0.7,9.8,4,13.9c1,1.2,1.3,2.6,0.7,4.2c-1.6-1-2.8-2.1-3-4.1
			c-0.1-0.8-0.8-1.6-1.2-2.5c-0.2,0.1-0.4,0.2-0.6,0.2l0.4,3.6c-2-1.4-3.6-2.5-5.2-3.6c0,0.4,0,0.9,0,1.4c-0.2,0-0.4,0.1-0.6,0.1
			c-0.4-1.2-1-2.5-1.3-3.7c-0.3-1.4-0.2-2.8-0.2-4.2c-0.3,0-0.2,0-0.5,0c-0.3,1.8-0.5,3.6-0.8,5.4c-0.2,0-0.2,0-0.4,0
			c-0.5-1.4-1-2.7-1.6-4.5c-0.7,2.3,0.1,3.9,1.2,5c1.5,1.5,1.2,3.2,1.5,4.9c-3.3-0.3-4-0.7-5.4-3.2c-0.6-1.1-1.3-2.1-2-3.2
			c-0.2,0.1-0.3,0.2-0.5,0.3c0.7,1.4,1.5,2.8,2.4,4.5c-4.3-1.3-3.7-5.6-5.9-8l0.6,6.3c-3.7,0.3-6.3-1.4-8.6-4
			c-0.1,0.1-0.1,0-0.2,0.1l0.1,1C263.4,1027.3,264.8,1028.9,266.6,1029.7z M290.5,1035.6c2.6,2.1,3.1,7.3,0.8,9.6
			c-1.2-1.2-1.9-2.3-1.5-4C290.2,1039.4,290.3,1037.5,290.5,1035.6z M289,1040.8c-0.2,0.1-0.3,0.1-0.5,0.2c-0.8-2.7-1.5-5.4-2.3-8.2
			C289.4,1032.7,290.1,1036.4,289,1040.8z M286.4,1046.5c2,1.7,1.9,3.9,1.9,5.9c0,0.2-1,0.7-1.4,0.6c-1.5-0.5-2.4-2.5-1.7-4.1
			C285.4,1048.1,285.9,1047.3,286.4,1046.5z M283,1043c2.8,1.2,3.1,2.7,1.1,5.3c-0.3-1.3-0.7-2.3-0.9-3.3
			C283.1,1044.3,283.1,1043.7,283,1043z M278.8,1033.7c1.2,1.5,2.4,2.9,3.6,4.4c-0.2,0.1-0.3,0.3-0.5,0.4
			C279.6,1037.9,278.8,1036.2,278.8,1033.7z M279.5,1042.4c1.5,1,2.6,2.4,2.4,4.5c-0.2,1.5,0.2,3.1,0.4,4.8c-0.7,0-1.2-0.1-1.7-0.1
			c0.2-1.8,0.5-3.5,0.7-5.1c-0.2,0-0.3,0-0.5-0.1c-0.2,0.8-0.4,1.6-0.7,2.4c-0.2,0-0.3,0-0.5-0.1c0.1-1.4,0.1-2.8,0.2-4.2
			c-0.2,0-0.4,0-0.5,0c-0.3,2.2-0.5,4.4-0.8,6.8c-0.8-0.6-1.6-1.2-2.4-1.9c0.2-0.1,0.3-0.1,0.5-0.2c-0.2-1.6-0.5-3.2-0.5-4.7
			c0-0.8,0.3-1.9,0.8-2.2C277.6,1042,278.9,1042,279.5,1042.4z"/>
		<path id="Halloweenbelowfloor" class="st1" d="M1103.7,1069.3c18.3,1.2,36,3.2,54.5,4c24,1.1,62.1-1.4,101-0.7
			c19.1-1.1,74.3,1.4,90.1,1.8l46.6-1.1c8.5,0.4,17.5,0.8,25.9,0.5c6.4-0.2,28,0,41.6,2.4c9.7,1.7,25.2-2,35-1.4
			c3.5,0.2,7.8-0.5,11.7-0.8c4.9-0.4,28.4-1.9,36.3-0.3c3.8,0.8,9.5,0.9,14.1,1.4c16.6,2,32.6,2.1,49.9,0.2
			c19.6-2.1,17.6,3.6,47.1,2c9.1-1.2,13.5,0.2,39.9,0.2c22.4,0,35,2.4,58,2.4l-1433-0.1c0,0-109.4-0.1-153-0.1
			c157.3-22.2,224.3-15.9,318.2-13.9c43.5-0.6,160.6-4.7,213.3-6.1c36.8-1,69.6,0.1,84.2-4.2c5.3-1.6,0,0,20.8-4.2
			s68.6,0.5,68.6,0.5c15.6-0.2,23.1,2.9,33.3,5c4.8,0.9,8.8,1.7,15.8,0.4c3.5-0.6,11.9,0,17.1,0.6c4.4,0.5,7.3,1.8,11.1,2.7
			c6.8,1.6,14.1,2.8,24.3,2.4c4.2-0.1,9.3,0.4,13.2,1c18.8,2.9,32.7,1.9,64.4,3.9L1103.7,1069.3z"/>
	</g>
	<g id="Halloweenbelowcharacter">
		<path id="bat2" d="M587.1,991.6c1.1-0.4,2.1-0.6,3.2-0.5c1.3,0.1,2.5,0.4,3.6,0.9c1.7,0.7,2.1,1.7,2.1,2.1c-0.3,1.7,0,2.6,0.8,3.7
			c0.2,0.3,0.5,0.7,0.8,1c0.2,0.3,0.5,0.2,0.7-0.1c0.5-0.6,0.6-1.2,0.7-1.9c0-0.1,0-0.3,0.1-0.3c0.2,0,0.3,0.1,0.3,0.2
			c0.1,0.4,0.2,0.6,0.3,1.3c0.1,0.9,0.8,1.2,1.4,0.6c0.2-0.2,0.6-0.6,0.9-0.8c0.1-0.1,0.3-0.2,0.4-0.1c0.1,0.1,0.1,0.3-0.1,0.5
			c-0.6,0.7-0.7,1.1-0.7,1.8c0,0.4,0,0.6,0.5,0.5c1.8-0.1,3.1-1,4-2.4c0.5-0.7,0.9-0.9,1.7-0.8c1.6,0.3,3,0.8,4.4,1.6
			c0.9,0.6,1.8,1.2,2.3,2.2c0.1,0.1,0.1,0.2,0.2,0.5c-0.3-0.2-0.4-0.2-0.6-0.3c-0.6-0.6-1.3-0.8-2-0.9c-1.1-0.2-2.4,0.5-2.9,1.5
			c-0.1,0.3-0.2,0.6-0.3,0.9c-0.1,0.4-0.3,0.4-0.6,0.1c-0.6-0.5-1.2-0.9-2-1c-0.7-0.1-1.5-0.2-2.3,1c-0.4,0.6-0.2,1.4-0.5,1.4
			s-0.6-2.7-2-2.9c-0.1,0-0.5,0-0.7,0.3c-0.5,0.7-0.9,1-1.7,1.3c-0.4,0.2-0.6,0.1-0.8-0.3c-0.4-0.7-0.6-1.5-0.6-2.4
			c0-0.3-0.4-0.6-0.7-0.6c-1.6-0.4-2.7,1.1-3,1s0.7-2.2-0.1-3.2s-2-0.9-3.1-0.9C591.9,993.2,590.3,991.9,587.1,991.6z"/>
		<path id="bat1" d="M485.5,893.2c0.8-1.9,2-3.4,3.5-4.7c1.8-1.5,3.8-2.5,5.9-3.3c3.1-1.2,4.9-0.5,5.4,0.2c1.7,2.6,3.3,3.3,5.8,3.8
			c0.7,0.1,1.5,0.3,2.2,0.3c0.6,0,0.8-0.4,0.8-1c-0.1-1.3-0.7-2.4-1.6-3.4c-0.1-0.1-0.3-0.3-0.2-0.6c0.2-0.3,0.5-0.2,0.6-0.1
			c0.7,0.4,1.1,0.5,2,1.3c1.3,1.1,2.5,0.6,2.5-0.9c0-0.6,0-1.5,0.1-2.2c0-0.2,0.1-0.7,0.4-0.7c0.3,0,0.5,0.3,0.5,0.7
			c0.2,1.6,0.5,2.3,1.3,3.2c0.4,0.5,0.8,0.7,1.4,0c2.2-2.3,2.8-5.2,2.3-8.2c-0.3-1.5,0.1-2.4,1.3-3.2c2.4-1.6,4.9-2.8,7.8-3.4
			c2-0.4,3.9-0.6,5.8,0.1c0.2,0.1,0.4,0.2,0.8,0.4c-0.5,0.1-0.9,0.3-1.2,0.2c-1.4,0-2.6,0.6-3.8,1.3c-1.7,1.1-2.6,3.7-1.9,5.6
			c0.2,0.5,0.4,1,0.6,1.5c0.3,0.6,0.2,0.9-0.6,0.9c-1.4,0-2.7,0.3-3.9,1.1c-1,0.7-2.2,1.7-1.7,4.3c0.2,1.2,1.5,2,1,2.5
			c-0.4,0.4-4.3-2.8-6.3-1.2c-0.2,0.2-0.7,0.6-0.6,1.4c0.2,1.5,0,2.5-0.6,3.9c-0.3,0.8-0.6,0.9-1.4,0.7c-1.4-0.5-2.7-1.2-3.7-2.4
			c-0.4-0.4-1.3-0.2-1.7,0.1c-2.6,1.5-2.2,4.9-2.7,5.2s-1.8-3.7-4.2-4c-2.3-0.2-3.7,1.3-5.2,2.8
			C493.9,889.3,490.1,889.5,485.5,893.2z"/>
		<path id="Witch" class="st3" d="M726,944c-0.3-0.2-0.6-0.3-0.9-0.5c-0.6-0.2-1.2-0.5-1.8-0.5c-1.2-0.1-2.4-0.3-3.5,0.4
			c-0.3,0.2-0.8,0.4-1.2,0.4c-1.2,0-2.5-0.1-3.7-0.1c-3.6,0.2-7.2,0.9-10.5,2.4c-0.8,0.4-1.6,1-2.2,1.7c-0.4,0.4-0.6,0.6-1.1,0.6
			c-0.3,0-0.5,0-0.8,0c-2,0-3.6,1.4-4.1,3.5c0,0.2-0.2,0.6-0.4,0.6c-1.2,0.3-2.5,0.6-3.8,0.9c-1.2,0.2-2.5,0.4-3.8,0.6
			c-1.2,0.2-2.4,0.5-3.5,0.7c-0.1-0.1-0.1-0.2-0.2-0.3c0.6-0.7,1.3-1.4,1.9-2.1c0.2-0.2,0.4-0.4,0.7-0.6c1.1-1.1,2.2-2.3,3.3-3.4
			c0.4-0.4,0.9-0.8,1.2-1.3c0.2-0.3,0.3-0.8,0.2-1c-0.2-0.3-0.6-0.4-1-0.6c-0.3-0.1-0.6-0.1-0.9-0.2c-1.2-0.4-2.3-0.4-3.4,0.2
			c-0.6,0.3-1.2,0.8-1.9,0.9c-1.5,0.2-3,0.3-4.4,0.1c-1.7-0.2-3.4-0.7-5.1-1.2c-0.9-0.3-1.9-0.6-2.6-1.4c0.8-0.1,1.6-0.2,2.3-0.3
			c0.8-0.1,1.5-0.3,2.3-0.6c0.4-0.2,0.9-0.7,0.9-1c0-0.8-0.2-1.8-0.6-2.5c-0.4-0.7-1.2-1.1-1.9-1.6c-0.4-0.3-0.9-0.6-1.5-0.9
			c1.1-0.5,2.5-0.3,2.6-1.9c0.1-1.3-0.7-2-1.6-2.7c0.7-0.7,1.4-1.4,1.9-2.1c1-1.3,2.4-1.6,4-1.6c0.8,0,1.6,0.1,2.4-0.1
			c1.7-0.5,3.4-1,5.1-1.6c0.7-0.3,1.4-0.8,2.1-0.9c0.7-0.1,1.2-0.5,1.2-1c0-0.6-0.2-1.3-0.6-1.8c-0.9-1.1-2.4-1.3-3.7-1.9
			c-0.6-0.3-1.3-0.3-2-0.5c-1.1-0.2-2.3-0.3-3.4-0.4c-1.9-0.3-3.7-0.7-5.6-0.8c-1.9,0-3.9,0.2-5.8,0.6c-1.4,0.3-2.8,1.1-4.1,1.8
			c-1.1,0.6-1.9,1.5-3,2.1c-0.8,0.4-1.5,1-2.1,1.7c-0.7-0.6-1.2-1.4-1.7-2.2c-0.5-1-1.3-1.7-2.3-2.2c-0.7-0.3-1.4-0.9-2.1-1.2
			c-0.5-0.3-1.1-0.4-1.6-0.6c-0.4-0.1-0.5,0-0.4,0.4s0.3,0.9,0.5,1.4c-0.2,0-0.4,0-0.5,0c-0.7,0-1.4-0.1-2.1-0.1l0.4,0.6
			c0.4,0.2,0.8,0.4,1.2,0.7c0,0.1,0,0.1,0,0.2c-0.6,0.8-0.7,1.6-0.5,2.5c0.1,0.5,0,0.9-0.3,1.2s-0.3,0.6,0.1,0.9
			c0.2,0.2,0.3,0.4,0.5,0.6c0.4,0.6,1.1,0.6,1.7,0.6c0.1,0,0.2,0,0.3,0c-0.1,0.6-0.1,1.2-0.2,1.8c0,0-0.6,0.7-1.3,1.8
			c-0.9,0.2-1.8,0.3-2.7,0.3c-2,0-3.9,0.4-5.7,1.2c-0.8,0.4-1.5,1.1-2,1.7c-0.4,0.5-0.5,1.2-0.8,1.8c-0.4,1.1-0.4,1.2,0.6,1.9
			c0.6,0.4,1.2,0.5,2,0.4c0.8,0,1.6,0,2.5,0c-0.1,0.6-0.3,1.1-0.3,1.6c0,0.7-0.1,1.2-0.8,1.5c-0.3,0.1-0.4,0.4-0.6,0.7
			c-1,1.4-1.5,3-1.5,4.7c0,1.8,1.2,2.7,2.9,2.1c0.4-0.1,0.8-0.4,1.2-0.6c0.1,0.3,0.2,0.5,0.4,0.7c0.4,0.5,0.8,1.1,1.3,1.3
			c1.5,0.5,3.2,0.8,4.8,0.2c0.7-0.3,1.5-0.5,2.3-0.7c-0.6,1.1-1.2,2.1-1.6,2.9c-0.9,0.3-1.7,0.6-2.5,0.9c-0.3,0.1-0.6,0.2-0.8,0.3
			c-1.6,0.1-3.2-0.3-4.8-0.6c-1-0.2-2-0.5-2.9-0.7s-1.8-0.3-2.8-0.5c-2-0.4-4-1.1-6.1-0.9c-1.1,0.1-1.9,0.7-2.2,1.7s0,1.6,1.1,2.3
			c1.3,0.9,2.8,1.4,4.4,1.7c2.2,0.5,4.3,0.8,6.5,1.1c2.1,0.3,4.1,0.5,6.2,0.7c0.4,0,0.7,0.2,1.2,0.4c-0.8,1-0.7,1.9-0.2,2.8
			c0.4,0.5,1,1,1.5,1.4c1.3,0.9,2.9,0.7,4.4,0.8c1.1,0.1,2.3,0,3.4,0.1c1.3,0.1,3.2-0.8,3.5-1.8c0.3-0.9,0.9-1.2,1.6-1.6
			c0.4-0.2,0.8-0.2,1.2,0.1c1.4,0.8,2.9,1.2,4.4,1.1c1.2-0.1,2.5-0.4,3.5-1c1.6-0.9,3.2-1.6,5.1-1.6c2.1,0,4.2-0.7,6.2-1
			c3.1-0.5,6.2-1.3,9.2-2.3c0.8-0.3,1.6-0.8,2.4,0.1h0.1c0.9-0.1,1.9-0.3,2.8-0.4c0.9-0.2,1.6-1,2.6-0.7c1.6,0.5,3.3,0.4,4.9,0.1
			c3.6-0.6,7.1-1.7,10.2-3.7c0.6-0.4,1.3-0.5,1.9-1c1.3-1.1,2.6-2.3,3.4-3.7c0.3-0.5,0.6-1.1,0.9-1.6c0.2-0.4,0.3-0.9,0.6-1.3
			C726.4,944.5,726.5,944.2,726,944z"/>
	</g>
</g>
<g id="Halloweentop">
	<g id="starlight">
		<polygon id="star6light" class="st0" points="1721.4,69.1 1727.5,81.4 1741.1,83.4 1731.2,93.1 1733.6,106.6 1721.4,100.2 
			1709.2,106.6 1711.5,93.1 1701.6,83.4 1715.3,81.4 		"/>
		<polygon id="star5light" class="st0" points="1363.4,82.7 1368.2,92.4 1378.9,94 1371.2,101.5 1373,112.2 1363.4,107.2 
			1353.9,112.2 1355.7,101.5 1347.9,94 1358.6,92.4 		"/>
		<polygon id="start4light" class="st0" points="1047.9,61.4 1052.7,71.1 1063.4,72.7 1055.6,80.2 1057.4,90.9 1047.9,85.8 
			1038.3,90.9 1040.1,80.2 1032.4,72.7 1043.1,71.1 		"/>
		<polygon id="start3light" class="st0" points="864.3,82.9 870.3,95.1 883.8,97.1 874.1,106.5 876.4,119.9 864.3,113.6 
			852.3,119.9 854.6,106.5 844.9,97.1 858.3,95.1 		"/>
		<polygon id="start2light" class="st0" points="679.3,84.7 684.1,94.4 694.8,95.9 687.1,103.5 688.9,114.1 679.3,109.1 
			669.8,114.1 671.6,103.5 663.8,95.9 674.5,94.4 		"/>
		<polygon id="start1light" class="st0" points="310.6,47.5 320.2,66.9 341.5,70 326.1,85.1 329.7,106.4 310.6,96.3 291.5,106.4 
			295.1,85.1 279.6,70 301,66.9 		"/>
	</g>
	<path id="Halloweentopscenery" class="st4" d="M400.5,41.4C403,39,404.3,41,405,42c0.9,2.5,0.4,4.9,1.2,7.4c0.8,1.6,1.8,2.6,2.4,0
		c0.4-3.6,0.9-7.2,1.3-10.9c0.2-3.5,3.2-6.5,3.6,0c0.3,16.3-0.7,32.2-0.4,48.5c0,7,4,9,6.6,0.3c4.4-17.9-4.4-54.1,0.5-56.7
		s8,9.4,12.3,12c2.4,1.4,8.7,2.2,11.2,0.3s-0.2-6.4-2.3-8.3c-2.3-2.2-7.7-2.4-10.4-4.4c-1.7-1.3-3-3.8-0.9-6.5C432,21,443,18,450,20
		c2.5,0.7,9.7,4.1,8,7c0,8,7,6.3,10.4,5.9c2.3-0.3,11.8,1.6,7.8,5.8C469,46,468,48,470,53c2,4,5.8,2.9,7,2c2.2-1.7,2.6-3.5,2.9-5.6
		c1.1-7.5,9.1-5.3,14.6-6.9c5.5-1.5,11.4-9,20.1-3.6c6.1,3.8,8.4,8.3,5.7,14.3c-1.3,3-1.5,6.6-0.8,9.7c0.4,1.6,2.6,4.1,6,4.1
		c3.4-0.1,5-3.8,4.8-5.6c-0.3-3.8-2.4-7.4-3.8-11.1c-1.5-4,0.5-5.4,6-5.8c8.4-0.6,11.3,2.4,27.2-4.7c3.1-1.4,6.2-11.9,25.6-10.4
		c0.8,0.1,1.8-0.1,3-0.5c3.6,0.1,5.6-6.1,10.9-2.1c2.7,5,1.1,6.2,0.9,8.6c-0.5,6.9-1.6,5.8-1.9,12.7c-0.1,2,0.9,4.7,2.7,6
		c1.4,0.9,5.1,1.7,7.2-0.1c1.6-1.4,2-4,1.7-6.1c-1-8.2-3.1-8.3-3.5-16.4c-0.1-1.3,1.6-2.7,3.4-4.1c1.2,0.3,2.4,0.6,3.3,0.3
		c12.1-3.4,9.7-0.1,20,6.1c5,3,9,1,15,1c5,2,5.4,6,5.2,8.4c-0.5,6.9-1.6,13.8-1.9,20.7c-0.1,2,0.8,4.8,2.7,6c3.1,2,6,0.9,7.2-0.1
		c1.6-1.3,2-4,1.7-6.1c-1-8.2-3.1-16.3-3.5-24.4c-0.1-2.2,1.6-6.5,6.9-6.8c5.7,0.4,5.6,2.9,6.7,5.4c1.1,2.5-3,5-1.2,9.6
		c1.2,1.4,3.3,2.4,4.7-0.1s-0.2-8.8,0.1-10.6s0.4-3.5,2.5-4.5c2.8-1.3,5.2,0,6.2,1.1c5.1,5.2,10.9,5.1,17.9,2.5
		c2-0.8,6.8-3.3,8.7-0.1s-0.6,10.8-1.4,15.8c-0.7,4.9,1.2,11.6,7.3,11s4-7.6,3-9.6c-2.8-5.5-3.4-4.8-4.4-10.9
		c-1.6-9.6,4.9-14.1,17.4-12.1c7.3,1.1,13.6,3.9,14.3,9.8C749,46,752,49,755,49c8,0,6-7,4-9s-3-2-4.2-2.7c-4.4-2.5-8.7-6.1-1.6-9.9
		c6.8-3.6,14.7,1.9,17.9,5.6c6,7,12,4,14,2c2.2-2.2,4-7-5-10c-3-1-7.4-1-3.6-3.6C780,19,784.7,19,789,19c18,0,24.7,5.1,24.5,20.3
		c0,2.8-0.2,5.6-0.3,8.5c-0.2,2.8-1.2,5.4-0.7,8.3s3.1,4.2,4.5,1.9c0.9-2.2,1.7-5.7,1.8-8c0.2-4.9-0.9-9.8-0.1-14.6
		c0.4-2.3,2.6-6.2,5.9-6.3s4.1,4.8,4.6,7.4c0.6,2.9-0.7,4.4-1,8.9s3.7,3.6,3.8,0.2c0-4.2-3.9-16.5,0-15.1s8,9.5,17,7.5
		c5-2,4.7-2.8,8.9-2.9C863,35,862,39,866,39c5,0,5.7-4.6,8.9-4.3S880,34,883,33s9-2,18,4c3,2,10,2,15,0c4-1,7-2,11,0
		c2.2,1.1,7.7,0,8.2,4.2c0.8,6.8-1.5,9.7-2.3,14.5c-0.8,5,2.1,9.3,6.1,6.3s1.3-14.7,0.6-22c-0.7-7.2,3.5-10.5,13.2-10.3
		c8.5,0.1,14.8,2.7,18,9.2c1.2,2.4,1,6.5,6.2,9.1c4,2,7.1-1.3,6-5c-0.9-3.3-5-6-7.3-7.1c-5.9-3-4.1-7.4,2.9-9.2
		c9.2-2.4,15.3-0.3,20.4,6.1c4,4.9,5.3,9.5,10.9,13.3c6.9,4.6,11,3,13,2c5.6-2.8,2.5-8.9-1.3-10.8c-5.6-2.9-11.7-5.3-17.2-8.3
		c-2.5-1.4-9.9-3.3-7.2-6.6S1007,22,1019,22c6,0,9.7-3,12.4-3.9c3.6-1.1,5.8,1.4,6.2,2.7c1.4,4.1,7,5,9.9,4.3
		c4.5-1.2,6.9,1.3,7.4,2.6c0.8,2.2-4.9,4.2-7.9,7.2c-1.9,1.9-3.7,6.5,0.7,7.8c4.3,1.2,8.9-4.8,10.6-8c2.4-4.4,6.9-7.2,12.6-5.5
		c3.2,1,5.8,5,6.7,8c1,3.4,0.4,7.4-0.7,10.8c-2.9,8.8-1.9,10.8-1.1,11.7c1.6,1.8,3.5,1.4,5.2-0.9c3-4-3.5-16.7,2.1-26.1
		C1085,27,1104,26,1102,33s-2.3,12.5,1,14c2.7,1.2,4,0,4-1.6c0-3.4-2-7.4-1-10.4c1-3.1,2.4-3.5,4.7-3.2s3.6,1.8,4.1,3
		c0.7,1.6,0.5,3.6,0.3,5.4c-0.8,7.9-4.5,19.8-2.3,23.8s5.2,3.5,8.2,0.3s-2.1-22.5-0.5-28.8s2.5-2.4,4.5-1.4s9.4-5.5,13-5
		s5.8,7.3,8.6,12c2.3,3.9,5.9,5.8,11.5,4.1c6.8-2.1,10.8,0.2,14.2,4.3c3,3.6,4.3,11.4,9.5,12s4.9-8.3,7.6-7.9s1.6,6.2,1.5,8.4
		c-0.5,9.3-3.2,11.7-3.9,21c-0.3,3.5,1.4,14.5,7.8,14.4c6.7-0.2,5.6-11,5.2-14.4c-1.3-10.2-4.4-13.8-5-24c-0.3-6,5.1-7.5,7.3-7.6
		c5.8-0.2,5.9,4,5.6,7.6c-0.2,3.5-2.7,7.5-0.1,10.5c2.1,2.4,4.3,0.6,5.1-0.6c3-4-5-17-1-20s6.4,1.8,7,2.6c4.4,6,9.7,7,17.6,3.1
		c4.5-2.2,6.6,0.6,6.4,3.9c-0.5,7-1.3,5.1-2,12.1c-0.4,4.3,2.5,9.2,6,8.3c4-1,4-4,2.5-9c-1.9-6.3-2-4.1-2.7-10.6
		c-0.5-5.3,0.5-10.2,9.2-11.4c8.2-1.1,14.7,1.9,17.5,8.1c1,2.1,0.4,4.8,1.5,6.9c2,4,6,4.4,9,2.7s1.8-5.3,0.1-6.5
		c-3.1-2.2-5.4-3.3-7.1-5.2c-4.3-5-0.6-9.3,7-10.8c6.9-1.4,11.8,0.5,14.5,5.5c2.7,4.8,6.5,5.3,10.5,4.3c7.3-1.8,7-11,13-9s4,18,3,24
		s0.7,8.9,3.9,8.6c3.4-0.3,2.3-4.4,1.4-7.9c-2-8.4-1.6-20.9-0.3-25.9c1-3.8,2-4.7,4-4.7c3,0,4.9,3,5.3,4.6c0.6,2.4,1.4,2.9-1.4,9.4
		c-3,7-1.7,8.3,0,10c1,1,2.7,1.5,4.3-0.8s-2.7-14.2,0-17.7s11.8,9.6,16.7,8.5s2.7-4.8,6.3-6.4s5.6,5.4,17.5-2.5
		c3.7-2.4,3.7,5.9,3.1,8.9c-1,5,0,13-2,24c-1.1,5.9,0,13,5.7,11.6c4-1,3.3-7.6,2.3-14.6c-1.6-11-3.3-13.3-3-24s2-12,3-13
		c0.9-0.9,3-1.3,4,0c1.4,1.9-2,5,1.9,6.7c1.1,0.5,2.5,0.2,3.1-1.7c1-3-3.1-5.1,0-11c1-2,2-5,9.1-4c5.7,0.8,7.1,8.3,10.9,10.6
		c2.1,1.3,6.9,3.2,9.9,0.3s-0.2-5.6-2-7.4c-2.1-1.9-6.6-2.3-9.2-3.9s-5-3.9-0.8-5.7s20.7-1.6,23.5-1.7c3.7-0.2,8.7,1.8,4.3,6.4
		c-2.2,2.1,3.3,3.9,6.3,3.5c2-0.2,6-0.1,6.9,5.1c0.3,2-1.9,3.5-2.9,5.8c-0.9,2.2-1.6,3-2.3,7.5s2.4,9.3,6.3,6.5s2-7,2.2-10.3
		c0.4-6.7,10-4.5,12.9-6.1s10.1-8,17.9-3.2c5.4,3.3,6.3,7,5.1,12.7c-1,4.8-2,3.7-2,8.8c0,3,2.7,6.4,6,6s5.8-4.1,5-7.6
		c-1-4.4-2.1-6.6-3.3-9.9c-1.3-3.6,0.4-4.8,5.3-5.1c7.5-0.5,6.2-4.8,12-6.5s9.8,2,14,2c4,0,5.7-3,7.2-5.6
		c8.8-15.4,25.4-13.2,31.6-6.2c1,1.1,4.7,2,6.4,1.5c10.7-3,14.3-2.7,17.8,4.3c2,4,3.6,7.7,7.3,7.8c4.7,0.2,7.7-1.8,9.8-6.1
		c0.4,3.4,1.7,7.1,2,9.3c1,10-2.6,10.6-2.9,16.8c-0.1,1.8,0.8,4.2,2.4,5.3c1.2,0.8,5.3,0.8,6.4-0.1c1.4-1.2,1.8-3.6,1.5-5.4
		c-0.9-7.2-5.9-7.7-2.4-21.6c2-8,3.9-6.3,5.5-6.2s4.2,3.8,5.1,6c1,2.3,0.9,3.4,0.7,7.3s2.9,5,3.3-0.1s-0.2-6.3,0.1-9.4
		c0.1-1.4,0.2-2.4,2.2-4s4.6,0,5.5,0.9c4.6,4.6,9.7,4.6,15.9,2.2c1.8-0.7,5.8-3.4,7.7-0.1s0.3,9.8-1.2,14C1666,50,1667,58,1672,58
		c4,0,2.7-6.2,2-9c-1-4-1-7-0.9-12.8c0.1-8.6,4.3-12.5,15.4-10.8c6.5,1,10.3,4,12.7,8.7c0.9,1.9,2.8,6.8,7.8,6.8c2.2,0,4-2,3-5
		s-5.1-2.5-7-4c-3.6-2.8-5.9-5.6,0.4-8.8C1712,20,1718,20,1724,23c3.1,1.6,4,4,6.6,11.7c4.5,13,10.2,13.8,11.4,10.3
		c2-6-7-14-10.7-20.2s1.2-10.7,5-11C1779.8,11,1785.6,0,1820.8,0c9,0-1728.1-0.5-1722,0c15.7,1.4,35.1,8.1,71.2,11.2
		c36.1,3,57.4-5.4,76.3,8.2c7.6,5.5,16.6,2.2,19.7,9.1c1.1,2.4,1.9,4.8,3.1,7.2c1.6,3.3,4.6,4.9,8.6,3.3c3.9-3.4,2.6-5.6,1-8
		c-2-3-5.4-2.7-7.3-4.8c-4.9-5.6-2.4-13.4,6.4-12.2c2.6,0.4,7.6-1.4,10.7,4.2c3,5.4,6.1,0,12.1,1.8c5.7,1.7,2-5.9,13.9-3.1
		c4.6,3.5-1.9,17.2,8.1,27.2c2,2,5,4,7.5,2.5c4.5-4.5-1.3-8.2-0.2-10.9c3.8-9.6-0.6-12.3-0.3-22c0-1.8,1.1-4.5,4.3-2.5
		c2.1,1.7,3.8,4,5.1,9c1.1,4.2,1.2,10.5,0.4,14.8c-0.7,4.3-1.4,8.1,1.3,11.3c1,1,3.5,3.1,5,0.5c7-9.5,4.2-16.8,1-25.5
		c-3-10,8,11,15.7,11.4c6.3,0.3,4.9-7.2,7.1-7.3C371.8,25,373,41,385,46C394.9,50.1,400.5,41.4,400.5,41.4z"/>
	<g id="Halloweentopcharacter">
		<polygon id="star6" class="st4" points="1721.7,69 1727.8,81.4 1741.4,83.4 1731.6,93 1733.9,106.6 1721.7,100.2 1709.5,106.6 
			1711.8,93 1701.9,83.4 1715.6,81.4 		"/>
		<g id="bat">
			<path id="batbody" class="st4" d="M1577.8,110.4c0.1-1.7,0.2-3.2,0.4-4.7c0.4-3.2,0.9-6.4,1.3-9.6c0-0.3-0.1-0.7-0.1-1.1
				c0-0.3-0.1-0.7,0.1-0.9c0.4-0.8,0.3-1.3-0.7-1.5c-0.2,0-0.4-0.2-0.6-0.4c-2.6-1.7-5.2-3.5-7.8-5.1c-2.3-1.5-2.5-1.5-1.9-4.2
				c0.8-3.6,0.8-7.1-0.8-10.5c-0.8-1.8-2.2-3.3-2.1-5.6c-1.7,1.7-3.5,3.4-4.7,5.3c-2,3.1-2.8,6.5-1.5,10.2c0.7,2,0,3.1-2.1,3.4
				c-1.4,0.3-2.9,0.2-4.3,0.4c-1.7,0.2-3.4,0.6-3.8-2c-2.7,3.7-5.2,7.1-7.8,10.5c-1.2,1.6-1.7,1.7-3.1,0.2c-1.8-2-3.8-3.7-6.3-4.6
				c-2.1-0.8-4.4-1.2-6.6-1.8c-1.3-0.3-1.8,0.1-1.4,1.4c0.7,2.2,1.3,4.4,2.1,6.5c1.4,3.6,3.8,6.2,7.7,7.2c1.5,0.4,1.8,0.9,1.8,2.4
				c-0.1,2.7-0.1,5.5-0.3,8.2c-0.1,1.1,0.3,1.8,1.2,2.4c4.5,3,8.9,6.3,14,8.1c0.3,0.1,0.7,0.6,0.7,1c0,0.3-0.4,0.7-0.8,0.9
				c-0.3,0.1-2.2,0.4-2.5,0.4c-1,0-1,3,2.6,3.7c0.8,0.3,1.6,0.5,2.4,0.8c3.1,1.1,5.9,2.9,8.9,4.3c0.4,0.2,0.8,0.1,1.3,0.1
				c0-0.4,0.1-0.8,0-1.1c-0.3-1.7,0-2.2,1.7-2.3c4.1-0.2,7.3-2,9.9-5c0.8-1,1.7-1.9,2.6-2.9c0.5-0.5,1-0.7,1.6-0.1
				c1.6,1.6,2.6,1.3,3-1.3c0-0.3,0.1-0.6,0.1-0.8c-0.4-2.5,0-4.8,0.6-7.2c0.5-3.2,1.5-9.2-2.1-6.2
				C1579.8,109.8,1579,112,1577.8,110.4z"/>
			<g id="lefteye">
				<path id="eyebackground" class="st5" d="M1543.7,97.9c-3.9,1.9-5.5,5.9-3.3,10.2c1.6,3.2,5.8,4.4,9.4,2.7c4.1-1.6,5-6.1,3.8-8.6
					C1551.4,97.7,1547.6,96.1,1543.7,97.9z"/>
				<path id="eye" class="st4" d="M1545.7,105c-0.9,0.5-1.2,1.2-0.8,2.1c0.4,0.9,1.3,1.3,2.1,0.9c0.8-0.4,1-1.4,0.5-2.4
					C1547.1,104.5,1546.5,104.6,1545.7,105z"/>
			</g>
			<g id="righteye">
				<path id="eyebackground_1_" class="st5" d="M1564.6,89.8c-3.3-0.4-5.9,0.9-7.9,3.3c-0.4,0.5-0.8,1.2-0.9,1.8
					c-0.4,3.3,0.7,6,3,8.4c1.1,1.1,2.4,1.4,3.9,1c0.6-0.1,1.3-0.2,1.9-0.3c5.3-1.2,6.4-6,4.8-10.2
					C1568.3,92,1567.1,90.1,1564.6,89.8z"/>
				<path id="eye_1_" class="st4" d="M1561,97.7c-1,0.4-1.3,1.4-0.8,2.3c0.5,0.8,1.1,1.3,2.1,0.8c0.9-0.4,1.2-1.3,0.6-2.3
					C1562.6,97.6,1561.9,97.4,1561,97.7z"/>
			</g>
			<path id="rightbatbodywing" class="st4" d="M1609.4,93.4c-5.2-5.9-14.5-8.5-20.7-6.2c-5.8,2-7.7,8.1-7.7,13
				c0,3.5-1.2,7.8-3.5,13.7s0.1,6.5,1.4,3.4c4.4-8.7,11.5-4.7,11.5-4.7s-0.4-5.8,4.5-8c2.5-1.1,7.3,1.7,7.3,1.7s0-2.5-0.3-3.5
				c-1.2-3.7,1.9-6.6,4.8-6.6c3.5,0,4.8,1.3,5,1C1611.7,96.9,1610,94.2,1609.4,93.4z"/>
			<path id="leftbatbodywing" class="st4" d="M1519.2,144.9c-2.5-7.4-0.1-16.7,5-21.1c4.7-4,10.9-2.6,15.1-0.2
				c3,1.7,7.4,2.9,13.6,3.8c6.3,0.9,5.6,3.4,2.3,2.9c-9.7-0.5-9.8,7.5-9.8,7.5s-4.8-3.3-9.2-0.1c-2.2,1.6-2.2,7.2-2.2,7.2
				s-2.2-1.2-2.9-2c-2.6-2.9-6.7-1.7-8.1,0.9c-1.7,3-1.2,4.8-1.6,4.8C1521,148.6,1519.5,145.8,1519.2,144.9z"/>
		</g>
		<polygon id="star5" class="st4" points="1363.7,82.7 1368.5,92.4 1379.2,94 1371.5,101.5 1373.3,112.2 1363.7,107.1 1354.2,112.2 
			1356,101.5 1348.3,94 1359,92.4 		"/>
		<g id="spider2_1_">
			<path id="leftleg4" class="st4" d="M1306.4,171.4c-3.1,3.4-6.7,10.7-2.4,18.6c0.8-6,1-11,6.6-16.8
				C1314.1,169.6,1309.5,168,1306.4,171.4z"/>
			<path id="leftleg3" class="st4" d="M1306.2,168.6c-4.4,1.4-11.2,5.9-11.4,14.9c3.7-4.8,6.3-9,14.1-11.2
				C1313.7,170.9,1310.5,167.2,1306.2,168.6z"/>
			<path id="leftleg2" class="st4" d="M1306.9,166.6c-4.6-0.4-12.6,1-16.3,9.2c5.3-3,9.4-5.8,17.4-4.8
				C1313,171.6,1311.5,167,1306.9,166.6z"/>
			<path id="leftleg1" class="st4" d="M1307.3,162.8c-3-2-11-10-10-21c-4,6-5,8,7,24c0.5,0.7,2.4,2.6,4,1
				C1309.3,165.8,1308.6,163.7,1307.3,162.8z"/>
			<path id="righleg4" class="st4" d="M1323.6,171.4c3.1,3.4,6.7,10.7,2.4,18.6c-0.8-6-1-11-6.6-16.8
				C1316,169.6,1320.6,168,1323.6,171.4z"/>
			<path id="righleg3" class="st4" d="M1323.9,168.6c4.4,1.4,11.2,5.9,11.4,14.9c-3.7-4.8-6.3-9-14.1-11.2
				C1316.4,170.9,1319.5,167.2,1323.9,168.6z"/>
			<path id="righleg2" class="st4" d="M1323.1,166.6c4.6-0.4,12.6,1,16.3,9.2c-5.3-3-9.4-5.8-17.4-4.8
				C1317.1,171.6,1318.6,167,1323.1,166.6z"/>
			<path id="righleg1" class="st4" d="M1322.7,162.8c3-2,11-10,10-21c4,6,5,8-7,24c-0.5,0.7-2.4,2.6-4,1
				C1320.7,165.8,1321.5,163.7,1322.7,162.8z"/>
			<path id="spider_x5F_body" class="st4" d="M1323.1,168.5c2-3.3,5-7.9,5-15.3c0-11.4-13.1-21.3-13.1-21.3s-12.2,9.3-12.2,20.7
				c0,7.4,4.3,13.6,5.3,15.8s1.4,3.7,1,5.5c-1,4.4,0.6,8.7,3,8.7c2,0,1-4.4,3-4.4s2,4.4,4,4.4s4-4.4,2.6-9.8
				C1321.5,171.9,1321.8,170.6,1323.1,168.5z"/>
		</g>
		<line id="spiderline2" class="st6" x1="1314.1" y1="-0.1" x2="1314.1" y2="155"/>
		<polygon id="start4" class="st4" points="1048.2,61.4 1053,71.1 1063.7,72.6 1055.9,80.2 1057.8,90.8 1048.2,85.8 1038.6,90.8 
			1040.4,80.2 1032.7,72.6 1043.4,71.1 		"/>
		<polygon id="start3" class="st4" points="864.7,82.9 870.7,95.1 884.1,97 874.4,106.5 876.7,119.9 864.7,113.6 852.6,119.9 
			854.9,106.5 845.2,97 858.6,95.1 		"/>
		<polygon id="start2_1_" class="st4" points="679.3,84.7 684.1,94.4 694.8,95.9 687.1,103.5 688.9,114.1 679.3,109.1 669.8,114.1 
			671.6,103.5 663.8,95.9 674.5,94.4 		"/>
		<path id="candy" class="st4" d="M573.7,121.7c3.9-1.2,6.8-3.2,6.4-4.5c-0.4-1.2-3.7-1.3-7.5-0.2c2.3-3.2,3.4-6.3,2.3-7.1
			c-1.1-0.8-4,1.2-6.5,4.5c-1,1.3-1.7,2.6-2.3,3.7c-3.2-4-8.5-5.8-13.7-4.3c-6.2,1.9-9.9,8.1-8.8,14.4c-1.1-0.8-2.8-1.7-4.7-2.3
			c-3.9-1.3-7.5-1.4-7.9-0.1c-0.4,1.2,2.2,3.2,5.9,4.6c-3.8,1.2-6.5,3.2-6.1,4.4c0.4,1.3,3.9,1.3,7.9,0.1c-2.5,3.3-3.6,6.6-2.6,7.4
			c1.1,0.8,4-1.2,6.5-4.5c1.4-1.8,2.4-3.7,2.8-5.1c3,4.8,8.9,7.2,14.5,5.5c5.8-1.8,9.4-7.4,9-13.2c0.9,0.5,2,1,3.2,1.4
			c3.9,1.3,7.5,1.4,7.9,0.1C580.5,125.1,577.7,123.1,573.7,121.7z"/>
		<line id="candyline1" class="st6" x1="556.2" y1="-3.1" x2="556.2" y2="126"/>
		<g id="spider1">
			<path id="leftleg4_1_" class="st4" d="M407.5,249.2c-2.4,2.6-5.2,8.2-1.8,14.2c0.6-4.6,0.7-8.4,5-12.9
				C413.4,247.8,409.9,246.6,407.5,249.2z"/>
			<path id="leftleg3_1_" class="st4" d="M407.3,247c-3.4,1.1-8.6,4.5-8.7,11.4c2.8-3.7,4.9-6.9,10.8-8.6
				C413.1,248.8,410.7,245.9,407.3,247z"/>
			<path id="leftleg2_1_" class="st4" d="M407.9,245.5c-3.5-0.3-9.6,0.8-12.5,7.1c4.1-2.3,7.2-4.5,13.3-3.7
				C412.5,249.3,411.4,245.8,407.9,245.5z"/>
			<path id="leftleg1_1_" class="st4" d="M408.2,242.6c-2.3-1.5-8.4-7.7-7.7-16.1c-3.1,4.6-3.8,6.1,5.4,18.4c0.4,0.5,1.9,2,3.1,0.8
				C409.7,244.9,409.2,243.2,408.2,242.6z"/>
			<path id="righleg4_1_" class="st4" d="M420.7,249.2c2.4,2.6,5.2,8.2,1.8,14.2c-0.6-4.6-0.7-8.4-5-12.9
				C414.8,247.8,418.3,246.6,420.7,249.2z"/>
			<path id="righleg3_1_" class="st4" d="M420.9,247c3.4,1.1,8.6,4.5,8.7,11.4c-2.8-3.7-4.9-6.9-10.8-8.6
				C415.1,248.8,417.6,245.9,420.9,247z"/>
			<path id="righleg2_1_" class="st4" d="M420.3,245.5c3.5-0.3,9.6,0.8,12.5,7.1c-4.1-2.3-7.2-4.5-13.3-3.7
				C415.7,249.3,416.8,245.8,420.3,245.5z"/>
			<path id="righleg1_1_" class="st4" d="M420,242.6c2.3-1.5,8.4-7.7,7.7-16.1c3.1,4.6,3.8,6.1-5.4,18.4c-0.4,0.5-1.9,2-3.1,0.8
				C418.5,244.9,419.1,243.2,420,242.6z"/>
			<path id="spider_x5F_body_1_" class="st4" d="M420.3,247c1.5-2.5,3.8-6,3.8-11.7c0-8.8-10.1-16.3-10.1-16.3s-9.3,7.1-9.4,15.9
				c0,5.6,3.3,10.5,4.1,12.1c0.8,1.7,1.1,2.8,0.8,4.2c-0.8,3.3,0.5,6.7,2.3,6.7c1.5,0,0.8-3.3,2.3-3.3s1.5,3.3,3.1,3.3
				s3.1-3.3,2-7.5C419.1,249.6,419.3,248.5,420.3,247z"/>
		</g>
		<line id="spiderline1_1_" class="st6" x1="416.2" y1="-1.1" x2="415.9" y2="224.8"/>
		<polygon id="start1" class="st4" points="310.6,47.6 320.1,67 341.5,70.1 326,85.2 329.7,106.5 310.6,96.5 291.4,106.5 
			295.1,85.2 279.6,70.1 301,67 		"/>
	</g>
</g>
</svg>
