<svg id="f4e11b5a-0195-440e-b95f-06cd926f8a11" data-name="Halloween_below" xmlns="http://www.w3.org/2000/svg" viewBox="0 0 1590.81 215.04"><defs><style>.a4d7aa9b-663f-4246-bc47-4940a9ea6f26{fill:#fcc000;}.b95dd8cc-c879-459a-a8ce-3c60a4841601{fill:#1d2a54;}.fd0b39b9-8f96-4016-90dc-82fce3bfdbd0{fill:#e3af32;}.b46c91fc-c047-4e5f-ab72-ff941dd2c6c7{fill:#040000;}</style></defs><g id="ff720c8f-d78f-4000-8bf1-8ced2cb5cd74" data-name="pumpkinlight2"><ellipse id="f23d753c-2321-4039-b36f-479aa966f85b" data-name="pumpkinlight2right" class="a4d7aa9b-663f-4246-bc47-4940a9ea6f26" cx="1672.55" cy="169.85" rx="55" ry="76.2" transform="translate(1093.99 1788.42) rotate(-81.71)"/><ellipse id="bbfec1b4-0e35-4ade-b624-4efa71a4e625" data-name="pumpkinlight2left" class="a4d7aa9b-663f-4246-bc47-4940a9ea6f26" cx="1514.24" cy="172.32" rx="64.2" ry="47.3" transform="translate(-132.81 533.63) rotate(-20.67)"/></g><g id="e76bc01c-7dd4-4422-9633-86a9c4ef60ba" data-name="Halloweenbelowscenery"><path id="b1af240f-5282-4748-9aa3-61c3bafcae6b" data-name="pumpkin2" class="b95dd8cc-c879-459a-a8ce-3c60a4841601" d="M1587.24,134.05c2.94-2.36,2.88-6.44,5.92-8.94,1.87-1.53,3.86-3.47,3.39-6.32,0-.13.54-.33.81-.53,1.53-1.15,3.13-2.25,4.57-3.5a40.15,40.15,0,0,0,3-3.21c1.28-1.39,2.26-3.33,3.88-4.06,1.92-.87,3.84-.78,5.7-2.76s5.08-4.08,8.86-3.32c.47.1,1.5-.32,1.53-.57.29-2.52,2.32-1.86,3.87-1.87,7.2,0,14.39,0,21.58-.09a13.18,13.18,0,0,0,4.08-.87c1.19-.4,2.32-1.66,3.37-1.56,3.24.32,7.32-2,9.53,2.23.08.16.69.11,1.06.11H1684a81.56,81.56,0,0,0-.12-9.29c-.12-1-2.29-1.76-2.5-2.8a35.41,35.41,0,0,1-.12-6.6h11.47c0,4.89,0,9.52,0,14.16,0,.55-.11,1.55-.31,1.58-3.85.67-2,3.4-2.58,5.72l11.84,4,7.58,7c2.45,0,6-.15,9.5.08,1.47.09,2.89,1,4.33,1.51l-.27.9,4.59.5,3.91,6.64c2.56,1.59,4.53,2.74,6.42,4a53.38,53.38,0,0,1,4.83,3.58,45.84,45.84,0,0,1,4.87,4.67,52.19,52.19,0,0,1,3.87,5.37c.8,1.17,1.47,2.41,2.2,3.61l.73-.29.24,4.39,1-.26a23.19,23.19,0,0,1,1.72,3.69c.44,1.6.19,4.58.81,4.72,3.1.67,2.07,2.77,2.12,4.31.16,5.67.11,11.35.14,17,0,2,0,4,0,6.5-3.3,29.36-14.92,36.8-31.9,43.57l-72.6-.31-71.49-2.14-48.57-.16-52.11.31S1453,223,1444.13,207.19c-7.71-13.78-3.64-15.11-3.83-15.12-3.08-.27-2.14-2.42-2.31-4s.17-3.44-.67-4.55c-3-3.86-3.09-6.32-.56-9.05-.68-2.18-1.55-3.75-1.59-5.33-.08-3.15-1-7.28.8-9.21,2-2.19,1.69-4.07,2-6.19.14-.89.13-2.52.37-2.55,4.11-.51,1.79-3.8,3.06-5.39,1.82-1.46,4.36-2.84,4.91-4.73,1.21-4.12,3.91-6,8-6.75.45-.09.81-.62,1.18-1,1.53-1.42,3.07-2.83,4.56-4.29,1.71-1.67,3.37-3.39,5.33-5.37,1-.14,3.77,0,3.92-.58,1-3.49,4.06-1.88,5.81-2.88l6.72-5.86c-.05-1-.13-2.41-.22-4.26-2.77-1-5.63-2-8.33-3.21a6.9,6.9,0,0,1-2.76-2.54,2.44,2.44,0,0,1,.11-2.46c2.18-1.83,4.59-3.43,6.82-5l4.31,3.35c.37,1.45-1,4.45,2.92,4.54.09,1.72.17,3.18.2,3.76,1.62,1.66,2.67,2.74,4.08,4.21,1.07-.22,4-.31,4.07-.89.58-2.8,2.69-1.82,4.26-1.9,2.8-.14,5.61,0,8.42,0a5.91,5.91,0,0,0,2.33-.36c.41-4,6.65-.91,6.86-5,5.15.52,10.79-2,15.33,2.2,1.79-1.9,11.08-3.63,12.41-1.81,1.65,2.27,3.65,1.83,5.77,2.26,4,.8,7.87,2,11.8,3,.19,0,.35.28.47.46,2,2.9,4.59,4.91,7.44,4.91a51.11,51.11,0,0,1,4.45,3.46c1.4,1.39,2.35,3.24,3.92,4.41,2.77,2.06,5.11,4.2,5.53,7.56,1,.85,1.55,2,2.49,2.79a3,3,0,0,0,2.65.32m103.09,87.21a6.22,6.22,0,0,0,2.26-.75,22.81,22.81,0,0,1,4-1.76c2-.43,4.68.67,5.62-2.31.11-.34,1.62-.18,2.37-.48a22.42,22.42,0,0,0,3-1.63c.46-.28.87-1,1.29-1,3.92.07,5.58-2.52,7.58-5,1.16-1.46,3.72-2,4.64-3.56,1.86-3,3-6.43,4.79-10.38-3.19.38-5.8-1.23-6.67,2.11-.05.23-.51.45-.82.53-4.3,1.18-8.61,2.34-13.33,3.61.26,4.17-3.52,6.58-6.73,9.18-.57.47-2.61-.63-3.76-.58a40.33,40.33,0,0,1-6.77.81c-1.18,0-1.51-2.8-1.1-7.48-3.29,0-6.55.07-9.81,0-1.92-.05-4.23.68-5.13-2-.13-.4-1.74-.5-2.68-.54-2.43-.1-4.88-.06-7.31-.13-1,0-2.41.11-2.83-.4-4.37-5.35-4.63,1.19-6.84,2-1,.33-2,.54-2.93.81-.88-3.24-3.75-2.21-6-2.3-6.09-.25-6.29-.38-6.12-6.14.13-4.27-2.12-6.67-6.5-7.73a11,11,0,0,1-4.58-2.77c-2.37-2.25-4.38-4.82-6.66-7.16-2.08-2.13-4.43-4.05-6.46-6.21a22.71,22.71,0,0,1-2.24-3.68,19.6,19.6,0,0,0-1.27-1.65,10.9,10.9,0,0,0-1.38,1.61,22.44,22.44,0,0,0-2,4c-.38,1.24-.89,3.4-.32,3.77,3.32,2.13,2.06,5.22,2.42,8,.23,1.67-.63,3.8,2.28,4.28.24,0,.58.83.48,1.16-.95,3.12,2.58,4,3.57,6.15.06.14,1.77,0,2-.34,1.17-2.15,1.54-1.92,3.44-.2,1.71,1.55,3.14,4.13,6.42,4.08,1.85,0,3.49,4.22,2,4.94-6.13,2.89.44,4.8,1.07,5.43a28.37,28.37,0,0,0,8.36,5.38,81.11,81.11,0,0,0,9.33,3.14c.56.18,1.31.15,1.69.48,4.31,3.72,9.07,2.94,11.92-1.9a3.3,3.3,0,0,1,2.07-1.31,17.72,17.72,0,0,1,3.64,0c8.42.3,8.42.3,9.62,8C1680.83,221.29,1685.58,221.32,1690.33,221.26Zm-146.81-36.8c-.59.46-1.06,1.51-1.58,1.51-3.83,0-5.42,2.81-7.61,4.9-.08.08-.13.21-.23.24-3.3,1.13-6.52,2.82-9.92,3.19-3.23.35-4.31,1.28-4,4.12a31.44,31.44,0,0,1,0,3.63c-2.4,1.21-5.21-.1-7.1,2.79-1.42,2.18-7-.93-8.62-5-8.53,0-17.18.05-25.82,0-2.14,0-4.58.59-6-2.08-.35-.66-2.9-.34-4.44-.32-.15,0-.62,1.43-.37,1.64,2.41,2.1,5,4,7.42,6.14a52.71,52.71,0,0,1,4,4.31c.07.08,0,.29.12.31,3.08,1.15,6.14,2.32,9.25,3.37a2.33,2.33,0,0,0,1.67-.41c1.05-.68,2-2.09,3-2.14a52.06,52.06,0,0,1,10.89.44c.87.15,1.25,2.83,2,4.7,3.62,0,8.49,1.32,11.37-.34,3.51-2,6.87-1.64,10.24-2.5,2.12-.54,3.9-2.23,5.83-3.4l.81.56c0-1.1,0-2.21,0-3.31,0-4.22,2.47-6,6.58-7.46,2.94-1.07,4.47-1.4,7.4.22s4.77-2.15,6.82-3.77a91.46,91.46,0,0,0,7.83-7.42,3.46,3.46,0,0,0,.61-1.85c.25-1.46-.35-3.36,2.29-3.47.18,0,.49-.3.48-.45-.16-6.58,5.15-12.48,2.94-19.25-.51-1.59-2.15-2.89-3.39-4.22a2.85,2.85,0,0,0-1.75.91c-1.2,2.21-2,4.63-3.36,6.73-1.49,2.27-3.51,4.24-5.17,6.43a1.7,1.7,0,0,0,.58,1.62c3.83,1.4,1.69,4.27,1.57,6.38,0,.85-2.33,1.56-3.56,2.38-1.63,1.1-3.22,2.24-4.82,3.38-.75.53-1.47,1.09-2.2,1.63a28,28,0,0,1-1.07-2.7,18.1,18.1,0,0,1-.27-2.82A23.61,23.61,0,0,0,1543.52,184.46Zm100.11-29.15c-1.24-.89-.58-4.06-.82-6.18-.17-1.54.67-3.3-2-4.14-.74-.24-.57-2.81-.92-4.29-.26-1.11-.7-2.19-1.05-3.28a12.06,12.06,0,0,1-1.68,2.12c-2.59,2.05-5.37,3.92-7.9,6-3.16,2.63-6.18,5.41-9.19,8.19a1.56,1.56,0,0,0-.26,1.51,2,2,0,0,0,1.44.69c2,.16,4.11-.21,5,2.29.12.38,1.77.31,2.71.44,2.12.3,4.79-.67,5.73,2.31.1.3,1.31.35,2,.41,1.62.13,3.15-.18,4.18,1.82.43.84,2.92.76,5.25,1.27C1645.1,161,1647.28,157.92,1643.63,155.31Zm78.16,23.31c-3.06-1.7-2.7-4.49-2.84-7.15,0-.51-.24-1.33-.6-1.45-2.64-.93-1.82-3.1-2.29-4.87-.35-1.32-1.35-2.48-1.89-3.78-.46-1.11-.62-2.32-1-3.46a7.34,7.34,0,0,0-1.06-1.48,12.14,12.14,0,0,0-1.42,1.13c-1.35,1.37-2.57,2.86-4,4.14s-3.2,2.28-4.66,3.55c-2.84,2.46-5.6,5-8.3,7.58-.41.38-.67,1.59-.49,1.7,1.84,1.16,3.67,2.71,5.72,3.09,2.93.54,6.07,0,9.09.25,3.23.24,6.76-.77,9.45,2.2.65.71,2.72.31,4.37.44C1721.82,179.65,1722,178.76,1721.79,178.62Zm-248.58-14c0,3.9.2,7.73-.1,11.53-.12,1.58-1.48,3-1.95,4.65a27.3,27.3,0,0,0-.63,4.53,6.08,6.08,0,0,0,2.34,0c.48-.22.74-1.64.87-1.62,4.88,1,8.28-3.52,12.8-3,3.38.37,4.2-2.93,6.87-3.32,0,0,.06-1.42-.13-1.48-4-1.09-5.22-5.89-10.14-6.23-1.85-.13-3.47-3-5.54-5Zm58-3.24c3.19,0,5.22,1,6.77-2.1.84-1.66,4.25-2.14,6.41-3.3,3.43-1.82,6.79-3.75,10.1-5.74.08,0-.55-1.82-1.06-1.92-4-.82-6.86-3.45-10.33-5-2.5-1.11-3.83-5.46-7.94-2.89C1533.45,147.14,1537.53,154.74,1531.26,161.34Zm136.42,18.88c.64.81,3.26.37,5,.27a7.35,7.35,0,0,0,2.32-1,7.42,7.42,0,0,1-1.57-1.42c-.53-.86-1.36-2-1.15-2.78.88-3.31-1.76-5.2-3.24-7.52a2.12,2.12,0,0,0-1.87-.16c-2.18,2.27-4.16,4.7-6.35,7a20.45,20.45,0,0,1-3.17,2.24C1661.58,178.19,1665.14,177,1667.68,180.22ZM1587.45,193c-.07-.64-.25-2.19-.51-4.48-2.07,1.57-3.82,2.73-5.36,4.1s-3,3.1-4.49,4.67a3.83,3.83,0,0,0-1.07,1.38c-.06.21.73.91,1.14.92,5.12.06,10.25,0,15.38,0l0-1.23Zm-75.12-12.53c3.36-1.83,6.73-3.66,10-5.62a3.57,3.57,0,0,0-.64-1.94c-4.38.18-6.26-3.21-9.74-5.87-.88,4.67-.34,8.94-.58,13C1511.92,180.26,1512.21,180.49,1512.33,180.42Z" transform="translate(-169.48 -12.04)"/><path id="f56e3217-6a51-484a-a87e-6294c080e8b2" data-name="pumpkin1" class="b95dd8cc-c879-459a-a8ce-3c60a4841601" d="M1410.31,188.27c-2.37-7-11.86-9.12-13.52-10.31a10.88,10.88,0,0,0-3.9-1.58s-1.83-.08-4.4-.15a.3.3,0,0,1-.15-.14c-.22-.59-.57-.49-.95-.53a2.16,2.16,0,0,1-.82-.09c-.52-.3-1-.68-1.68-1.17-.11-.5-1.29-.86-1-1.92,0,0-.1-.08-.15-.11a2.53,2.53,0,0,1-1.43-2.62c.08-.59,0-1.19.07-1.78a1.18,1.18,0,0,1,.26-.62,9.05,9.05,0,0,1,.77-.76c.5-.19,1-.34,1.4-.54.26-.12.48-.44.73-.45.83-.06,1.67,0,2.22,0l1.24,1.13V168c-.3-.08-.7-.14-.7-.2,0-.86-.62-.67-1.11-.67a1.76,1.76,0,0,0-1.72.8c-.64.88-1,2.79-.07,3.58a11.63,11.63,0,0,1,1.12,1c.36.42,2.37.8,2.44.4.19-1.13,1.14-.49,1.65-.87.3-.5-.18-1.47.89-1.58,0,0,.07-.25.07-.39,0-1.5,0-3,0-4.16l-2.06-2.11c-1.54,0-3.26,0-5,0a2.33,2.33,0,0,0-1.17.32c-.85.54-1.64,1.16-2.45,1.75-.25.27-.3,1.1-.49,1.13-.93.15-.7.85-.61,1.28.39,1.86-.86,3.37-1,5.11,0,.14-.21.25-.33.38l-1.56,1.77c-.77-.25-1.39.23-2,.84-5.9.56-8.79,3.4-8.79,3.4-7.12.16-10.44,5.06-13.52,10s-4,21.59,4.51,27.8,17.07,7.78,29.4,7.61,19-6.94,23.71-14.37S1412.68,195.27,1410.31,188.27Z" transform="translate(-169.48 -12.04)"/><path id="f66e2ee9-13cf-4a5c-878c-919dd46a02b0" data-name="tree3" class="b95dd8cc-c879-459a-a8ce-3c60a4841601" d="M1191.9,160.33c3.38,1.58,7.25,2.16,11,3s5.75,3.11,5,6.83l-14.07-5-.29.66,13.75,7.46c-4.39,3-8.75,2.23-13.17.1l-.25,1.15,7.27,4c-3.85,3.48-8.62,4-13.33,4.61l.11,1.13c5.63.52,10.86-3.09,16.81-2.74l-.9,6-.57.11-1.78-3.14-.9.26a10.87,10.87,0,0,0,.74,3.19,8,8,0,0,1,.74,7.45l-5.06-7.45-.42.2,1.76,5.67-2,1.3a7.08,7.08,0,0,0,1.53,1.47,7.24,7.24,0,0,0,2.48.67c2.36.25,3,1.09,2.14,3.25a18.44,18.44,0,0,1-1.54,2.78l1.66.19c1.59-.85,3.36-3.64,5.47-3.89.62-.08,1.59-1.08,2.22-.9,3.56,1,7.63,1.07,9.91,4.78.31.51,1,.84,1.13,1.42,1.29,5-1.09,7-3.93,9.47,0,0,.93,2.93-25.37,5.85h13.57c2.23.48,81.17,0,80.66-.11-34.65-7.95-64.44-.55-45.67-18.29,1-.91-.91-1.78.08-2.88,1.67-1.86,2.5-4.69,4.07-6.64,2.16-2.68,5.28-4.19,7.53-6.79s4.44-5.84,6.82-8.57a7.94,7.94,0,0,0,.86-2c-.75.36-2,.32-2.08.5-4.38,7.86-11.52,11.73-18.19,17-.8.63-2.57,0-3.89,0,.52-2.5.23-5.79,1.74-7.35a16.18,16.18,0,0,1,12.3-5c3.51.14,4.25.09,5.2-2.26-3.48.7-5.8.15-9.38.87,2.79-5.3,6.28-6.59,10.56-8.89l-.7-1-9.11,5.79-.46-.43q2.41-4.52,4.82-9.05l-.59-.41c-2,2.25-4,4.43-5.87,6.79-1.37,1.76-2.28,3.9-3.71,5.61-.81,1-2.26,1.38-3.72,2.21-.11-1.1-.17-1.43-.17-1.77a3.2,3.2,0,0,1,.11-1c1.61-4.49,3.78-8.45,8.58-10.38,4.21-1.7,6.78-5.34,9.61-8.74-3.07,1.4-5.44,4.15-8.82,4.83l-.36-.57,7.71-9.88c-5.08,1.21-6.88,6.55-11.45,8.8l-.4-4c-2.14,3.8-1.49,8.16-5.32,10.82.14-3.11.11-5.86.46-8.56a4.66,4.66,0,0,1,1.77-2.77c3.5-2.67,7.14-5.14,10.69-7.75a8.72,8.72,0,0,0,1.39-1.71l-.41-.31-11.66,8.63-.55-.41c2.16-5.8,6.31-10,11.7-13.16-.29-.31-.57-.63-.86-.95l-10.74,7.53c.68-3,1.38-6,2.07-9l-.66-.3c-3.71,5.18-4.6,11.59-6.84,17.52-2.43-2.45-3.59-4.87-2.33-8.1a11.41,11.41,0,0,0,.33-4.11c0-.43-.5-.86-.91-1.52l-1.73,6-1,0c-.58-3-1.15-6-1.76-9.16-.49.35-.69.42-.74.55a1.65,1.65,0,0,0-.15.75c.51,7.11,1,14.24,5.74,20.13a5.82,5.82,0,0,1,1,6c-2.33-1.48-4-3.06-4.29-5.94-.1-1.23-1.15-2.38-1.77-3.56l-.85.34.52,5.22-7.55-5.16-.06,2-.89.2a37.33,37.33,0,0,1-1.83-5.4,42.91,42.91,0,0,1-.32-6l-.76,0c-.39,2.58-.77,5.17-1.16,7.75l-.59.06c-.71-2-1.41-3.92-2.35-6.54a6.68,6.68,0,0,0,1.79,7.22c2.22,2.12,1.78,4.63,2.19,7.15-4.76-.44-5.77-1.08-7.82-4.61-.9-1.57-1.91-3.07-2.87-4.61l-.74.42c1.08,2,2.16,4.1,3.44,6.51-6.25-1.87-5.33-8.09-8.57-11.65l.91,9.07c-5.33.37-9.19-2-12.49-5.78l-.33.15.15,1.46C1187.23,156.84,1189.32,159.11,1191.9,160.33Zm34.57,8.6c3.78,3.09,4.53,10.54,1.19,13.87-1.77-1.69-2.74-3.27-2.15-5.77A66.31,66.31,0,0,0,1226.47,168.93Zm-2.08,7.51-.75.25c-1.11-3.9-2.21-7.81-3.34-11.8C1224.9,164.6,1225.86,170.06,1224.39,176.44Zm-3.84,8.17c2.82,2.53,2.68,5.62,2.7,8.59,0,.29-1.47,1-2,.82a4.65,4.65,0,0,1-2.54-6A37.24,37.24,0,0,1,1220.55,184.61Zm-4.84-5.08c4,1.72,4.54,3.91,1.57,7.65-.49-1.85-.94-3.31-1.26-4.8A25.36,25.36,0,0,1,1215.71,179.53Zm-6.08-13.35c1.73,2.13,3.47,4.25,5.21,6.38l-.7.54C1210.78,172.26,1209.5,169.78,1209.63,166.18Zm1,12.53c2.14,1.48,3.75,3.41,3.43,6.51-.22,2.19.36,4.45.62,7l-2.46-.12,1-7.42-.72-.1c-.31,1.15-.63,2.31-1,3.46l-.71-.1.27-6.07-.78-.05c-.37,3.16-.74,6.32-1.15,9.79l-3.5-2.74.74-.23a66.9,66.9,0,0,1-.79-6.87c0-1.09.43-2.78,1.19-3.17A4.43,4.43,0,0,1,1210.63,178.71Z" transform="translate(-169.48 -12.04)"/><circle id="f87a1e9f-cd28-455c-9274-d23cc36fc3a9" data-name="moom" class="fd0b39b9-8f96-4016-90dc-82fce3bfdbd0" cx="419.49" cy="83.32" r="83.32"/><path id="a276f750-b00d-4729-9bb8-3194addc488f" data-name="tree2" class="b95dd8cc-c879-459a-a8ce-3c60a4841601" d="M431.4,102.37c6.4,3,13.76,4.11,20.78,5.62,7.24,1.55,10.92,5.9,9.55,13L435,111.41l-.56,1.24,26.09,14.16c-8.32,5.67-16.59,4.23-25,.19l-.48,2.19,13.79,7.6c-7.31,6.59-16.35,7.51-25.29,8.74l.21,2.13c10.68,1,20.6-5.84,31.88-5.19-.61,4-1.15,7.68-1.69,11.34l-1.1.2-3.37-5.95-1.71.48c.44,2,.4,4.35,1.4,6.05,2.52,4.3,3.48,8.68,1.42,14.13l-9.61-14.13-.8.38c1.17,3.78,2.34,7.55,3.34,10.76l-3.72,2.46c1,1,1.76,2.21,2.91,2.79a13.44,13.44,0,0,0,4.7,1.27c4.47.47,5.75,2.08,4.07,6.17a34.33,34.33,0,0,1-2.94,5.26l3.16.36c3-1.6,6.36-6.9,10.37-7.37,1.18-.15,3-2,4.21-1.7,6.75,1.93,14.48,2,18.8,9.06.6,1,1.85,1.59,2.14,2.7,2.46,9.49-2.07,13.19-7.44,18-.11.09,1.76,5.56-48.13,11.09h25.74c4.24.91,154,0,153-.2-65.73-15.08-122.23-1.05-86.63-34.69,1.82-1.72-1.73-3.37.15-5.47,3.16-3.53,4.74-8.89,7.73-12.6,4.09-5.08,10-7.94,14.28-12.88,4.49-5.19,8.42-11.06,12.93-16.24.7-.8.89-2,1.63-3.84-1.41.68-3.75.61-3.94.95-8.31,14.9-21.85,22.24-34.5,32.26-1.52,1.2-4.88.09-7.39.05,1-4.76.45-11,3.3-13.94a30.7,30.7,0,0,1,23.33-9.44c6.66.27,8.08.18,9.87-4.29-6.61,1.34-11,.29-17.79,1.66,5.3-10.07,11.92-12.5,20-16.86l-1.33-1.89q-8.65,5.48-17.29,11l-.88-.81,9.15-17.17-1.12-.78c-3.74,4.27-7.65,8.4-11.13,12.87-2.61,3.35-4.32,7.41-7,10.65-1.53,1.82-4.29,2.61-7.06,4.19-.21-2.08-.33-2.72-.32-3.36a5.74,5.74,0,0,1,.22-1.95c3.05-8.51,7.16-16,16.27-19.7,8-3.2,12.86-10.12,18.22-16.58-5.81,2.68-10.32,7.89-16.73,9.18l-.68-1.08,14.62-18.74c-9.63,2.28-13,12.42-21.71,16.68l-.76-7.6c-4,7.21-2.83,15.48-10.09,20.52.26-5.89.21-11.11.87-16.24A8.92,8.92,0,0,1,520,94.16c6.64-5.06,13.55-9.75,20.28-14.69A16.37,16.37,0,0,0,543,76.21l-.78-.58L520.05,92l-1-.77c4.1-11,12-18.94,22.19-25l-1.62-1.81L519.19,78.74q2-8.51,3.94-17.08l-1.25-.56c-7,9.83-8.73,22-13,33.23-4.61-4.65-6.82-9.23-4.42-15.36.91-2.33.64-5.18.62-7.79,0-.83-.94-1.64-1.73-2.89-1.24,4.3-2.26,7.86-3.28,11.42l-2-.09c-1.1-5.7-2.19-11.4-3.34-17.39-.92.67-1.3.8-1.41,1.05a3.24,3.24,0,0,0-.29,1.43c1,13.49,1.82,27,10.9,38.18a11,11,0,0,1,2,11.41c-4.42-2.81-7.66-5.8-8.13-11.26-.2-2.33-2.19-4.51-3.36-6.76l-1.63.64,1,9.91L479.57,97l-.13,3.82-1.68.37c-1.2-3.41-2.83-6.74-3.48-10.24-.7-3.71-.43-7.6-.6-11.4l-1.45-.07q-1.1,7.35-2.18,14.71l-1.13.11-4.47-12.41c-1.81,6.36.22,10.63,3.41,13.69,4.21,4,3.38,8.78,4.16,13.57-9-.83-11-2-14.84-8.76-1.71-3-3.62-5.82-5.44-8.73l-1.41.79,6.51,12.35c-11.85-3.55-10.09-15.35-16.24-22.1L442.32,100c-10.1.71-17.44-3.85-23.68-11l-.63.27.28,2.78C422.54,95.75,426.5,100.07,431.4,102.37ZM497,118.68c7.16,5.87,8.59,20,2.25,26.32-3.36-3.2-5.2-6.21-4.08-11C496.33,129.05,496.41,123.8,497,118.68Zm-4,14.26-1.42.48L485.27,111C494,110.48,495.81,120.84,493,132.94Zm-7.28,15.48c5.36,4.81,5.09,10.66,5.11,16.3,0,.56-2.78,1.89-3.84,1.55-4.25-1.36-6.56-7-4.81-11.32A64.85,64.85,0,0,1,485.74,148.42Zm-9.17-9.63c7.59,3.27,8.6,7.43,3,14.52-.94-3.51-1.78-6.28-2.4-9.11A50.13,50.13,0,0,1,476.57,138.79ZM465,113.48l9.89,12.09-1.32,1C467.21,125,464.78,120.31,465,113.48Zm1.91,23.76c4.06,2.81,7.1,6.47,6.51,12.35-.42,4.14.68,8.44,1.16,13.25l-4.65-.21c.66-4.91,1.28-9.49,1.9-14.08l-1.35-.19q-.92,3.27-1.81,6.56l-1.34-.19.51-11.51-1.48-.11c-.7,6-1.41,12-2.18,18.58l-6.65-5.19,1.4-.45c-.54-4.34-1.39-8.67-1.49-13,0-2.08.81-5.29,2.25-6C461.66,136,465.2,136,466.93,137.24Z" transform="translate(-169.48 -12.04)"/><path id="a552591d-de32-4b5c-8664-617b5aa16f36" data-name="tree1" class="b95dd8cc-c879-459a-a8ce-3c60a4841601" d="M266.6,176.48a34.87,34.87,0,0,0,7.56,2.05c2.64.57,4,2.15,3.48,4.72l-9.72-3.48-.2.46,9.5,5.15c-3,2.07-6,1.54-9.1.07l-.17.8,5,2.77c-2.66,2.4-6,2.73-9.21,3.18l.08.78c3.89.36,7.5-2.13,11.61-1.9l-.62,4.13-.4.08-1.22-2.17-.63.18a7.7,7.7,0,0,0,.51,2.2,5.55,5.55,0,0,1,.52,5.15l-3.5-5.15-.29.14,1.22,3.91-1.36.9a4.85,4.85,0,0,0,1.06,1,5,5,0,0,0,1.71.46c1.63.17,2.1.76,1.48,2.25a12.61,12.61,0,0,1-1.06,1.91l1.14.13c1.1-.58,2.32-2.51,3.78-2.68.43,0,1.1-.74,1.53-.62,2.46.7,5.28.74,6.85,3.3.22.35.67.58.78,1,.89,3.46-.75,4.81-2.71,6.54,0,0,.64,2-17.53,4h9.38c1.54.33,56.06,0,55.71-.07-23.93-5.49-44.51-.38-31.55-12.63.67-.63-.63-1.23.06-2,1.15-1.28,1.73-3.23,2.81-4.58,1.49-1.85,3.65-2.9,5.2-4.69s3.07-4,4.71-5.92a5.53,5.53,0,0,0,.6-1.4c-.52.25-1.37.23-1.44.35-3,5.43-8,8.1-12.56,11.75-.56.43-1.78,0-2.69,0,.36-1.73.16-4,1.2-5.07a11.13,11.13,0,0,1,8.49-3.44c2.43.1,2.95.07,3.6-1.56-2.41.49-4,.1-6.48.6,1.93-3.66,4.34-4.55,7.3-6.14l-.49-.69-6.29,4L304,186l3.33-6.25-.41-.28c-1.36,1.56-2.79,3.06-4.05,4.69-.95,1.22-1.57,2.7-2.56,3.87a9.76,9.76,0,0,1-2.58,1.53c-.07-.76-.12-1-.11-1.23a2,2,0,0,1,.08-.7c1.11-3.1,2.61-5.84,5.92-7.18,2.91-1.16,4.68-3.68,6.64-6-2.12,1-3.76,2.87-6.09,3.34l-.25-.4,5.32-6.82c-3.5.83-4.75,4.52-7.91,6.07l-.27-2.76c-1.48,2.62-1,5.63-3.67,7.47.09-2.15.07-4,.31-5.91a3.3,3.3,0,0,1,1.22-1.92c2.42-1.84,4.94-3.55,7.39-5.35a6.26,6.26,0,0,0,1-1.18l-.29-.21-8.05,6-.38-.28a17.68,17.68,0,0,1,8.08-9.09l-.59-.66-7.42,5.2q.71-3.1,1.43-6.22l-.46-.21c-2.56,3.58-3.17,8-4.72,12.11-1.68-1.7-2.48-3.37-1.61-5.6a8.09,8.09,0,0,0,.23-2.84c0-.3-.35-.59-.63-1.05-.45,1.57-.82,2.87-1.2,4.16l-.71,0c-.4-2.08-.8-4.15-1.21-6.33-.34.24-.48.29-.52.38a1.34,1.34,0,0,0-.1.52c.35,4.91.66,9.84,4,13.9a4,4,0,0,1,.72,4.16c-1.61-1-2.79-2.12-3-4.1a7.58,7.58,0,0,0-1.22-2.47l-.59.24.36,3.61-5.21-3.57-.05,1.39-.61.14a25.63,25.63,0,0,1-1.27-3.73,30.13,30.13,0,0,1-.22-4.15l-.53,0c-.26,1.79-.53,3.57-.79,5.36l-.41,0L278.63,169a4.63,4.63,0,0,0,1.24,5c1.54,1.46,1.23,3.19,1.52,4.94-3.3-.31-4-.75-5.41-3.19-.62-1.08-1.31-2.12-2-3.18l-.51.29c.75,1.41,1.49,2.83,2.37,4.49-4.31-1.29-3.67-5.59-5.91-8l.62,6.27c-3.67.26-6.35-1.4-8.62-4l-.23.1.1,1C263.37,174.07,264.81,175.64,266.6,176.48Zm23.88,5.94c2.6,2.14,3.13,7.28.82,9.59-1.23-1.17-1.9-2.26-1.49-4A47.3,47.3,0,0,0,290.48,182.42ZM289,187.61l-.51.18c-.76-2.7-1.53-5.4-2.31-8.15C289.39,179.44,290.05,183.21,289,187.61Zm-2.65,5.64c2,1.75,1.86,3.89,1.87,5.94,0,.2-1,.69-1.4.56a3.19,3.19,0,0,1-1.75-4.12A23.47,23.47,0,0,1,286.38,193.25Zm-3.34-3.5c2.77,1.18,3.14,2.7,1.09,5.28-.34-1.27-.65-2.29-.88-3.32A19.61,19.61,0,0,1,283,189.75Zm-4.2-9.22,3.6,4.4-.48.38C279.64,184.73,278.75,183,278.84,180.53Zm.7,8.65a4.64,4.64,0,0,1,2.36,4.5,25.41,25.41,0,0,0,.43,4.82l-1.7-.07c.25-1.79.47-3.46.7-5.13l-.5-.07-.66,2.39-.48-.07.18-4.19-.54,0c-.25,2.18-.51,4.37-.79,6.76l-2.42-1.89.51-.16a45,45,0,0,1-.54-4.74c0-.76.29-1.93.82-2.19A3,3,0,0,1,279.54,189.18Z" transform="translate(-169.48 -12.04)"/><path id="f3a182ee-dfd3-4657-bfc9-34bc4fd3d722" data-name="Halloweenbelowfloor" class="b95dd8cc-c879-459a-a8ce-3c60a4841601" d="M1103.74,216c18.35,1.17,36,3.18,54.53,4,24,1.08,62.13-1.36,101-.69,19.14-1.08,74.29,1.37,90.11,1.78L1396,220c8.53.4,17.47.83,25.89.54,6.44-.21,28,0,41.56,2.41,9.7,1.72,25.22-2,35-1.43,3.48.21,7.77-.52,11.71-.81,4.88-.35,28.38-1.94,36.31-.33,3.78.77,9.53.85,14.11,1.4a215.82,215.82,0,0,0,49.93.19c19.6-2.14,17.63,3.6,47.08,2,9.07-1.19,13.46.18,39.88.18,22.44,0,35,2.4,58,2.4l-1433-.12s-109.4-.07-153-.07c157.25-22.24,224.34-15.91,318.2-13.89,43.5-.62,160.63-4.66,213.26-6.06,36.82-1,69.62.08,84.16-4.24,5.27-1.56,0,0,20.77-4.25s68.57.53,68.57.53c15.62-.15,23.06,2.95,33.26,5,4.76.93,8.85,1.65,15.78.37,3.49-.64,11.86,0,17.13.63,4.37.5,7.32,1.8,11.1,2.69a86.54,86.54,0,0,0,24.26,2.4,76,76,0,0,1,13.19,1c18.77,2.91,32.73,1.93,64.36,3.89Z" transform="translate(-169.48 -12.04)"/></g><g id="f5ff6b06-0569-4979-87c5-44690a079cf4" data-name="Halloweenbelowcharacter"><path id="f00fb0ab-dae0-4805-90f8-9b3fa0394122" data-name="bat2" d="M587.05,138.34a6.91,6.91,0,0,1,3.17-.5,11.13,11.13,0,0,1,3.61.94c1.68.69,2.13,1.68,2.07,2.14a4.17,4.17,0,0,0,.82,3.7,9.23,9.23,0,0,0,.77,1c.24.25.47.18.7-.1a3.14,3.14,0,0,0,.65-1.93c0-.11,0-.27.12-.31a.22.22,0,0,1,.28.19,5,5,0,0,1,.29,1.26c.09.9.79,1.19,1.35.6.23-.24.59-.56.89-.84.09-.08.29-.22.41-.1s.06.3-.06.45a2.81,2.81,0,0,0-.71,1.78c0,.37.05.57.53.55a5,5,0,0,0,4-2.38,1.5,1.5,0,0,1,1.73-.76,12.15,12.15,0,0,1,4.39,1.63,5.78,5.78,0,0,1,2.27,2.25,3.66,3.66,0,0,1,.18.47A3.43,3.43,0,0,1,614,148a3.72,3.72,0,0,0-2-.93,2.77,2.77,0,0,0-2.87,1.51c-.12.28-.23.56-.33.85s-.27.42-.56.14a3.73,3.73,0,0,0-2-1.05,2,2,0,0,0-2.32,1c-.37.56-.15,1.39-.53,1.37s-.65-2.75-2-2.89a.81.81,0,0,0-.75.32,3.5,3.5,0,0,1-1.7,1.32c-.43.18-.6.14-.81-.27a4.65,4.65,0,0,1-.56-2.36c0-.31-.43-.57-.7-.62-1.58-.4-2.73,1.07-3,1s.7-2.16-.14-3.16-2-.92-3.11-.86C591.89,140,590.27,138.63,587.05,138.34Z" transform="translate(-169.48 -12.04)"/><path id="bcaccf11-ee39-4fa9-8dd3-03287a970938" data-name="bat1" d="M485.5,40A12.52,12.52,0,0,1,489,35.34,20.4,20.4,0,0,1,494.93,32c3.07-1.22,4.91-.49,5.41.19a7.6,7.6,0,0,0,5.77,3.8,15.45,15.45,0,0,0,2.24.3c.64,0,.85-.35.79-1a5.81,5.81,0,0,0-1.59-3.36c-.13-.14-.34-.35-.24-.55a.43.43,0,0,1,.62-.11,9.53,9.53,0,0,1,2,1.28c1.26,1.07,2.55.56,2.54-.92,0-.6.05-1.48.1-2.23,0-.23.1-.65.4-.65s.46.32.5.67a5,5,0,0,0,1.33,3.22c.43.52.78.69,1.39,0a9.09,9.09,0,0,0,2.27-8.23,2.74,2.74,0,0,1,1.3-3.19,22.09,22.09,0,0,1,7.82-3.42,10.56,10.56,0,0,1,5.82.07c.2.07.39.18.83.39a7.06,7.06,0,0,1-1.16.25,6.62,6.62,0,0,0-3.77,1.3,5,5,0,0,0-1.85,5.6,16.08,16.08,0,0,0,.64,1.54c.3.63.18.89-.55.89A6.75,6.75,0,0,0,523.6,29c-1,.71-2.17,1.66-1.71,4.29.21,1.2,1.55,2,1,2.47s-4.33-2.78-6.3-1.23a1.5,1.5,0,0,0-.57,1.37,6.49,6.49,0,0,1-.56,3.89c-.34.77-.61,1-1.4.66a8.35,8.35,0,0,1-3.72-2.38c-.36-.43-1.29-.2-1.71.08-2.57,1.48-2.21,4.86-2.7,5.16s-1.81-3.72-4.19-4-3.72,1.27-5.16,2.81C493.93,36.07,490.07,36.33,485.5,40Z" transform="translate(-169.48 -12.04)"/><path id="be2a51d1-67d5-49be-9f0c-2934e7325ac3" data-name="Witch" class="b46c91fc-c047-4e5f-ab72-ff941dd2c6c7" d="M726,90.77a6.69,6.69,0,0,0-.93-.46,10.07,10.07,0,0,0-1.81-.53,4.86,4.86,0,0,0-3.48.45,2.19,2.19,0,0,1-1.18.39c-1.24,0-2.48-.11-3.71-.05A27.27,27.27,0,0,0,704.45,93a7.88,7.88,0,0,0-2.21,1.69,1.27,1.27,0,0,1-1.13.56c-.25,0-.51,0-.77,0a4.1,4.1,0,0,0-4.06,3.45c0,.24-.24.59-.43.64-1.24.34-2.5.64-3.76.88s-2.51.37-3.77.59-2.36.45-3.54.68c0-.11-.11-.22-.17-.34.65-.71,1.28-1.42,1.93-2.12.2-.22.44-.41.65-.63l3.3-3.4a10.85,10.85,0,0,0,1.21-1.34,1.28,1.28,0,0,0,.17-1c-.16-.28-.61-.43-1-.57s-.61-.06-.89-.17a4.06,4.06,0,0,0-3.39.16,5.84,5.84,0,0,1-1.85.86,19.06,19.06,0,0,1-4.4.08,35,35,0,0,1-5.11-1.17,4.67,4.67,0,0,1-2.56-1.44c.84-.11,1.6-.18,2.35-.31a11.24,11.24,0,0,0,2.25-.57c.4-.17.93-.7.91-1a5.47,5.47,0,0,0-.64-2.48,6.89,6.89,0,0,0-1.89-1.6c-.43-.32-.92-.55-1.51-.9,1.12-.48,2.52-.31,2.65-1.88a2.93,2.93,0,0,0-1.58-2.69c.68-.75,1.35-1.41,1.93-2.13a4.66,4.66,0,0,1,4-1.61,10.07,10.07,0,0,0,2.4-.14c1.74-.46,3.44-1,5.14-1.63a20.78,20.78,0,0,1,2.12-.94c.66-.14,1.15-.48,1.16-1a2.93,2.93,0,0,0-.57-1.8c-.94-1.11-2.42-1.35-3.71-1.86a8.93,8.93,0,0,0-2-.45c-1.14-.17-2.28-.28-3.42-.43a47,47,0,0,0-5.61-.77,24.23,24.23,0,0,0-5.82.6,16.05,16.05,0,0,0-4.15,1.81c-1.06.58-1.92,1.54-3,2.09a7.35,7.35,0,0,0-2.11,1.69,8.39,8.39,0,0,1-1.67-2.16,4.8,4.8,0,0,0-2.3-2.19c-.73-.33-1.35-.88-2.06-1.25a8,8,0,0,0-1.65-.56c-.38-.1-.5,0-.39.42s.3.85.48,1.35l-.49,0c-.72,0-1.43-.1-2.14-.1l.4.57,1.25.69c0,.09,0,.14,0,.16a3,3,0,0,0-.53,2.54,1.53,1.53,0,0,1-.3,1.24c-.25.34-.31.63.07.95a3.19,3.19,0,0,1,.47.61,2,2,0,0,0,1.69.61l.32,0c-.07.63-.15,1.24-.21,1.78,0,0-.58.71-1.29,1.8a13.4,13.4,0,0,1-2.66.31,13,13,0,0,0-5.7,1.18,6.06,6.06,0,0,0-2,1.74,6.58,6.58,0,0,0-.78,1.84c-.42,1.14-.37,1.18.64,1.91a2.78,2.78,0,0,0,2,.45c.83,0,1.65,0,2.47,0a8.1,8.1,0,0,0-.31,1.62c0,.7-.08,1.25-.84,1.53-.25.09-.45.41-.63.65a7.43,7.43,0,0,0-1.45,4.69c0,1.79,1.22,2.7,2.87,2.11a10.28,10.28,0,0,0,1.22-.64,4.33,4.33,0,0,0,.39.74c.41.46.8,1.13,1.33,1.3a6.92,6.92,0,0,0,4.77.18c.73-.27,1.48-.48,2.3-.74l-1.62,2.89-2.53.92a3.7,3.7,0,0,1-.84.26,17.08,17.08,0,0,1-4.77-.63c-1-.2-2-.53-3-.75s-1.84-.3-2.75-.49c-2-.4-4-1.09-6.13-.91a2.21,2.21,0,0,0-2.16,1.71c-.26,1,0,1.57,1.09,2.32a12,12,0,0,0,4.37,1.69c2.16.47,4.35.82,6.54,1.13s4.13.46,6.19.7a7.5,7.5,0,0,1,1.18.37,2.11,2.11,0,0,0-.16,2.75,5.55,5.55,0,0,0,1.53,1.35c1.32.88,2.88.71,4.37.8,1.13.07,2.26,0,3.4.08s3.15-.75,3.46-1.8a2.46,2.46,0,0,1,1.58-1.58,1.11,1.11,0,0,1,1.2,0,8,8,0,0,0,4.45,1.07,8.91,8.91,0,0,0,3.54-1,11,11,0,0,1,5.12-1.6,48.31,48.31,0,0,0,6.25-1,59.6,59.6,0,0,0,9.24-2.26c.83-.27,1.62-.85,2.39.06a.16.16,0,0,0,.15,0c.94-.13,1.89-.26,2.82-.42s1.59-1,2.6-.68a10.51,10.51,0,0,0,4.92.14,27.75,27.75,0,0,0,10.23-3.67,13.65,13.65,0,0,0,1.86-1,16.11,16.11,0,0,0,3.44-3.74c.31-.52.59-1.06.86-1.6a13,13,0,0,1,.56-1.26C726.44,91.26,726.46,91,726,90.77Z" transform="translate(-169.48 -12.04)"/></g></svg>