<svg id="ff4f11bb-18b3-400d-86ce-9d12ae98f1ed" data-name="Halloweentop" xmlns="http://www.w3.org/2000/svg" viewBox="0 0 1722.05 266.54"><defs><style>.b04993f7-2201-4ac0-b431-662edbf08957{fill:#fcc000;}.e88e70c4-4be9-4f58-b17d-963db1263cea{fill:#1a2a52;}.e385c96d-c057-4714-81cb-32d002576fbe{fill:#f58328;}.f6cce41c-5932-4082-9073-8fa7656753ef{fill:none;stroke:#1a2a52;stroke-miterlimit:10;stroke-width:2px;}</style></defs><g id="af800b80-b2c5-42a5-8d80-c7a58213809e" data-name="startlight"><polygon id="a254bbe3-887b-4e30-983b-dd33a3e2fd9f" data-name="startlight6" class="b04993f7-2201-4ac0-b431-662edbf08957" points="1622.61 72.19 1628.72 84.56 1642.37 86.55 1632.49 96.18 1634.83 109.77 1622.61 103.35 1610.4 109.77 1612.73 96.18 1602.86 86.55 1616.51 84.56 1622.61 72.19"/><polygon id="f01c8684-e0fa-46e5-a558-a87bfe93e46e" data-name="startlight5" class="b04993f7-2201-4ac0-b431-662edbf08957" points="1264.68 85.87 1269.46 95.56 1280.16 97.11 1272.42 104.66 1274.24 115.31 1264.68 110.28 1255.11 115.31 1256.94 104.66 1249.2 97.11 1259.89 95.56 1264.68 85.87"/><polygon id="bdea8faa-b64c-47fe-8dc6-030051543dc3" data-name="startlight4" class="b04993f7-2201-4ac0-b431-662edbf08957" points="949.13 64.55 953.91 74.24 964.61 75.79 956.87 83.34 958.69 93.99 949.13 88.96 939.56 93.99 941.39 83.34 933.65 75.79 944.34 74.24 949.13 64.55"/><polygon id="add6a15c-2161-4b62-b4f0-e592542ce5c5" data-name="startlight3" class="b04993f7-2201-4ac0-b431-662edbf08957" points="765.59 86.07 771.6 98.24 785.03 100.19 775.31 109.67 777.61 123.04 765.59 116.72 753.58 123.04 755.88 109.67 746.16 100.19 759.59 98.24 765.59 86.07"/><polygon id="b9b53225-0bff-4997-8066-b6fe329bd61a" data-name="startlight2" class="b04993f7-2201-4ac0-b431-662edbf08957" points="580.58 87.81 585.37 97.5 596.06 99.06 588.32 106.6 590.15 117.26 580.58 112.23 571.01 117.26 572.84 106.6 565.1 99.06 575.8 97.5 580.58 87.81"/><polygon id="f412c2d3-9f4e-4a24-b509-0f5d6916bcf7" data-name="startlight1" class="b04993f7-2201-4ac0-b431-662edbf08957" points="211.84 50.64 221.4 70.03 242.8 73.14 227.32 88.23 230.97 109.53 211.84 99.47 192.7 109.53 196.36 88.23 180.88 73.14 202.27 70.03 211.84 50.64"/></g><path id="b69daa3d-7183-497c-85ac-a91174033693" data-name="Halloweentopscenery" class="e88e70c4-4be9-4f58-b17d-963db1263cea" d="M400.55,42.57c2.45-2.38,3.8-.36,4.45.62.86,2.47.37,4.92,1.22,7.39.78,1.61,1.78,2.61,2.35,0q.65-5.43,1.28-10.87c.15-3.51,3.15-6.51,3.55,0,.27,16.26-.67,32.23-.4,48.49,0,7,4,9,6.58.28,4.38-17.92-4.42-54.14.5-56.71s8,9.41,12.27,12c2.36,1.41,8.73,2.2,11.19.33s-.21-6.37-2.31-8.34c-2.33-2.17-7.72-2.38-10.41-4.45-1.65-1.27-3-3.85-.93-6.46S443,19.19,450,21.19c2.52.72,9.7,4.1,8,7,0,8,7,6.26,10.39,5.89,2.31-.26,11.82,1.63,7.78,5.77C469,47.19,468,49.19,470,54.19a4.68,4.68,0,0,0,7,2c2.22-1.72,2.61-3.52,2.9-5.58,1.06-7.46,9.07-5.33,14.58-6.88s11.43-9,20.15-3.58c6.07,3.77,8.42,8.28,5.71,14.33a15.47,15.47,0,0,0-.76,9.7,6.2,6.2,0,0,0,6,4.08c3.4-.07,5-3.8,4.84-5.58-.31-3.76-2.38-7.43-3.76-11.13-1.49-4,.48-5.37,6-5.76,8.4-.59,11.32,2.4,27.15-4.67C563,39.73,566,29.19,585.4,30.77a8.78,8.78,0,0,0,3-.5c3.56.06,5.59-6.08,10.88-2.08,2.71,5,1.05,6.21.87,8.6-.52,6.92-1.6,5.81-1.93,12.73a7.27,7.27,0,0,0,2.68,5.95c1.36.94,5.09,1.72,7.19-.11,1.58-1.38,2-4,1.72-6.07-1-8.15-3.12-8.26-3.47-16.42-.06-1.33,1.57-2.7,3.4-4.08a6.59,6.59,0,0,0,3.28.32c12.07-3.39,9.69-.09,20,6.08,5,3,9,1,15,1a7.68,7.68,0,0,1,5.17,8.37c-.51,6.92-1.6,13.81-1.93,20.73-.09,2,.81,4.76,2.68,5.95a6.2,6.2,0,0,0,7.2-.12c1.61-1.34,2-4,1.71-6.06-1-8.15-3.12-16.26-3.47-24.42-.1-2.22,1.64-6.45,6.95-6.85,5.69.4,5.63,3,6.69,5.4s-3,5-1.15,9.56c1.15,1.44,3.31,2.44,4.73-.06s-.2-8.8.11-10.65.44-3.51,2.53-4.51a5.39,5.39,0,0,1,6.2,1.07c5.15,5.16,10.92,5.13,17.94,2.5,2-.76,6.82-3.33,8.73-.12s-.61,10.78-1.36,15.81,1.24,11.57,7.25,11,4-7.58,3-9.58c-2.75-5.51-3.39-4.84-4.39-10.93-1.56-9.59,4.89-14.08,17.42-12.14C741.38,32.26,747.64,35,748.3,41c.7,6.24,3.7,9.24,6.7,9.24,8,0,6-7,4-9s-3-2-4.24-2.72c-4.41-2.53-8.71-6.1-1.65-9.87C760,25,767.8,30.46,771,34.19c6,7,12,4,14,2,2.23-2.23,4-7-5-10-3-1-7.41-1-3.59-3.59,3.59-2.41,8.25-2.41,12.59-2.41,18,0,24.66,5.07,24.53,20.33,0,2.82-.15,5.65-.32,8.46s-1.15,5.43-.68,8.32,3.12,4.21,4.47,1.89a30.16,30.16,0,0,0,1.82-8c.25-4.86-.87-9.8-.08-14.59.38-2.25,2.62-6.19,5.94-6.3s4.1,4.78,4.63,7.35c.6,2.87-.66,4.36-1,9s3.67,3.58,3.79.17c0-4.2-3.87-16.51,0-15S840,41.19,849,39.19c5-2,4.71-2.8,8.85-2.89,5.15-.11,4.15,3.89,8.15,3.89,5,0,5.74-4.65,8.87-4.33s5.13-.67,8.13-1.67,9-2,18,4c3,2,10,2,15,0,4-1,7-2,11,0,2.16,1.08,7.69,0,8.19,4.22.81,6.78-1.48,9.68-2.26,14.51S935,66.19,939,63.19s1.33-14.67.58-22,3.54-10.5,13.18-10.34c8.54.14,14.75,2.7,18,9.24,1.2,2.38,1,6.45,6.19,9.06,4,2,7.06-1.31,6-5-.94-3.31-5-6-7.26-7.14-5.89-3-4.08-7.38,2.91-9.2,9.25-2.4,15.32-.27,20.42,6.07,4,4.94,5.27,9.5,10.93,13.27,6.86,4.57,11,3,13,2,5.58-2.79,2.54-8.88-1.32-10.84C1016,35.49,1010,33,1004.53,30c-2.55-1.4-9.9-3.32-7.22-6.57s9.69-.26,21.69-.26c6,0,9.69-3,12.38-3.85a4.86,4.86,0,0,1,6.25,2.73c1.37,4.12,7,5.05,9.92,4.29,4.45-1.17,6.9,1.27,7.38,2.64.78,2.21-4.93,4.19-7.93,7.19-1.88,1.88-3.66,6.53.74,7.78s8.87-4.81,10.61-7.95c2.43-4.4,6.93-7.22,12.55-5.53,3.22,1,5.84,5,6.68,8,1,3.42.39,7.37-.73,10.83-2.85,8.83-1.85,10.83-1.08,11.71,1.61,1.84,3.53,1.38,5.23-.88,3-4-3.53-16.67,2.13-26.12,1.87-5.88,20.87-6.88,18.87.12s-2.32,12.49,1,14c2.74,1.24,4,0,4-1.55,0-3.43-2-7.45-1-10.45s2.36-3.45,4.68-3.23a5,5,0,0,1,4.11,3c.74,1.63.46,3.59.29,5.39-.77,7.93-4.52,19.77-2.3,23.81s5.15,3.5,8.19.27-2-22.46-.51-28.85,2.54-2.39,4.54-1.39,9.38-5.47,13-5,5.78,7.3,8.55,12c2.29,3.87,5.93,5.83,11.52,4.07,6.8-2.15,10.79.2,14.17,4.32,3,3.63,4.32,11.43,9.54,12s4.89-8.29,7.56-7.85,1.64,6.21,1.51,8.42c-.51,9.32-3.18,11.72-3.85,21-.25,3.52,1.37,14.54,7.82,14.37,6.73-.18,5.61-11,5.18-14.37-1.29-10.18-4.41-13.81-5-24-.35-6,5.1-7.51,7.32-7.57,5.82-.17,5.86,4,5.61,7.62s-2.71,7.5-.06,10.53c2.13,2.42,4.28.55,5.13-.58,3-4-5-17-1-20s6.35,1.76,7,2.6c4.42,6,9.72,7,17.62,3.13,4.54-2.25,6.63.62,6.4,3.86-.48,7-1.3,5.06-2,12.08-.43,4.29,2.46,9.22,6,8.33,4-1,4-4,2.5-9-1.9-6.33-2-4.09-2.67-10.65-.52-5.29.45-10.23,9.2-11.36,8.21-1.06,14.73,1.94,17.5,8.05,1,2.15.4,4.81,1.47,6.95a6.19,6.19,0,0,0,9,2.7c3-1.7,1.75-5.27,0-6.49-3.06-2.21-5.43-3.33-7.06-5.21-4.34-5-.63-9.32,7-10.81,6.93-1.36,11.78.53,14.51,5.5,2.66,4.82,6.46,5.31,10.46,4.31,7.25-1.81,7-11,13-9s4,18,3,24,.68,8.89,3.86,8.59c3.39-.32,2.26-4.37,1.44-7.91-2-8.42-1.61-20.94-.29-25.92,1-3.76,2-4.71,4-4.73,3,0,4.88,3,5.32,4.59.64,2.38,1.42,2.89-1.36,9.38-3,7-1.69,8.31,0,10,1,1,2.66,1.45,4.33-.77s-2.67-14.16,0-17.7,11.76,9.55,16.72,8.51,2.65-4.84,6.3-6.44,5.65,5.4,17.53-2.49c3.67-2.44,3.71,6,3.12,8.89-1,5,0,13-2,24-1.07,5.9,0,13,5.73,11.56,4-1,3.27-7.56,2.27-14.56-1.58-11-3.26-13.31-3-24s2-12,3-13,3-1.32,4,0c1.42,1.86-2,5,1.85,6.71,1.08.48,2.51.2,3.15-1.71,1-3-3.07-5.07,0-11,1-2,2-5,9.14-4,5.67.82,7.08,8.35,10.88,10.62,2.1,1.25,6.86,3.22,9.92.29s-.18-5.65-2-7.39c-2.06-1.92-6.56-2.35-9.22-3.95s-5-3.87-.83-5.73,20.72-1.56,23.5-1.69c3.66-.17,8.66,1.83,4.35,6.37-2.17,2.09,3.28,3.88,6.28,3.54,2-.22,6-.08,6.91,5.12.34,2-1.9,3.49-2.88,5.8a22.31,22.31,0,0,0-2.3,7.52c-.7,4.48,2.41,9.28,6.3,6.48s2-7,2.18-10.26c.37-6.67,10-4.45,12.93-6.1s10.13-8,17.87-3.17c5.38,3.34,6.29,7,5,12.71-1,4.82-2,3.72-2,8.82,0,3,2.7,6.39,6,6s5.77-4.09,5-7.56a61.21,61.21,0,0,0-3.33-9.87c-1.32-3.55.43-4.76,5.32-5.1,7.45-.53,6.19-4.84,12-6.47s9.83,2,14,2c4,0,5.68-3,7.18-5.61,8.82-15.39,25.38-13.19,31.6-6.19,1,1.12,4.7,2,6.44,1.48,10.71-3,14.29-2.65,17.78,4.32,2,4,3.58,7.7,7.29,7.83,4.71.17,7.71-1.83,9.75-6.08.37,3.35,1.75,7.13,2,9.25,1,10-2.6,10.62-2.9,16.75a6.45,6.45,0,0,0,2.38,5.28c1.21.84,5.33.77,6.38-.1,1.42-1.19,1.75-3.58,1.52-5.38-.93-7.23-5.85-7.66-2.38-21.55,2-8,3.92-6.34,5.46-6.17s4.17,3.78,5.11,5.95,1,3.4.69,7.31,2.87,5,3.31-.05-.23-6.31.1-9.44c.14-1.43.15-2.41,2.24-4s4.58,0,5.5.94c4.56,4.58,9.68,4.56,15.91,2.22,1.8-.68,5.79-3.45,7.73-.1s.27,9.76-1.2,14c-1.85,5.33-.85,13.33,4.15,13.33,4,0,2.71-6.18,2-9-1-4-1-7-.93-12.78.09-8.61,4.32-12.48,15.44-10.76,6.51,1,10.29,4,12.65,8.72.94,1.87,2.84,6.82,7.84,6.82,2.24,0,4-2,3-5s-5.11-2.54-7-4c-3.57-2.76-5.94-5.65.43-8.77,6.57-3.23,12.57-3.23,18.57-.23,3.12,1.56,4,4,6.64,11.67,4.47,13,10.22,13.75,11.36,10.33,2-6-7-14-10.68-20.17s1.16-10.7,5-10.95c43.45-2.88,49.32-13.88,84.45-13.88,9,0-1728.13-.53-1722,0C114.5,2.55,133.82,9.31,170,12.37s57.36-5.4,76.27,8.22c7.58,5.46,16.61,2.2,19.74,9.08,1.1,2.42,1.91,4.82,3.11,7.23,1.65,3.29,4.59,4.92,8.65,3.29,3.94-3.37,2.56-5.65,1-8-2-3-5.45-2.71-7.29-4.83-4.9-5.64-2.36-13.35,6.37-12.2,2.65.36,7.6-1.43,10.68,4.18,3,5.43,6.08,0,12.15,1.8,5.74,1.69,2-5.87,13.94-3.15,4.62,3.54-1.85,17.2,8.15,27.2,2,2,5,4,7.49,2.48,4.51-4.48-1.31-8.17-.23-10.94,3.77-9.64-.58-12.31-.33-22,.05-1.8,1.07-4.49,4.27-2.54,2.1,1.72,3.8,4.05,5.1,9a40,40,0,0,1,.44,14.77c-.74,4.27-1.37,8.07,1.26,11.27,1,1,3.49,3.07,5,.54,7-9.54,4.17-16.77,1-25.54-3-10,8,11,15.68,11.35,6.32.29,4.92-7.17,7.12-7.26S373,42.19,385,47.19C394.85,51.29,400.55,42.57,400.55,42.57Z" transform="translate(-98.75 1.94)"/><g id="f1e041c4-7230-44e2-af71-8c7ceec196f9" data-name="Halloweentopcharacter"><polygon id="a5158b78-29ba-4cec-8a3d-52e13dd5fafd" data-name="star6" class="e88e70c4-4be9-4f58-b17d-963db1263cea" points="1622.92 72.17 1629.03 84.54 1642.68 86.52 1632.8 96.15 1635.13 109.75 1622.92 103.33 1610.71 109.75 1613.04 96.15 1603.16 86.52 1616.82 84.54 1622.92 72.17"/><g id="eed4ee2e-9d93-44f4-8a8a-ef3a5c1f67c0" data-name="bat"><path id="e7884b58-8a42-4fa4-ae85-b5a935f9f02c" data-name="batbody" class="e88e70c4-4be9-4f58-b17d-963db1263cea" d="M1577.81,111.61c.15-1.67.23-3.22.43-4.75.41-3.21.88-6.42,1.31-9.63a6.53,6.53,0,0,0-.09-1.07,2.08,2.08,0,0,1,.08-.94c.41-.81.26-1.28-.68-1.46a1.93,1.93,0,0,1-.62-.35c-2.61-1.72-5.18-3.49-7.84-5.14-2.34-1.45-2.45-1.52-1.85-4.22a16,16,0,0,0-.79-10.49c-.82-1.77-2.21-3.32-2.09-5.61a31.38,31.38,0,0,0-4.72,5.33c-2,3.11-2.84,6.5-1.52,10.21.71,2,0,3.06-2.09,3.44-1.42.25-2.88.22-4.31.39-1.67.19-3.38.59-3.8-2-2.71,3.68-5.24,7.09-7.77,10.51-1.2,1.64-1.72,1.68-3,.19a15.8,15.8,0,0,0-6.25-4.59,61.15,61.15,0,0,0-6.61-1.75c-1.34-.33-1.77.1-1.37,1.41.67,2.19,1.3,4.39,2.14,6.52a11.32,11.32,0,0,0,7.66,7.24c1.48.42,1.8.91,1.76,2.44-.08,2.73-.13,5.46-.3,8.18a2.38,2.38,0,0,0,1.19,2.39c4.48,3,8.85,6.26,14,8.13a1.26,1.26,0,0,1,.66,1,1.42,1.42,0,0,1-.79.88,17.68,17.68,0,0,1-2.52.41c-1,0-1,3,2.63,3.68.81.26,1.61.54,2.41.84,3.07,1.15,5.91,2.89,8.87,4.32a3.41,3.41,0,0,0,1.25.13,5.25,5.25,0,0,0,0-1.12c-.31-1.65,0-2.19,1.69-2.27a13.5,13.5,0,0,0,9.9-5c.83-1,1.7-1.91,2.56-2.86.47-.52,1-.7,1.56-.15,1.64,1.6,2.63,1.32,3-1.31a2.59,2.59,0,0,0,.06-.83,18.88,18.88,0,0,1,.56-7.19c.51-3.22,1.51-9.22-2.12-6.21C1579.83,111,1579,113.19,1577.81,111.61Z" transform="translate(-98.75 1.94)"/><g id="bf85cc65-d681-44c5-8b02-3f6f68028d0d" data-name="lefteye"><path id="e6631fa5-2d5c-40b8-a2b6-5ada67eccfa5" data-name="eyebackground" class="e385c96d-c057-4714-81cb-32d002576fbe" d="M1543.73,99.09c-3.86,1.85-5.49,5.85-3.3,10.19,1.63,3.21,5.85,4.43,9.42,2.66a6.57,6.57,0,0,0,3.78-8.6C1551.41,98.87,1547.57,97.24,1543.73,99.09Z" transform="translate(-98.75 1.94)"/><path id="f6625c6c-2805-4743-8e2b-acb033e707ed" data-name="eye" class="e88e70c4-4be9-4f58-b17d-963db1263cea" d="M1545.72,106.16a1.4,1.4,0,0,0-.8,2,1.51,1.51,0,0,0,2.08.86c.82-.42,1-1.35.52-2.42C1547.11,105.74,1546.46,105.83,1545.72,106.16Z" transform="translate(-98.75 1.94)"/></g><g id="eab01891-cc1a-4c9e-8947-ae6357e1ce55" data-name="righteye"><path id="eff49bf0-afeb-4e0a-a359-03d9aec96391" data-name="eyebackground" class="e385c96d-c057-4714-81cb-32d002576fbe" d="M1564.62,91a8.64,8.64,0,0,0-7.93,3.31,3.7,3.7,0,0,0-.88,1.81,9.64,9.64,0,0,0,3,8.35,4,4,0,0,0,3.91,1c.63-.13,1.27-.18,1.89-.32,5.33-1.19,6.39-6,4.8-10.16C1568.3,93.18,1567.14,91.28,1564.62,91Z" transform="translate(-98.75 1.94)"/><path id="bf602700-7e0d-4c1a-9015-6e6953caddba" data-name="eye" class="e88e70c4-4be9-4f58-b17d-963db1263cea" d="M1561,98.92a1.56,1.56,0,0,0-.77,2.31c.46.8,1.1,1.28,2.09.81a1.57,1.57,0,0,0,.65-2.34A1.35,1.35,0,0,0,1561,98.92Z" transform="translate(-98.75 1.94)"/></g><path id="a5cc8586-b413-4cd8-a2f3-b757b7ba4735" data-name="rightbatbodywing" class="e88e70c4-4be9-4f58-b17d-963db1263cea" d="M1609.35,94.63c-5.2-5.86-14.45-8.46-20.73-6.25-5.79,2-7.68,8.12-7.7,13,0,3.51-1.18,7.83-3.53,13.71s.13,6.51,1.36,3.45c4.4-8.68,11.46-4.73,11.46-4.73s-.44-5.78,4.53-8c2.45-1.11,7.31,1.73,7.31,1.73a16.29,16.29,0,0,0-.31-3.54,5.05,5.05,0,0,1,4.81-6.6c3.51,0,4.75,1.32,5,1S1610,95.39,1609.35,94.63Z" transform="translate(-98.75 1.94)"/><path id="a4b97a07-7511-42d1-b762-e65923a54195" data-name="leftbatbodywing" class="e88e70c4-4be9-4f58-b17d-963db1263cea" d="M1519.19,146.05c-2.47-7.44-.08-16.75,5-21.08,4.66-4,10.87-2.58,15.09-.17,3,1.75,7.37,2.91,13.63,3.82s5.58,3.37,2.3,2.91c-9.71-.55-9.82,7.54-9.82,7.54s-4.79-3.27-9.22-.1c-2.19,1.57-2.17,7.19-2.17,7.19a16.76,16.76,0,0,1-2.91-2,5,5,0,0,0-8.12.85c-1.75,3.05-1.24,4.78-1.61,4.81S1519.51,147,1519.19,146.05Z" transform="translate(-98.75 1.94)"/></g><polygon id="a3620299-2910-4a90-9c6e-752c859accd5" data-name="star5" class="e88e70c4-4be9-4f58-b17d-963db1263cea" points="1264.99 85.84 1269.77 95.53 1280.47 97.09 1272.73 104.63 1274.55 115.29 1264.99 110.26 1255.42 115.29 1257.25 104.63 1249.51 97.09 1260.2 95.53 1264.99 85.84"/><g id="b3a890ed-8036-4170-b285-5578c2a22fc2" data-name="spider2"><path id="ec435f63-ecef-4ac4-8148-2a4d85a47a74" data-name="leftleg4" class="e88e70c4-4be9-4f58-b17d-963db1263cea" d="M1306.44,172.61c-3.08,3.41-6.73,10.66-2.37,18.57.79-6,1-11,6.57-16.79C1314.11,170.79,1309.52,169.2,1306.44,172.61Z" transform="translate(-98.75 1.94)"/><path id="aa1c6092-9fca-453c-b658-042d00f95a5b" data-name="leftleg3" class="e88e70c4-4be9-4f58-b17d-963db1263cea" d="M1306.17,169.8c-4.38,1.4-11.18,5.85-11.37,14.87,3.7-4.81,6.35-9,14.1-11.23C1313.71,172.07,1310.54,168.39,1306.17,169.8Z" transform="translate(-98.75 1.94)"/><path id="b220e404-ce05-474e-9c14-5f15788257bf" data-name="leftleg2" class="e88e70c4-4be9-4f58-b17d-963db1263cea" d="M1307,167.76c-4.58-.42-12.58,1-16.29,9.24,5.29-3,9.38-5.81,17.38-4.81C1313,172.81,1311.52,168.18,1307,167.76Z" transform="translate(-98.75 1.94)"/><path id="f1da1fd6-5ae3-46a2-99e1-282a124359e3" data-name="leftleg1" class="e88e70c4-4be9-4f58-b17d-963db1263cea" d="M1307.35,164c-3-2-11-10-10-21-4,6-5,8,7,24,.51.68,2.42,2.58,4,1C1309.35,167,1308.59,164.85,1307.35,164Z" transform="translate(-98.75 1.94)"/><path id="a44ee63e-5d34-4010-a70f-7cc057bc1cab" data-name="righleg4" class="e88e70c4-4be9-4f58-b17d-963db1263cea" d="M1323.65,172.61c3.08,3.41,6.73,10.66,2.37,18.57-.78-6-1-11-6.57-16.79C1316,170.79,1320.57,169.2,1323.65,172.61Z" transform="translate(-98.75 1.94)"/><path id="a73c9028-c8fe-4de3-a475-68c0c0828659" data-name="righleg3" class="e88e70c4-4be9-4f58-b17d-963db1263cea" d="M1323.92,169.8c4.38,1.4,11.18,5.85,11.37,14.87-3.7-4.81-6.35-9-14.1-11.23C1316.38,172.07,1319.55,168.39,1323.92,169.8Z" transform="translate(-98.75 1.94)"/><path id="bfd19e52-4e56-4f94-9479-d33927daaec1" data-name="righleg2" class="e88e70c4-4be9-4f58-b17d-963db1263cea" d="M1323.15,167.76c4.57-.42,12.57,1,16.28,9.24-5.29-3-9.38-5.81-17.38-4.81C1317.09,172.81,1318.57,168.18,1323.15,167.76Z" transform="translate(-98.75 1.94)"/><path id="e1b0a6bb-424f-41c6-a998-4a9782247d60" data-name="righleg1" class="e88e70c4-4be9-4f58-b17d-963db1263cea" d="M1322.74,164c3-2,11-10,10-21,4,6,5,8-7,24-.51.68-2.41,2.58-4,1C1320.74,167,1321.5,164.85,1322.74,164Z" transform="translate(-98.75 1.94)"/><path id="ac4b122a-c246-47dd-bdf5-cea263fe24da" data-name="spiderbody" class="e88e70c4-4be9-4f58-b17d-963db1263cea" d="M1323.07,169.72c2-3.27,5-7.87,5-15.28,0-11.45-13.14-21.25-13.14-21.25s-12.18,9.26-12.19,20.7c0,7.37,4.33,13.64,5.33,15.83s1.41,3.67,1,5.46c-1,4.37.59,8.74,3,8.74,2,0,1-4.37,3-4.37s2,4.37,4,4.37,4-4.37,2.6-9.83C1321.5,173.12,1321.83,171.75,1323.07,169.72Z" transform="translate(-98.75 1.94)"/></g><line id="b8a39d99-af94-4fc5-94cd-35f15fbe0f25" data-name="spiderline2" class="f6cce41c-5932-4082-9073-8fa7656753ef" x1="1215.37" y1="3" x2="1215.37" y2="158.13"/><polygon id="a351f32c-34ac-4a3d-9230-bfb35134258d" data-name="start4" class="e88e70c4-4be9-4f58-b17d-963db1263cea" points="949.44 64.52 954.22 74.21 964.91 75.77 957.18 83.31 959 93.97 949.44 88.94 939.87 93.97 941.7 83.31 933.96 75.77 944.65 74.21 949.44 64.52"/><polygon id="abe30d88-82ff-4438-8aa8-9a5a348b0af1" data-name="start3" class="e88e70c4-4be9-4f58-b17d-963db1263cea" points="765.9 86.05 771.91 98.22 785.34 100.17 775.62 109.64 777.91 123.02 765.9 116.7 753.89 123.02 756.18 109.64 746.47 100.17 759.9 98.22 765.9 86.05"/><polygon id="a327b2a6-ed4e-46af-8221-baa5f19cf491" data-name="start2" class="e88e70c4-4be9-4f58-b17d-963db1263cea" points="580.58 87.81 585.37 97.5 596.06 99.06 588.32 106.6 590.15 117.26 580.58 112.23 571.01 117.26 572.84 106.6 565.1 99.06 575.8 97.5 580.58 87.81"/><path id="a8e70817-cc8b-4b25-a0b4-42203c1ecbcd" data-name="candy" class="e88e70c4-4be9-4f58-b17d-963db1263cea" d="M573.74,122.91c4-1.22,6.82-3.24,6.43-4.52s-3.71-1.34-7.53-.24C575,115,576,111.86,575,111.07s-4,1.21-6.51,4.51a20,20,0,0,0-2.25,3.69,12.72,12.72,0,0,0-22.5,10.09A18.43,18.43,0,0,0,539,127c-3.94-1.32-7.49-1.36-7.92-.08s2.2,3.22,5.9,4.55c-3.78,1.23-6.48,3.17-6.1,4.42s3.9,1.34,7.85.14c-2.49,3.3-3.64,6.61-2.58,7.42s4-1.2,6.51-4.51a16.7,16.7,0,0,0,2.79-5.1,12.72,12.72,0,0,0,23.5-7.73,20.79,20.79,0,0,0,3.2,1.37c3.94,1.33,7.48,1.37,7.91.09S577.65,124.24,573.74,122.91Z" transform="translate(-98.75 1.94)"/><line id="f30b6f3b-d626-42a0-8d02-4f48aaa86f6a" data-name="candyline1" class="f6cce41c-5932-4082-9073-8fa7656753ef" x1="457.49" x2="457.49" y2="129.13"/><g id="a65434a4-da9e-4b91-ac2d-daaa734521d3" data-name="spider1"><path id="b69bf716-f2a3-4358-935a-ef4a15579d5f" data-name="leftleg4" class="e88e70c4-4be9-4f58-b17d-963db1263cea" d="M407.52,250.36a12.22,12.22,0,0,0-1.82,14.24c.6-4.61.74-8.42,5-12.87C413.4,249,409.88,247.74,407.52,250.36Z" transform="translate(-98.75 1.94)"/><path id="a61bf0d5-5d06-4eb4-b6e8-ab17589f0c27" data-name="leftleg3" class="e88e70c4-4be9-4f58-b17d-963db1263cea" d="M407.31,248.2a12.24,12.24,0,0,0-8.72,11.41c2.84-3.69,4.87-6.91,10.82-8.61C413.09,250,410.66,247.12,407.31,248.2Z" transform="translate(-98.75 1.94)"/><path id="e16af9f7-93e2-4422-b466-e5db1f1c5e79" data-name="leftleg2" class="e88e70c4-4be9-4f58-b17d-963db1263cea" d="M407.9,246.64a12.23,12.23,0,0,0-12.48,7.09c4.05-2.29,7.19-4.46,13.32-3.69C412.54,250.52,411.41,247,407.9,246.64Z" transform="translate(-98.75 1.94)"/><path id="aea60535-96c5-4765-8998-adcd0e4386c1" data-name="leftleg1" class="e88e70c4-4be9-4f58-b17d-963db1263cea" d="M408.21,243.77c-2.3-1.53-8.43-7.66-7.67-16.1-3.06,4.6-3.83,6.14,5.37,18.4.4.53,1.86,2,3.07.77C409.74,246.07,409.17,244.41,408.21,243.77Z" transform="translate(-98.75 1.94)"/><path id="b1f11e8f-7874-4088-8452-282f06e503c5" data-name="righleg4" class="e88e70c4-4be9-4f58-b17d-963db1263cea" d="M420.71,250.36a12.24,12.24,0,0,1,1.82,14.24c-.6-4.61-.75-8.42-5-12.87C414.83,249,418.35,247.74,420.71,250.36Z" transform="translate(-98.75 1.94)"/><path id="bcee9a31-a2cb-4d28-a8d5-2801aa019338" data-name="righleg3" class="e88e70c4-4be9-4f58-b17d-963db1263cea" d="M420.92,248.2a12.24,12.24,0,0,1,8.72,11.41c-2.84-3.69-4.87-6.91-10.82-8.61C415.14,250,417.57,247.12,420.92,248.2Z" transform="translate(-98.75 1.94)"/><path id="a1810e1c-790e-40b7-8a42-128b3bdbf0e4" data-name="righleg2" class="e88e70c4-4be9-4f58-b17d-963db1263cea" d="M420.33,246.64a12.23,12.23,0,0,1,12.48,7.09c-4.05-2.29-7.19-4.46-13.32-3.69C415.68,250.52,416.81,247,420.33,246.64Z" transform="translate(-98.75 1.94)"/><path id="e6b1605c-8a41-42ca-9f38-f3035c6e2c8a" data-name="righleg1" class="e88e70c4-4be9-4f58-b17d-963db1263cea" d="M420,243.77c2.3-1.53,8.43-7.66,7.67-16.1,3.06,4.6,3.83,6.14-5.37,18.4-.4.53-1.86,2-3.07.77C418.48,246.07,419.06,244.41,420,243.77Z" transform="translate(-98.75 1.94)"/><path id="f8b5e78b-cfb3-4192-ac8d-bcdeed3a6141" data-name="spiderbody" class="e88e70c4-4be9-4f58-b17d-963db1263cea" d="M420.27,248.15c1.54-2.51,3.83-6,3.84-11.72,0-8.78-10.08-16.3-10.08-16.3s-9.34,7.1-9.36,15.88c0,5.65,3.33,10.46,4.1,12.14a6.14,6.14,0,0,1,.77,4.19c-.77,3.34.45,6.69,2.3,6.69,1.53,0,.76-3.35,2.3-3.35s1.53,3.35,3.06,3.35,3.07-3.35,2-7.53C419.06,250.75,419.32,249.71,420.27,248.15Z" transform="translate(-98.75 1.94)"/></g><line id="bb2a1f79-abee-4242-8bcb-c635230171f3" data-name="spiderline1" class="f6cce41c-5932-4082-9073-8fa7656753ef" x1="317.45" y1="2" x2="317.14" y2="227.89"/><polygon id="b9504efa-9e85-4529-9800-4f57a6f967a4" data-name="start1" class="e88e70c4-4be9-4f58-b17d-963db1263cea" points="211.81 50.76 221.38 70.14 242.77 73.25 227.29 88.34 230.94 109.65 211.81 99.59 192.68 109.65 196.33 88.34 180.85 73.25 202.24 70.14 211.81 50.76"/></g></svg>