<svg id="aa1cb178-03f4-43ef-b3ab-024bb5ac7708" data-name="Halloween" xmlns="http://www.w3.org/2000/svg" viewBox="0 0 1722.05 1083.3"><defs><style>.b8813830-34a7-441e-a6e3-7824313788ea{fill:#fcc000;}.aea39e34-22c5-488d-8ff2-5e0b0e2038df{fill:#1d2a54;}.ea44dbf3-1f26-4352-a35a-2e90e4478363{fill:#e3af32;}.a0a36b47-2cf1-4d6a-a54c-de14008c3e83{fill:#040000;}.b237a497-799d-4714-b503-6b5cd7b2b2e9{fill:#1a2a52;}.ac7b3b9e-e212-496b-9975-7a623d7404b2{fill:#f58328;}.b37ab4cf-9569-478c-98d0-3b81697cfc42{fill:none;stroke:#1a2a52;stroke-miterlimit:10;stroke-width:2px;}</style></defs><g id="b29f313d-435f-444e-beca-b0ff7b29c183" data-name="Halloweenbelow"><g id="f7c4f362-7af9-4ce9-a3f2-e20b14a724e1" data-name="pumpkin2light"><ellipse id="a9b86a3a-f730-49bf-aa23-7cdc5379aadb" data-name="pumpkin2lightright" class="b8813830-34a7-441e-a6e3-7824313788ea" cx="1672.72" cy="1022.97" rx="55" ry="76.2" transform="translate(320.61 2533.93) rotate(-81.72)"/><ellipse id="a71e5fa7-5f50-4a2f-be81-672a0dfc0ebe" data-name="pumpkin2lightleft" class="b8813830-34a7-441e-a6e3-7824313788ea" cx="1514.06" cy="1025.58" rx="64.2" ry="47.3" transform="matrix(0.94, -0.35, 0.35, 0.94, -363.35, 603.6)"/></g><g id="b05a2162-8745-4707-a803-6c93825210f2" data-name="Halloweenbelowscenery"><path id="af0447da-0c1a-4835-b160-6efee70fbec5" data-name="pumpkin2" class="aea39e34-22c5-488d-8ff2-5e0b0e2038df" d="M1587.2,987.3c2.9-2.4,2.9-6.4,5.9-8.9,1.9-1.5,3.9-3.5,3.4-6.3,0-.1.5-.3.8-.5,1.5-1.2,3.1-2.2,4.6-3.5,1.1-1,2-2.1,3-3.2,1.3-1.4,2.3-3.3,3.9-4.1,1.9-.9,3.8-.8,5.7-2.8s5.1-4.1,8.9-3.3c.5.1,1.5-.3,1.5-.6.3-2.5,2.3-1.9,3.9-1.9,7.2-.1,14.4,0,21.6-.1a11.62,11.62,0,0,0,4.1-.9c1.2-.4,2.3-1.7,3.4-1.6,3.2.3,7.3-2,9.5,2.2.1.2.7.1,1.1.1h15.6c0-3.2.2-6.3-.1-9.3-.1-1-2.3-1.8-2.5-2.8-.4-2.1-.1-4.4-.1-6.6h11.5v14.2c0,.6-.1,1.5-.3,1.6-3.8.7-2,3.4-2.6,5.7,3.8,1.3,7.4,2.5,11.8,4,1.8,1.7,4.3,4,7.6,7,2.5,0,6-.2,9.5.1,1.5.1,2.9,1,4.3,1.5l-.3.9c1.6.2,3.1.3,4.6.5,1.5,2.6,3,5,3.9,6.6,2.6,1.6,4.5,2.7,6.4,4a42.91,42.91,0,0,1,4.8,3.6,54.39,54.39,0,0,1,4.9,4.7,53,53,0,0,1,3.9,5.4c.8,1.2,1.5,2.4,2.2,3.6.2-.1.5-.2.7-.3.1,1.5.2,2.9.2,4.4l1-.3a17.64,17.64,0,0,1,1.7,3.7c.4,1.6.2,4.6.8,4.7,3.1.7,2.1,2.8,2.1,4.3.2,5.7.1,11.3.1,17v6.5c-3.3,29.4-14.9,36.8-31.9,43.6l-72.6-.3-71.5-2.1-48.6-.2-52.1.3s-30.6-1.8-39.5-17.6c-7.7-13.8-3.6-15.1-3.8-15.1-3.1-.3-2.1-2.4-2.3-4.1-.2-1.5.2-3.4-.7-4.5-2.9-3.9-3.1-6.3-.6-9.1-.7-2.2-1.5-3.7-1.6-5.3-.1-3.1-.9-7.3.8-9.2,2-2.2,1.7-4.1,2-6.2.1-.9.1-2.5.4-2.5,4.1-.5,1.8-3.8,3.1-5.4,1.8-1.5,4.4-2.8,4.9-4.7,1.2-4.1,3.9-6,8-6.7.4-.1.8-.6,1.2-1,1.5-1.4,3.1-2.8,4.6-4.3,1.7-1.7,3.4-3.4,5.3-5.4,1-.1,3.8,0,3.9-.6,1-3.5,4.1-1.9,5.8-2.9,2.1-1.9,4.3-3.7,6.7-5.9,0-1-.1-2.4-.2-4.3-2.8-1-5.6-2-8.3-3.2a7.47,7.47,0,0,1-2.8-2.5,2.47,2.47,0,0,1,.1-2.5c2.2-1.8,4.6-3.4,6.8-5,1.2,1,2.6,2,4.3,3.4.4,1.5-1,4.5,2.9,4.5.1,1.7.2,3.2.2,3.8,1.6,1.7,2.7,2.7,4.1,4.2,1.1-.2,4-.3,4.1-.9.6-2.8,2.7-1.8,4.3-1.9,2.8-.1,5.6,0,8.4,0,.8,0,2.3-.2,2.3-.4.4-4,6.7-.9,6.9-5,5.1.5,10.8-2,15.3,2.2,1.8-1.9,11.1-3.6,12.4-1.8,1.6,2.3,3.7,1.8,5.8,2.3,4,.8,7.9,2,11.8,3,.2,0,.4.3.5.5,2,2.9,4.6,4.9,7.4,4.9a42,42,0,0,1,4.4,3.5c1.4,1.4,2.4,3.2,3.9,4.4,2.8,2.1,5.1,4.2,5.5,7.6,1,.8,1.5,2,2.5,2.8.9.4,2.5.7,2.9.3m103.1,87.2a6.76,6.76,0,0,0,2.3-.7,20.44,20.44,0,0,1,4-1.8c2.1-.4,4.7.7,5.6-2.3.1-.3,1.6-.2,2.4-.5a21.86,21.86,0,0,0,3-1.6c.5-.3.9-1,1.3-.9,3.9.1,5.6-2.5,7.6-5,1.2-1.5,3.7-2,4.6-3.6,1.9-3,3-6.4,4.8-10.4-3.2.4-5.8-1.2-6.7,2.1a1.58,1.58,0,0,1-.8.5c-4.3,1.2-8.6,2.3-13.3,3.6.3,4.2-3.5,6.6-6.7,9.2-.6.5-2.6-.6-3.8-.6a39.41,39.41,0,0,1-6.8.8c-1.2,0-1.5-2.8-1.1-7.5-3.3,0-6.6.1-9.8,0-1.9-.1-4.2.7-5.1-2-.1-.4-1.7-.5-2.7-.5-2.4-.1-4.9-.1-7.3-.1-1,0-2.4.1-2.8-.4-4.4-5.3-4.6,1.2-6.8,2-1,.3-2,.5-2.9.8-.9-3.2-3.7-2.2-6-2.3-6.1-.2-6.3-.4-6.1-6.1.1-4.3-2.1-6.7-6.5-7.7a11,11,0,0,1-4.6-2.8c-2.4-2.3-4.4-4.8-6.7-7.2-2.1-2.1-4.4-4-6.5-6.2a17.22,17.22,0,0,1-2.2-3.7,19.23,19.23,0,0,0-1.3-1.7,10.7,10.7,0,0,0-1.4,1.6,29.86,29.86,0,0,0-2,4c-.4,1.2-.9,3.4-.3,3.8,3.3,2.1,2.1,5.2,2.4,8,.2,1.7-.6,3.8,2.3,4.3.2,0,.6.8.5,1.2-1,3.1,2.6,4,3.6,6.1.1.1,1.8,0,2-.3,1.2-2.1,1.5-1.9,3.4-.2,1.7,1.5,3.1,4.1,6.4,4.1,1.9,0,3.5,4.2,2,4.9-6.1,2.9.4,4.8,1.1,5.4a27,27,0,0,0,8.4,5.4c2.9,1.4,6.2,2.1,9.3,3.1.6.2,1.3.1,1.7.5,4.3,3.7,9.1,2.9,11.9-1.9a3.32,3.32,0,0,1,2.1-1.3,21.64,21.64,0,0,1,3.6,0c8.4.3,8.4.3,9.6,8C1680.8,1074.5,1685.6,1074.5,1690.3,1074.5Zm-146.8-36.8c-.6.5-1.1,1.5-1.6,1.5-3.8,0-5.4,2.8-7.6,4.9-.1.1-.1.2-.2.2-3.3,1.1-6.5,2.8-9.9,3.2-3.2.4-4.3,1.3-4,4.1.1,1.2,0,2.4,0,3.6-2.4,1.2-5.2-.1-7.1,2.8-1.4,2.2-7-.9-8.6-5-8.5,0-17.2.1-25.8,0-2.1,0-4.6.6-6-2.1-.4-.7-2.9-.3-4.4-.3-.2,0-.6,1.4-.4,1.6,2.4,2.1,5,4,7.4,6.1a53.62,53.62,0,0,1,4,4.3c.1.1,0,.3.1.3,3.1,1.1,6.1,2.3,9.3,3.4a2.18,2.18,0,0,0,1.7-.4c1-.7,2-2.1,3-2.1a49.75,49.75,0,0,1,10.9.4c.9.1,1.3,2.8,2,4.7,3.6,0,8.5,1.3,11.4-.3,3.5-2,6.9-1.6,10.2-2.5,2.1-.5,3.9-2.2,5.8-3.4.3.2.5.4.8.6V1060c0-4.2,2.5-6,6.6-7.5,2.9-1.1,4.5-1.4,7.4.2,3.1,1.7,4.8-2.1,6.8-3.8a90.93,90.93,0,0,0,7.8-7.4,3.51,3.51,0,0,0,.6-1.8c.2-1.5-.4-3.4,2.3-3.5a.7.7,0,0,0,.5-.4c-.2-6.6,5.1-12.5,2.9-19.3-.5-1.6-2.2-2.9-3.4-4.2a2.59,2.59,0,0,0-1.7.9c-1.2,2.2-2,4.6-3.4,6.7-1.5,2.3-3.5,4.2-5.2,6.4-.2.3.2,1.5.6,1.6,3.8,1.4,1.7,4.3,1.6,6.4,0,.8-2.3,1.6-3.6,2.4-1.6,1.1-3.2,2.2-4.8,3.4l-2.2,1.6c-.4-.9-.8-1.8-1.1-2.7a26,26,0,0,1-.3-2.8C1544.8,1037,1544.1,1037.3,1543.5,1037.7Zm100.1-29.2c-1.2-.9-.6-4.1-.8-6.2-.2-1.5.7-3.3-2-4.1-.7-.2-.6-2.8-.9-4.3-.3-1.1-.7-2.2-1.1-3.3a12,12,0,0,1-1.7,2.1c-2.6,2.1-5.4,3.9-7.9,6-3.2,2.6-6.2,5.4-9.2,8.2a1.63,1.63,0,0,0-.3,1.5c.2.4.9.6,1.4.7,2,.2,4.1-.2,5,2.3.1.4,1.8.3,2.7.4,2.1.3,4.8-.7,5.7,2.3.1.3,1.3.3,2,.4,1.6.1,3.2-.2,4.2,1.8.4.8,2.9.8,5.3,1.3C1645.1,1014.2,1647.3,1011.1,1643.6,1008.5Zm78.2,23.3c-3.1-1.7-2.7-4.5-2.8-7.1,0-.5-.2-1.3-.6-1.5-2.6-.9-1.8-3.1-2.3-4.9a33.66,33.66,0,0,0-1.9-3.8,35.74,35.74,0,0,1-1-3.5,7.17,7.17,0,0,0-1.1-1.5,17.1,17.1,0,0,0-1.4,1.1,51.81,51.81,0,0,1-4,4.1c-1.5,1.3-3.2,2.3-4.7,3.6-2.8,2.5-5.6,5-8.3,7.6-.4.4-.7,1.6-.5,1.7,1.8,1.2,3.7,2.7,5.7,3.1,2.9.5,6.1,0,9.1.3,3.2.2,6.8-.8,9.4,2.2.6.7,2.7.3,4.4.4C1721.8,1032.9,1722,1032,1721.8,1031.8Zm-248.6-14c0,3.9.2,7.7-.1,11.5-.1,1.6-1.5,3.1-2,4.7a34.69,34.69,0,0,0-.6,4.5,8.82,8.82,0,0,0,2.3,0c.5-.2.7-1.6.9-1.6,4.9,1,8.3-3.5,12.8-3,3.4.4,4.2-2.9,6.9-3.3,0,0,.1-1.4-.1-1.5-4-1.1-5.2-5.9-10.1-6.2-1.8-.1-3.5-3-5.5-5C1476.7,1017.8,1475.3,1017.8,1473.2,1017.8Zm58.1-3.2c3.2,0,5.2,1,6.8-2.1.8-1.7,4.3-2.1,6.4-3.3,3.4-1.8,6.8-3.8,10.1-5.7.1,0-.6-1.8-1.1-1.9-4-.8-6.9-3.4-10.3-5-2.5-1.1-3.8-5.5-7.9-2.9C1533.5,1000.4,1537.5,1008,1531.3,1014.6Zm136.4,18.8c.6.8,3.3.4,5,.3.8,0,1.5-.7,2.3-1-.5-.5-1.2-.9-1.6-1.4-.5-.9-1.4-2-1.1-2.8.9-3.3-1.8-5.2-3.2-7.5a2.49,2.49,0,0,0-1.9-.2c-2.2,2.3-4.2,4.7-6.3,7a18.12,18.12,0,0,1-3.2,2.2C1661.6,1031.4,1665.1,1030.3,1667.7,1033.4Zm-80.2,12.8c-.1-.6-.3-2.2-.5-4.5-2.1,1.6-3.8,2.7-5.4,4.1s-3,3.1-4.5,4.7a4.86,4.86,0,0,0-1.1,1.4c-.1.2.7.9,1.1.9,5.1.1,10.3,0,15.4,0v-1.2C1591,1050,1589.5,1048.4,1587.5,1046.2Zm-75.2-12.6c3.4-1.8,6.7-3.7,10-5.6.2-.1-.4-1.9-.6-1.9-4.4.2-6.3-3.2-9.7-5.9-.9,4.7-.3,8.9-.6,13C1511.9,1033.5,1512.2,1033.7,1512.3,1033.6Z" transform="translate(-98.78 3.1)"/><path id="b6816d1a-2284-496e-bf53-b4476c3331de" data-name="pumpkin1" class="aea39e34-22c5-488d-8ff2-5e0b0e2038df" d="M1410.3,1041.5c-2.4-7-11.9-9.1-13.5-10.3a11.19,11.19,0,0,0-3.9-1.6s-1.8-.1-4.4-.2a.1.1,0,0,1-.1-.1c-.2-.6-.6-.5-1-.5a2,2,0,0,1-.8-.1c-.5-.3-1-.7-1.7-1.2-.1-.5-1.3-.9-1-1.9a.35.35,0,0,0-.2-.1,2.42,2.42,0,0,1-1.4-2.6c.1-.6,0-1.2.1-1.8a.86.86,0,0,1,.3-.6,6,6,0,0,1,.8-.8c.5-.2,1-.3,1.4-.5s.5-.4.7-.5a16,16,0,0,1,2.2,0c.5.5.9.8,1.2,1.1v1.4c-.3-.1-.7-.1-.7-.2,0-.9-.6-.7-1.1-.7a1.77,1.77,0,0,0-1.7.8c-.6.9-.9,2.8-.1,3.6a5.24,5.24,0,0,1,1.1,1c.4.4,2.4.8,2.4.4.2-1.1,1.1-.5,1.7-.9.3-.5-.2-1.5.9-1.6a2.27,2.27,0,0,0,.1-.4V1019c-.8-.8-1.3-1.4-2.1-2.1h-5a2.66,2.66,0,0,0-1.2.3c-.8.5-1.6,1.2-2.4,1.7-.2.3-.3,1.1-.5,1.1-.9.2-.7.8-.6,1.3.4,1.9-.9,3.4-1,5.1,0,.1-.2.2-.3.4-.5.6-1,1.1-1.6,1.8-.8-.3-1.4.2-1.9.8-5.9.6-8.8,3.4-8.8,3.4-7.1.2-10.4,5.1-13.5,10s-4,21.6,4.5,27.8,17.1,7.8,29.4,7.6,19-6.9,23.7-14.4C1415.1,1056.6,1412.7,1048.5,1410.3,1041.5Z" transform="translate(-98.78 3.1)"/><path id="e393bde1-96a4-4dac-831d-a87b773af254" data-name="tree3" class="aea39e34-22c5-488d-8ff2-5e0b0e2038df" d="M1191.9,1013.5c3.4,1.6,7.2,2.2,11,3s5.8,3.1,5,6.8c-4.7-1.7-9.4-3.4-14.1-5a4.88,4.88,0,0,0-.3.7c4.6,2.5,9.1,5,13.8,7.5-4.4,3-8.7,2.2-13.2.1l-.3,1.2c2.3,1.3,4.7,2.6,7.3,4-3.9,3.5-8.6,4-13.3,4.6l.1,1.1c5.6.5,10.9-3.1,16.8-2.7q-.45,3.15-.9,6a1.27,1.27,0,0,1-.6.1c-.6-1-1.2-2.1-1.8-3.1l-.9.3a10.7,10.7,0,0,0,.7,3.2,8,8,0,0,1,.7,7.4c-1.7-2.5-3.4-5-5.1-7.4l-.4.2c.6,2,1.2,4,1.8,5.7-.8.5-1.4.9-2,1.3.5.5.9,1.2,1.5,1.5a6.61,6.61,0,0,0,2.5.7c2.4.3,3,1.1,2.1,3.3a26,26,0,0,1-1.5,2.8l1.7.2c1.6-.8,3.4-3.6,5.5-3.9.6-.1,1.6-1.1,2.2-.9,3.6,1,7.6,1.1,9.9,4.8.3.5,1,.8,1.1,1.4,1.3,5-1.1,7-3.9,9.5-.1,0,.9,2.9-25.4,5.8h13.6c2.2.5,81.2,0,80.7-.1-34.7-7.9-64.4-.6-45.7-18.3,1-.9-.9-1.8.1-2.9,1.7-1.9,2.5-4.7,4.1-6.6,2.2-2.7,5.3-4.2,7.5-6.8,2.4-2.7,4.4-5.8,6.8-8.6a7.66,7.66,0,0,0,.9-2c-.7.4-2,.3-2.1.5-4.4,7.9-11.5,11.7-18.2,17-.8.6-2.6,0-3.9,0,.5-2.5.2-5.8,1.7-7.4a16.27,16.27,0,0,1,12.3-5c3.5.1,4.3.1,5.2-2.3-3.5.7-5.8.1-9.4.9,2.8-5.3,6.3-6.6,10.6-8.9-.2-.3-.5-.7-.7-1-3,1.9-6.1,3.9-9.1,5.8a2.18,2.18,0,0,0-.5-.4c1.6-3,3.2-6,4.8-9.1-.4-.2-.2-.2-.6-.4-2,2.3-4,4.4-5.9,6.8-1.4,1.8-2.3,3.9-3.7,5.6-.8,1-2.3,1.4-3.7,2.2-.1-1.1-.2-1.4-.2-1.8a3.4,3.4,0,0,1,.1-1c1.6-4.5,3.8-8.5,8.6-10.4,4.2-1.7,6.8-5.3,9.6-8.7-3.1,1.4-5.4,4.2-8.8,4.8l-.4-.6c2.6-3.3,5.1-6.6,7.7-9.9-5.1,1.2-6.9,6.6-11.5,8.8l-.4-4c-2.1,3.8-1.5,8.2-5.3,10.8a76.63,76.63,0,0,1,.5-8.6,4.57,4.57,0,0,1,1.8-2.8c3.5-2.7,7.1-5.1,10.7-7.7a7.94,7.94,0,0,0,1.4-1.7c-.1-.1-.3-.2-.4-.3-3.9,2.9-7.8,5.8-11.7,8.6a2.18,2.18,0,0,1-.5-.4c2.2-5.8,6.3-10,11.7-13.2a9,9,0,0,1-.9-1c-3.5,2.5-7,4.9-10.7,7.5l2.1-9c-.4-.2-.3-.1-.7-.3-3.7,5.2-4.6,11.6-6.8,17.5-2.4-2.5-3.6-4.9-2.3-8.1a11.06,11.06,0,0,0,.3-4.1c0-.4-.5-.9-.9-1.5-.7,2.3-1.2,4.1-1.7,6h-1c-.6-3-1.2-6-1.8-9.2-.5.4-.7.4-.7.6a1.88,1.88,0,0,0-.2.8c.5,7.1,1,14.2,5.7,20.1a5.71,5.71,0,0,1,1.1,6c-2.3-1.5-4-3.1-4.3-5.9-.1-1.2-1.2-2.4-1.8-3.6l-.9.3.5,5.2c-2.9-2-5.2-3.6-7.5-5.2a14.08,14.08,0,0,1-.1,2c-.3.1-.6.1-.9.2a38,38,0,0,1-1.8-5.4,40.21,40.21,0,0,1-.3-6h-.8l-1.2,7.8a1.27,1.27,0,0,0-.6.1c-.7-2-1.4-3.9-2.4-6.5a6.52,6.52,0,0,0,1.8,7.2c2.2,2.1,1.8,4.6,2.2,7.2-4.8-.4-5.8-1.1-7.8-4.6-.9-1.6-1.9-3.1-2.9-4.6-.2.1-.5.3-.7.4,1.1,2,2.2,4.1,3.4,6.5-6.2-1.9-5.3-8.1-8.6-11.7l.9,9.1c-5.3.4-9.2-2-12.5-5.8-.2.1-.2.1-.3.1l.1,1.5C1187.2,1010.1,1189.3,1012.3,1191.9,1013.5Zm34.6,8.6c3.8,3.1,4.5,10.5,1.2,13.9-1.8-1.7-2.7-3.3-2.2-5.8A71.68,71.68,0,0,0,1226.5,1022.1Zm-2.1,7.6c-.2.1-.5.2-.7.3-1.1-3.9-2.2-7.8-3.3-11.8C1224.9,1017.8,1225.9,1023.3,1224.4,1029.7Zm-3.9,8.1c2.8,2.5,2.7,5.6,2.7,8.6,0,.3-1.5,1-2,.8a4.61,4.61,0,0,1-2.5-6C1219.1,1040.1,1219.9,1039.1,1220.5,1037.8Zm-4.8-5.1c4,1.7,4.5,3.9,1.6,7.7-.5-1.9-.9-3.3-1.3-4.8A25.82,25.82,0,0,1,1215.7,1032.7Zm-6.1-13.3c1.7,2.1,3.5,4.2,5.2,6.4a3,3,0,0,1-.7.5C1210.8,1025.5,1209.5,1023,1209.6,1019.4Zm1,12.5c2.1,1.5,3.7,3.4,3.4,6.5-.2,2.2.4,4.4.6,7-.9,0-1.7-.1-2.5-.1.3-2.6.7-5,1-7.4-.2,0-.5-.1-.7-.1-.3,1.2-.6,2.3-1,3.5-.2,0-.5-.1-.7-.1.1-2,.2-4,.3-6.1a2.2,2.2,0,0,1-.8-.1c-.4,3.2-.7,6.3-1.2,9.8-1.1-.9-2.3-1.8-3.5-2.7a1.85,1.85,0,0,1,.7-.2c-.3-2.3-.7-4.6-.8-6.9,0-1.1.4-2.8,1.2-3.2A5,5,0,0,1,1210.6,1031.9Z" transform="translate(-98.78 3.1)"/><circle id="e3810275-9cb8-4570-a29b-b9234f9f6ecc" data-name="moom" class="ea44dbf3-1f26-4352-a35a-2e90e4478363" cx="490.22" cy="951.7" r="83.3"/><path id="a65cffbc-ee28-4b9a-87da-2af8ae33122e" data-name="tree2" class="aea39e34-22c5-488d-8ff2-5e0b0e2038df" d="M431.4,955.6c6.4,3,13.8,4.1,20.8,5.6,7.2,1.6,10.9,5.9,9.6,13-9-3.2-17.8-6.4-26.7-9.5a4.49,4.49,0,0,1-.6,1.2c8.7,4.7,17.3,9.4,26.1,14.2-8.3,5.7-16.6,4.2-25,.2l-.5,2.2c4.4,2.4,8.9,4.9,13.8,7.6-7.3,6.6-16.4,7.5-25.3,8.7l.2,2.1c10.7,1,20.6-5.8,31.9-5.2-.6,4-1.1,7.7-1.7,11.3l-1.1.2c-1.1-2-2.2-4-3.4-5.9-.6.2-1.1.3-1.7.5.4,2,.4,4.3,1.4,6.1,2.5,4.3,3.5,8.7,1.4,14.1l-9.6-14.1c-.5.2-.3.2-.8.4,1.2,3.8,2.3,7.5,3.3,10.8-1.5,1-2.6,1.7-3.7,2.5a15.21,15.21,0,0,0,2.9,2.8,14.91,14.91,0,0,0,4.7,1.3c4.5.5,5.8,2.1,4.1,6.2a34.72,34.72,0,0,1-2.9,5.3l3.2.4c3-1.6,6.4-6.9,10.4-7.4,1.2-.1,3-2,4.2-1.7,6.8,1.9,14.5,2,18.8,9.1.6,1,1.9,1.6,2.1,2.7,2.5,9.5-2.1,13.2-7.4,18-.1.1,1.8,5.6-48.1,11.1h25.7c4.2.9,154,0,153-.2-65.7-15.1-122.2-1-86.6-34.7,1.8-1.7-1.7-3.4.2-5.5,3.2-3.5,4.7-8.9,7.7-12.6,4.1-5.1,10-7.9,14.3-12.9,4.5-5.2,8.4-11.1,12.9-16.2.7-.8.9-2,1.6-3.8-1.4.7-3.7.6-3.9,1-8.3,14.9-21.9,22.2-34.5,32.3-1.5,1.2-4.9.1-7.4.1,1-4.8.4-11,3.3-13.9a30.55,30.55,0,0,1,23.3-9.4c6.7.3,8.1.2,9.9-4.3-6.6,1.3-11,.3-17.8,1.7,5.3-10.1,11.9-12.5,20-16.9-.4-.6-.9-1.3-1.3-1.9-5.8,3.7-11.5,7.3-17.3,11-.5-.4-.4-.4-.9-.8,3-5.7,6.1-11.4,9.1-17.2a10.47,10.47,0,0,1-1.1-.8c-3.7,4.3-7.7,8.4-11.1,12.9-2.6,3.3-4.3,7.4-7,10.6-1.5,1.8-4.3,2.6-7.1,4.2-.2-2.1-.3-2.7-.3-3.4a5.84,5.84,0,0,1,.2-1.9c3-8.5,7.2-16,16.3-19.7,8-3.2,12.9-10.1,18.2-16.6-5.8,2.7-10.3,7.9-16.7,9.2-.3-.5-.3-.5-.7-1.1,4.9-6.2,9.7-12.5,14.6-18.7-9.6,2.3-13,12.4-21.7,16.7l-.8-7.6c-4.1,7.2-2.8,15.5-10.1,20.5.3-5.9.2-11.1.9-16.2a8.78,8.78,0,0,1,3.4-5.3c6.6-5.1,13.6-9.8,20.3-14.7A14,14,0,0,0,543,930c-.3-.2-.5-.4-.8-.6l-22.1,16.4-1-.8c4.1-11,12-18.9,22.2-25-.5-.6-1.1-1.2-1.6-1.8-6.7,4.7-13.3,9.3-20.4,14.3l3.9-17.1a13.39,13.39,0,0,1-1.2-.6c-7,9.8-8.7,22-13,33.2-4.6-4.7-6.8-9.2-4.4-15.4.9-2.3.6-5.2.6-7.8,0-.8-.9-1.6-1.7-2.9-1.2,4.3-2.3,7.9-3.3,11.4a13.4,13.4,0,0,1-2-.1c-1.1-5.7-2.2-11.4-3.3-17.4-.9.7-1.3.8-1.4,1.1a3.53,3.53,0,0,0-.3,1.4c1,13.5,1.8,27,10.9,38.2a11,11,0,0,1,2,11.4c-4.4-2.8-7.7-5.8-8.1-11.3-.2-2.3-2.2-4.5-3.4-6.8-.5.2-1.1.4-1.6.6l1,9.9c-5.5-3.8-9.9-6.7-14.3-9.8,0,1.2-.1,2.5-.1,3.8a10.46,10.46,0,0,0-1.7.4c-1.2-3.4-2.8-6.7-3.5-10.2-.7-3.7-.4-7.6-.6-11.4a7.57,7.57,0,0,1-1.5-.1c-.7,4.9-1.5,9.8-2.2,14.7a4.1,4.1,0,0,1-1.1.1c-1.3-3.7-2.7-7.4-4.5-12.4-1.8,6.4.2,10.6,3.4,13.7,4.2,4,3.4,8.8,4.2,13.6-9-.8-11-2-14.8-8.8-1.7-3-3.6-5.8-5.4-8.7-.5.3-.9.5-1.4.8,2.1,3.9,4.1,7.8,6.5,12.3-11.9-3.5-10.1-15.3-16.2-22.1l1.7,17.2c-10.1.7-17.4-3.8-23.7-11a1.69,1.69,0,0,0-.6.3l.3,2.8C422.5,949,426.5,953.3,431.4,955.6ZM497,971.9c7.2,5.9,8.6,20,2.3,26.3-3.4-3.2-5.2-6.2-4.1-11S496.4,977,497,971.9Zm-4,14.3c-.5.2-.9.3-1.4.5-2.1-7.4-4.2-14.8-6.3-22.4C494,963.7,495.8,974.1,493,986.2Zm-7.3,15.4c5.4,4.8,5.1,10.7,5.1,16.3,0,.6-2.8,1.9-3.8,1.6-4.2-1.4-6.6-7-4.8-11.3A71.59,71.59,0,0,1,485.7,1001.6Zm-9.1-9.6c7.6,3.3,8.6,7.4,3,14.5-.9-3.5-1.8-6.3-2.4-9.1A44.57,44.57,0,0,1,476.6,992ZM465,966.7c3.3,4,6.6,8.1,9.9,12.1l-1.3,1C467.2,978.2,464.8,973.5,465,966.7Zm1.9,23.8c4.1,2.8,7.1,6.5,6.5,12.4-.4,4.1.7,8.4,1.2,13.3-1.8-.1-3.3-.2-4.6-.2.7-4.9,1.3-9.5,1.9-14.1-.4-.1-.9-.1-1.3-.2l-1.8,6.6c-.4-.1-.9-.1-1.3-.2.2-3.8.3-7.7.5-11.5-.5,0-1-.1-1.5-.1-.7,6-1.4,12-2.2,18.6-2.1-1.6-4.4-3.4-6.7-5.2.5-.1.9-.3,1.4-.4-.5-4.3-1.4-8.7-1.5-13,0-2.1.8-5.3,2.2-6C461.7,989.3,465.2,989.3,466.9,990.5Z" transform="translate(-98.78 3.1)"/><path id="b7e3ef7d-e4e3-4033-8cf1-49dd75ac5871" data-name="tree1" class="aea39e34-22c5-488d-8ff2-5e0b0e2038df" d="M266.6,1029.7a31.47,31.47,0,0,0,7.6,2c2.6.6,4,2.1,3.5,4.7-3.3-1.2-6.5-2.3-9.7-3.5-.1.3-.1.2-.2.5,3.2,1.7,6.3,3.4,9.5,5.2-3,2.1-6,1.5-9.1.1l-.2.8,5,2.8c-2.7,2.4-6,2.7-9.2,3.2l.1.8c3.9.4,7.5-2.1,11.6-1.9-.2,1.5-.4,2.8-.6,4.1a.6.6,0,0,0-.4.1c-.4-.7-.8-1.4-1.2-2.2-.2.1-.4.1-.6.2.2.7.1,1.6.5,2.2a5.41,5.41,0,0,1,.5,5.1c-1.2-1.7-2.3-3.4-3.5-5.1-.2.1-.1.1-.3.1.4,1.4.9,2.7,1.2,3.9-.6.4-1,.6-1.4.9.3.3.6.8,1.1,1a4.8,4.8,0,0,0,1.7.5c1.6.2,2.1.8,1.5,2.2a11.78,11.78,0,0,1-1.1,1.9l1.1.1c1.1-.6,2.3-2.5,3.8-2.7.4-.1,1.1-.7,1.5-.6,2.5.7,5.3.7,6.8,3.3.2.4.7.6.8,1,.9,3.5-.8,4.8-2.7,6.5,0,0,.6,2-17.5,4h9.4c1.5.3,56.1,0,55.7-.1-23.9-5.5-44.5-.4-31.5-12.6.7-.6-.6-1.2.1-2,1.2-1.3,1.7-3.2,2.8-4.6,1.5-1.9,3.6-2.9,5.2-4.7s3.1-4,4.7-5.9c.3-.3.3-.7.6-1.4-.5.2-1.4.2-1.4.3-3,5.4-8,8.1-12.6,11.7-.6.4-1.8,0-2.7,0,.4-1.7.2-4,1.2-5.1a10.77,10.77,0,0,1,8.5-3.4c2.4.1,2.9.1,3.6-1.6-2.4.5-4,.1-6.5.6,1.9-3.7,4.3-4.6,7.3-6.1-.2-.2-.3-.5-.5-.7-2.1,1.3-4.2,2.7-6.3,4l-.3-.3,3.3-6.3c-.2-.2-.2-.1-.4-.3-1.4,1.6-2.8,3.1-4.1,4.7-.9,1.2-1.6,2.7-2.6,3.9a8.09,8.09,0,0,1-2.6,1.5,8.33,8.33,0,0,1-.1-1.2,1.7,1.7,0,0,1,.1-.7c1.1-3.1,2.6-5.8,5.9-7.2,2.9-1.2,4.7-3.7,6.6-6-2.1,1-3.8,2.9-6.1,3.3l-.2-.4,5.3-6.8c-3.5.8-4.7,4.5-7.9,6.1l-.3-2.8c-1.5,2.6-1,5.6-3.7,7.5.1-2.1.1-4,.3-5.9a3,3,0,0,1,1.2-1.9c2.4-1.8,4.9-3.6,7.4-5.4.4-.3.6-.8,1-1.2-.1-.1-.2-.1-.3-.2l-8.1,6a1,1,0,0,1-.4-.3,18,18,0,0,1,8.1-9.1,4.35,4.35,0,0,1-.6-.7c-2.4,1.7-4.9,3.4-7.4,5.2.5-2.1,1-4.1,1.4-6.2-.3-.1-.2-.1-.5-.2-2.6,3.6-3.2,8-4.7,12.1-1.7-1.7-2.5-3.4-1.6-5.6a8.63,8.63,0,0,0,.2-2.8c0-.3-.3-.6-.6-1.1-.5,1.6-.8,2.9-1.2,4.2h-.7l-1.2-6.3c-.3.2-.5.3-.5.4a.9.9,0,0,0-.1.5c.4,4.9.7,9.8,4,13.9a4,4,0,0,1,.7,4.2c-1.6-1-2.8-2.1-3-4.1a11.29,11.29,0,0,0-1.2-2.5,1.42,1.42,0,0,1-.6.2l.4,3.6c-2-1.4-3.6-2.5-5.2-3.6v1.4c-.2,0-.4.1-.6.1-.4-1.2-1-2.5-1.3-3.7a19.72,19.72,0,0,1-.2-4.2h-.5c-.3,1.8-.5,3.6-.8,5.4h-.4c-.5-1.4-1-2.7-1.6-4.5a4.68,4.68,0,0,0,1.2,5c1.5,1.5,1.2,3.2,1.5,4.9-3.3-.3-4-.7-5.4-3.2-.6-1.1-1.3-2.1-2-3.2-.2.1-.3.2-.5.3.7,1.4,1.5,2.8,2.4,4.5-4.3-1.3-3.7-5.6-5.9-8l.6,6.3c-3.7.3-6.3-1.4-8.6-4-.1.1-.1,0-.2.1l.1,1C263.4,1027.3,264.8,1028.9,266.6,1029.7Zm23.9,5.9c2.6,2.1,3.1,7.3.8,9.6-1.2-1.2-1.9-2.3-1.5-4A50.38,50.38,0,0,0,290.5,1035.6Zm-1.5,5.2c-.2.1-.3.1-.5.2-.8-2.7-1.5-5.4-2.3-8.2C289.4,1032.7,290.1,1036.4,289,1040.8Zm-2.6,5.7c2,1.7,1.9,3.9,1.9,5.9,0,.2-1,.7-1.4.6a3.13,3.13,0,0,1-1.7-4.1A9,9,0,0,1,286.4,1046.5ZM283,1043c2.8,1.2,3.1,2.7,1.1,5.3-.3-1.3-.7-2.3-.9-3.3C283.1,1044.3,283.1,1043.7,283,1043Zm-4.2-9.3c1.2,1.5,2.4,2.9,3.6,4.4-.2.1-.3.3-.5.4C279.6,1037.9,278.8,1036.2,278.8,1033.7Zm.7,8.7a4.67,4.67,0,0,1,2.4,4.5,20.29,20.29,0,0,0,.4,4.8c-.7,0-1.2-.1-1.7-.1.2-1.8.5-3.5.7-5.1a.9.9,0,0,1-.5-.1,21.72,21.72,0,0,1-.7,2.4.9.9,0,0,1-.5-.1c.1-1.4.1-2.8.2-4.2h-.5c-.3,2.2-.5,4.4-.8,6.8-.8-.6-1.6-1.2-2.4-1.9.2-.1.3-.1.5-.2a39.57,39.57,0,0,1-.5-4.7,3,3,0,0,1,.8-2.2A3.34,3.34,0,0,1,279.5,1042.4Z" transform="translate(-98.78 3.1)"/><path id="b3e21528-989b-4e15-8eca-3211b06234d2" data-name="Halloweenbelowfloor" class="aea39e34-22c5-488d-8ff2-5e0b0e2038df" d="M1103.7,1069.3c18.3,1.2,36,3.2,54.5,4,24,1.1,62.1-1.4,101-.7,19.1-1.1,74.3,1.4,90.1,1.8l46.6-1.1c8.5.4,17.5.8,25.9.5,6.4-.2,28,0,41.6,2.4,9.7,1.7,25.2-2,35-1.4,3.5.2,7.8-.5,11.7-.8,4.9-.4,28.4-1.9,36.3-.3,3.8.8,9.5.9,14.1,1.4a213.38,213.38,0,0,0,49.9.2c19.6-2.1,17.6,3.6,47.1,2,9.1-1.2,13.5.2,39.9.2,22.4,0,35,2.4,58,2.4l-1433-.1s-109.4-.1-153-.1c157.3-22.2,224.3-15.9,318.2-13.9,43.5-.6,160.6-4.7,213.3-6.1,36.8-1,69.6.1,84.2-4.2,5.3-1.6,0,0,20.8-4.2s68.6.5,68.6.5c15.6-.2,23.1,2.9,33.3,5,4.8.9,8.8,1.7,15.8.4,3.5-.6,11.9,0,17.1.6,4.4.5,7.3,1.8,11.1,2.7a85.13,85.13,0,0,0,24.3,2.4,81.17,81.17,0,0,1,13.2,1c18.8,2.9,32.7,1.9,64.4,3.9Z" transform="translate(-98.78 3.1)"/></g><g id="ab6cb3e1-3087-46f6-9073-65a267cc0109" data-name="Halloweenbelowcharacter"><path id="a2c12930-b1cd-4c88-9d07-ce0bdab5bd3c" data-name="bat2" d="M587.1,991.6a7.17,7.17,0,0,1,3.2-.5,10.59,10.59,0,0,1,3.6.9c1.7.7,2.1,1.7,2.1,2.1a4.18,4.18,0,0,0,.8,3.7,7,7,0,0,0,.8,1c.2.3.5.2.7-.1a3.41,3.41,0,0,0,.7-1.9c0-.1,0-.3.1-.3s.3.1.3.2a8.57,8.57,0,0,1,.3,1.3c.1.9.8,1.2,1.4.6a7.27,7.27,0,0,1,.9-.8c.1-.1.3-.2.4-.1s.1.3-.1.5a2.31,2.31,0,0,0-.7,1.8c0,.4,0,.6.5.5a4.89,4.89,0,0,0,4-2.4,1.54,1.54,0,0,1,1.7-.8,13.68,13.68,0,0,1,4.4,1.6,6.08,6.08,0,0,1,2.3,2.2c.1.1.1.2.2.5a35.11,35.11,0,0,0-2.6-1.2,2.9,2.9,0,0,0-2.9,1.5l-.3.9c-.1.4-.3.4-.6.1a3.81,3.81,0,0,0-2-1,2,2,0,0,0-2.3,1c-.4.6-.2,1.4-.5,1.4s-.6-2.7-2-2.9a.83.83,0,0,0-.7.3,3.15,3.15,0,0,1-1.7,1.3c-.4.2-.6.1-.8-.3a4.75,4.75,0,0,1-.6-2.4c0-.3-.4-.6-.7-.6-1.6-.4-2.7,1.1-3,1s.7-2.2-.1-3.2-2-.9-3.1-.9C591.9,993.2,590.3,991.9,587.1,991.6Z" transform="translate(-98.78 3.1)"/><path id="a8ba4743-6f77-4799-b442-bc92d17d889a" data-name="bat1" d="M485.5,893.2a12.62,12.62,0,0,1,3.5-4.7,20.25,20.25,0,0,1,5.9-3.3c3.1-1.2,4.9-.5,5.4.2a7.7,7.7,0,0,0,5.8,3.8,16.6,16.6,0,0,0,2.2.3c.6,0,.8-.4.8-1a5.69,5.69,0,0,0-1.6-3.4.56.56,0,0,1-.2-.6.39.39,0,0,1,.6-.1,8.3,8.3,0,0,1,2,1.3c1.3,1.1,2.5.6,2.5-.9a17,17,0,0,1,.1-2.2c0-.2.1-.7.4-.7s.5.3.5.7a5,5,0,0,0,1.3,3.2c.4.5.8.7,1.4,0a9.19,9.19,0,0,0,2.3-8.2,2.71,2.71,0,0,1,1.3-3.2,21.82,21.82,0,0,1,7.8-3.4,10.39,10.39,0,0,1,5.8.1l.8.4c-.5.1-.9.3-1.2.2a7.53,7.53,0,0,0-3.8,1.3,5.08,5.08,0,0,0-1.9,5.6l.6,1.5c.3.6.2.9-.6.9a6.79,6.79,0,0,0-3.9,1.1,3.69,3.69,0,0,0-1.7,4.3c.2,1.2,1.5,2,1,2.5s-4.3-2.8-6.3-1.2a1.55,1.55,0,0,0-.6,1.4,6.59,6.59,0,0,1-.6,3.9c-.3.8-.6.9-1.4.7a8.2,8.2,0,0,1-3.7-2.4c-.4-.4-1.3-.2-1.7.1-2.6,1.5-2.2,4.9-2.7,5.2s-1.8-3.7-4.2-4-3.7,1.3-5.2,2.8C493.9,889.3,490.1,889.5,485.5,893.2Z" transform="translate(-98.78 3.1)"/><path id="a33ff267-a120-4ff1-928f-2f0c402a708f" data-name="Witch" class="a0a36b47-2cf1-4d6a-a54c-de14008c3e83" d="M726,944c-.3-.2-.6-.3-.9-.5a6.07,6.07,0,0,0-1.8-.5,5.28,5.28,0,0,0-3.5.4,2.45,2.45,0,0,1-1.2.4c-1.2,0-2.5-.1-3.7-.1a29.23,29.23,0,0,0-10.5,2.4,7.23,7.23,0,0,0-2.2,1.7c-.4.4-.6.6-1.1.6h-.8a4.25,4.25,0,0,0-4.1,3.5c0,.2-.2.6-.4.6-1.2.3-2.5.6-3.8.9s-2.5.4-3.8.6-2.4.5-3.5.7c-.1-.1-.1-.2-.2-.3.6-.7,1.3-1.4,1.9-2.1a4.35,4.35,0,0,1,.7-.6c1.1-1.1,2.2-2.3,3.3-3.4a7.41,7.41,0,0,0,1.2-1.3,1.3,1.3,0,0,0,.2-1c-.2-.3-.6-.4-1-.6s-.6-.1-.9-.2a4,4,0,0,0-3.4.2,6.63,6.63,0,0,1-1.9.9,16.31,16.31,0,0,1-4.4.1,31.38,31.38,0,0,1-5.1-1.2,5.53,5.53,0,0,1-2.6-1.4l2.3-.3a9.77,9.77,0,0,0,2.3-.6c.4-.2.9-.7.9-1a5.42,5.42,0,0,0-.6-2.5,6,6,0,0,0-1.9-1.6,9.88,9.88,0,0,0-1.5-.9c1.1-.5,2.5-.3,2.6-1.9.1-1.3-.7-2-1.6-2.7a18,18,0,0,0,1.9-2.1,4.59,4.59,0,0,1,4-1.6,9.66,9.66,0,0,0,2.4-.1c1.7-.5,3.4-1,5.1-1.6a9.49,9.49,0,0,1,2.1-.9c.7-.1,1.2-.5,1.2-1a3,3,0,0,0-.6-1.8c-.9-1.1-2.4-1.3-3.7-1.9a11.7,11.7,0,0,0-2-.5c-1.1-.2-2.3-.3-3.4-.4a53.91,53.91,0,0,0-5.6-.8,28.56,28.56,0,0,0-5.8.6,16.52,16.52,0,0,0-4.1,1.8c-1.1.6-1.9,1.5-3,2.1a6.84,6.84,0,0,0-2.1,1.7,9.24,9.24,0,0,1-1.7-2.2,4.91,4.91,0,0,0-2.3-2.2c-.7-.3-1.4-.9-2.1-1.2a10.41,10.41,0,0,0-1.6-.6c-.4-.1-.5,0-.4.4a12.13,12.13,0,0,0,.5,1.4h-.5c-.7,0-1.4-.1-2.1-.1l.4.6a7.46,7.46,0,0,1,1.2.7v.2a2.84,2.84,0,0,0-.5,2.5,1.25,1.25,0,0,1-.3,1.2c-.3.3-.3.6.1.9.2.2.3.4.5.6a1.83,1.83,0,0,0,1.7.6h.3c-.1.6-.1,1.2-.2,1.8a17.34,17.34,0,0,0-1.3,1.8,12.41,12.41,0,0,1-2.7.3,13.88,13.88,0,0,0-5.7,1.2,6.68,6.68,0,0,0-2,1.7,9.82,9.82,0,0,0-.8,1.8c-.4,1.1-.4,1.2.6,1.9a2.71,2.71,0,0,0,2,.4H647a11,11,0,0,0-.3,1.6c0,.7-.1,1.2-.8,1.5-.3.1-.4.4-.6.7a8,8,0,0,0-1.5,4.7c0,1.8,1.2,2.7,2.9,2.1a6.72,6.72,0,0,0,1.2-.6,1.61,1.61,0,0,0,.4.7c.4.5.8,1.1,1.3,1.3a7.18,7.18,0,0,0,4.8.2,15.46,15.46,0,0,1,2.3-.7c-.6,1.1-1.2,2.1-1.6,2.9-.9.3-1.7.6-2.5.9a6.89,6.89,0,0,0-.8.3,19.73,19.73,0,0,1-4.8-.6c-1-.2-2-.5-2.9-.7s-1.8-.3-2.8-.5c-2-.4-4-1.1-6.1-.9a2.37,2.37,0,0,0-2.2,1.7c-.3,1,0,1.6,1.1,2.3a11.23,11.23,0,0,0,4.4,1.7c2.2.5,4.3.8,6.5,1.1s4.1.5,6.2.7a3.37,3.37,0,0,1,1.2.4,2.27,2.27,0,0,0-.2,2.8,10,10,0,0,0,1.5,1.4c1.3.9,2.9.7,4.4.8,1.1.1,2.3,0,3.4.1,1.3.1,3.2-.8,3.5-1.8s.9-1.2,1.6-1.6a1.06,1.06,0,0,1,1.2.1,7.81,7.81,0,0,0,4.4,1.1,8.34,8.34,0,0,0,3.5-1,10.22,10.22,0,0,1,5.1-1.6c2.1,0,4.2-.7,6.2-1a59,59,0,0,0,9.2-2.3c.8-.3,1.6-.8,2.4.1h.1c.9-.1,1.9-.3,2.8-.4s1.6-1,2.6-.7a10.16,10.16,0,0,0,4.9.1,26.68,26.68,0,0,0,10.2-3.7,17.38,17.38,0,0,0,1.9-1,14.84,14.84,0,0,0,3.4-3.7c.3-.5.6-1.1.9-1.6a7.54,7.54,0,0,1,.6-1.3C726.4,944.5,726.5,944.2,726,944Z" transform="translate(-98.78 3.1)"/></g></g><g id="a5272e40-4b00-4d32-bf6e-cd9c9945f34c" data-name="Halloweentop"><g id="bf922654-c9f8-4c94-8232-d72a488a8c55" data-name="starlight"><polygon id="e6dd0d20-e2ab-4083-9013-354c61e544f6" data-name="star6light" class="b8813830-34a7-441e-a6e3-7824313788ea" points="1622.62 72.2 1628.72 84.5 1642.32 86.5 1632.42 96.2 1634.82 109.7 1622.62 103.3 1610.42 109.7 1612.72 96.2 1602.82 86.5 1616.52 84.5 1622.62 72.2"/><polygon id="a25cdf00-f7f7-4b64-92a5-06a0bd4ca643" data-name="star5light" class="b8813830-34a7-441e-a6e3-7824313788ea" points="1264.62 85.8 1269.42 95.5 1280.12 97.1 1272.42 104.6 1274.22 115.3 1264.62 110.3 1255.12 115.3 1256.92 104.6 1249.12 97.1 1259.82 95.5 1264.62 85.8"/><polygon id="f8833a02-5096-4ece-b261-bbaae7e37750" data-name="start4light" class="b8813830-34a7-441e-a6e3-7824313788ea" points="949.12 64.5 953.92 74.2 964.62 75.8 956.82 83.3 958.62 94 949.12 88.9 939.52 94 941.32 83.3 933.62 75.8 944.32 74.2 949.12 64.5"/><polygon id="f73699f4-7ee6-41a2-84b5-3b31598b7605" data-name="start3light" class="b8813830-34a7-441e-a6e3-7824313788ea" points="765.52 86 771.52 98.2 785.02 100.2 775.32 109.6 777.62 123 765.52 116.7 753.52 123 755.82 109.6 746.12 100.2 759.52 98.2 765.52 86"/><polygon id="bc761c65-24af-41ca-af6e-069ec3afe465" data-name="start2light" class="b8813830-34a7-441e-a6e3-7824313788ea" points="580.52 87.8 585.32 97.5 596.02 99 588.32 106.6 590.12 117.2 580.52 112.2 571.02 117.2 572.82 106.6 565.02 99 575.72 97.5 580.52 87.8"/><polygon id="e46e6eeb-96ba-4e47-951d-b0f7cd02588e" data-name="start1light" class="b8813830-34a7-441e-a6e3-7824313788ea" points="211.82 50.6 221.42 70 242.72 73.1 227.32 88.2 230.92 109.5 211.82 99.4 192.72 109.5 196.32 88.2 180.82 73.1 202.22 70 211.82 50.6"/></g><path id="fa8335c4-8cff-4978-8780-4182f67f9cf2" data-name="Halloweentopscenery" class="b237a497-799d-4714-b503-6b5cd7b2b2e9" d="M400.5,41.4c2.5-2.4,3.8-.4,4.5.6.9,2.5.4,4.9,1.2,7.4.8,1.6,1.8,2.6,2.4,0,.4-3.6.9-7.2,1.3-10.9.2-3.5,3.2-6.5,3.6,0,.3,16.3-.7,32.2-.4,48.5,0,7,4,9,6.6.3,4.4-17.9-4.4-54.1.5-56.7s8,9.4,12.3,12c2.4,1.4,8.7,2.2,11.2.3s-.2-6.4-2.3-8.3c-2.3-2.2-7.7-2.4-10.4-4.4a4.35,4.35,0,0,1-.9-6.5C432,21,443,18,450,20c2.5.7,9.7,4.1,8,7,0,8,7,6.3,10.4,5.9,2.3-.3,11.8,1.6,7.8,5.8C469,46,468,48,470,53a4.66,4.66,0,0,0,7,2c2.2-1.7,2.6-3.5,2.9-5.6,1.1-7.5,9.1-5.3,14.6-6.9s11.4-9,20.1-3.6c6.1,3.8,8.4,8.3,5.7,14.3a16.15,16.15,0,0,0-.8,9.7,6.28,6.28,0,0,0,6,4.1c3.4-.1,5-3.8,4.8-5.6-.3-3.8-2.4-7.4-3.8-11.1-1.5-4,.5-5.4,6-5.8,8.4-.6,11.3,2.4,27.2-4.7,3.1-1.4,6.2-11.9,25.6-10.4a7.2,7.2,0,0,0,3-.5c3.6.1,5.6-6.1,10.9-2.1,2.7,5,1.1,6.2.9,8.6-.5,6.9-1.6,5.8-1.9,12.7a7.52,7.52,0,0,0,2.7,6c1.4.9,5.1,1.7,7.2-.1,1.6-1.4,2-4,1.7-6.1-1-8.2-3.1-8.3-3.5-16.4-.1-1.3,1.6-2.7,3.4-4.1a6.48,6.48,0,0,0,3.3.3c12.1-3.4,9.7-.1,20,6.1,5,3,9,1,15,1a7.71,7.71,0,0,1,5.2,8.4c-.5,6.9-1.6,13.8-1.9,20.7-.1,2,.8,4.8,2.7,6a6.1,6.1,0,0,0,7.2-.1c1.6-1.3,2-4,1.7-6.1-1-8.2-3.1-16.3-3.5-24.4a6.88,6.88,0,0,1,6.9-6.8c5.7.4,5.6,2.9,6.7,5.4s-3,5-1.2,9.6c1.2,1.4,3.3,2.4,4.7-.1s-.2-8.8.1-10.6.4-3.5,2.5-4.5a5.33,5.33,0,0,1,6.2,1.1c5.1,5.2,10.9,5.1,17.9,2.5,2-.8,6.8-3.3,8.7-.1s-.6,10.8-1.4,15.8,1.2,11.6,7.3,11,4-7.6,3-9.6c-2.8-5.5-3.4-4.8-4.4-10.9-1.6-9.6,4.9-14.1,17.4-12.1,7.3,1.1,13.6,3.9,14.3,9.8C749,46,752,49,755,49c8,0,6-7,4-9s-3-2-4.2-2.7c-4.4-2.5-8.7-6.1-1.6-9.9,6.8-3.6,14.7,1.9,17.9,5.6,6,7,12,4,14,2,2.2-2.2,4-7-5-10-3-1-7.4-1-3.6-3.6C780,19,784.7,19,789,19c18,0,24.7,5.1,24.5,20.3,0,2.8-.2,5.6-.3,8.5s-1.2,5.4-.7,8.3,3.1,4.2,4.5,1.9a28.08,28.08,0,0,0,1.8-8c.2-4.9-.9-9.8-.1-14.6.4-2.3,2.6-6.2,5.9-6.3s4.1,4.8,4.6,7.4c.6,2.9-.7,4.4-1,8.9s3.7,3.6,3.8.2c0-4.2-3.9-16.5,0-15.1s8,9.5,17,7.5c5-2,4.7-2.8,8.9-2.9C863,35,862,39,866,39c5,0,5.7-4.6,8.9-4.3S880,34,883,33s9-2,18,4c3,2,10,2,15,0,4-1,7-2,11,0,2.2,1.1,7.7,0,8.2,4.2.8,6.8-1.5,9.7-2.3,14.5-.8,5,2.1,9.3,6.1,6.3s1.3-14.7.6-22,3.5-10.5,13.2-10.3c8.5.1,14.8,2.7,18,9.2,1.2,2.4,1,6.5,6.2,9.1,4,2,7.1-1.3,6-5-.9-3.3-5-6-7.3-7.1-5.9-3-4.1-7.4,2.9-9.2,9.2-2.4,15.3-.3,20.4,6.1,4,4.9,5.3,9.5,10.9,13.3,6.9,4.6,11,3,13,2,5.6-2.8,2.5-8.9-1.3-10.8-5.6-2.9-11.7-5.3-17.2-8.3-2.5-1.4-9.9-3.3-7.2-6.6s9.8-.4,21.8-.4c6,0,9.7-3,12.4-3.9a4.88,4.88,0,0,1,6.2,2.7c1.4,4.1,7,5,9.9,4.3,4.5-1.2,6.9,1.3,7.4,2.6.8,2.2-4.9,4.2-7.9,7.2-1.9,1.9-3.7,6.5.7,7.8s8.9-4.8,10.6-8c2.4-4.4,6.9-7.2,12.6-5.5,3.2,1,5.8,5,6.7,8,1,3.4.4,7.4-.7,10.8-2.9,8.8-1.9,10.8-1.1,11.7,1.6,1.8,3.5,1.4,5.2-.9,3-4-3.5-16.7,2.1-26.1C1085,27,1104,26,1102,33s-2.3,12.5,1,14c2.7,1.2,4,0,4-1.6,0-3.4-2-7.4-1-10.4s2.4-3.5,4.7-3.2a5.07,5.07,0,0,1,4.1,3c.7,1.6.5,3.6.3,5.4-.8,7.9-4.5,19.8-2.3,23.8s5.2,3.5,8.2.3-2.1-22.5-.5-28.8,2.5-2.4,4.5-1.4,9.4-5.5,13-5,5.8,7.3,8.6,12c2.3,3.9,5.9,5.8,11.5,4.1,6.8-2.1,10.8.2,14.2,4.3,3,3.6,4.3,11.4,9.5,12s4.9-8.3,7.6-7.9,1.6,6.2,1.5,8.4c-.5,9.3-3.2,11.7-3.9,21-.3,3.5,1.4,14.5,7.8,14.4,6.7-.2,5.6-11,5.2-14.4-1.3-10.2-4.4-13.8-5-24-.3-6,5.1-7.5,7.3-7.6,5.8-.2,5.9,4,5.6,7.6s-2.7,7.5-.1,10.5c2.1,2.4,4.3.6,5.1-.6,3-4-5-17-1-20s6.4,1.8,7,2.6c4.4,6,9.7,7,17.6,3.1,4.5-2.2,6.6.6,6.4,3.9-.5,7-1.3,5.1-2,12.1-.4,4.3,2.5,9.2,6,8.3,4-1,4-4,2.5-9-1.9-6.3-2-4.1-2.7-10.6-.5-5.3.5-10.2,9.2-11.4,8.2-1.1,14.7,1.9,17.5,8.1,1,2.1.4,4.8,1.5,6.9,2,4,6,4.4,9,2.7s1.8-5.3.1-6.5c-3.1-2.2-5.4-3.3-7.1-5.2-4.3-5-.6-9.3,7-10.8,6.9-1.4,11.8.5,14.5,5.5,2.7,4.8,6.5,5.3,10.5,4.3,7.3-1.8,7-11,13-9s4,18,3,24,.7,8.9,3.9,8.6c3.4-.3,2.3-4.4,1.4-7.9-2-8.4-1.6-20.9-.3-25.9,1-3.8,2-4.7,4-4.7,3,0,4.9,3,5.3,4.6.6,2.4,1.4,2.9-1.4,9.4-3,7-1.7,8.3,0,10,1,1,2.7,1.5,4.3-.8s-2.7-14.2,0-17.7,11.8,9.6,16.7,8.5,2.7-4.8,6.3-6.4,5.6,5.4,17.5-2.5c3.7-2.4,3.7,5.9,3.1,8.9-1,5,0,13-2,24-1.1,5.9,0,13,5.7,11.6,4-1,3.3-7.6,2.3-14.6-1.6-11-3.3-13.3-3-24s2-12,3-13,3-1.3,4,0c1.4,1.9-2,5,1.9,6.7,1.1.5,2.5.2,3.1-1.7,1-3-3.1-5.1,0-11,1-2,2-5,9.1-4,5.7.8,7.1,8.3,10.9,10.6,2.1,1.3,6.9,3.2,9.9.3s-.2-5.6-2-7.4c-2.1-1.9-6.6-2.3-9.2-3.9s-5-3.9-.8-5.7,20.7-1.6,23.5-1.7c3.7-.2,8.7,1.8,4.3,6.4-2.2,2.1,3.3,3.9,6.3,3.5,2-.2,6-.1,6.9,5.1.3,2-1.9,3.5-2.9,5.8a22.88,22.88,0,0,0-2.3,7.5c-.7,4.5,2.4,9.3,6.3,6.5s2-7,2.2-10.3c.4-6.7,10-4.5,12.9-6.1s10.1-8,17.9-3.2c5.4,3.3,6.3,7,5.1,12.7-1,4.8-2,3.7-2,8.8,0,3,2.7,6.4,6,6s5.8-4.1,5-7.6a67.29,67.29,0,0,0-3.3-9.9c-1.3-3.6.4-4.8,5.3-5.1,7.5-.5,6.2-4.8,12-6.5s9.8,2,14,2c4,0,5.7-3,7.2-5.6,8.8-15.4,25.4-13.2,31.6-6.2,1,1.1,4.7,2,6.4,1.5,10.7-3,14.3-2.7,17.8,4.3,2,4,3.6,7.7,7.3,7.8,4.7.2,7.7-1.8,9.8-6.1.4,3.4,1.7,7.1,2,9.3,1,10-2.6,10.6-2.9,16.8a6.49,6.49,0,0,0,2.4,5.3c1.2.8,5.3.8,6.4-.1,1.4-1.2,1.8-3.6,1.5-5.4-.9-7.2-5.9-7.7-2.4-21.6,2-8,3.9-6.3,5.5-6.2s4.2,3.8,5.1,6,.9,3.4.7,7.3,2.9,5,3.3-.1-.2-6.3.1-9.4c.1-1.4.2-2.4,2.2-4s4.6,0,5.5.9c4.6,4.6,9.7,4.6,15.9,2.2,1.8-.7,5.8-3.4,7.7-.1s.3,9.8-1.2,14C1666,50,1667,58,1672,58c4,0,2.7-6.2,2-9-1-4-1-7-.9-12.8.1-8.6,4.3-12.5,15.4-10.8,6.5,1,10.3,4,12.7,8.7.9,1.9,2.8,6.8,7.8,6.8,2.2,0,4-2,3-5s-5.1-2.5-7-4c-3.6-2.8-5.9-5.6.4-8.8C1712,20,1718,20,1724,23c3.1,1.6,4,4,6.6,11.7,4.5,13,10.2,13.8,11.4,10.3,2-6-7-14-10.7-20.2s1.2-10.7,5-11C1779.8,11,1785.6,0,1820.8,0c9,0-1728.1-.5-1722,0,15.7,1.4,35.1,8.1,71.2,11.2s57.4-5.4,76.3,8.2c7.6,5.5,16.6,2.2,19.7,9.1,1.1,2.4,1.9,4.8,3.1,7.2,1.6,3.3,4.6,4.9,8.6,3.3,3.9-3.4,2.6-5.6,1-8-2-3-5.4-2.7-7.3-4.8-4.9-5.6-2.4-13.4,6.4-12.2,2.6.4,7.6-1.4,10.7,4.2,3,5.4,6.1,0,12.1,1.8,5.7,1.7,2-5.9,13.9-3.1,4.6,3.5-1.9,17.2,8.1,27.2,2,2,5,4,7.5,2.5,4.5-4.5-1.3-8.2-.2-10.9,3.8-9.6-.6-12.3-.3-22,0-1.8,1.1-4.5,4.3-2.5,2.1,1.7,3.8,4,5.1,9a38.77,38.77,0,0,1,.4,14.8c-.7,4.3-1.4,8.1,1.3,11.3,1,1,3.5,3.1,5,.5,7-9.5,4.2-16.8,1-25.5-3-10,8,11,15.7,11.4,6.3.3,4.9-7.2,7.1-7.3C371.8,25,373,41,385,46,394.9,50.1,400.5,41.4,400.5,41.4Z" transform="translate(-98.78 3.1)"/><g id="e33ab5d5-0505-4588-8739-be0050b5e6a4" data-name="Halloweentopcharacter"><polygon id="bb4d437b-f64a-4cef-9ff1-5e9f096379b6" data-name="star6" class="b237a497-799d-4714-b503-6b5cd7b2b2e9" points="1622.92 72.1 1629.02 84.5 1642.62 86.5 1632.82 96.1 1635.12 109.7 1622.92 103.3 1610.72 109.7 1613.02 96.1 1603.12 86.5 1616.82 84.5 1622.92 72.1"/><g id="fa0007f1-d49e-41e9-be55-668c0e85690a" data-name="bat"><path id="b9ee388b-dacf-4674-a5cf-6628844ae307" data-name="batbody" class="b237a497-799d-4714-b503-6b5cd7b2b2e9" d="M1577.8,110.4c.1-1.7.2-3.2.4-4.7.4-3.2.9-6.4,1.3-9.6,0-.3-.1-.7-.1-1.1s-.1-.7.1-.9c.4-.8.3-1.3-.7-1.5-.2,0-.4-.2-.6-.4-2.6-1.7-5.2-3.5-7.8-5.1-2.3-1.5-2.5-1.5-1.9-4.2a15.8,15.8,0,0,0-.8-10.5c-.8-1.8-2.2-3.3-2.1-5.6a33.09,33.09,0,0,0-4.7,5.3,11.2,11.2,0,0,0-1.5,10.2c.7,2,0,3.1-2.1,3.4-1.4.3-2.9.2-4.3.4-1.7.2-3.4.6-3.8-2-2.7,3.7-5.2,7.1-7.8,10.5-1.2,1.6-1.7,1.7-3.1.2a15.83,15.83,0,0,0-6.3-4.6c-2.1-.8-4.4-1.2-6.6-1.8-1.3-.3-1.8.1-1.4,1.4.7,2.2,1.3,4.4,2.1,6.5,1.4,3.6,3.8,6.2,7.7,7.2,1.5.4,1.8.9,1.8,2.4-.1,2.7-.1,5.5-.3,8.2a2.36,2.36,0,0,0,1.2,2.4c4.5,3,8.9,6.3,14,8.1a1.26,1.26,0,0,1,.7,1c0,.3-.4.7-.8.9a21.66,21.66,0,0,1-2.5.4c-1,0-1,3,2.6,3.7.8.3,1.6.5,2.4.8,3.1,1.1,5.9,2.9,8.9,4.3a2.77,2.77,0,0,0,1.3.1,4,4,0,0,0,0-1.1c-.3-1.7,0-2.2,1.7-2.3a13.51,13.51,0,0,0,9.9-5c.8-1,1.7-1.9,2.6-2.9.5-.5,1-.7,1.6-.1,1.6,1.6,2.6,1.3,3-1.3,0-.3.1-.6.1-.8a17.5,17.5,0,0,1,.6-7.2c.5-3.2,1.5-9.2-2.1-6.2C1579.8,109.8,1579,112,1577.8,110.4Z" transform="translate(-98.78 3.1)"/><g id="b115e243-763b-49cf-b7a4-084f22305d25" data-name="lefteye"><path id="a2d33495-b8ec-4e3c-9e9d-7a2730ece295" data-name="eyebackground" class="ac7b3b9e-e212-496b-9975-7a623d7404b2" d="M1543.7,97.9c-3.9,1.9-5.5,5.9-3.3,10.2,1.6,3.2,5.8,4.4,9.4,2.7a6.59,6.59,0,0,0,3.8-8.6C1551.4,97.7,1547.6,96.1,1543.7,97.9Z" transform="translate(-98.78 3.1)"/><path id="f4ab8ae1-52b6-405e-ade5-bd83fbda05cb" data-name="eye" class="b237a497-799d-4714-b503-6b5cd7b2b2e9" d="M1545.7,105a1.49,1.49,0,0,0-.8,2.1,1.54,1.54,0,0,0,2.1.9,1.69,1.69,0,0,0,.5-2.4C1547.1,104.5,1546.5,104.6,1545.7,105Z" transform="translate(-98.78 3.1)"/></g><g id="b9aa8a6d-fc4e-4783-89e8-56e4bec2fdab" data-name="righteye"><path id="b30d3922-032a-4705-90a9-fc7de79526d0" data-name="eyebackground" class="ac7b3b9e-e212-496b-9975-7a623d7404b2" d="M1564.6,89.8a8.5,8.5,0,0,0-7.9,3.3,4.37,4.37,0,0,0-.9,1.8,9.85,9.85,0,0,0,3,8.4,3.77,3.77,0,0,0,3.9,1l1.9-.3c5.3-1.2,6.4-6,4.8-10.2C1568.3,92,1567.1,90.1,1564.6,89.8Z" transform="translate(-98.78 3.1)"/><path id="faf64b1a-6b0e-4da6-8de4-898e67502eaa" data-name="eye" class="b237a497-799d-4714-b503-6b5cd7b2b2e9" d="M1561,97.7a1.55,1.55,0,0,0-.8,2.3c.5.8,1.1,1.3,2.1.8a1.47,1.47,0,0,0,.6-2.3C1562.6,97.6,1561.9,97.4,1561,97.7Z" transform="translate(-98.78 3.1)"/></g><path id="a420c9d9-214d-4cc2-96b1-7854e8ee1728" data-name="rightbatbodywing" class="b237a497-799d-4714-b503-6b5cd7b2b2e9" d="M1609.4,93.4c-5.2-5.9-14.5-8.5-20.7-6.2-5.8,2-7.7,8.1-7.7,13,0,3.5-1.2,7.8-3.5,13.7s.1,6.5,1.4,3.4c4.4-8.7,11.5-4.7,11.5-4.7s-.4-5.8,4.5-8c2.5-1.1,7.3,1.7,7.3,1.7a18.39,18.39,0,0,0-.3-3.5,5.07,5.07,0,0,1,4.8-6.6c3.5,0,4.8,1.3,5,1A25.5,25.5,0,0,0,1609.4,93.4Z" transform="translate(-98.78 3.1)"/><path id="b7bee961-c4b5-4010-820d-27084f678fdf" data-name="leftbatbodywing" class="b237a497-799d-4714-b503-6b5cd7b2b2e9" d="M1519.2,144.9c-2.5-7.4-.1-16.7,5-21.1,4.7-4,10.9-2.6,15.1-.2,3,1.7,7.4,2.9,13.6,3.8s5.6,3.4,2.3,2.9c-9.7-.5-9.8,7.5-9.8,7.5s-4.8-3.3-9.2-.1c-2.2,1.6-2.2,7.2-2.2,7.2a15.13,15.13,0,0,1-2.9-2,5,5,0,0,0-8.1.9c-1.7,3-1.2,4.8-1.6,4.8S1519.5,145.8,1519.2,144.9Z" transform="translate(-98.78 3.1)"/></g><polygon id="e5e2f6e8-5bdd-4710-917b-09b7eb5583c9" data-name="star5" class="b237a497-799d-4714-b503-6b5cd7b2b2e9" points="1264.92 85.8 1269.72 95.5 1280.42 97.1 1272.72 104.6 1274.52 115.3 1264.92 110.2 1255.42 115.3 1257.22 104.6 1249.52 97.1 1260.22 95.5 1264.92 85.8"/><g id="a66b7e7d-e009-44ce-a727-e80c55edb08f" data-name="spider2"><path id="a0986144-0355-46e4-b2b9-9ab502ee1fdf" data-name="leftleg4" class="b237a497-799d-4714-b503-6b5cd7b2b2e9" d="M1306.4,171.4c-3.1,3.4-6.7,10.7-2.4,18.6.8-6,1-11,6.6-16.8C1314.1,169.6,1309.5,168,1306.4,171.4Z" transform="translate(-98.78 3.1)"/><path id="a301c88c-c6c4-4ef7-8b2b-4c7cac620cde" data-name="leftleg3" class="b237a497-799d-4714-b503-6b5cd7b2b2e9" d="M1306.2,168.6c-4.4,1.4-11.2,5.9-11.4,14.9,3.7-4.8,6.3-9,14.1-11.2C1313.7,170.9,1310.5,167.2,1306.2,168.6Z" transform="translate(-98.78 3.1)"/><path id="b7876197-a846-47b7-9286-b7deb556c12d" data-name="leftleg2" class="b237a497-799d-4714-b503-6b5cd7b2b2e9" d="M1306.9,166.6c-4.6-.4-12.6,1-16.3,9.2,5.3-3,9.4-5.8,17.4-4.8C1313,171.6,1311.5,167,1306.9,166.6Z" transform="translate(-98.78 3.1)"/><path id="a7a9ffe0-1826-45cb-9187-bc58939bed84" data-name="leftleg1" class="b237a497-799d-4714-b503-6b5cd7b2b2e9" d="M1307.3,162.8c-3-2-11-10-10-21-4,6-5,8,7,24,.5.7,2.4,2.6,4,1C1309.3,165.8,1308.6,163.7,1307.3,162.8Z" transform="translate(-98.78 3.1)"/><path id="bfcc43b9-6fb2-4432-bdf5-1d23b7ea7de5" data-name="righleg4" class="b237a497-799d-4714-b503-6b5cd7b2b2e9" d="M1323.6,171.4c3.1,3.4,6.7,10.7,2.4,18.6-.8-6-1-11-6.6-16.8C1316,169.6,1320.6,168,1323.6,171.4Z" transform="translate(-98.78 3.1)"/><path id="b6f8fc3c-9399-4d8d-95d0-570b1c8a82b0" data-name="righleg3" class="b237a497-799d-4714-b503-6b5cd7b2b2e9" d="M1323.9,168.6c4.4,1.4,11.2,5.9,11.4,14.9-3.7-4.8-6.3-9-14.1-11.2C1316.4,170.9,1319.5,167.2,1323.9,168.6Z" transform="translate(-98.78 3.1)"/><path id="b8c2ef0f-81d2-4dee-8c71-a109c2c6ce18" data-name="righleg2" class="b237a497-799d-4714-b503-6b5cd7b2b2e9" d="M1323.1,166.6c4.6-.4,12.6,1,16.3,9.2-5.3-3-9.4-5.8-17.4-4.8C1317.1,171.6,1318.6,167,1323.1,166.6Z" transform="translate(-98.78 3.1)"/><path id="b6376da9-7868-405d-bfed-17e0420c3229" data-name="righleg1" class="b237a497-799d-4714-b503-6b5cd7b2b2e9" d="M1322.7,162.8c3-2,11-10,10-21,4,6,5,8-7,24-.5.7-2.4,2.6-4,1C1320.7,165.8,1321.5,163.7,1322.7,162.8Z" transform="translate(-98.78 3.1)"/><path id="a4f7ddf5-9aa7-4252-b973-5ab06cc22946" data-name="spider_body" class="b237a497-799d-4714-b503-6b5cd7b2b2e9" d="M1323.1,168.5c2-3.3,5-7.9,5-15.3,0-11.4-13.1-21.3-13.1-21.3s-12.2,9.3-12.2,20.7c0,7.4,4.3,13.6,5.3,15.8s1.4,3.7,1,5.5c-1,4.4.6,8.7,3,8.7,2,0,1-4.4,3-4.4s2,4.4,4,4.4,4-4.4,2.6-9.8C1321.5,171.9,1321.8,170.6,1323.1,168.5Z" transform="translate(-98.78 3.1)"/></g><line id="eee83c62-b352-4ded-8aef-ad5295ced8a5" data-name="spiderline2" class="b37ab4cf-9569-478c-98d0-3b81697cfc42" x1="1215.32" y1="3" x2="1215.32" y2="158.1"/><polygon id="bed5edc8-6ac7-4474-8646-1660fb2c9fea" data-name="start4" class="b237a497-799d-4714-b503-6b5cd7b2b2e9" points="949.42 64.5 954.22 74.2 964.92 75.7 957.12 83.3 959.02 93.9 949.42 88.9 939.82 93.9 941.62 83.3 933.92 75.7 944.62 74.2 949.42 64.5"/><polygon id="a95cd6d2-35be-443c-b276-03d3863654df" data-name="start3" class="b237a497-799d-4714-b503-6b5cd7b2b2e9" points="765.92 86 771.92 98.2 785.32 100.1 775.62 109.6 777.92 123 765.92 116.7 753.82 123 756.12 109.6 746.42 100.1 759.82 98.2 765.92 86"/><polygon id="f098980b-0e5c-4e9a-a327-ac0287fb1c62" data-name="start2" class="b237a497-799d-4714-b503-6b5cd7b2b2e9" points="580.52 87.8 585.32 97.5 596.02 99 588.32 106.6 590.12 117.2 580.52 112.2 571.02 117.2 572.82 106.6 565.02 99 575.72 97.5 580.52 87.8"/><path id="fbe64c04-a5a7-4fe0-9cc9-2f541eac50b3" data-name="candy" class="b237a497-799d-4714-b503-6b5cd7b2b2e9" d="M573.7,121.7c3.9-1.2,6.8-3.2,6.4-4.5s-3.7-1.3-7.5-.2c2.3-3.2,3.4-6.3,2.3-7.1s-4,1.2-6.5,4.5a27,27,0,0,0-2.3,3.7,12.71,12.71,0,0,0-22.5,10.1,17.14,17.14,0,0,0-4.7-2.3c-3.9-1.3-7.5-1.4-7.9-.1s2.2,3.2,5.9,4.6c-3.8,1.2-6.5,3.2-6.1,4.4s3.9,1.3,7.9.1c-2.5,3.3-3.6,6.6-2.6,7.4s4-1.2,6.5-4.5a16.44,16.44,0,0,0,2.8-5.1,12.77,12.77,0,0,0,14.5,5.5,12.92,12.92,0,0,0,9-13.2,19.19,19.19,0,0,0,3.2,1.4c3.9,1.3,7.5,1.4,7.9.1S577.7,123.1,573.7,121.7Z" transform="translate(-98.78 3.1)"/><line id="fad12cd1-142b-4718-a2ac-7dc919e97916" data-name="candyline1" class="b37ab4cf-9569-478c-98d0-3b81697cfc42" x1="457.42" x2="457.42" y2="129.1"/><g id="e70176a8-a372-40ff-8a49-1daf195464d5" data-name="spider1"><path id="b55b67d2-8502-4b1e-ab85-75daf16773b0" data-name="leftleg4" class="b237a497-799d-4714-b503-6b5cd7b2b2e9" d="M407.5,249.2a12,12,0,0,0-1.8,14.2c.6-4.6.7-8.4,5-12.9C413.4,247.8,409.9,246.6,407.5,249.2Z" transform="translate(-98.78 3.1)"/><path id="bd4aad9a-e6d9-44dd-a024-543468c21afa" data-name="leftleg3" class="b237a497-799d-4714-b503-6b5cd7b2b2e9" d="M407.3,247a12.14,12.14,0,0,0-8.7,11.4c2.8-3.7,4.9-6.9,10.8-8.6C413.1,248.8,410.7,245.9,407.3,247Z" transform="translate(-98.78 3.1)"/><path id="a02deeed-420d-48f6-8231-71eb54c423ba" data-name="leftleg2" class="b237a497-799d-4714-b503-6b5cd7b2b2e9" d="M407.9,245.5a12.36,12.36,0,0,0-12.5,7.1c4.1-2.3,7.2-4.5,13.3-3.7C412.5,249.3,411.4,245.8,407.9,245.5Z" transform="translate(-98.78 3.1)"/><path id="a5d6fb3b-8ead-4172-8d58-d3c8e8d55474" data-name="leftleg1" class="b237a497-799d-4714-b503-6b5cd7b2b2e9" d="M408.2,242.6c-2.3-1.5-8.4-7.7-7.7-16.1-3.1,4.6-3.8,6.1,5.4,18.4.4.5,1.9,2,3.1.8C409.7,244.9,409.2,243.2,408.2,242.6Z" transform="translate(-98.78 3.1)"/><path id="bcdc1239-131b-4a58-a62c-efdb90462ea8" data-name="righleg4" class="b237a497-799d-4714-b503-6b5cd7b2b2e9" d="M420.7,249.2a12,12,0,0,1,1.8,14.2c-.6-4.6-.7-8.4-5-12.9C414.8,247.8,418.3,246.6,420.7,249.2Z" transform="translate(-98.78 3.1)"/><path id="e6b2b54d-e579-4533-ade7-fb51644debfe" data-name="righleg3" class="b237a497-799d-4714-b503-6b5cd7b2b2e9" d="M420.9,247a12.14,12.14,0,0,1,8.7,11.4c-2.8-3.7-4.9-6.9-10.8-8.6C415.1,248.8,417.6,245.9,420.9,247Z" transform="translate(-98.78 3.1)"/><path id="aa160d60-2eb1-40e1-a50e-9dc0428a1b6e" data-name="righleg2" class="b237a497-799d-4714-b503-6b5cd7b2b2e9" d="M420.3,245.5a12.36,12.36,0,0,1,12.5,7.1c-4.1-2.3-7.2-4.5-13.3-3.7C415.7,249.3,416.8,245.8,420.3,245.5Z" transform="translate(-98.78 3.1)"/><path id="ac48cd97-5d12-48c7-877f-54543fc0721f" data-name="righleg1" class="b237a497-799d-4714-b503-6b5cd7b2b2e9" d="M420,242.6c2.3-1.5,8.4-7.7,7.7-16.1,3.1,4.6,3.8,6.1-5.4,18.4-.4.5-1.9,2-3.1.8C418.5,244.9,419.1,243.2,420,242.6Z" transform="translate(-98.78 3.1)"/><path id="a0231ea9-bd0c-4696-bfcf-4a5e9b4420e9" data-name="spider_body" class="b237a497-799d-4714-b503-6b5cd7b2b2e9" d="M420.3,247c1.5-2.5,3.8-6,3.8-11.7,0-8.8-10.1-16.3-10.1-16.3s-9.3,7.1-9.4,15.9c0,5.6,3.3,10.5,4.1,12.1a6.1,6.1,0,0,1,.8,4.2c-.8,3.3.5,6.7,2.3,6.7,1.5,0,.8-3.3,2.3-3.3s1.5,3.3,3.1,3.3,3.1-3.3,2-7.5A5.06,5.06,0,0,1,420.3,247Z" transform="translate(-98.78 3.1)"/></g><line id="a8325307-e49d-4fff-b982-d87b85ace1fe" data-name="spiderline1" class="b37ab4cf-9569-478c-98d0-3b81697cfc42" x1="317.42" y1="2" x2="317.12" y2="227.9"/><polygon id="e1cc4483-ae91-4f41-a2d2-068aea74bcb3" data-name="start1" class="b237a497-799d-4714-b503-6b5cd7b2b2e9" points="211.82 50.7 221.32 70.1 242.72 73.2 227.22 88.3 230.92 109.6 211.82 99.6 192.62 109.6 196.32 88.3 180.82 73.2 202.22 70.1 211.82 50.7"/></g></g></svg>