<svg id="a3f54cd2-063f-4ba7-ab79-be6d2cba5a30" data-name="Halloweentop" xmlns="http://www.w3.org/2000/svg" viewBox="0 0 1722.05 266.54"><defs><style>.af5bb67c-b611-4223-a17f-76c494cb5704{fill:#fcc000;}.ee4a2674-0e2b-4cf8-b4d1-9e5d0a5fb2cb{fill:#1a2a52;}.b12821c7-07d3-4f80-8fa8-25b9efb622c5{fill:#f58328;}.a3634e3f-dfc2-4390-ba98-435c7089e6f4,.ad2ded7b-b971-49df-be79-f57ffd14982d{fill:none;}.a3634e3f-dfc2-4390-ba98-435c7089e6f4{stroke:#1a2a52;stroke-miterlimit:10;stroke-width:2px;}</style></defs><g id="ed50af25-5140-4174-b050-da982bbbeca5" data-name="startlight"><polygon id="e9e2a709-70d6-483f-938f-bfe1da15a3a2" data-name="startlight6" class="af5bb67c-b611-4223-a17f-76c494cb5704" points="1622.61 72.19 1628.72 84.56 1642.37 86.55 1632.49 96.18 1634.83 109.77 1622.61 103.35 1610.4 109.77 1612.73 96.18 1602.86 86.55 1616.51 84.56 1622.61 72.19"/><polygon id="bc45fec8-07fd-40c9-b6d2-46953de659dd" data-name="startlight5" class="af5bb67c-b611-4223-a17f-76c494cb5704" points="1264.68 85.87 1269.46 95.56 1280.16 97.11 1272.42 104.66 1274.24 115.31 1264.68 110.28 1255.11 115.31 1256.94 104.66 1249.2 97.11 1259.89 95.56 1264.68 85.87"/><polygon id="b73f65f6-c29f-4900-b4b4-277336d55a62" data-name="startlight4" class="af5bb67c-b611-4223-a17f-76c494cb5704" points="949.13 64.55 953.91 74.24 964.61 75.79 956.87 83.34 958.69 93.99 949.13 88.96 939.56 93.99 941.39 83.34 933.65 75.79 944.34 74.24 949.13 64.55"/><polygon id="aa439285-6f62-4348-acee-7b68ee089d44" data-name="startlight3" class="af5bb67c-b611-4223-a17f-76c494cb5704" points="765.59 86.07 771.6 98.24 785.03 100.19 775.31 109.67 777.61 123.04 765.59 116.72 753.58 123.04 755.88 109.67 746.16 100.19 759.59 98.24 765.59 86.07"/><polygon id="a3e0d6f6-856f-4b70-bb0a-c329d7c00fc1" data-name="startlight2" class="af5bb67c-b611-4223-a17f-76c494cb5704" points="580.58 87.81 585.37 97.5 596.06 99.06 588.32 106.6 590.15 117.26 580.58 112.23 571.01 117.26 572.84 106.6 565.1 99.06 575.8 97.5 580.58 87.81"/></g><path id="f6e33860-837e-44a4-9806-7336b7ee7f96" data-name="Halloweentopscenery" class="ee4a2674-0e2b-4cf8-b4d1-9e5d0a5fb2cb" d="M400.55,43.07c2.45-2.38,3.8-.36,4.45.62.86,2.47.37,4.92,1.22,7.39.78,1.61,1.78,2.61,2.35,0q.65-5.44,1.28-10.87c.15-3.52,3.15-6.52,3.55,0,.27,16.26-.67,32.23-.4,48.49,0,7,4,9,6.58.28,4.38-17.92-4.42-54.14.5-56.71s8,9.41,12.27,12c2.36,1.41,8.73,2.2,11.19.33s-.21-6.37-2.31-8.34c-2.33-2.17-7.72-2.38-10.41-4.45-1.65-1.27-3-3.85-.93-6.46S443,19.69,450,21.69c2.52.72,9.7,4.1,8,7,0,8,7,6.26,10.39,5.89,2.31-.26,11.82,1.64,7.78,5.77C469,47.69,468,49.69,470,54.69a4.68,4.68,0,0,0,7,2c2.22-1.72,2.61-3.51,2.9-5.58,1.06-7.45,9.07-5.33,14.58-6.87s11.43-9,20.15-3.59c6.07,3.77,8.42,8.28,5.71,14.34a15.43,15.43,0,0,0-.76,9.69,6.2,6.2,0,0,0,6,4.08c3.4-.07,5-3.8,4.84-5.58-.31-3.76-2.38-7.43-3.76-11.13-1.49-4,.48-5.37,6-5.76,8.4-.59,11.32,2.4,27.15-4.67C563,40.23,566,29.69,585.4,31.27a8.78,8.78,0,0,0,3-.5c3.56.07,5.59-6.08,10.88-2.08,2.71,5,1.05,6.21.87,8.6-.52,6.92-1.6,5.81-1.93,12.73A7.27,7.27,0,0,0,600.91,56c1.36.94,5.09,1.72,7.19-.11,1.58-1.38,2-4,1.72-6.07-1-8.15-3.12-8.26-3.47-16.42-.06-1.33,1.57-2.7,3.4-4.08a6.59,6.59,0,0,0,3.28.32c12.07-3.38,9.69-.09,20,6.08,5,3,9,1,15,1a7.68,7.68,0,0,1,5.17,8.37c-.51,6.92-1.6,13.81-1.93,20.73-.09,2,.81,4.76,2.68,5.95a6.2,6.2,0,0,0,7.2-.12c1.61-1.34,2-4,1.71-6.06-1-8.15-3.12-16.26-3.47-24.42-.1-2.22,1.64-6.45,6.95-6.85,5.69.4,5.63,3,6.69,5.4s-3,5-1.15,9.56c1.15,1.44,3.31,2.44,4.73-.06s-.2-8.8.11-10.65.44-3.5,2.53-4.51a5.39,5.39,0,0,1,6.2,1.07c5.15,5.16,10.92,5.14,17.94,2.5,2-.76,6.82-3.33,8.73-.12s-.61,10.79-1.36,15.81,1.24,11.57,7.25,11,4-7.58,3-9.58c-2.75-5.51-3.39-4.84-4.39-10.93-1.56-9.59,4.89-14.08,17.42-12.14,7.35,1.14,13.61,3.92,14.27,9.84.7,6.23,3.7,9.23,6.7,9.23,8,0,6-7,4-9s-3-2-4.24-2.72c-4.41-2.53-8.71-6.1-1.65-9.87C760,25.45,767.8,31,771,34.69c6,7,12,4,14,2,2.23-2.23,4-7-5-10-3-1-7.41-1-3.59-3.59,3.59-2.41,8.25-2.41,12.59-2.41,18,0,24.66,5.07,24.53,20.33,0,2.82-.15,5.65-.32,8.47s-1.15,5.42-.68,8.31S815.65,62,817,59.69a30.16,30.16,0,0,0,1.82-8c.25-4.86-.87-9.8-.08-14.58.38-2.26,2.62-6.2,5.94-6.31s4.1,4.78,4.63,7.35c.6,2.88-.66,4.36-1,9s3.67,3.58,3.79.18c0-4.21-3.87-16.52,0-15.06S840,41.69,849,39.69c5-2,4.71-2.8,8.85-2.89,5.15-.11,4.15,3.89,8.15,3.89,5,0,5.74-4.65,8.87-4.32s5.13-.68,8.13-1.68,9-2,18,4c3,2,10,2,15,0,4-1,7-2,11,0,2.16,1.08,7.69,0,8.19,4.22.81,6.78-1.48,9.68-2.26,14.51S935,66.69,939,63.69s1.33-14.67.58-22,3.54-10.5,13.18-10.34c8.54.14,14.75,2.7,18,9.24,1.2,2.38,1,6.45,6.19,9.06,4,2,7.06-1.31,6-5-.94-3.31-5-6-7.26-7.14-5.89-3-4.08-7.38,2.91-9.2,9.25-2.4,15.32-.27,20.42,6.07,4,4.94,5.27,9.5,10.93,13.27,6.86,4.57,11,3,13,2,5.58-2.79,2.54-8.88-1.32-10.84C1016,36,1010,33.54,1004.53,30.52c-2.55-1.4-9.9-3.32-7.22-6.57s9.69-.26,21.69-.26c6,0,9.69-3,12.38-3.85a4.86,4.86,0,0,1,6.25,2.73c1.37,4.12,7,5.05,9.92,4.29,4.45-1.17,6.9,1.28,7.38,2.65.78,2.21-4.93,4.18-7.93,7.18-1.88,1.88-3.66,6.53.74,7.79s8.87-4.82,10.61-8c2.43-4.4,6.93-7.22,12.55-5.53,3.22,1,5.84,5,6.68,8,1,3.42.39,7.37-.73,10.83-2.85,8.83-1.85,10.83-1.08,11.71,1.61,1.84,3.53,1.38,5.23-.88,3-4-3.53-16.66,2.13-26.12,1.87-5.88,20.87-6.88,18.87.12s-2.32,12.49,1,14c2.74,1.25,4,0,4-1.55,0-3.43-2-7.45-1-10.45s2.36-3.45,4.68-3.23a5,5,0,0,1,4.11,3c.74,1.63.46,3.59.29,5.39-.77,7.94-4.52,19.77-2.3,23.81s5.15,3.5,8.19.27-2-22.46-.51-28.85,2.54-2.39,4.54-1.39,9.38-5.47,13-5,5.78,7.3,8.55,12c2.29,3.88,5.93,5.83,11.52,4.07,6.8-2.15,10.79.21,14.17,4.32,3,3.63,4.32,11.43,9.54,12s4.89-8.29,7.56-7.85,1.64,6.21,1.51,8.42c-.51,9.32-3.18,11.72-3.85,21-.25,3.52,1.37,14.55,7.82,14.37,6.73-.18,5.61-11,5.18-14.37-1.29-10.18-4.41-13.81-5-24-.35-6,5.1-7.51,7.32-7.57,5.82-.17,5.86,4,5.61,7.62s-2.71,7.5-.06,10.53c2.13,2.42,4.28.55,5.13-.58,3-4-5-17-1-20s6.35,1.76,7,2.6c4.42,6,9.72,7,17.62,3.13,4.54-2.25,6.63.62,6.4,3.86-.48,7-1.3,5.06-2,12.09-.43,4.28,2.46,9.21,6,8.32,4-1,4-4,2.5-9-1.9-6.32-2-4.08-2.67-10.65-.52-5.29.45-10.23,9.2-11.36,8.21-1.06,14.73,2,17.5,8.05,1,2.15.4,4.81,1.47,6.95a6.19,6.19,0,0,0,9,2.7c3-1.7,1.75-5.27,0-6.49-3.06-2.21-5.43-3.33-7.06-5.21-4.34-5-.63-9.32,7-10.81,6.93-1.36,11.78.53,14.51,5.51,2.66,4.81,6.46,5.3,10.46,4.3,7.25-1.81,7-11,13-9s4,18,3,24,.68,8.89,3.86,8.59c3.39-.32,2.26-4.37,1.44-7.91-2-8.42-1.61-20.94-.29-25.92,1-3.76,2-4.71,4-4.73,3,0,4.88,3,5.32,4.59.64,2.38,1.42,2.89-1.36,9.38-3,7-1.69,8.31,0,10,1,1,2.66,1.45,4.33-.77s-2.67-14.16,0-17.7,11.76,9.55,16.72,8.51,2.65-4.84,6.3-6.44,5.65,5.4,17.53-2.49c3.67-2.44,3.71,6,3.12,8.89-1,5,0,13-2,24-1.07,5.9,0,13,5.73,11.56,4-1,3.27-7.56,2.27-14.56-1.58-11-3.26-13.31-3-24s2-12,3-13,3-1.32,4,0c1.42,1.86-2,5,1.85,6.71,1.08.48,2.51.2,3.15-1.71,1-3-3.07-5.07,0-11,1-2,2-5,9.14-4,5.67.81,7.08,8.34,10.88,10.61,2.1,1.25,6.86,3.22,9.92.29s-.18-5.65-2-7.39c-2.06-1.92-6.56-2.35-9.22-3.94s-5-3.88-.83-5.74,20.72-1.56,23.5-1.69c3.66-.17,8.66,1.83,4.35,6.37-2.17,2.09,3.28,3.88,6.28,3.54,2-.22,6-.08,6.91,5.12.34,2-1.9,3.49-2.88,5.8a22.31,22.31,0,0,0-2.3,7.52c-.7,4.48,2.41,9.28,6.3,6.48s2-7,2.18-10.26c.37-6.66,10-4.45,12.93-6.09s10.13-8,17.87-3.18c5.38,3.34,6.29,7,5,12.71-1,4.82-2,3.72-2,8.82,0,3,2.7,6.39,6,6s5.77-4.09,5-7.56a61.21,61.21,0,0,0-3.33-9.87c-1.32-3.55.43-4.76,5.32-5.1,7.45-.53,6.19-4.84,12-6.47s9.83,2,14,2c4,0,5.68-3,7.18-5.6,8.82-15.4,25.38-13.2,31.6-6.2,1,1.13,4.7,2,6.44,1.48,10.71-3,14.29-2.65,17.78,4.32,2,4,3.58,7.7,7.29,7.83,4.71.17,7.71-1.83,9.75-6.08.37,3.35,1.75,7.13,2,9.25,1,10-2.6,10.62-2.9,16.75a6.45,6.45,0,0,0,2.38,5.28c1.21.84,5.33.77,6.38-.1,1.42-1.19,1.75-3.58,1.52-5.38-.93-7.23-5.85-7.66-2.38-21.55,2-8,3.92-6.34,5.46-6.17s4.17,3.78,5.11,5.95,1,3.4.69,7.31,2.87,5,3.31-.05-.23-6.31.1-9.44c.14-1.43.15-2.41,2.24-4s4.58,0,5.5.94c4.56,4.58,9.68,4.56,15.91,2.22,1.8-.67,5.79-3.44,7.73-.1s.27,9.76-1.2,14c-1.85,5.33-.85,13.33,4.15,13.33,4,0,2.71-6.17,2-9-1-4-1-7-.93-12.78.09-8.61,4.32-12.48,15.44-10.76,6.51,1,10.29,4,12.65,8.72.94,1.88,2.84,6.82,7.84,6.82,2.24,0,4-2,3-5s-5.11-2.54-7-4c-3.57-2.75-5.94-5.65.43-8.77,6.57-3.23,12.57-3.23,18.57-.23,3.12,1.56,4,4,6.64,11.67,4.47,13,10.22,13.75,11.36,10.33,2-6-7-14-10.68-20.17s1.16-10.7,5-10.95c43.45-2.88,49.32-13.88,84.45-13.88,9,0-1728.13-.53-1722,0C114.5,3.05,133.82,9.82,170,12.87s57.36-5.4,76.27,8.22c7.58,5.46,16.61,2.2,19.74,9.09,1.1,2.41,1.91,4.81,3.11,7.22,1.65,3.29,4.59,4.92,8.65,3.29,3.94-3.37,2.56-5.65,1-8-2-3-5.45-2.71-7.29-4.83-4.9-5.64-2.36-13.35,6.37-12.19,2.65.35,7.6-1.44,10.68,4.17,3,5.44,6.08,0,12.15,1.8,5.74,1.7,2-5.87,13.94-3.15,4.62,3.54-1.85,17.2,8.15,27.2,2,2,5,4,7.49,2.48C334.77,43.69,329,40,330,37.23c3.77-9.64-.58-12.31-.33-22,.05-1.8,1.07-4.49,4.27-2.54,2.1,1.72,3.8,4.05,5.1,9a40.05,40.05,0,0,1,.44,14.77c-.74,4.27-1.37,8.07,1.26,11.27,1,1,3.49,3.07,5,.54,7-9.54,4.17-16.77,1-25.54-3-10,8,11,15.68,11.35,6.32.29,4.92-7.17,7.12-7.26S373,42.69,385,47.69C394.85,51.79,400.55,43.07,400.55,43.07Z" transform="translate(-98.75 1.44)"/><g id="aeed2628-40cf-4040-b1e1-3ce799c53a39" data-name="Halloweentopcharacter"><polygon id="a61d8464-ac05-43a8-a4f6-55a3076abac0" data-name="star6" class="ee4a2674-0e2b-4cf8-b4d1-9e5d0a5fb2cb" points="1622.92 72.17 1629.03 84.54 1642.68 86.52 1632.8 96.15 1635.13 109.75 1622.92 103.33 1610.71 109.75 1613.04 96.15 1603.16 86.52 1616.82 84.54 1622.92 72.17"/><g id="e43d5ef2-105c-4518-b6e3-006af66fee41" data-name="bat"><path id="f13c607c-024f-4f96-b3ae-d3a71e40b69f" data-name="batbody" class="ee4a2674-0e2b-4cf8-b4d1-9e5d0a5fb2cb" d="M1577.81,112.11c.15-1.67.23-3.22.43-4.75.41-3.21.88-6.42,1.31-9.63a6.53,6.53,0,0,0-.09-1.07,2.08,2.08,0,0,1,.08-.94c.41-.81.26-1.28-.68-1.46a1.93,1.93,0,0,1-.62-.35c-2.61-1.72-5.18-3.49-7.84-5.14-2.34-1.45-2.45-1.52-1.85-4.22a16,16,0,0,0-.79-10.49c-.82-1.77-2.21-3.32-2.09-5.61a31.38,31.38,0,0,0-4.72,5.33c-2,3.11-2.84,6.5-1.52,10.21.71,2,0,3.06-2.09,3.44-1.42.25-2.88.22-4.31.39-1.67.19-3.38.59-3.8-2-2.71,3.68-5.24,7.1-7.77,10.51-1.2,1.64-1.72,1.68-3,.19a15.8,15.8,0,0,0-6.25-4.59,61.15,61.15,0,0,0-6.61-1.75c-1.34-.33-1.77.1-1.37,1.41.67,2.19,1.3,4.39,2.14,6.52a11.32,11.32,0,0,0,7.66,7.24c1.48.42,1.8.91,1.76,2.44-.08,2.73-.13,5.46-.3,8.18a2.38,2.38,0,0,0,1.19,2.39c4.48,3,8.85,6.26,14,8.13a1.26,1.26,0,0,1,.66,1,1.39,1.39,0,0,1-.79.88,17.68,17.68,0,0,1-2.52.41c-1,0-1,3,2.63,3.68.81.26,1.61.54,2.41.84,3.07,1.15,5.91,2.89,8.87,4.33a3.91,3.91,0,0,0,1.25.13,5.35,5.35,0,0,0,0-1.13c-.31-1.65,0-2.19,1.69-2.26a13.54,13.54,0,0,0,9.9-5c.83-1,1.7-1.91,2.56-2.86.47-.51,1-.7,1.56-.15,1.64,1.6,2.63,1.32,3-1.31a2.59,2.59,0,0,0,.06-.83,18.88,18.88,0,0,1,.56-7.19c.51-3.22,1.51-9.22-2.12-6.21C1579.83,111.45,1579,113.69,1577.81,112.11Z" transform="translate(-98.75 1.44)"/><g id="b59cae7f-583a-4d0f-8ab6-ebc345eed0ac" data-name="lefteye"><path id="ada1d3da-3ab8-4145-889f-c58cf3886362" data-name="eyebackground" class="b12821c7-07d3-4f80-8fa8-25b9efb622c5" d="M1543.73,99.59c-3.86,1.85-5.49,5.85-3.3,10.19,1.63,3.21,5.85,4.43,9.42,2.66a6.57,6.57,0,0,0,3.78-8.6C1551.41,99.38,1547.57,97.74,1543.73,99.59Z" transform="translate(-98.75 1.44)"/><path id="a3c690d0-a658-48f9-8a34-0b35da11291a" data-name="eye" class="ee4a2674-0e2b-4cf8-b4d1-9e5d0a5fb2cb" d="M1545.72,106.66a1.4,1.4,0,0,0-.8,2,1.51,1.51,0,0,0,2.08.86c.82-.42,1-1.35.52-2.42C1547.11,106.24,1546.46,106.33,1545.72,106.66Z" transform="translate(-98.75 1.44)"/></g><g id="b683ad79-de2c-4a7a-b7a2-eedd6b881874" data-name="righteye"><path id="a864de75-3d5a-4344-a558-36a615affa44" data-name="eyebackground" class="b12821c7-07d3-4f80-8fa8-25b9efb622c5" d="M1564.62,91.48a8.64,8.64,0,0,0-7.93,3.31,3.7,3.7,0,0,0-.88,1.81,9.63,9.63,0,0,0,3,8.35,4,4,0,0,0,3.91,1c.63-.13,1.27-.18,1.89-.32,5.33-1.19,6.39-6,4.8-10.16C1568.3,93.68,1567.14,91.78,1564.62,91.48Z" transform="translate(-98.75 1.44)"/><path id="a12c1a7b-5c97-4668-a9ec-cb61e5d25c85" data-name="eye" class="ee4a2674-0e2b-4cf8-b4d1-9e5d0a5fb2cb" d="M1561,99.42a1.56,1.56,0,0,0-.77,2.31c.46.8,1.1,1.28,2.09.81a1.57,1.57,0,0,0,.65-2.34A1.35,1.35,0,0,0,1561,99.42Z" transform="translate(-98.75 1.44)"/></g><path id="ea1a8ce8-16b4-45aa-97e8-72e7a5a6d67a" data-name="rightbatbodywing" class="ee4a2674-0e2b-4cf8-b4d1-9e5d0a5fb2cb" d="M1609.35,95.13c-5.2-5.86-14.45-8.46-20.73-6.25-5.79,2-7.68,8.12-7.7,13,0,3.51-1.18,7.83-3.53,13.71s.13,6.51,1.36,3.45c4.4-8.68,11.46-4.73,11.46-4.73s-.44-5.78,4.53-8c2.45-1.11,7.31,1.73,7.31,1.73a16.29,16.29,0,0,0-.31-3.54,5.05,5.05,0,0,1,4.81-6.6c3.51,0,4.75,1.32,5,1S1610,95.89,1609.35,95.13Z" transform="translate(-98.75 1.44)"/><path id="adf6b279-031f-4941-a14a-272a2bdb1ea9" data-name="leftbatbodywing" class="ee4a2674-0e2b-4cf8-b4d1-9e5d0a5fb2cb" d="M1519.19,146.55c-2.47-7.44-.08-16.75,5-21.08,4.66-4,10.87-2.58,15.09-.16,3,1.74,7.37,2.9,13.63,3.81s5.58,3.37,2.3,2.91c-9.71-.55-9.82,7.54-9.82,7.54s-4.79-3.27-9.22-.1c-2.19,1.57-2.17,7.19-2.17,7.19a16.76,16.76,0,0,1-2.91-2,5,5,0,0,0-8.12.85c-1.75,3.05-1.24,4.78-1.61,4.81S1519.51,147.52,1519.19,146.55Z" transform="translate(-98.75 1.44)"/></g><polygon id="af60dc5f-aaa6-46bd-93ae-db365f870650" data-name="star5" class="ee4a2674-0e2b-4cf8-b4d1-9e5d0a5fb2cb" points="1264.99 85.84 1269.77 95.53 1280.47 97.09 1272.73 104.63 1274.55 115.29 1264.99 110.26 1255.42 115.29 1257.25 104.63 1249.51 97.09 1260.2 95.53 1264.99 85.84"/><g id="e86b1fde-24f5-4a16-a5c2-e411bc282aa1" data-name="spider2"><path id="ba42f323-0665-454e-b69a-034c60786730" data-name="leftleg4" class="ee4a2674-0e2b-4cf8-b4d1-9e5d0a5fb2cb" d="M1306.44,173.11c-3.08,3.41-6.73,10.67-2.37,18.57.79-6,1-11,6.57-16.79C1314.11,171.29,1309.52,169.7,1306.44,173.11Z" transform="translate(-98.75 1.44)"/><path id="bda2e314-7b6f-4924-b26e-122d44fd2281" data-name="leftleg3" class="ee4a2674-0e2b-4cf8-b4d1-9e5d0a5fb2cb" d="M1306.17,170.3c-4.38,1.4-11.18,5.85-11.37,14.88,3.7-4.82,6.35-9,14.1-11.24C1313.71,172.57,1310.54,168.89,1306.17,170.3Z" transform="translate(-98.75 1.44)"/><path id="b29b7f13-3698-4613-bfdb-74dc6a927689" data-name="leftleg2" class="ee4a2674-0e2b-4cf8-b4d1-9e5d0a5fb2cb" d="M1307,168.26c-4.58-.42-12.58,1-16.29,9.24,5.29-3,9.38-5.81,17.38-4.81C1313,173.31,1311.52,168.68,1307,168.26Z" transform="translate(-98.75 1.44)"/><path id="bf73d971-f7f0-44e7-ba01-117536067c42" data-name="leftleg1" class="ee4a2674-0e2b-4cf8-b4d1-9e5d0a5fb2cb" d="M1307.35,164.52c-3-2-11-10-10-21-4,6-5,8,7,24,.51.69,2.42,2.58,4,1C1309.35,167.52,1308.59,165.35,1307.35,164.52Z" transform="translate(-98.75 1.44)"/><path id="a82c98d9-0d08-4158-8002-e8c050385a82" data-name="righleg4" class="ee4a2674-0e2b-4cf8-b4d1-9e5d0a5fb2cb" d="M1323.65,173.11c3.08,3.41,6.73,10.67,2.37,18.57-.78-6-1-11-6.57-16.79C1316,171.29,1320.57,169.7,1323.65,173.11Z" transform="translate(-98.75 1.44)"/><path id="ae94b928-2ea0-4c06-b511-348be9226ff1" data-name="righleg3" class="ee4a2674-0e2b-4cf8-b4d1-9e5d0a5fb2cb" d="M1323.92,170.3c4.38,1.4,11.18,5.85,11.37,14.88-3.7-4.82-6.35-9-14.1-11.24C1316.38,172.57,1319.55,168.89,1323.92,170.3Z" transform="translate(-98.75 1.44)"/><path id="a821a8bb-d26b-41de-9eaf-9a306fd83bb8" data-name="righleg2" class="ee4a2674-0e2b-4cf8-b4d1-9e5d0a5fb2cb" d="M1323.15,168.26c4.57-.42,12.57,1,16.28,9.24-5.29-3-9.38-5.81-17.38-4.81C1317.09,173.31,1318.57,168.68,1323.15,168.26Z" transform="translate(-98.75 1.44)"/><path id="a74c366c-7aa9-4330-a4d4-9a8e87d8290d" data-name="righleg1" class="ee4a2674-0e2b-4cf8-b4d1-9e5d0a5fb2cb" d="M1322.74,164.52c3-2,11-10,10-21,4,6,5,8-7,24-.51.69-2.41,2.58-4,1C1320.74,167.52,1321.5,165.35,1322.74,164.52Z" transform="translate(-98.75 1.44)"/><path id="b35688bc-4402-46b9-8514-444f42f073ed" data-name="spiderbody" class="ee4a2674-0e2b-4cf8-b4d1-9e5d0a5fb2cb" d="M1323.07,170.22c2-3.27,5-7.87,5-15.28,0-11.44-13.14-21.25-13.14-21.25s-12.18,9.26-12.19,20.7c0,7.37,4.33,13.64,5.33,15.83s1.41,3.67,1,5.46c-1,4.37.59,8.74,3,8.74,2,0,1-4.37,3-4.37s2,4.37,4,4.37,4-4.37,2.6-9.83C1321.5,173.62,1321.83,172.26,1323.07,170.22Z" transform="translate(-98.75 1.44)"/></g><line id="b668e704-78b2-4a93-b201-990f71bfe345" data-name="spiderline2" class="a3634e3f-dfc2-4390-ba98-435c7089e6f4" x1="1215.37" y1="3" x2="1215.37" y2="158.13"/><polygon id="a3afda53-1177-4198-9e09-826e5ce03896" data-name="star4" class="ee4a2674-0e2b-4cf8-b4d1-9e5d0a5fb2cb" points="949.44 64.52 954.22 74.21 964.91 75.77 957.18 83.31 959 93.97 949.44 88.94 939.87 93.97 941.7 83.31 933.96 75.77 944.65 74.21 949.44 64.52"/><polygon id="ad0b2b02-2095-4c5c-b432-911b12212b4e" data-name="star3" class="ee4a2674-0e2b-4cf8-b4d1-9e5d0a5fb2cb" points="765.9 86.05 771.91 98.22 785.34 100.17 775.62 109.64 777.91 123.02 765.9 116.7 753.89 123.02 756.18 109.64 746.47 100.17 759.9 98.22 765.9 86.05"/><polygon id="e48f78fd-dd1e-4200-aa97-1ce7490f14a8" data-name="star2" class="ee4a2674-0e2b-4cf8-b4d1-9e5d0a5fb2cb" points="580.58 87.81 585.37 97.5 596.06 99.06 588.32 106.6 590.15 117.26 580.58 112.23 571.01 117.26 572.84 106.6 565.1 99.06 575.8 97.5 580.58 87.81"/><path id="bf7bc68f-43e0-48a8-971e-d25a170f6288" data-name="candy" class="ee4a2674-0e2b-4cf8-b4d1-9e5d0a5fb2cb" d="M573.74,123.41c4-1.22,6.82-3.24,6.43-4.52s-3.71-1.34-7.53-.24c2.32-3.18,3.36-6.29,2.33-7.08s-4,1.21-6.51,4.51a20.32,20.32,0,0,0-2.25,3.69,12.72,12.72,0,0,0-22.5,10.09,18.12,18.12,0,0,0-4.73-2.31c-3.94-1.33-7.49-1.37-7.92-.09s2.2,3.22,5.9,4.55c-3.78,1.23-6.48,3.17-6.1,4.42s3.9,1.34,7.85.14c-2.49,3.3-3.64,6.61-2.58,7.42s4-1.2,6.51-4.51a16.7,16.7,0,0,0,2.79-5.1,12.72,12.72,0,0,0,23.5-7.72,21.83,21.83,0,0,0,3.2,1.36c3.94,1.33,7.48,1.37,7.91.09S577.65,124.74,573.74,123.41Z" transform="translate(-98.75 1.44)"/><line id="b19bbb38-7452-487c-889d-66eea8a336f8" data-name="candyline1" class="a3634e3f-dfc2-4390-ba98-435c7089e6f4" x1="457.49" x2="457.49" y2="129.13"/><g id="a01f30be-0452-4632-a5f7-5ea661c41119" data-name="spider1"><path id="a6f7099b-e8a7-4be9-91c3-68a5ac56c67e" data-name="leftleg4" class="ee4a2674-0e2b-4cf8-b4d1-9e5d0a5fb2cb" d="M407.52,250.86a12.22,12.22,0,0,0-1.82,14.24c.6-4.61.74-8.42,5-12.87C413.4,249.47,409.88,248.25,407.52,250.86Z" transform="translate(-98.75 1.44)"/><path id="e2e5595a-2b1f-411a-803e-a8f11664a365" data-name="leftleg3" class="ee4a2674-0e2b-4cf8-b4d1-9e5d0a5fb2cb" d="M407.31,248.71a12.23,12.23,0,0,0-8.72,11.41c2.84-3.7,4.87-6.92,10.82-8.62C413.09,250.45,410.66,247.63,407.31,248.71Z" transform="translate(-98.75 1.44)"/><path id="e1fbcabe-9c0d-4d32-8a26-46d7ff76f436" data-name="leftleg2" class="ee4a2674-0e2b-4cf8-b4d1-9e5d0a5fb2cb" d="M407.9,247.15a12.2,12.2,0,0,0-12.48,7.08c4.05-2.29,7.19-4.46,13.32-3.69C412.54,251,411.41,247.47,407.9,247.15Z" transform="translate(-98.75 1.44)"/><path id="aeb98f03-c5e2-40a9-bee1-37075c4c06c0" data-name="leftleg1" class="ee4a2674-0e2b-4cf8-b4d1-9e5d0a5fb2cb" d="M408.21,244.28c-2.3-1.54-8.43-7.67-7.67-16.11-3.06,4.6-3.83,6.14,5.37,18.41.4.52,1.86,2,3.07.76C409.74,246.58,409.17,244.91,408.21,244.28Z" transform="translate(-98.75 1.44)"/><path id="ae5abb38-ba0b-4b7f-819f-7cadb06840f6" data-name="righleg4" class="ee4a2674-0e2b-4cf8-b4d1-9e5d0a5fb2cb" d="M420.71,250.86a12.24,12.24,0,0,1,1.82,14.24c-.6-4.61-.75-8.42-5-12.87C414.83,249.47,418.35,248.25,420.71,250.86Z" transform="translate(-98.75 1.44)"/><path id="a717ad09-bb3b-4b7e-8889-dd0c448cd7dc" data-name="righleg3" class="ee4a2674-0e2b-4cf8-b4d1-9e5d0a5fb2cb" d="M420.92,248.71a12.23,12.23,0,0,1,8.72,11.41c-2.84-3.7-4.87-6.92-10.82-8.62C415.14,250.45,417.57,247.63,420.92,248.71Z" transform="translate(-98.75 1.44)"/><path id="a5929a4a-3a98-4dac-804a-8ad06ffe3940" data-name="righleg2" class="ee4a2674-0e2b-4cf8-b4d1-9e5d0a5fb2cb" d="M420.33,247.15a12.2,12.2,0,0,1,12.48,7.08c-4.05-2.29-7.19-4.46-13.32-3.69C415.68,251,416.81,247.47,420.33,247.15Z" transform="translate(-98.75 1.44)"/><path id="bdc8dee2-d999-4013-922c-fdffb87780e3" data-name="righleg1" class="ee4a2674-0e2b-4cf8-b4d1-9e5d0a5fb2cb" d="M420,244.28c2.3-1.54,8.43-7.67,7.67-16.11,3.06,4.6,3.83,6.14-5.37,18.41-.4.52-1.86,2-3.07.76C418.48,246.58,419.06,244.91,420,244.28Z" transform="translate(-98.75 1.44)"/><path id="b42b9627-bfb4-4d3b-a8a9-96fa90edf3fe" data-name="spiderbody" class="ee4a2674-0e2b-4cf8-b4d1-9e5d0a5fb2cb" d="M420.27,248.65c1.54-2.51,3.83-6,3.84-11.72,0-8.78-10.08-16.29-10.08-16.29s-9.34,7.1-9.36,15.87c0,5.65,3.33,10.46,4.1,12.14a6.14,6.14,0,0,1,.77,4.19c-.77,3.35.45,6.69,2.3,6.69,1.53,0,.76-3.34,2.3-3.34s1.53,3.34,3.06,3.34,3.07-3.34,2-7.53C419.06,251.26,419.32,250.21,420.27,248.65Z" transform="translate(-98.75 1.44)"/></g><line id="a871a191-8e48-4fd5-82c0-7359104d5a25" data-name="spiderline1" class="a3634e3f-dfc2-4390-ba98-435c7089e6f4" x1="317.45" y1="2" x2="317.14" y2="227.89"/><g id="bc1939d9-cc0b-46f4-aac9-8327f9f8f567" data-name="star1"><rect id="a9365204-7f02-4657-a5f0-e617707b3218" data-name="star1 area" class="ad2ded7b-b971-49df-be79-f57ffd14982d" x="166.73" y="52.54" width="90" height="90"/><polygon id="b35657fc-9f04-4dd4-8a78-f729d5017897" data-name="startlight1" class="af5bb67c-b611-4223-a17f-76c494cb5704" points="211.73 68.09 221.3 87.48 242.69 90.59 227.21 105.67 230.86 126.98 211.73 116.92 192.6 126.98 196.25 105.67 180.77 90.59 202.16 87.48 211.73 68.09"/><polygon id="bb0a5314-9e06-4b46-98d0-a858a3005fad" data-name="star1" class="ee4a2674-0e2b-4cf8-b4d1-9e5d0a5fb2cb" points="211.73 68.09 221.3 87.48 242.69 90.59 227.21 105.67 230.86 126.98 211.73 116.92 192.6 126.98 196.25 105.67 180.77 90.59 202.16 87.48 211.73 68.09"/></g></g></svg>