<svg id="b22b5942-49df-436d-b04f-402c159487ea" data-name="Halloween_top" xmlns="http://www.w3.org/2000/svg" viewBox="0 0 1722.05 266.54"><defs><style>.bd0f92d1-eda3-44da-8a4b-8644d47a29c4{fill:#fcc000;}.a1acf109-5498-4032-8669-879bb7ca99b7{fill:#1a2a52;}.f0ac0b9c-1d7c-45b2-a7ed-5cd0bae38376{fill:#f58328;}.f51907af-5291-4047-9701-3d0950b41e6a{fill:none;stroke:#1a2a52;stroke-miterlimit:10;stroke-width:2px;}</style></defs><g id="a5cccd97-3f19-454c-8cc4-af90a17dc6a0" data-name="starlight"><polygon id="e747c5ef-2805-44db-9eeb-7536e27545fd" data-name="star6_light" class="bd0f92d1-eda3-44da-8a4b-8644d47a29c4" points="1622.61 72.19 1628.72 84.56 1642.37 86.55 1632.49 96.18 1634.83 109.77 1622.61 103.35 1610.4 109.77 1612.73 96.18 1602.86 86.55 1616.51 84.56 1622.61 72.19"/><polygon id="ba15c664-e80a-4150-8971-f9f3c93349cf" data-name="star5_light" class="bd0f92d1-eda3-44da-8a4b-8644d47a29c4" points="1264.68 85.87 1269.46 95.56 1280.16 97.11 1272.42 104.66 1274.24 115.31 1264.68 110.28 1255.11 115.31 1256.94 104.66 1249.2 97.11 1259.89 95.56 1264.68 85.87"/><polygon id="fd933d5a-d3b3-4174-bb84-1b2569eba207" data-name="start4_light" class="bd0f92d1-eda3-44da-8a4b-8644d47a29c4" points="949.13 64.55 953.91 74.24 964.61 75.79 956.87 83.34 958.69 93.99 949.13 88.96 939.56 93.99 941.39 83.34 933.65 75.79 944.34 74.24 949.13 64.55"/><polygon id="b31101f2-26e2-4144-96a4-d56ed05d69d1" data-name="start3_light" class="bd0f92d1-eda3-44da-8a4b-8644d47a29c4" points="765.59 86.07 771.6 98.24 785.03 100.19 775.31 109.67 777.61 123.04 765.59 116.72 753.58 123.04 755.88 109.67 746.16 100.19 759.59 98.24 765.59 86.07"/><polygon id="eff250d2-9cdf-4411-9ab5-c86a7214e544" data-name="start2_light" class="bd0f92d1-eda3-44da-8a4b-8644d47a29c4" points="580.58 87.81 585.37 97.5 596.06 99.06 588.32 106.6 590.15 117.26 580.58 112.23 571.01 117.26 572.84 106.6 565.1 99.06 575.8 97.5 580.58 87.81"/><polygon id="fa636b46-6601-405d-a6a2-986282c53219" data-name="start1_light" class="bd0f92d1-eda3-44da-8a4b-8644d47a29c4" points="211.84 50.64 221.4 70.03 242.8 73.14 227.32 88.23 230.97 109.53 211.84 99.47 192.7 109.53 196.36 88.23 180.88 73.14 202.27 70.03 211.84 50.64"/></g><path id="b1c5f13b-0652-4f68-b77f-d0e9265dd0fa" data-name="Halloween_top_scenery" class="a1acf109-5498-4032-8669-879bb7ca99b7" d="M400.55,40.11c2.45-2.38,3.8-.36,4.45.62.86,2.47.37,4.91,1.22,7.38.78,1.62,1.78,2.62,2.35,0q.65-5.43,1.28-10.87c.15-3.51,3.15-6.51,3.55,0,.27,16.26-.67,32.23-.4,48.49,0,7,4,9,6.58.28,4.38-17.92-4.42-54.14.5-56.71s8,9.41,12.27,12c2.36,1.41,8.73,2.2,11.19.34s-.21-6.38-2.31-8.34c-2.33-2.17-7.72-2.38-10.41-4.45-1.65-1.27-3-3.85-.93-6.47S443,16.73,450,18.73c2.52.72,9.7,4.1,8,7,0,8,7,6.26,10.39,5.89,2.31-.26,11.82,1.63,7.78,5.77C469,44.73,468,46.73,470,51.73a4.68,4.68,0,0,0,7,2c2.22-1.72,2.61-3.52,2.9-5.58,1.06-7.46,9.07-5.33,14.58-6.88s11.43-9,20.15-3.58c6.07,3.77,8.42,8.28,5.71,14.33a15.46,15.46,0,0,0-.76,9.7,6.2,6.2,0,0,0,6,4.08c3.4-.07,5-3.81,4.84-5.58-.31-3.76-2.38-7.43-3.76-11.14-1.49-4,.48-5.37,6-5.75,8.4-.59,11.32,2.4,27.15-4.67C563,37.27,566,26.73,585.4,28.31a9,9,0,0,0,3-.5c3.56.06,5.59-6.08,10.88-2.08,2.71,5,1.05,6.21.87,8.6-.52,6.91-1.6,5.81-1.93,12.73A7.28,7.28,0,0,0,600.91,53c1.36.94,5.09,1.72,7.19-.12,1.58-1.38,2-4,1.72-6.06-1-8.16-3.12-8.26-3.47-16.42-.06-1.33,1.57-2.7,3.4-4.08a6.59,6.59,0,0,0,3.28.32c12.07-3.39,9.69-.09,20,6.08,5,3,9,1,15,1a7.68,7.68,0,0,1,5.17,8.37c-.51,6.91-1.6,13.81-1.93,20.72-.09,2,.81,4.77,2.68,6a6.2,6.2,0,0,0,7.2-.12c1.61-1.34,2-4,1.71-6.06-1-8.16-3.12-16.26-3.47-24.42-.1-2.23,1.64-6.45,6.95-6.85,5.69.4,5.63,3,6.69,5.4s-3,5-1.15,9.55c1.15,1.45,3.31,2.44,4.73-.05s-.2-8.8.11-10.65.44-3.51,2.53-4.51a5.39,5.39,0,0,1,6.2,1.06c5.15,5.17,10.92,5.14,17.94,2.51,2-.76,6.82-3.33,8.73-.12s-.61,10.78-1.36,15.8S712,61.9,718,61.31s4-7.58,3-9.58c-2.75-5.51-3.39-4.85-4.39-10.93-1.56-9.59,4.89-14.09,17.42-12.14,7.35,1.14,13.61,3.92,14.27,9.83.7,6.24,3.7,9.24,6.7,9.24,8,0,6-7,4-9s-3-2-4.24-2.72c-4.41-2.53-8.71-6.11-1.65-9.87C760,22.49,767.8,28,771,31.73c6,7,12,4,14,2,2.23-2.24,4-7-5-10-3-1-7.41-1-3.59-3.59,3.59-2.41,8.25-2.41,12.59-2.41,18,0,24.66,5.07,24.53,20.33,0,2.82-.15,5.64-.32,8.46s-1.15,5.42-.68,8.32,3.12,4.21,4.47,1.89a30.16,30.16,0,0,0,1.82-8c.25-4.86-.87-9.8-.08-14.59.38-2.25,2.62-6.19,5.94-6.31s4.1,4.79,4.63,7.36c.6,2.87-.66,4.36-1,8.94s3.67,3.59,3.79.18c0-4.2-3.87-16.51,0-15S840,38.73,849,36.73c5-2,4.71-2.8,8.85-2.89,5.15-.11,4.15,3.89,8.15,3.89,5,0,5.74-4.65,8.87-4.33s5.13-.67,8.13-1.67,9-2,18,4c3,2,10,2,15,0,4-1,7-2,11,0,2.16,1.08,7.69,0,8.19,4.22.81,6.78-1.48,9.68-2.26,14.51S935,63.73,939,60.73s1.33-14.67.58-22,3.54-10.49,13.18-10.33c8.54.13,14.75,2.7,18,9.23,1.2,2.38,1,6.46,6.19,9.07,4,2,7.06-1.31,6-5-.94-3.31-5-6-7.26-7.14-5.89-3-4.08-7.38,2.91-9.2,9.25-2.4,15.32-.27,20.42,6.07,4,4.94,5.27,9.49,10.93,13.27,6.86,4.57,11,3,13,2,5.58-2.79,2.54-8.88-1.32-10.84C1016,33,1010,30.58,1004.53,27.56c-2.55-1.4-9.9-3.32-7.22-6.58s9.69-.25,21.69-.25c6,0,9.69-3,12.38-3.85a4.86,4.86,0,0,1,6.25,2.73c1.37,4.12,7,5,9.92,4.28,4.45-1.16,6.9,1.28,7.38,2.65.78,2.21-4.93,4.19-7.93,7.19-1.88,1.88-3.66,6.53.74,7.78s8.87-4.81,10.61-7.95c2.43-4.4,6.93-7.22,12.55-5.54,3.22,1,5.84,5.05,6.68,8.05,1,3.42.39,7.37-.73,10.83-2.85,8.83-1.85,10.83-1.08,11.71,1.61,1.84,3.53,1.38,5.23-.88,3-4-3.53-16.67,2.13-26.13,1.87-5.87,20.87-6.87,18.87.13s-2.32,12.49,1,14c2.74,1.24,4,0,4-1.56,0-3.42-2-7.44-1-10.44s2.36-3.46,4.68-3.23a5,5,0,0,1,4.11,3c.74,1.63.46,3.59.29,5.38-.77,7.94-4.52,19.78-2.3,23.81s5.15,3.51,8.19.27-2-22.45-.51-28.84,2.54-2.39,4.54-1.39,9.38-5.47,13-5,5.78,7.29,8.55,12c2.29,3.87,5.93,5.83,11.52,4.07,6.8-2.15,10.79.2,14.17,4.32,3,3.63,4.32,11.43,9.54,12s4.89-8.29,7.56-7.85,1.64,6.21,1.51,8.42c-.51,9.32-3.18,11.72-3.85,21-.25,3.52,1.37,14.54,7.82,14.37,6.73-.18,5.61-11,5.18-14.37-1.29-10.18-4.41-13.81-5-24-.35-6,5.1-7.51,7.32-7.58,5.82-.16,5.86,4,5.61,7.62s-2.71,7.51-.06,10.54c2.13,2.42,4.28.55,5.13-.58,3-4-5-17-1-20s6.35,1.76,7,2.6c4.42,6,9.72,7,17.62,3.12,4.54-2.24,6.63.63,6.4,3.87-.48,7-1.3,5.06-2,12.08-.43,4.29,2.46,9.22,6,8.33,4-1,4-4,2.5-9-1.9-6.32-2-4.08-2.67-10.64-.52-5.29.45-10.23,9.2-11.36,8.21-1.06,14.73,1.94,17.5,8.05,1,2.14.4,4.81,1.47,6.95,2,4,6,4.4,9,2.7s1.75-5.27,0-6.5c-3.06-2.2-5.43-3.32-7.06-5.2-4.34-5-.63-9.32,7-10.82,6.93-1.35,11.78.54,14.51,5.51s6.46,5.31,10.46,4.31c7.25-1.82,7-11,13-9s4,18,3,24,.68,8.88,3.86,8.58c3.39-.31,2.26-4.36,1.44-7.9-2-8.42-1.61-20.94-.29-25.93,1-3.75,2-4.7,4-4.72,3,0,4.88,3,5.32,4.59.64,2.38,1.42,2.89-1.36,9.38-3,7-1.69,8.31,0,10,1,1,2.66,1.45,4.33-.78s-2.67-14.15,0-17.69,11.76,9.55,16.72,8.51,2.65-4.84,6.3-6.44,5.65,5.4,17.53-2.49c3.67-2.44,3.71,5.95,3.12,8.89-1,5,0,13-2,24-1.07,5.9,0,13,5.73,11.55,4-1,3.27-7.55,2.27-14.55-1.58-11-3.26-13.31-3-24s2-12,3-13,3-1.32,4,0c1.42,1.85-2,5,1.85,6.71,1.08.48,2.51.2,3.15-1.71,1-3-3.07-5.08,0-11,1-2,2-5,9.14-4,5.67.82,7.08,8.35,10.88,10.61,2.1,1.26,6.86,3.23,9.92.3s-.18-5.65-2-7.39c-2.06-1.92-6.56-2.35-9.22-3.95s-5-3.87-.83-5.73,20.72-1.56,23.5-1.69c3.66-.17,8.66,1.83,4.35,6.37-2.17,2.08,3.28,3.87,6.28,3.54,2-.23,6-.08,6.91,5.12.34,2-1.9,3.49-2.88,5.8a22.23,22.23,0,0,0-2.3,7.52c-.7,4.48,2.41,9.28,6.3,6.48s2-7,2.18-10.26c.37-6.67,10-4.45,12.93-6.1s10.13-8,17.87-3.17c5.38,3.34,6.29,6.95,5,12.7-1,4.83-2,3.73-2,8.83,0,3,2.7,6.39,6,6s5.77-4.09,5-7.56a61.21,61.21,0,0,0-3.33-9.87c-1.32-3.56.43-4.76,5.32-5.11,7.45-.52,6.19-4.83,12-6.46s9.83,2,14,2c4,0,5.68-3,7.18-5.61,8.82-15.39,25.38-13.19,31.6-6.2,1,1.13,4.7,2,6.44,1.48,10.71-3,14.29-2.65,17.78,4.33,2,4,3.58,7.7,7.29,7.83,4.71.17,7.71-1.83,9.75-6.08.37,3.35,1.75,7.13,2,9.25,1,10-2.6,10.62-2.9,16.75a6.45,6.45,0,0,0,2.38,5.28c1.21.84,5.33.77,6.38-.1,1.42-1.19,1.75-3.58,1.52-5.38-.93-7.23-5.85-7.66-2.38-21.55,2-8,3.92-6.35,5.46-6.17s4.17,3.78,5.11,5.95,1,3.39.69,7.31,2.87,5,3.31-.06-.23-6.31.1-9.44c.14-1.43.15-2.4,2.24-4s4.58,0,5.5.95c4.56,4.58,9.68,4.56,15.91,2.22,1.8-.68,5.79-3.45,7.73-.11s.27,9.76-1.2,14c-1.85,5.33-.85,13.33,4.15,13.33,4,0,2.71-6.18,2-9-1-4-1-7-.93-12.78.09-8.61,4.32-12.49,15.44-10.76,6.51,1,10.29,4,12.65,8.72.94,1.87,2.84,6.82,7.84,6.82,2.24,0,4-2,3-5s-5.11-2.54-7-4c-3.57-2.76-5.94-5.65.43-8.78,6.57-3.22,12.57-3.22,18.57-.22,3.12,1.56,4,4,6.64,11.67,4.47,13,10.22,13.75,11.36,10.33,2-6-7-14-10.68-20.17s1.16-10.7,5-11c43.45-2.87,49.32-13.87,84.45-13.87,9,0-1728.13-.53-1722,0C114.5.09,133.82,6.85,170,9.91s57.36-5.4,76.27,8.22c7.58,5.46,16.61,2.2,19.74,9.08,1.1,2.42,1.91,4.82,3.11,7.23,1.65,3.29,4.59,4.92,8.65,3.29,3.94-3.37,2.56-5.65,1-8-2-3-5.45-2.71-7.29-4.83-4.9-5.64-2.36-13.35,6.37-12.2,2.65.35,7.6-1.43,10.68,4.18,3,5.43,6.08,0,12.15,1.8,5.74,1.69,2-5.87,13.94-3.15,4.62,3.53-1.85,17.2,8.15,27.2,2,2,5,4,7.49,2.48C334.77,40.73,329,37,330,34.27c3.77-9.64-.58-12.31-.33-22.05.05-1.8,1.07-4.49,4.27-2.54,2.1,1.72,3.8,4.05,5.1,9a40,40,0,0,1,.44,14.77c-.74,4.27-1.37,8.06,1.26,11.27,1,1,3.49,3.07,5,.54,7-9.54,4.17-16.77,1-25.54-3-10,8,11,15.68,11.35,6.32.29,4.92-7.18,7.12-7.26S373,39.73,385,44.73C394.85,48.83,400.55,40.11,400.55,40.11Z" transform="translate(-98.75 4.4)"/><g id="a0c6c09f-953c-4fa8-a76b-6cde170ac1d6" data-name="Halloween_top_character"><polygon id="b43f7a82-1255-424b-b7a0-00043d30e949" data-name="star6" class="a1acf109-5498-4032-8669-879bb7ca99b7" points="1622.92 72.17 1629.03 84.54 1642.68 86.52 1632.8 96.15 1635.13 109.75 1622.92 103.33 1610.71 109.75 1613.04 96.15 1603.16 86.52 1616.82 84.54 1622.92 72.17"/><g id="a08d36e5-7d36-4f6c-b6cb-1a989529f33b" data-name="bat"><path id="a3ec5f1d-c9fa-436d-a7f3-0387e318ab95" data-name="batbody" class="a1acf109-5498-4032-8669-879bb7ca99b7" d="M1577.81,109.15c.15-1.67.23-3.22.43-4.75.41-3.22.88-6.42,1.31-9.63a6.65,6.65,0,0,0-.09-1.08,2,2,0,0,1,.08-.93c.41-.81.26-1.29-.68-1.46a2.14,2.14,0,0,1-.62-.35c-2.61-1.72-5.18-3.49-7.84-5.14-2.34-1.45-2.45-1.52-1.85-4.22a16,16,0,0,0-.79-10.49c-.82-1.77-2.21-3.32-2.09-5.61a31.38,31.38,0,0,0-4.72,5.33c-2,3.1-2.84,6.5-1.52,10.2.71,2,0,3.07-2.09,3.45-1.42.25-2.88.22-4.31.39-1.67.19-3.38.58-3.8-2-2.71,3.68-5.24,7.09-7.77,10.51-1.2,1.63-1.72,1.68-3,.19a15.8,15.8,0,0,0-6.25-4.59,61.15,61.15,0,0,0-6.61-1.75c-1.34-.33-1.77.1-1.37,1.41.67,2.19,1.3,4.39,2.14,6.52a11.34,11.34,0,0,0,7.66,7.24c1.48.42,1.8.9,1.76,2.44-.08,2.73-.13,5.46-.3,8.18a2.38,2.38,0,0,0,1.19,2.39c4.48,3,8.85,6.26,14,8.13a1.26,1.26,0,0,1,.66,1,1.38,1.38,0,0,1-.79.87,16.36,16.36,0,0,1-2.52.42c-1,0-1,3,2.63,3.68.81.26,1.61.54,2.41.84,3.07,1.15,5.91,2.89,8.87,4.32a3.64,3.64,0,0,0,1.25.13,5.25,5.25,0,0,0,0-1.12c-.31-1.65,0-2.19,1.69-2.27a13.5,13.5,0,0,0,9.9-5c.83-1,1.7-1.92,2.56-2.86.47-.52,1-.71,1.56-.15,1.64,1.6,2.63,1.32,3-1.31a2.59,2.59,0,0,0,.06-.83,18.88,18.88,0,0,1,.56-7.19c.51-3.22,1.51-9.22-2.12-6.22C1579.83,108.49,1579,110.73,1577.81,109.15Z" transform="translate(-98.75 4.4)"/><g id="aa71588f-c12d-43ea-9268-84d1299081dc" data-name="lefteye"><path id="e62d241c-9eaf-4bff-8331-d1da4ddfd9c3" data-name="eyebackground" class="f0ac0b9c-1d7c-45b2-a7ed-5cd0bae38376" d="M1543.73,96.62c-3.86,1.86-5.49,5.86-3.3,10.19,1.63,3.22,5.85,4.44,9.42,2.67a6.57,6.57,0,0,0,3.78-8.6C1551.41,96.41,1547.57,94.78,1543.73,96.62Z" transform="translate(-98.75 4.4)"/><path id="a0eadfca-ae4d-4f65-bc20-a0fa6105e22e" data-name="eye" class="a1acf109-5498-4032-8669-879bb7ca99b7" d="M1545.72,103.7a1.4,1.4,0,0,0-.8,2,1.51,1.51,0,0,0,2.08.86c.82-.42,1-1.35.52-2.42C1547.11,103.28,1546.46,103.36,1545.72,103.7Z" transform="translate(-98.75 4.4)"/></g><g id="e446264c-a19a-49fb-9297-2176f65d6b34" data-name="righteye"><path id="b28d8802-d9aa-48b3-8450-9c84ac95eb66" data-name="eyebackground" class="f0ac0b9c-1d7c-45b2-a7ed-5cd0bae38376" d="M1564.62,88.52a8.64,8.64,0,0,0-7.93,3.31,3.66,3.66,0,0,0-.88,1.81,9.65,9.65,0,0,0,3,8.35,4,4,0,0,0,3.91,1.05c.63-.13,1.27-.18,1.89-.32,5.33-1.2,6.39-6,4.8-10.16C1568.3,90.72,1567.14,88.82,1564.62,88.52Z" transform="translate(-98.75 4.4)"/><path id="a5f52758-5a76-4057-8db2-ffc487398dbe" data-name="eye" class="a1acf109-5498-4032-8669-879bb7ca99b7" d="M1561,96.46a1.55,1.55,0,0,0-.77,2.3c.46.81,1.1,1.29,2.09.82a1.57,1.57,0,0,0,.65-2.34A1.35,1.35,0,0,0,1561,96.46Z" transform="translate(-98.75 4.4)"/></g><path id="b0293120-301d-4715-9042-99dbc206569e" data-name="rightbatbodywing" class="a1acf109-5498-4032-8669-879bb7ca99b7" d="M1609.35,92.16c-5.2-5.86-14.45-8.45-20.73-6.24-5.79,2-7.68,8.12-7.7,13,0,3.52-1.18,7.84-3.53,13.72s.13,6.51,1.36,3.45c4.4-8.69,11.46-4.73,11.46-4.73s-.44-5.78,4.53-8c2.45-1.11,7.31,1.73,7.31,1.73a16.29,16.29,0,0,0-.31-3.54,5.05,5.05,0,0,1,4.81-6.6c3.51,0,4.75,1.31,5,1S1610,92.93,1609.35,92.16Z" transform="translate(-98.75 4.4)"/><path id="fd24c550-de78-401b-bcba-0cc92608e7bf" data-name="leftbatbodywing" class="a1acf109-5498-4032-8669-879bb7ca99b7" d="M1519.19,143.58c-2.47-7.44-.08-16.74,5-21.07,4.66-4,10.87-2.58,15.09-.17,3,1.75,7.37,2.91,13.63,3.82s5.58,3.37,2.3,2.9c-9.71-.54-9.82,7.55-9.82,7.55s-4.79-3.28-9.22-.1c-2.19,1.57-2.17,7.19-2.17,7.19a16.42,16.42,0,0,1-2.91-2,5.06,5.06,0,0,0-8.12.86c-1.75,3-1.24,4.77-1.61,4.8S1519.51,144.56,1519.19,143.58Z" transform="translate(-98.75 4.4)"/></g><polygon id="ae83009c-a57f-400c-8891-044f1e13a430" data-name="star5" class="a1acf109-5498-4032-8669-879bb7ca99b7" points="1264.99 85.84 1269.77 95.53 1280.47 97.09 1272.73 104.63 1274.55 115.29 1264.99 110.26 1255.42 115.29 1257.25 104.63 1249.51 97.09 1260.2 95.53 1264.99 85.84"/><g id="a99d85a7-f0f1-4f16-b443-8f3a9c523c56" data-name="spider2"><path id="a603e64c-ddfc-47cf-ae24-43bb771daa3e" data-name="leftleg4" class="a1acf109-5498-4032-8669-879bb7ca99b7" d="M1306.44,170.15c-3.08,3.41-6.73,10.66-2.37,18.57.79-6,1-11,6.57-16.79C1314.11,168.33,1309.52,166.73,1306.44,170.15Z" transform="translate(-98.75 4.4)"/><path id="b8ffe4a7-0c54-46c9-9770-11327173dc16" data-name="leftleg3" class="a1acf109-5498-4032-8669-879bb7ca99b7" d="M1306.17,167.33c-4.38,1.41-11.18,5.85-11.37,14.88,3.7-4.81,6.35-9,14.1-11.23C1313.71,169.61,1310.54,165.93,1306.17,167.33Z" transform="translate(-98.75 4.4)"/><path id="e6ffbc46-39b6-4d0e-a6fb-0f9cb036b494" data-name="leftleg2" class="a1acf109-5498-4032-8669-879bb7ca99b7" d="M1307,165.3c-4.58-.42-12.58,1-16.29,9.24,5.29-3,9.38-5.81,17.38-4.81C1313,170.35,1311.52,165.72,1307,165.3Z" transform="translate(-98.75 4.4)"/><path id="b8f1bd28-3f1f-457a-b296-51135dc0bb6d" data-name="leftleg1" class="a1acf109-5498-4032-8669-879bb7ca99b7" d="M1307.35,161.56c-3-2-11-10-10-21-4,6-5,8,7,24,.51.68,2.42,2.58,4,1C1309.35,164.56,1308.59,162.39,1307.35,161.56Z" transform="translate(-98.75 4.4)"/><path id="f607cf0b-a64e-4991-afb1-b175dab73fb6" data-name="righleg4" class="a1acf109-5498-4032-8669-879bb7ca99b7" d="M1323.65,170.15c3.08,3.41,6.73,10.66,2.37,18.57-.78-6-1-11-6.57-16.79C1316,168.33,1320.57,166.73,1323.65,170.15Z" transform="translate(-98.75 4.4)"/><path id="b4fb0442-309f-4997-9f8c-2464cf5d5526" data-name="righleg3" class="a1acf109-5498-4032-8669-879bb7ca99b7" d="M1323.92,167.33c4.38,1.41,11.18,5.85,11.37,14.88-3.7-4.81-6.35-9-14.1-11.23C1316.38,169.61,1319.55,165.93,1323.92,167.33Z" transform="translate(-98.75 4.4)"/><path id="ace53b00-6506-4780-a13e-2e7093749a15" data-name="righleg2" class="a1acf109-5498-4032-8669-879bb7ca99b7" d="M1323.15,165.3c4.57-.42,12.57,1,16.28,9.24-5.29-3-9.38-5.81-17.38-4.81C1317.09,170.35,1318.57,165.72,1323.15,165.3Z" transform="translate(-98.75 4.4)"/><path id="f0d889e0-a0f7-4f33-ac97-c2699e1845c5" data-name="righleg1" class="a1acf109-5498-4032-8669-879bb7ca99b7" d="M1322.74,161.56c3-2,11-10,10-21,4,6,5,8-7,24-.51.68-2.41,2.58-4,1C1320.74,164.56,1321.5,162.39,1322.74,161.56Z" transform="translate(-98.75 4.4)"/><path id="ae532075-107e-4bfd-bec8-88dacb823797" data-name="spider_body" class="a1acf109-5498-4032-8669-879bb7ca99b7" d="M1323.07,167.26c2-3.27,5-7.87,5-15.28,0-11.45-13.14-21.25-13.14-21.25s-12.18,9.26-12.19,20.7c0,7.37,4.33,13.64,5.33,15.83s1.41,3.67,1,5.46c-1,4.37.59,8.73,3,8.73,2,0,1-4.36,3-4.36s2,4.36,4,4.36,4-4.36,2.6-9.82C1321.5,170.66,1321.83,169.29,1323.07,167.26Z" transform="translate(-98.75 4.4)"/></g><line id="f0f5cb80-b116-4b5f-82ba-c1074c730d56" data-name="spiderline2" class="f51907af-5291-4047-9701-3d0950b41e6a" x1="1215.37" y1="3" x2="1215.37" y2="158.13"/><polygon id="b75fefee-fe2d-452f-9d89-9be07202c077" data-name="start4" class="a1acf109-5498-4032-8669-879bb7ca99b7" points="949.44 64.52 954.22 74.21 964.91 75.77 957.18 83.31 959 93.97 949.44 88.94 939.87 93.97 941.7 83.31 933.96 75.77 944.65 74.21 949.44 64.52"/><polygon id="b29613a5-0e19-402f-b630-ca567d74c3e8" data-name="start3" class="a1acf109-5498-4032-8669-879bb7ca99b7" points="765.9 86.05 771.91 98.22 785.34 100.17 775.62 109.64 777.91 123.02 765.9 116.7 753.89 123.02 756.18 109.64 746.47 100.17 759.9 98.22 765.9 86.05"/><polygon id="b1498c2b-357f-4bdc-b2de-fc0652cb1b3c" data-name="start2" class="a1acf109-5498-4032-8669-879bb7ca99b7" points="580.58 87.81 585.37 97.5 596.06 99.06 588.32 106.6 590.15 117.26 580.58 112.23 571.01 117.26 572.84 106.6 565.1 99.06 575.8 97.5 580.58 87.81"/><path id="e7f3b316-c2bd-4848-a767-bb0a40bd013a" data-name="candy" class="a1acf109-5498-4032-8669-879bb7ca99b7" d="M573.74,120.45c4-1.22,6.82-3.24,6.43-4.52s-3.71-1.34-7.53-.24c2.32-3.18,3.36-6.29,2.33-7.08s-4,1.2-6.51,4.51a20,20,0,0,0-2.25,3.69,12.72,12.72,0,0,0-22.5,10.09,18.43,18.43,0,0,0-4.73-2.32c-3.94-1.32-7.49-1.36-7.92-.08s2.2,3.22,5.9,4.55c-3.78,1.23-6.48,3.17-6.1,4.42s3.9,1.34,7.85.14c-2.49,3.29-3.64,6.61-2.58,7.42s4-1.2,6.51-4.51a16.7,16.7,0,0,0,2.79-5.1,12.72,12.72,0,0,0,23.5-7.73,20.79,20.79,0,0,0,3.2,1.37c3.94,1.33,7.48,1.37,7.91.09S577.65,121.78,573.74,120.45Z" transform="translate(-98.75 4.4)"/><line id="bd0479a6-3777-4562-8d04-0d56e0e8f0db" data-name="candyline1" class="f51907af-5291-4047-9701-3d0950b41e6a" x1="457.49" x2="457.49" y2="129.13"/><g id="ebe1488e-e22e-4f03-bd6d-a05ddb95a891" data-name="spider1"><path id="e6b774e2-b175-4e42-8262-22e352f097eb" data-name="leftleg4" class="a1acf109-5498-4032-8669-879bb7ca99b7" d="M407.52,247.9a12.22,12.22,0,0,0-1.82,14.24c.6-4.61.74-8.42,5-12.87C413.4,246.51,409.88,245.28,407.52,247.9Z" transform="translate(-98.75 4.4)"/><path id="fbcf53fa-5998-4451-8ca7-0594554e128f" data-name="leftleg3" class="a1acf109-5498-4032-8669-879bb7ca99b7" d="M407.31,245.74a12.24,12.24,0,0,0-8.72,11.41c2.84-3.69,4.87-6.91,10.82-8.61C413.09,247.49,410.66,244.66,407.31,245.74Z" transform="translate(-98.75 4.4)"/><path id="e311d2a7-6e8a-4128-a867-088ffcf46e2e" data-name="leftleg2" class="a1acf109-5498-4032-8669-879bb7ca99b7" d="M407.9,244.18a12.21,12.21,0,0,0-12.48,7.09c4.05-2.29,7.19-4.46,13.32-3.69C412.54,248.05,411.41,244.5,407.9,244.18Z" transform="translate(-98.75 4.4)"/><path id="b7d21f4d-a663-449a-95e5-cedec569827c" data-name="leftleg1" class="a1acf109-5498-4032-8669-879bb7ca99b7" d="M408.21,241.31c-2.3-1.53-8.43-7.67-7.67-16.1-3.06,4.6-3.83,6.13,5.37,18.4.4.53,1.86,2,3.07.77C409.74,243.61,409.17,242,408.21,241.31Z" transform="translate(-98.75 4.4)"/><path id="e1a28c3e-f15d-4190-8868-931844180d6b" data-name="righleg4" class="a1acf109-5498-4032-8669-879bb7ca99b7" d="M420.71,247.9a12.24,12.24,0,0,1,1.82,14.24c-.6-4.61-.75-8.42-5-12.87C414.83,246.51,418.35,245.28,420.71,247.9Z" transform="translate(-98.75 4.4)"/><path id="ac74fe83-25d4-4356-90ff-6613ae415c06" data-name="righleg3" class="a1acf109-5498-4032-8669-879bb7ca99b7" d="M420.92,245.74a12.24,12.24,0,0,1,8.72,11.41c-2.84-3.69-4.87-6.91-10.82-8.61C415.14,247.49,417.57,244.66,420.92,245.74Z" transform="translate(-98.75 4.4)"/><path id="e5a00ffb-bf1a-48aa-b446-d868d6199350" data-name="righleg2" class="a1acf109-5498-4032-8669-879bb7ca99b7" d="M420.33,244.18a12.21,12.21,0,0,1,12.48,7.09c-4.05-2.29-7.19-4.46-13.32-3.69C415.68,248.05,416.81,244.5,420.33,244.18Z" transform="translate(-98.75 4.4)"/><path id="b017ad38-052a-4311-95f6-52deccdc6c52" data-name="righleg1" class="a1acf109-5498-4032-8669-879bb7ca99b7" d="M420,241.31c2.3-1.53,8.43-7.67,7.67-16.1,3.06,4.6,3.83,6.13-5.37,18.4-.4.53-1.86,2-3.07.77C418.48,243.61,419.06,242,420,241.31Z" transform="translate(-98.75 4.4)"/><path id="baf767bd-3bff-470d-8612-793578119729" data-name="spider_body" class="a1acf109-5498-4032-8669-879bb7ca99b7" d="M420.27,245.69c1.54-2.51,3.83-6,3.84-11.72,0-8.78-10.08-16.3-10.08-16.3s-9.34,7.1-9.36,15.88c0,5.65,3.33,10.46,4.1,12.14a6.12,6.12,0,0,1,.77,4.18c-.77,3.35.45,6.7,2.3,6.7,1.53,0,.76-3.35,2.3-3.35s1.53,3.35,3.06,3.35,3.07-3.35,2-7.53C419.06,248.29,419.32,247.25,420.27,245.69Z" transform="translate(-98.75 4.4)"/></g><line id="bdbeee94-3e56-438c-b7fb-a7e0969ae43e" data-name="spiderline1" class="f51907af-5291-4047-9701-3d0950b41e6a" x1="317.45" y1="2" x2="317.14" y2="227.89"/><polygon id="aac8f2a9-c927-4a1f-a29d-8c736492d0b7" data-name="start1" class="a1acf109-5498-4032-8669-879bb7ca99b7" points="211.81 50.76 221.38 70.14 242.77 73.25 227.29 88.34 230.94 109.65 211.81 99.59 192.68 109.65 196.33 88.34 180.85 73.25 202.24 70.14 211.81 50.76"/></g></svg>