<svg id="a871e249-8caf-4b60-b96f-eee748493bfc" data-name="Halloween_below" xmlns="http://www.w3.org/2000/svg" viewBox="0 0 1590.81 215.04"><defs><style>.a674053d-6f1f-4d8c-b393-f82ff017a1e6{fill:#fcc000;}.f6f9e7aa-fa1a-482a-af00-9d8ad3a33221{fill:#1d2a54;}.ee7e5995-b2ec-4061-9a92-d908b2896f46{fill:#e3af32;}.e97f8f31-98c3-43e6-948d-360d26e786c1{fill:#040000;}</style></defs><g id="fa35911f-8e5c-4efa-8c83-d9aa059cd7a9" data-name="pumpkin2light"><ellipse id="ec66b9f8-004a-4adf-a321-6ae8beea9de4" data-name="pumpkin2lightright" class="a674053d-6f1f-4d8c-b393-f82ff017a1e6" cx="1672.55" cy="201.55" rx="55" ry="76.2" transform="translate(1062.61 1783.85) rotate(-81.71)"/><ellipse id="eb5e967d-9a78-4333-baca-559bcfa9cdf1" data-name="pumpkin2lightleft" class="a674053d-6f1f-4d8c-b393-f82ff017a1e6" cx="1514.24" cy="204.03" rx="64.2" ry="47.3" transform="translate(-144.01 503.96) rotate(-20.67)"/></g><g id="b6f8d75c-d8bf-4b3d-8c5b-1cf8d3689d29" data-name="Halloween_below_scenery"><path id="ea083457-2321-4410-bf41-a2549142d8c8" data-name="pumpkin2" class="f6f9e7aa-fa1a-482a-af00-9d8ad3a33221" d="M1587.24,165.76c2.94-2.36,2.88-6.45,5.92-8.95,1.87-1.53,3.86-3.46,3.39-6.31,0-.14.54-.34.81-.54,1.53-1.15,3.13-2.24,4.57-3.49a40.29,40.29,0,0,0,3-3.22c1.28-1.39,2.26-3.32,3.88-4.06,1.92-.87,3.84-.77,5.7-2.75s5.08-4.09,8.86-3.32c.47.09,1.5-.32,1.53-.58.29-2.51,2.32-1.86,3.87-1.87,7.2,0,14.39,0,21.58-.08a13.78,13.78,0,0,0,4.08-.87c1.19-.41,2.32-1.67,3.37-1.57,3.24.32,7.32-2,9.53,2.23.08.16.69.11,1.06.11H1684a81.53,81.53,0,0,0-.12-9.29c-.12-1-2.29-1.77-2.5-2.81a35.31,35.31,0,0,1-.12-6.59h11.47c0,4.88,0,9.52,0,14.15,0,.55-.11,1.55-.31,1.59-3.85.66-2,3.4-2.58,5.72l11.84,4q2.7,2.5,7.58,7c2.45,0,6-.16,9.5.07,1.47.09,2.89,1,4.33,1.51l-.27.91,4.59.49,3.91,6.64c2.56,1.59,4.53,2.74,6.42,4a53.38,53.38,0,0,1,4.83,3.58,44.86,44.86,0,0,1,4.87,4.67,52.06,52.06,0,0,1,3.87,5.36c.8,1.17,1.47,2.41,2.2,3.62l.73-.3.24,4.39,1-.26a22.89,22.89,0,0,1,1.72,3.7c.44,1.6.19,4.58.81,4.71,3.1.68,2.07,2.77,2.12,4.31.16,5.67.11,11.35.14,17,0,2,0,4,0,6.49-3.3,29.37-14.92,36.8-31.9,43.58l-72.6-.31-71.49-2.15-48.57-.16-52.11.31s-30.64-1.77-39.48-17.58c-7.71-13.79-3.64-15.11-3.83-15.13-3.08-.27-2.14-2.41-2.31-4.05s.17-3.44-.67-4.55c-3-3.85-3.09-6.31-.56-9-.68-2.17-1.55-3.74-1.59-5.33-.08-3.15-1-7.28.8-9.2,2-2.19,1.69-4.07,2-6.2.14-.88.13-2.52.37-2.55,4.11-.51,1.79-3.79,3.06-5.38,1.82-1.46,4.36-2.85,4.91-4.74,1.21-4.12,3.91-6,8-6.75.45-.08.81-.62,1.18-1,1.53-1.42,3.07-2.83,4.56-4.29,1.71-1.67,3.37-3.38,5.33-5.37,1-.13,3.77,0,3.92-.58,1-3.49,4.06-1.87,5.81-2.87l6.72-5.87c-.05-1-.13-2.41-.22-4.25-2.77-1.05-5.63-2-8.33-3.22a6.87,6.87,0,0,1-2.76-2.53,2.45,2.45,0,0,1,.11-2.47c2.18-1.83,4.59-3.42,6.82-5l4.31,3.35c.37,1.45-1,4.45,2.92,4.54.09,1.72.17,3.19.2,3.76l4.08,4.21c1.07-.21,4-.31,4.07-.89.58-2.79,2.69-1.82,4.26-1.9,2.8-.13,5.61,0,8.42-.05.81,0,2.31-.16,2.33-.36.41-4,6.65-.91,6.86-5,5.15.53,10.79-2,15.33,2.2,1.79-1.9,11.08-3.63,12.41-1.81,1.65,2.27,3.65,1.84,5.77,2.27,4,.8,7.87,1.95,11.8,3,.19,0,.35.29.47.47,2,2.89,4.59,4.9,7.44,4.9a53.15,53.15,0,0,1,4.45,3.46c1.4,1.39,2.35,3.25,3.92,4.42,2.77,2.06,5.11,4.19,5.53,7.56,1,.85,1.55,2,2.49,2.78a3,3,0,0,0,2.65.33M1690.33,253a6.39,6.39,0,0,0,2.26-.74,22.13,22.13,0,0,1,4-1.77c2-.43,4.68.67,5.62-2.3.11-.34,1.62-.18,2.37-.49a20.33,20.33,0,0,0,3-1.63c.46-.28.87-.95,1.29-.95,3.92.08,5.58-2.52,7.58-5,1.16-1.45,3.72-2,4.64-3.55,1.86-3,3-6.44,4.79-10.39-3.19.39-5.8-1.22-6.67,2.12-.05.23-.51.44-.82.53-4.3,1.18-8.61,2.33-13.33,3.6.26,4.18-3.52,6.59-6.73,9.19-.57.46-2.61-.64-3.76-.58a42.52,42.52,0,0,1-6.77.81c-1.18,0-1.51-2.8-1.1-7.49-3.29,0-6.55.07-9.81,0-1.92-.05-4.23.67-5.13-2-.13-.41-1.74-.51-2.68-.55-2.43-.09-4.88,0-7.31-.13-1,0-2.41.11-2.83-.39-4.37-5.35-4.63,1.19-6.84,2-1,.34-2,.55-2.93.81-.88-3.23-3.75-2.21-6-2.3-6.09-.24-6.29-.38-6.12-6.13.13-4.27-2.12-6.68-6.5-7.74a10.76,10.76,0,0,1-4.58-2.77c-2.37-2.25-4.38-4.82-6.66-7.16-2.08-2.13-4.43-4-6.46-6.21a23.06,23.06,0,0,1-2.24-3.67,18.24,18.24,0,0,0-1.27-1.66,11,11,0,0,0-1.38,1.62,22.12,22.12,0,0,0-2,4c-.38,1.23-.89,3.39-.32,3.76,3.32,2.13,2.06,5.22,2.42,8,.23,1.68-.63,3.81,2.28,4.29.24,0,.58.82.48,1.16-.95,3.11,2.58,4,3.57,6.14.06.14,1.77,0,2-.34,1.17-2.14,1.54-1.91,3.44-.19,1.71,1.54,3.14,4.13,6.42,4.07,1.85,0,3.49,4.23,2,5-6.13,2.88.44,4.8,1.07,5.43a28.55,28.55,0,0,0,8.36,5.37,83.13,83.13,0,0,0,9.33,3.15c.56.18,1.31.14,1.69.47,4.31,3.72,9.07,2.95,11.92-1.89a3.36,3.36,0,0,1,2.07-1.32,18.46,18.46,0,0,1,3.64,0c8.42.3,8.42.31,9.62,8C1680.83,253,1685.58,253,1690.33,253Zm-146.81-36.79c-.59.45-1.06,1.5-1.58,1.5-3.83,0-5.42,2.82-7.61,4.9-.08.08-.13.22-.23.25-3.3,1.12-6.52,2.82-9.92,3.19-3.23.35-4.31,1.28-4,4.12a31.25,31.25,0,0,1,0,3.62c-2.4,1.22-5.21-.1-7.1,2.79-1.42,2.18-7-.93-8.62-4.95-8.53,0-17.18.06-25.82,0-2.14,0-4.58.59-6-2.09-.35-.65-2.9-.34-4.44-.31-.15,0-.62,1.43-.37,1.64,2.41,2.1,5,4,7.42,6.13a51.26,51.26,0,0,1,4,4.32c.07.08,0,.28.12.31,3.08,1.14,6.14,2.31,9.25,3.37a2.39,2.39,0,0,0,1.67-.42c1.05-.68,2-2.09,3-2.13a50.74,50.74,0,0,1,10.89.44c.87.15,1.25,2.82,2,4.69,3.62,0,8.49,1.33,11.37-.34,3.51-2,6.87-1.63,10.24-2.5,2.12-.54,3.9-2.23,5.83-3.4l.81.57c0-1.11,0-2.21,0-3.32,0-4.21,2.47-6,6.58-7.46,2.94-1.07,4.47-1.39,7.4.23s4.77-2.15,6.82-3.77a93,93,0,0,0,7.83-7.42,3.49,3.49,0,0,0,.61-1.85c.25-1.47-.35-3.37,2.29-3.48.18,0,.49-.29.48-.44-.16-6.59,5.15-12.49,2.94-19.26-.51-1.59-2.15-2.89-3.39-4.22a2.9,2.9,0,0,0-1.75.91c-1.2,2.21-2,4.64-3.36,6.73-1.49,2.28-3.51,4.24-5.17,6.43a1.71,1.71,0,0,0,.58,1.63c3.83,1.4,1.69,4.27,1.57,6.37,0,.85-2.33,1.56-3.56,2.39-1.63,1.09-3.22,2.24-4.82,3.37-.75.53-1.47,1.09-2.2,1.64a27.22,27.22,0,0,1-1.07-2.71,17.81,17.81,0,0,1-.27-2.82A23.25,23.25,0,0,0,1543.52,216.17ZM1643.63,187c-1.24-.88-.58-4-.82-6.18-.17-1.54.67-3.29-2-4.14-.74-.23-.57-2.8-.92-4.28-.26-1.12-.7-2.19-1.05-3.29a11.37,11.37,0,0,1-1.68,2.12c-2.59,2.06-5.37,3.92-7.9,6-3.16,2.63-6.18,5.41-9.19,8.18a1.58,1.58,0,0,0-.26,1.52,2.08,2.08,0,0,0,1.44.69c2,.16,4.11-.22,5,2.28.12.38,1.77.31,2.71.45,2.12.29,4.79-.68,5.73,2.31.1.3,1.31.35,2,.4,1.62.14,3.15-.18,4.18,1.82.43.84,2.92.77,5.25,1.27C1645.1,192.69,1647.28,189.62,1643.63,187Zm78.16,23.31c-3.06-1.69-2.7-4.48-2.84-7.14,0-.51-.24-1.33-.6-1.46-2.64-.93-1.82-3.1-2.29-4.86-.35-1.33-1.35-2.49-1.89-3.78-.46-1.11-.62-2.33-1-3.46a7.4,7.4,0,0,0-1.06-1.49,14.67,14.67,0,0,0-1.42,1.13c-1.35,1.37-2.57,2.87-4,4.15s-3.2,2.28-4.66,3.55q-4.26,3.69-8.3,7.57c-.41.39-.67,1.59-.49,1.71,1.84,1.16,3.67,2.7,5.72,3.08,2.93.54,6.07,0,9.09.26,3.23.24,6.76-.77,9.45,2.19.65.71,2.72.31,4.37.44C1721.82,211.35,1722,210.47,1721.79,210.32Zm-248.58-14c0,3.9.2,7.73-.1,11.52-.12,1.59-1.48,3.05-1.95,4.66a27.15,27.15,0,0,0-.63,4.53,6.07,6.07,0,0,0,2.34-.05c.48-.22.74-1.64.87-1.61,4.88,1,8.28-3.53,12.8-3,3.38.37,4.2-2.93,6.87-3.32,0,0,.06-1.42-.13-1.47-4-1.1-5.22-5.89-10.14-6.24-1.85-.13-3.47-3-5.54-5Zm58-3.25c3.19,0,5.22,1,6.77-2.1.84-1.66,4.25-2.14,6.41-3.29,3.43-1.83,6.79-3.76,10.1-5.75.08-.05-.55-1.81-1.06-1.92-4-.81-6.86-3.45-10.33-5-2.5-1.11-3.83-5.46-7.94-2.9C1533.45,178.84,1537.53,186.45,1531.26,193Zm136.42,18.89c.64.8,3.26.36,5,.26a7.32,7.32,0,0,0,2.32-1,7.7,7.7,0,0,1-1.57-1.42c-.53-.87-1.36-2-1.15-2.78.88-3.32-1.76-5.2-3.24-7.53a2.09,2.09,0,0,0-1.87-.15c-2.18,2.26-4.16,4.69-6.35,6.95a20.45,20.45,0,0,1-3.17,2.24C1661.58,209.9,1665.14,208.75,1667.68,211.93Zm-80.23,12.73c-.07-.64-.25-2.2-.51-4.49-2.07,1.57-3.82,2.73-5.36,4.1s-3,3.1-4.49,4.67a4,4,0,0,0-1.07,1.38c-.06.22.73.92,1.14.92,5.12.07,10.25,0,15.38,0l0-1.23Zm-75.12-12.53c3.36-1.83,6.73-3.67,10-5.63a3.56,3.56,0,0,0-.64-1.93c-4.38.17-6.26-3.21-9.74-5.88-.88,4.68-.34,8.94-.58,13C1511.92,212,1512.21,212.19,1512.33,212.13Z" transform="translate(-169.48 -43.75)"/><path id="f1764ed6-7e30-4326-8fba-c9b11f2f66cf" data-name="pumpkin1" class="f6f9e7aa-fa1a-482a-af00-9d8ad3a33221" d="M1410.31,220c-2.37-7-11.86-9.12-13.52-10.31a10.76,10.76,0,0,0-3.9-1.57s-1.83-.09-4.4-.16a.33.33,0,0,1-.15-.13c-.22-.6-.57-.49-.95-.53a2.37,2.37,0,0,1-.82-.1,20.27,20.27,0,0,1-1.68-1.16c-.11-.5-1.29-.86-1-1.92,0,0-.1-.08-.15-.12a2.53,2.53,0,0,1-1.43-2.62c.08-.58,0-1.19.07-1.78a1.15,1.15,0,0,1,.26-.61,7.77,7.77,0,0,1,.77-.76c.5-.2,1-.35,1.4-.55.26-.12.48-.43.73-.45.83-.06,1.67,0,2.22,0l1.24,1.12v1.42c-.3-.08-.7-.14-.7-.2,0-.85-.62-.66-1.11-.66a1.74,1.74,0,0,0-1.72.8c-.64.88-1,2.78-.07,3.57a11.63,11.63,0,0,1,1.12,1c.36.42,2.37.81,2.44.4.19-1.12,1.14-.49,1.65-.86.3-.5-.18-1.48.89-1.58,0,0,.07-.26.07-.39,0-1.5,0-3,0-4.17l-2.06-2.11c-1.54,0-3.26,0-5,0a2.23,2.23,0,0,0-1.17.31c-.85.54-1.64,1.16-2.45,1.75-.25.27-.3,1.11-.49,1.14-.93.15-.7.84-.61,1.27.39,1.86-.86,3.38-1,5.12,0,.13-.21.25-.33.37-.49.56-1,1.13-1.56,1.78-.77-.25-1.39.23-2,.84-5.9.55-8.79,3.39-8.79,3.39-7.12.17-10.44,5.06-13.52,10s-4,21.6,4.51,27.8,17.07,7.79,29.4,7.61,19-6.94,23.71-14.37S1412.68,227,1410.31,220Z" transform="translate(-169.48 -43.75)"/><path id="a84ab0f7-bd9b-4b62-8cd7-9f2b48451a0b" data-name="tree3" class="f6f9e7aa-fa1a-482a-af00-9d8ad3a33221" d="M1191.9,192c3.38,1.59,7.25,2.17,11,3s5.75,3.11,5,6.84l-14.07-5-.29.65,13.75,7.46c-4.39,3-8.75,2.24-13.17.11l-.25,1.15,7.27,4c-3.85,3.47-8.62,4-13.33,4.6l.11,1.13c5.63.53,10.86-3.08,16.81-2.74l-.9,6-.57.11-1.78-3.14-.9.25a10.72,10.72,0,0,0,.74,3.19,8.05,8.05,0,0,1,.74,7.45l-5.06-7.45-.42.2,1.76,5.67-2,1.3a6.63,6.63,0,0,0,1.53,1.47,7,7,0,0,0,2.48.67c2.36.25,3,1.1,2.14,3.25a17.52,17.52,0,0,1-1.54,2.78l1.66.19c1.59-.85,3.36-3.64,5.47-3.89.62-.07,1.59-1.07,2.22-.89,3.56,1,7.63,1.06,9.91,4.77.31.51,1,.84,1.13,1.43,1.29,5-1.09,7-3.93,9.46,0,.05.93,2.93-25.37,5.85h13.57c2.23.48,81.17,0,80.66-.1-34.65-7.95-64.44-.56-45.67-18.29,1-.91-.91-1.78.08-2.89,1.67-1.86,2.5-4.68,4.07-6.64,2.16-2.68,5.28-4.19,7.53-6.79s4.44-5.83,6.82-8.56a8.22,8.22,0,0,0,.86-2c-.75.36-2,.33-2.08.51-4.38,7.85-11.52,11.72-18.19,17-.8.64-2.57.05-3.89,0,.52-2.51.23-5.8,1.74-7.35a16.19,16.19,0,0,1,12.3-5c3.51.15,4.25.1,5.2-2.26-3.48.71-5.8.15-9.38.87,2.79-5.3,6.28-6.58,10.56-8.88-.23-.34-.46-.67-.7-1l-9.11,5.78-.46-.42q2.41-4.53,4.82-9l-.59-.41c-2,2.25-4,4.42-5.87,6.78-1.37,1.77-2.28,3.91-3.71,5.61-.81,1-2.26,1.38-3.72,2.21-.11-1.09-.17-1.43-.17-1.77a3.23,3.23,0,0,1,.11-1c1.61-4.48,3.78-8.45,8.58-10.38,4.21-1.69,6.78-5.34,9.61-8.74-3.07,1.41-5.44,4.16-8.82,4.83l-.36-.56,7.71-9.88c-5.08,1.2-6.88,6.55-11.45,8.79l-.4-4c-2.14,3.81-1.49,8.17-5.32,10.82.14-3.1.11-5.85.46-8.56a4.72,4.72,0,0,1,1.77-2.77c3.5-2.66,7.14-5.14,10.69-7.74a8.79,8.79,0,0,0,1.39-1.72l-.41-.3-11.66,8.63-.55-.41c2.16-5.8,6.31-10,11.7-13.16-.29-.32-.57-.64-.86-.95l-10.74,7.52c.68-3,1.38-6,2.07-9l-.66-.3c-3.71,5.19-4.6,11.59-6.84,17.52-2.43-2.45-3.59-4.86-2.33-8.09a11.43,11.43,0,0,0,.33-4.11c0-.44-.5-.87-.91-1.52l-1.73,6-1,0c-.58-3-1.15-6-1.76-9.17-.49.35-.69.42-.74.55a1.69,1.69,0,0,0-.15.76c.51,7.11,1,14.24,5.74,20.13a5.8,5.8,0,0,1,1,6c-2.33-1.48-4-3.06-4.29-5.93-.1-1.23-1.15-2.38-1.77-3.57l-.85.34.52,5.22-7.55-5.16-.06,2-.89.19a37.33,37.33,0,0,1-1.83-5.4,42.75,42.75,0,0,1-.32-6l-.76,0c-.39,2.59-.77,5.17-1.16,7.76l-.59.06-2.35-6.55a6.68,6.68,0,0,0,1.79,7.22c2.22,2.13,1.78,4.63,2.19,7.16-4.76-.44-5.77-1.08-7.82-4.62-.9-1.56-1.91-3.07-2.87-4.6l-.74.41c1.08,2.05,2.16,4.1,3.44,6.51-6.25-1.87-5.33-8.09-8.57-11.65l.91,9.08c-5.33.37-9.19-2-12.49-5.78l-.33.14.15,1.47C1187.23,188.54,1189.32,190.82,1191.9,192Zm34.57,8.6c3.78,3.1,4.53,10.54,1.19,13.87-1.77-1.68-2.74-3.27-2.15-5.77A66.08,66.08,0,0,0,1226.47,200.63Zm-2.08,7.52-.75.25c-1.11-3.91-2.21-7.82-3.34-11.8C1224.9,196.31,1225.86,201.77,1224.39,208.15Zm-3.84,8.16c2.82,2.53,2.68,5.62,2.7,8.59,0,.3-1.47,1-2,.82a4.64,4.64,0,0,1-2.54-6A36.09,36.09,0,0,1,1220.55,216.31Zm-4.84-5.08c4,1.72,4.54,3.92,1.57,7.66-.49-1.85-.94-3.32-1.26-4.81A24.86,24.86,0,0,1,1215.71,211.23Zm-6.08-13.34,5.21,6.37-.7.54C1210.78,204,1209.5,201.49,1209.63,197.89Zm1,12.52c2.14,1.49,3.75,3.42,3.43,6.52-.22,2.18.36,4.44.62,7l-2.46-.11c.35-2.59.68-5,1-7.42l-.72-.1c-.31,1.15-.63,2.3-1,3.45l-.71-.09.27-6.07-.78-.06c-.37,3.16-.74,6.33-1.15,9.8l-3.5-2.74.74-.24a66.71,66.71,0,0,1-.79-6.86c0-1.1.43-2.79,1.19-3.17A4.39,4.39,0,0,1,1210.63,210.41Z" transform="translate(-169.48 -43.75)"/><circle id="a281d7f6-0798-497e-817d-845b0941c2b6" data-name="moom" class="ee7e5995-b2ec-4061-9a92-d908b2896f46" cx="419.49" cy="83.32" r="83.32"/><path id="b189391d-9abf-4e75-9299-9a644bfa62f5" data-name="tree2" class="f6f9e7aa-fa1a-482a-af00-9d8ad3a33221" d="M431.4,134.08c6.4,3,13.76,4.11,20.78,5.61,7.24,1.56,10.92,5.9,9.55,13L435,143.11l-.56,1.24,26.09,14.16c-8.32,5.67-16.59,4.24-25,.19l-.48,2.19,13.79,7.61c-7.31,6.59-16.35,7.5-25.29,8.73l.21,2.14c10.68,1,20.6-5.85,31.88-5.2-.61,4-1.15,7.69-1.69,11.34l-1.1.2c-1.12-2-2.25-4-3.37-6l-1.71.48c.44,2,.4,4.35,1.4,6.06,2.52,4.3,3.48,8.67,1.42,14.13l-9.61-14.13-.8.38,3.34,10.75-3.72,2.47c1,.95,1.76,2.21,2.91,2.79a13.65,13.65,0,0,0,4.7,1.26c4.47.48,5.75,2.09,4.07,6.17a34.89,34.89,0,0,1-2.94,5.27l3.16.36c3-1.61,6.36-6.9,10.37-7.38,1.18-.14,3-2,4.21-1.7,6.75,1.93,14.48,2,18.8,9.06.6,1,1.85,1.59,2.14,2.71,2.46,9.48-2.07,13.19-7.44,17.95-.11.09,1.76,5.56-48.13,11.1h25.74c4.24.9,154,0,153-.2-65.73-15.08-122.23-1-86.63-34.69,1.82-1.73-1.73-3.38.15-5.48,3.16-3.53,4.74-8.89,7.73-12.59,4.09-5.08,10-7.95,14.28-12.88,4.49-5.19,8.42-11.07,12.93-16.25.7-.79.89-2,1.63-3.84-1.41.68-3.75.62-3.94,1-8.31,14.9-21.85,22.24-34.5,32.25-1.52,1.21-4.88.09-7.39,0,1-4.75.45-11,3.3-13.94a30.7,30.7,0,0,1,23.33-9.43c6.66.27,8.08.18,9.87-4.29-6.61,1.33-11,.28-17.79,1.65,5.3-10.06,11.92-12.5,20-16.86l-1.33-1.89-17.29,11-.88-.81,9.15-17.17-1.12-.77c-3.74,4.27-7.65,8.4-11.13,12.87-2.61,3.35-4.32,7.41-7,10.64-1.53,1.83-4.29,2.62-7.06,4.19-.21-2.07-.33-2.72-.32-3.36a5.77,5.77,0,0,1,.22-2c3.05-8.51,7.16-16,16.27-19.69,8-3.21,12.86-10.13,18.22-16.58-5.81,2.67-10.32,7.88-16.73,9.17l-.68-1.08,14.62-18.74c-9.63,2.29-13,12.42-21.71,16.69l-.76-7.61c-4,7.22-2.83,15.49-10.09,20.53.26-5.9.21-11.11.87-16.24a8.89,8.89,0,0,1,3.35-5.25c6.64-5.06,13.55-9.76,20.28-14.7a16.37,16.37,0,0,0,2.64-3.26l-.78-.57q-11.07,8.18-22.12,16.37l-1-.78c4.1-11,12-18.94,22.19-25l-1.62-1.8-20.39,14.28c1.31-5.67,2.62-11.38,3.94-17.08l-1.25-.57c-7,9.83-8.73,22-13,33.24-4.61-4.66-6.82-9.24-4.42-15.37.91-2.33.64-5.18.62-7.79,0-.82-.94-1.64-1.73-2.89l-3.28,11.42-2-.09c-1.1-5.7-2.19-11.4-3.34-17.39-.92.67-1.3.81-1.41,1.06a3.22,3.22,0,0,0-.29,1.43c1,13.48,1.82,27,10.9,38.18A11,11,0,0,1,506,146c-4.42-2.82-7.66-5.81-8.13-11.26-.2-2.34-2.19-4.52-3.36-6.77l-1.63.65,1,9.91-14.3-9.79-.13,3.82-1.68.36c-1.2-3.4-2.83-6.73-3.48-10.24-.7-3.71-.43-7.59-.6-11.4l-1.45-.07q-1.1,7.35-2.18,14.71l-1.13.11-4.47-12.41c-1.81,6.37.22,10.64,3.41,13.69,4.21,4,3.38,8.78,4.16,13.58-9-.84-11-2.05-14.84-8.76-1.71-3-3.62-5.83-5.44-8.73l-1.41.79,6.51,12.34C445,133,446.75,121.19,440.6,114.44l1.72,17.21c-10.1.71-17.44-3.84-23.68-11L418,121l.28,2.79C422.54,127.45,426.5,131.77,431.4,134.08ZM497,150.39c7.16,5.87,8.59,20,2.25,26.31-3.36-3.2-5.2-6.2-4.08-10.95C496.33,160.75,496.41,155.51,497,150.39Zm-4,14.25-1.42.48c-2.1-7.41-4.19-14.83-6.33-22.39C494,142.18,495.81,152.54,493,164.64Zm-7.28,15.49c5.36,4.8,5.09,10.66,5.11,16.3,0,.55-2.78,1.89-3.84,1.55-4.25-1.37-6.56-7-4.81-11.33A63.68,63.68,0,0,1,485.74,180.13Zm-9.17-9.63c7.59,3.26,8.6,7.42,3,14.52-.94-3.51-1.78-6.29-2.4-9.12A50.21,50.21,0,0,1,476.57,170.5ZM465,145.18l9.89,12.09-1.32,1C467.21,156.71,464.78,152,465,145.18Zm1.91,23.76c4.06,2.81,7.1,6.48,6.51,12.36-.42,4.14.68,8.43,1.16,13.25l-4.65-.22c.66-4.9,1.28-9.49,1.9-14.07l-1.35-.2c-.61,2.19-1.21,4.37-1.81,6.56l-1.34-.19.51-11.51-1.48-.1c-.7,6-1.41,12-2.18,18.58l-6.65-5.2,1.4-.45c-.54-4.34-1.39-8.67-1.49-13,0-2.07.81-5.28,2.25-6C461.66,167.74,465.2,167.74,466.93,168.94Z" transform="translate(-169.48 -43.75)"/><path id="a271fd1d-f18c-4c5a-b143-86ab4bae8b0e" data-name="tree1" class="f6f9e7aa-fa1a-482a-af00-9d8ad3a33221" d="M266.6,208.19a35.43,35.43,0,0,0,7.56,2c2.64.57,4,2.15,3.48,4.72l-9.72-3.47-.2.45,9.5,5.16c-3,2.06-6,1.54-9.1.07L268,218l5,2.77c-2.66,2.4-6,2.73-9.21,3.18l.08.78c3.89.37,7.5-2.13,11.61-1.89l-.62,4.13-.4.07-1.22-2.16-.63.17a7.7,7.7,0,0,0,.51,2.2,5.56,5.56,0,0,1,.52,5.15l-3.5-5.15-.29.14,1.22,3.92-1.36.9a5,5,0,0,0,1.06,1,4.83,4.83,0,0,0,1.71.46c1.63.18,2.1.76,1.48,2.25a12.69,12.69,0,0,1-1.06,1.92l1.14.13c1.1-.59,2.32-2.51,3.78-2.69.43-.05,1.1-.74,1.53-.62,2.46.71,5.28.74,6.85,3.3.22.36.67.58.78,1,.89,3.45-.75,4.8-2.71,6.54,0,0,.64,2-17.53,4h9.38c1.54.33,56.06,0,55.71-.08-23.93-5.49-44.51-.38-31.55-12.63.67-.63-.63-1.23.06-2,1.15-1.29,1.73-3.24,2.81-4.59,1.49-1.85,3.65-2.89,5.2-4.69s3.07-4,4.71-5.91a5.53,5.53,0,0,0,.6-1.4c-.52.24-1.37.22-1.44.34-3,5.43-8,8.1-12.56,11.75-.56.44-1.78,0-2.69,0,.36-1.73.16-4,1.2-5.08a11.16,11.16,0,0,1,8.49-3.43c2.43.09,2.95.06,3.6-1.57-2.41.49-4,.11-6.48.61,1.93-3.67,4.34-4.55,7.3-6.14l-.49-.69-6.29,4-.32-.29,3.33-6.25-.41-.29c-1.36,1.56-2.79,3.06-4.05,4.69-.95,1.22-1.57,2.7-2.56,3.88a9.76,9.76,0,0,1-2.58,1.52c-.07-.75-.12-1-.11-1.22a2.1,2.1,0,0,1,.08-.71c1.11-3.1,2.61-5.84,5.92-7.17,2.91-1.17,4.68-3.69,6.64-6-2.12,1-3.76,2.87-6.09,3.34l-.25-.39,5.32-6.83c-3.5.84-4.75,4.53-7.91,6.08l-.27-2.77c-1.48,2.63-1,5.64-3.67,7.47.09-2.14.07-4,.31-5.91a3.28,3.28,0,0,1,1.22-1.91c2.42-1.84,4.94-3.55,7.39-5.35a6.33,6.33,0,0,0,1-1.19l-.29-.21-8.05,6-.38-.28a17.68,17.68,0,0,1,8.08-9.09l-.59-.66-7.42,5.2c.47-2.06.95-4.14,1.43-6.22l-.46-.2c-2.56,3.58-3.17,8-4.72,12.1-1.68-1.69-2.48-3.36-1.61-5.59a8.09,8.09,0,0,0,.23-2.84c0-.3-.35-.6-.63-1.05-.45,1.56-.82,2.86-1.2,4.15l-.71,0c-.4-2.07-.8-4.15-1.21-6.33-.34.24-.48.29-.52.38a1.34,1.34,0,0,0-.1.52c.35,4.91.66,9.84,4,13.91a4,4,0,0,1,.72,4.15c-1.61-1-2.79-2.11-3-4.1a7.54,7.54,0,0,0-1.22-2.46l-.59.23.36,3.61-5.21-3.56-.05,1.39-.61.13a25.63,25.63,0,0,1-1.27-3.73,30,30,0,0,1-.22-4.15l-.53,0c-.26,1.78-.53,3.57-.79,5.35l-.41,0-1.63-4.52a4.63,4.63,0,0,0,1.24,5c1.54,1.47,1.23,3.2,1.52,4.94-3.3-.3-4-.75-5.41-3.19-.62-1.08-1.31-2.12-2-3.18l-.51.29c.75,1.41,1.49,2.83,2.37,4.5-4.31-1.3-3.67-5.59-5.91-8.05l.62,6.27c-3.67.25-6.35-1.41-8.62-4l-.23.1.1,1C263.37,205.78,264.81,207.35,266.6,208.19Zm23.88,5.94c2.6,2.14,3.13,7.28.82,9.58-1.23-1.17-1.9-2.26-1.49-4A47.38,47.38,0,0,0,290.48,214.13ZM289,219.32l-.51.17c-.76-2.7-1.53-5.4-2.31-8.15C289.39,211.14,290.05,214.91,289,219.32ZM286.38,225c2,1.75,1.86,3.88,1.87,5.93,0,.2-1,.69-1.4.57a3.21,3.21,0,0,1-1.75-4.13A24.48,24.48,0,0,1,286.38,225ZM283,221.45c2.77,1.19,3.14,2.7,1.09,5.29-.34-1.28-.65-2.29-.88-3.32C283.12,222.79,283.11,222.14,283,221.45Zm-4.2-9.22,3.6,4.4L282,217C279.64,216.43,278.75,214.72,278.84,212.23Zm.7,8.65a4.65,4.65,0,0,1,2.36,4.5,25.58,25.58,0,0,0,.43,4.83l-1.7-.08c.25-1.79.47-3.46.7-5.13l-.5-.07-.66,2.39-.48-.07.18-4.19-.54,0c-.25,2.19-.51,4.37-.79,6.77l-2.42-1.89.51-.17a44.65,44.65,0,0,1-.54-4.74c0-.75.29-1.92.82-2.19A3.1,3.1,0,0,1,279.54,220.88Z" transform="translate(-169.48 -43.75)"/><path id="fb3a43b0-0351-4825-b8a5-9f4142f97559" data-name="Halloween_below_floor" class="f6f9e7aa-fa1a-482a-af00-9d8ad3a33221" d="M1103.74,247.75c18.35,1.17,36,3.18,54.53,4,24,1.08,62.13-1.37,101-.7,19.14-1.07,74.29,1.37,90.11,1.79L1396,251.7c8.53.39,17.47.82,25.89.54,6.44-.22,28,0,41.56,2.4,9.7,1.72,25.22-2,35-1.43,3.48.21,7.77-.52,11.71-.8,4.88-.36,28.38-1.95,36.31-.34,3.78.77,9.53.86,14.11,1.4a215.27,215.27,0,0,0,49.93.19c19.6-2.13,17.63,3.6,47.08,2,9.07-1.18,13.46.18,39.88.18,22.44,0,35,2.41,58,2.41l-1433-.13s-109.4-.06-153-.06c157.25-22.24,224.34-15.92,318.2-13.9,43.5-.61,160.63-4.65,213.26-6.06,36.82-1,69.62.08,84.16-4.23,5.27-1.57,0,0,20.77-4.25s68.57.53,68.57.53c15.62-.15,23.06,2.94,33.26,4.95,4.76.94,8.85,1.66,15.78.38,3.49-.65,11.86,0,17.13.62,4.37.5,7.32,1.8,11.1,2.69a86.54,86.54,0,0,0,24.26,2.4,76,76,0,0,1,13.19,1c18.77,2.91,32.73,1.93,64.36,3.89Z" transform="translate(-169.48 -43.75)"/></g><g id="b1bd2e9b-4d4e-4a27-844d-b8d3ad3af3b3" data-name="Halloween_below_character"><path id="a578a79d-2793-4911-8a03-903fbe169ab7" data-name="bat2" d="M587.05,170a7,7,0,0,1,3.17-.5,10.89,10.89,0,0,1,3.61,1c1.68.68,2.13,1.67,2.07,2.13a4.19,4.19,0,0,0,.82,3.71,9.11,9.11,0,0,0,.77,1c.24.26.47.18.7-.1a3.14,3.14,0,0,0,.65-1.93c0-.1,0-.26.12-.31a.23.23,0,0,1,.28.2,4.92,4.92,0,0,1,.29,1.25c.09.91.79,1.19,1.35.61.23-.24.59-.57.89-.84.09-.09.29-.22.41-.11s.06.31-.06.46a2.79,2.79,0,0,0-.71,1.78c0,.37.05.56.53.54a5,5,0,0,0,4-2.37,1.51,1.51,0,0,1,1.73-.77,12.17,12.17,0,0,1,4.39,1.64,5.71,5.71,0,0,1,2.27,2.25,3.13,3.13,0,0,1,.18.47,3.34,3.34,0,0,1-.55-.35,3.63,3.63,0,0,0-2-.92,2.77,2.77,0,0,0-2.87,1.5c-.12.28-.23.57-.33.86s-.27.41-.56.14a3.66,3.66,0,0,0-2-1.05,2,2,0,0,0-2.32,1c-.37.55-.15,1.38-.53,1.36s-.65-2.75-2-2.89a.8.8,0,0,0-.75.33,3.48,3.48,0,0,1-1.7,1.31c-.43.18-.6.15-.81-.27a4.62,4.62,0,0,1-.56-2.36c0-.31-.43-.57-.7-.62-1.58-.39-2.73,1.07-3,1s.7-2.16-.14-3.17-2-.91-3.11-.86C591.89,171.71,590.27,170.34,587.05,170Z" transform="translate(-169.48 -43.75)"/><path id="ba45059d-0197-47e6-bc1a-372fab984b88" data-name="bat1" d="M485.5,71.72A12.48,12.48,0,0,1,489,67.05a19.94,19.94,0,0,1,5.92-3.34c3.07-1.22,4.91-.49,5.41.18a7.61,7.61,0,0,0,5.77,3.81,15.45,15.45,0,0,0,2.24.3c.64,0,.85-.36.79-1a5.81,5.81,0,0,0-1.59-3.36c-.13-.14-.34-.35-.24-.55a.43.43,0,0,1,.62-.11,10,10,0,0,1,2,1.28c1.26,1.08,2.55.56,2.54-.92,0-.6.05-1.48.1-2.22,0-.23.1-.65.4-.66s.46.32.5.67a5,5,0,0,0,1.33,3.23c.43.52.78.69,1.39,0a9.07,9.07,0,0,0,2.27-8.22,2.74,2.74,0,0,1,1.3-3.19,21.91,21.91,0,0,1,7.82-3.42,10.47,10.47,0,0,1,5.82.06c.2.07.39.18.83.39a5.42,5.42,0,0,1-1.16.25,6.77,6.77,0,0,0-3.77,1.3,5,5,0,0,0-1.85,5.61c.19.52.4,1,.64,1.54s.18.89-.55.89a6.68,6.68,0,0,0-3.9,1.12c-1,.7-2.17,1.65-1.71,4.29.21,1.2,1.55,2,1,2.46s-4.33-2.78-6.3-1.23a1.5,1.5,0,0,0-.57,1.37,6.48,6.48,0,0,1-.56,3.89c-.34.77-.61,1-1.4.67a8.37,8.37,0,0,1-3.72-2.39c-.36-.43-1.29-.19-1.71.09-2.57,1.47-2.21,4.85-2.7,5.15s-1.81-3.71-4.19-4-3.72,1.27-5.16,2.81C493.93,67.78,490.07,68,485.5,71.72Z" transform="translate(-169.48 -43.75)"/><path id="f0e9f078-2b93-4c12-a197-f9c3e5e1abfb" data-name="Witch" class="e97f8f31-98c3-43e6-948d-360d26e786c1" d="M726,122.48a5.74,5.74,0,0,0-.93-.46,8.67,8.67,0,0,0-1.81-.53,4.86,4.86,0,0,0-3.48.45,2.37,2.37,0,0,1-1.18.39c-1.24,0-2.48-.11-3.71-.06a27.28,27.28,0,0,0-10.48,2.44,7.53,7.53,0,0,0-2.21,1.69,1.24,1.24,0,0,1-1.13.55c-.25,0-.51,0-.77,0a4.12,4.12,0,0,0-4.06,3.46c0,.24-.24.59-.43.64-1.24.33-2.5.63-3.76.87s-2.51.37-3.77.59-2.36.46-3.54.69a3.59,3.59,0,0,0-.17-.34l1.93-2.13c.2-.22.44-.41.65-.62l3.3-3.41a10.17,10.17,0,0,0,1.21-1.34,1.26,1.26,0,0,0,.17-1c-.16-.29-.61-.44-1-.58s-.61-.06-.89-.16a4.06,4.06,0,0,0-3.39.15,6.1,6.1,0,0,1-1.85.87,20.25,20.25,0,0,1-4.4.08,36.31,36.31,0,0,1-5.11-1.17,4.73,4.73,0,0,1-2.56-1.44c.84-.11,1.6-.18,2.35-.32a10.61,10.61,0,0,0,2.25-.57c.4-.17.93-.69.91-1a5.5,5.5,0,0,0-.64-2.48,7.07,7.07,0,0,0-1.89-1.6,16,16,0,0,0-1.51-.89c1.12-.49,2.52-.32,2.65-1.88a2.94,2.94,0,0,0-1.58-2.7c.68-.75,1.35-1.4,1.93-2.13a4.72,4.72,0,0,1,4-1.61,9.58,9.58,0,0,0,2.4-.13c1.74-.47,3.44-1,5.14-1.64a20.68,20.68,0,0,1,2.12-.93c.66-.15,1.15-.48,1.16-1a2.91,2.91,0,0,0-.57-1.8c-.94-1.12-2.42-1.35-3.71-1.87a8.93,8.93,0,0,0-2-.45c-1.14-.17-2.28-.27-3.42-.43a49.08,49.08,0,0,0-5.61-.77,24.75,24.75,0,0,0-5.82.6,16.4,16.4,0,0,0-4.15,1.81c-1.06.58-1.92,1.54-3,2.1a7.35,7.35,0,0,0-2.11,1.69,8.44,8.44,0,0,1-1.67-2.17,4.84,4.84,0,0,0-2.3-2.19c-.73-.33-1.35-.88-2.06-1.24a8.05,8.05,0,0,0-1.65-.57c-.38-.1-.5,0-.39.42s.3.86.48,1.36l-.49,0c-.72,0-1.43-.11-2.14-.11l.4.57c.36.21.81.45,1.25.69a.7.7,0,0,1,0,.17,2.94,2.94,0,0,0-.53,2.53,1.52,1.52,0,0,1-.3,1.24c-.25.35-.31.64.07,1a3.19,3.19,0,0,1,.47.61,2,2,0,0,0,1.69.61l.32,0c-.07.63-.15,1.24-.21,1.78,0,0-.58.72-1.29,1.8a12.7,12.7,0,0,1-2.66.31,13,13,0,0,0-5.7,1.18,6.18,6.18,0,0,0-2,1.74,6.52,6.52,0,0,0-.78,1.85c-.42,1.14-.37,1.17.64,1.91a2.88,2.88,0,0,0,2,.45c.83,0,1.65,0,2.47,0a7.84,7.84,0,0,0-.31,1.62c0,.7-.08,1.24-.84,1.52-.25.1-.45.41-.63.65a7.43,7.43,0,0,0-1.45,4.7c0,1.78,1.22,2.69,2.87,2.1a10.28,10.28,0,0,0,1.22-.64,4,4,0,0,0,.39.74c.41.47.8,1.13,1.33,1.31a7,7,0,0,0,4.77.17c.73-.27,1.48-.47,2.3-.73-.61,1.07-1.16,2.06-1.62,2.88l-2.53.93a3.23,3.23,0,0,1-.84.25,16.38,16.38,0,0,1-4.77-.63c-1-.2-2-.52-3-.74s-1.84-.31-2.75-.49c-2-.41-4-1.09-6.13-.92a2.22,2.22,0,0,0-2.16,1.72c-.26,1,0,1.56,1.09,2.31a11.81,11.81,0,0,0,4.37,1.69c2.16.48,4.35.82,6.54,1.13s4.13.46,6.19.71a6.49,6.49,0,0,1,1.18.36,2.11,2.11,0,0,0-.16,2.75,5.24,5.24,0,0,0,1.53,1.35c1.32.89,2.88.72,4.37.8,1.13.07,2.26,0,3.4.09s3.15-.76,3.46-1.81a2.46,2.46,0,0,1,1.58-1.58,1.11,1.11,0,0,1,1.2.06,8.14,8.14,0,0,0,4.45,1.07,8.92,8.92,0,0,0,3.54-1,11.16,11.16,0,0,1,5.12-1.6,46.65,46.65,0,0,0,6.25-1,59.6,59.6,0,0,0,9.24-2.26c.83-.26,1.62-.84,2.39.07a.19.19,0,0,0,.15,0c.94-.13,1.89-.25,2.82-.41s1.59-1,2.6-.68a10.5,10.5,0,0,0,4.92.13,27.91,27.91,0,0,0,10.23-3.66,14.86,14.86,0,0,0,1.86-1,16.16,16.16,0,0,0,3.44-3.75c.31-.52.59-1,.86-1.59a12,12,0,0,1,.56-1.26C726.44,123,726.46,122.71,726,122.48Z" transform="translate(-169.48 -43.75)"/></g></svg>