<svg id="b76b3538-d9e7-40c5-9297-28e74173b634" data-name="Halloweentop" xmlns="http://www.w3.org/2000/svg" viewBox="0 0 1722.05102 266.5409"><defs><style>.b1391335-13f1-4c5b-83c3-16efb788d447{fill:#1a2a52;}.a14900af-bf0d-4cfd-9d57-53fe2a2a2bf6{fill:#fcc000;}.e531a923-2dbb-4972-a945-fa5c82cc294d{fill:#f58328;}.bd17f7a5-d509-41d3-9fb0-913e962c39bb{fill:none;stroke:#1a2a52;stroke-miterlimit:10;stroke-width:2px;}</style></defs><path id="b4fec9aa-2dae-4d08-8393-db74f81576b8" data-name="Halloweentopscenery" class="b1391335-13f1-4c5b-83c3-16efb788d447" d="M400.54706,41.07058C403,38.68936,404.34515,40.7109,405,41.68936c.85529,2.4696.36548,4.91766,1.22076,7.38727C407,50.68936,408,51.68936,408.573,49.07577q.63811-5.435,1.27612-10.87012C410,34.68936,413,31.68936,413.39923,38.20279c.27271,16.25811-.67194,32.22839-.39923,48.48657,0,7,4,9,6.58191.28308,4.38226-17.92127-4.42127-54.14441.49841-56.71375s7.9812,9.41614,12.26642,11.96814c2.36786,1.41028,8.72992,2.19989,11.19159.33118s-.20514-6.37115-2.31183-8.33588c-2.32477-2.168-7.71637-2.3775-10.40179-4.44921-1.65314-1.27515-3.04077-3.84876-.93274-6.46619S443,17.68936,450,19.68936c2.5166.719,9.70349,4.1015,8,7,0,8,7.00488,6.26526,10.38843,5.89075,2.3114-.25586,11.82342,1.63507,7.78387,5.76916C469,45.68936,468,47.68936,470,52.68936a4.6734,4.6734,0,0,0,7,2c2.22437-1.72034,2.60962-3.5141,2.90125-5.57648,1.055-7.45752,9.06872-5.33057,14.58374-6.87707s11.42755-8.99616,20.14868-3.58124c6.06811,3.76764,8.4198,8.27942,5.70294,14.33075a15.52423,15.52423,0,0,0-.75861,9.69415,6.2085,6.2085,0,0,0,6.02259,4.07929c3.39941-.0694,4.98346-3.80188,4.83886-5.58112-.30511-3.75446-2.3786-7.42969-3.75494-11.13141-1.48981-4.00738.47729-5.36945,5.99261-5.75726,8.40638-.59107,11.32288,2.40039,27.15265-4.6659C562.945,38.23245,566,27.68936,585.39923,29.2706a8.94656,8.94656,0,0,0,3.00891-.49622c3.557.0611,5.59186-6.085,10.88111-2.08588,2.71075,5.00086,1.05041,6.21082.87164,8.604-.51654,6.91479-1.59876,5.80926-1.92944,12.726a7.26643,7.26643,0,0,0,2.6781,5.95081c1.36535.94537,5.09045,1.72,7.19342-.11328,1.58152-1.37874,1.97693-4.03547,1.71728-6.06489-1.043-8.154-3.12036-8.26129-3.47229-16.41864-.05737-1.33074,1.56738-2.70269,3.40387-4.07983a6.59163,6.59163,0,0,0,3.27594.317c12.07483-3.38422,9.69309-.08778,19.97223,6.07971,5,3,9,1,15,1a7.685,7.685,0,0,1,5.17328,8.372c-.51654,6.91479-1.5987,13.80926-1.92938,20.726-.09681,2.02374.8055,4.76375,2.6781,5.95081a6.19546,6.19546,0,0,0,7.19342-.11329c1.61017-1.34509,1.97687-4.03546,1.71728-6.06488-1.04309-8.154-3.12036-16.26129-3.47229-24.41864-.09588-2.22424,1.63959-6.452,6.94623-6.84991C672,32.68936,671.94287,35.23935,673,37.68936c1.0965,2.54126-3,5-1.15375,9.55688,1.15375,1.44312,3.31061,2.4408,4.73218-.058s-.19586-8.79474.11285-10.64679.44261-3.50584,2.5282-4.51141a5.397,5.397,0,0,1,6.20514,1.06713c5.14118,5.16053,10.91211,5.13837,17.93964,2.5019,2.02966-.76148,6.813-3.3241,8.72436-.11689s-.60785,10.78351-1.36035,15.80481c-.73822,4.92511,1.24024,11.57257,7.256,10.98749S722,54.68936,721,52.68936c-2.75358-5.50717-3.39453-4.84253-4.38617-10.9278-1.56238-9.58874,4.88318-14.08453,17.41846-12.13788,7.34649,1.14081,13.61088,3.91876,14.27136,9.83167C749,45.68936,752,48.68936,755,48.68936c8,0,6-7,4-9s-3-2-4.24426-2.71485c-4.4059-2.53124-8.70111-6.10833-1.64484-9.87268,6.84009-3.64917,14.6933,1.8591,17.8891,5.58753,6,7,12,4,14,2,2.23292-2.23292,4-7-5-10-3-1-7.41233-1.01366-3.58911-3.58557C780,18.68936,784.66085,18.68936,789,18.68936c18,0,24.65845,5.07495,24.53339,20.33435-.02308,2.8211-.15393,5.64325-.32434,8.46185-.16767,2.77283-1.15192,5.42157-.68049,8.31268s3.11725,4.2132,4.47144,1.89112a30.49948,30.49948,0,0,0,1.82324-7.98853c.24848-4.86-.87115-9.803-.08069-14.5852.3725-2.254,2.61548-6.19263,5.93647-6.30945s4.10437,4.78528,4.63592,7.35644c.59393,2.87262-.66162,4.36023-.98828,8.94349s3.67334,3.58325,3.79749.17913c0-4.20752-3.87586-16.51666,0-15.05627S840,39.68936,849,37.68936c5-2,4.70722-2.79511,8.85388-2.88654C863,34.68936,862,38.68936,866,38.68936c5,0,5.74463-4.64746,8.87231-4.32373S880,33.68936,883,32.68936s9-2,18,4c3,2,10,2,15,0,4-1,7-2,11,0,2.1573,1.07865,7.68579-.04619,8.19366,4.22259.80634,6.77741-1.48437,9.676-2.261,14.51105C932.13721,60.37558,935,64.68936,939,61.68936s1.32739-14.66779.58441-21.96247c-.736-7.22595,3.53137-10.49395,13.17456-10.33782,8.54309.1383,14.75183,2.70275,18.04914,9.23706,1.20147,2.38067.97653,6.45555,6.19189,9.06323,4,2,7.06036-1.30969,6-5-.93964-3.30969-5-6-7.26385-7.14032-5.88828-2.966-4.0738-7.37982,2.9143-9.195,9.24634-2.40173,15.31616-.2724,20.42139,6.06641,3.98218,4.94415,5.26921,9.496,10.92816,13.26892,6.85681,4.57153,11,3,13,2,5.57672-2.78836,2.53577-8.88019-1.3175-10.835-5.6449-2.86359-11.6753-5.31262-17.1568-8.33466-2.541-1.40088-9.89594-3.31695-7.21082-6.57367S1007,21.68936,1019,21.68936c6,0,9.6897-2.99686,12.38257-3.85169a4.86113,4.86113,0,0,1,6.24389,2.73047c1.37354,4.12122,7.01969,5.04913,9.92,4.28876,4.45349-1.16754,6.90112,1.27838,7.3822,2.64819C1055.7052,29.71536,1050,31.68936,1047,34.68936c-1.884,1.884-3.65924,6.53109.74194,7.786,4.25806,1.21405,8.86853-4.81421,10.604-7.95374,2.43384-4.40265,6.93432-7.22046,12.55163-5.53528,3.22376.96705,5.84388,5.04517,6.67957,8.04779.9519,3.42054.39174,7.36342-.727,10.82837-2.8501,8.82691-1.8501,10.82691-1.077,11.711,1.61,1.84125,3.52987,1.37865,5.22693-.88409,3-4-3.52783-16.66406,2.13257-26.12311C1085,26.68936,1104,25.68936,1102,32.68936s-2.31543,12.48926,1,14c2.73512,1.24631,4,0,4.01172-1.55329,0-3.42584-2.01172-7.44671-1.01172-10.44671,1.03933-3.118,2.35718-3.45239,4.67859-3.2262a4.97354,4.97354,0,0,1,4.10852,3.00049c.74365,1.63007.46216,3.58563.28833,5.3833-.76685,7.93811-4.52026,19.77686-2.29785,23.80963s5.15722,3.50763,8.18982.2702-2.05188-22.458-.50965-28.84771S1123,32.68936,1125,33.68936s9.38171-5.46887,13-5,5.7804,7.29779,8.55347,11.99341c2.28686,3.87262,5.926,5.8313,11.51733,4.065,6.79468-2.14636,10.79395.20772,14.17236,4.32287,2.98133,3.63147,4.3147,11.42939,9.53577,12.02405s4.89148-8.295,7.55628-7.85016,1.64086,6.20868,1.51879,8.41871c-.51391,9.31616-3.17993,11.71466-3.854,21.02612-.25488,3.51983,1.3728,14.54626,7.82275,14.37231,6.73157-.18158,5.60828-10.95807,5.17725-14.37231-1.28528-10.18024-4.41111-13.80523-5-24-.34839-6.03125,5.09717-7.50952,7.323-7.57276,5.81543-.16546,5.85376,4.00739,5.604,7.62037-.24194,3.50213-2.70975,7.50793-.05249,10.53283,2.12549,2.41956,4.277.55093,5.12549-.58044,3-4-5-17-1-20s6.35034,1.7641,6.96863,2.59894c4.42541,5.97711,9.724,7.02948,17.618,3.1278,4.542-2.24475,6.63208.6261,6.40771,3.86853-.48645,7.03406-1.30517,5.0553-2.00646,12.08069-.42811,4.28778,2.45887,9.21234,6.01208,8.324,4-1,4-4,2.49927-8.99213-1.90045-6.32177-2.02271-4.08166-2.66944-10.64264-.52148-5.29156.455-10.23626,9.20484-11.36609,8.20837-1.05987,14.72363,1.9469,17.498,8.0528.97474,2.14471.39927,4.812,1.46729,6.94806a6.1944,6.1944,0,0,0,9.00562,2.70325c2.99438-1.70325,1.75358-5.26906.05371-6.49567-3.05933-2.20758-5.428-3.32752-7.05933-5.20758-4.339-5.00025-.63062-9.31854,7.02979-10.81323,6.93322-1.35279,11.77709.53387,14.514,5.509,2.65125,4.81927,6.45618,5.3042,10.45618,4.3042,7.251-1.81274,7-11,13-9s4,18,3,24,.68274,8.88653,3.86157,8.5874c3.38526-.31854,2.25867-4.36848,1.43653-7.90546-1.95667-8.41769-1.61162-20.93651-.29224-25.924.99414-3.758,1.994-4.70873,4.03271-4.72882,2.96143-.02917,4.884,2.97854,5.31958,4.59259.64185,2.37824,1.42122,2.893-1.35815,9.37824-3,7-1.68562,8.31438,0,10,1,1,2.66455,1.45495,4.33228-.77252s-2.66773-14.1579,0-17.69269,11.758,9.55054,16.71289,8.50787,2.65893-4.83734,6.30688-6.44,5.648,5.39734,17.52332-2.49274c3.67192-2.43965,3.713,5.94834,3.12463,8.89008-1,5,0,13-2,24-1.07331,5.90322,0,13,5.72778,11.55762C1393.75522,86.23278,1393,79.68936,1392,72.68936c-1.57641-11.03485-3.26367-13.31085-3-24s2-12,3-13c.9394-.9394,2.98979-1.31889,4,0,1.42285,1.8576-2,5,1.852,6.71155,1.08167.4806,2.51114.19889,3.148-1.71155,1-3-3.06909-5.07263,0-11,1.04471-2.01767,2-5,9.14075-3.97363,5.66638.81445,7.07678,8.34893,10.87634,10.61169,2.09937,1.25049,6.86279,3.22534,9.92285.29364s-.18164-5.649-2.0498-7.39111c-2.06116-1.92218-6.55542-2.34919-9.22278-3.94489s-4.9867-3.87085-.827-5.73328,20.72214-1.56415,23.50281-1.693c3.65686-.16943,8.65686,1.83057,4.34241,6.37549-2.16236,2.08252,3.28808,3.87189,6.28808,3.53986,2.04932-.22693,6.02637-.08478,6.90174,5.11517.344,2.04366-1.89283,3.4956-2.87537,5.8a22.40563,22.40563,0,0,0-2.2981,7.51843c-.7019,4.48157,2.4126,9.28,6.2981,6.48157s2-7,2.18164-10.25635c.37193-6.66776,10.043-4.45154,12.93066-6.09759s10.13233-7.97657,17.865-3.17536c5.38038,3.34058,6.28952,6.95571,5.05665,12.70648C1498,50.68936,1497,49.59034,1497,54.68936c0,3,2.70129,6.38959,6,6s5.76756-4.08556,4.99182-7.559a61.38128,61.38128,0,0,0-3.32947-9.86975c-1.3208-3.55317.42322-4.76087,5.31348-5.10474,7.45349-.52405,6.19849-4.83759,12.02417-6.46649s9.83314,2,14,2c4,0,5.6807-2.99177,7.17749-5.60382C1552,12.68936,1568.56445,14.8923,1574.7771,21.886c1.00342,1.12946,4.70691,1.96747,6.44238,1.481,10.70618-3.00061,14.29428-2.6501,17.78052,4.32239,2,4,3.5794,7.7024,7.29041,7.83356C1611,35.68936,1614,33.68936,1616.042,29.4385c.36719,3.35431,1.74628,7.13361,1.958,9.25086,1,10-2.60254,10.62219-2.89587,16.75494a6.44242,6.44242,0,0,0,2.37451,5.27631c1.21069.83825,5.33252.77307,6.37805-.10047,1.42773-1.19262,1.75293-3.57806,1.5227-5.3775-.9248-7.2298-5.852-7.663-2.37939-21.55328,2-8,3.91943-6.34241,5.45972-6.17121s4.17016,3.782,5.10742,5.95435c.97229,2.25324.949,3.3941.69092,7.30548s2.87671,4.98572,3.30932-.05145-.22314-6.31037.1001-9.44006c.14734-1.42945.15015-2.40326,2.24133-4.00019s4.58313.024,5.50183.94617c4.5586,4.57568,9.67554,4.556,15.9065,2.21838,1.79956-.67517,5.78808-3.4458,7.73547-.10363s.2678,9.75969-1.20617,14.01348C1666,49.68936,1667,57.68936,1672,57.68936c4,0,2.70662-6.17354,2-9-1-4-1-7-.93494-12.77442.09706-8.61361,4.32972-12.48822,15.44422-10.7622,6.51379,1.01153,10.29529,3.99865,12.65368,8.71734.93763,1.87549,2.837,6.81928,7.837,6.81928,2.23607,0,4-2,3-5s-5.10645-2.53778-7-4c-3.56592-2.7536-5.94-5.64806.42542-8.77271C1712,19.68936,1718,19.68936,1724,22.68936c3.11733,1.55866,4,4,6.63757,11.67029,4.47034,13.00012,10.22225,13.75023,11.36243,10.32971,2-6-7-14-10.67529-20.1676-3.69445-6.19976,1.15649-10.70057,4.9956-10.9549,43.44483-2.8775,49.31653-13.8775,84.44483-13.8775,9,0-1728.12757-.52924-1722,0,15.73669,1.35907,35.051,8.12628,71.23846,11.17853,36.10309,3.0451,57.35364-5.39795,76.27124,8.22522,7.57489,5.455,16.6059,2.1958,19.73511,9.08227,1.09912,2.41889,1.91015,4.81464,3.11316,7.22455,1.642,3.28943,4.58594,4.91833,8.642,3.28943,3.94391-3.3711,2.569-5.64661,1-8-2-3-5.44831-2.70661-7.28833-4.827-4.89356-5.63934-2.35425-13.3537,6.372-12.19671,2.64831.35107,7.59887-1.43634,10.68566,4.17468,2.99012,5.43536,6.07453.00451,12.14545,1.79931,5.73535,1.69562,2.03217-5.86474,13.94483-3.1488,4.613,3.5351-1.85962,17.19855,8.14038,27.19855,2,2,5,4,7.49127,2.48163,4.50873-4.48163-1.307-8.17188-.22485-10.94062,3.76733-9.63922-.582-12.3081-.32984-22.0484.04657-1.79937,1.06342-4.49261,4.26581-2.539,2.1029,1.7182,3.79761,4.04639,5.0979,9.00543a39.9325,39.9325,0,0,1,.44092,14.77167c-.74121,4.26929-1.36585,8.06714,1.25879,11.26929,1,1,3.49231,3.06976,5.01049.53949,6.98951-9.53949,4.17341-16.76959.98951-25.53949-3-10,8,11,15.68805,11.35187,6.31512.28906,4.91418-7.17469,7.113-7.26331S373,40.68936,385,45.68936C394.85082,49.79387,400.54706,41.07058,400.54706,41.07058Z" transform="translate(-98.74896 1.43694)"/><g id="ba680115-1bf7-4feb-8364-08ed05cb2bd4" data-name="Halloweentopcharacter"><g id="a2266fb5-f879-4477-9086-728b5a0882b7" data-name="starsix"><polygon id="a21e957c-e0d1-45ec-9ed7-e5be94707e67" data-name="startlight6" class="a14900af-bf0d-4cfd-9d57-53fe2a2a2bf6" points="1661.251 59.335 1667.357 71.706 1681.01 73.69 1671.13 83.32 1673.462 96.918 1661.251 90.498 1649.04 96.918 1651.372 83.32 1641.493 73.69 1655.145 71.706 1661.251 59.335"/><polygon id="ae85818d-37e6-42a9-b29d-bac7c878abf7" data-name="star6" class="b1391335-13f1-4c5b-83c3-16efb788d447" points="1661.251 59.335 1667.357 71.706 1681.01 73.69 1671.13 83.32 1673.462 96.918 1661.251 90.498 1649.04 96.918 1651.372 83.32 1641.493 73.69 1655.145 71.706 1661.251 59.335"/></g><g id="aab95be0-2d8b-47ec-b05f-03bbbed2d7e4" data-name="bat"><path id="ba67ebf3-a6cb-4d0b-a7cd-e9191bc8194e" data-name="batbody" class="b1391335-13f1-4c5b-83c3-16efb788d447" d="M1577.812,112.10788c.145-1.66639.22815-3.21521.4242-4.74964.4104-3.21216.88794-6.41571,1.31482-9.62585a7.225,7.225,0,0,0-.08863-1.07562,2.08792,2.08792,0,0,1,.07666-.9336c.40772-.81323.26221-1.28686-.67578-1.46515a1.93,1.93,0,0,1-.61865-.35034c-2.61157-1.7149-5.18713-3.48785-7.8418-5.13306-2.34424-1.45282-2.45117-1.52679-1.85449-4.22253a15.96565,15.96565,0,0,0-.78479-10.48883c-.82727-1.77478-2.21472-3.32324-2.094-5.61432a31.468,31.468,0,0,0-4.72156,5.329c-1.98157,3.10846-2.84033,6.5011-1.51648,10.20837.70764,1.98169.01672,3.06379-2.09265,3.44153-1.41443.25324-2.8772.22205-4.30982.39026-1.66748.1958-3.37744.58789-3.79712-2.04565-2.71594,3.67572-5.24243,7.09332-7.767,10.51239-1.20545,1.63244-1.72742,1.6781-3.05542.18335a15.76343,15.76343,0,0,0-6.25037-4.58472,62.03451,62.03451,0,0,0-6.60486-1.753c-1.34875-.33051-1.774.09949-1.37244,1.41156.66919,2.186,1.30054,4.39276,2.13721,6.51617a11.33193,11.33193,0,0,0,7.66553,7.24445c1.47412.41754,1.7998.90472,1.75415,2.44049-.08106,2.72754-.12695,5.45782-.29639,8.18024a2.382,2.382,0,0,0,1.18921,2.38824c4.48267,3.04126,8.853,6.26257,14.01978,8.13281a1.22771,1.22771,0,0,1,.65527.95942,1.37129,1.37129,0,0,1-.79.87286,16.99023,16.99023,0,0,1-2.5166.41266c-1,0-1,3,2.634,3.68249.80555.25782,1.60865.54071,2.40772.84009,3.06579,1.1485,5.90808,2.88922,8.87012,4.32385a3.769,3.769,0,0,0,1.25085.12928,5.7184,5.7184,0,0,0,.00549-1.12372c-.3125-1.65064.02271-2.18689,1.68848-2.26581a13.49492,13.49492,0,0,0,9.89917-5.0257c.83765-.97,1.70642-1.91351,2.56909-2.86187.46643-.51282.98267-.70148,1.55347-.14765,1.64648,1.59778,2.6289,1.319,2.99463-1.30548a2.9618,2.9618,0,0,0,.06164-.83441,18.83191,18.83191,0,0,1,.559-7.18549c.50635-3.22558,1.50635-9.22558-2.12427-6.21881C1579.83179,111.44857,1579,113.68936,1577.812,112.10788Z" transform="translate(-98.74896 1.43694)"/><g id="fd826a73-4a0d-4bf9-9997-1f6f154fe825" data-name="lefteye"><path id="bb7b21a5-2b62-43fd-8715-1daa755b3c0c" data-name="eyebackground" class="e531a923-2dbb-4972-a945-fa5c82cc294d" d="M1543.73049,99.58652c-3.86157,1.85675-5.49048,5.85754-3.29883,10.18933,1.62525,3.21216,5.84571,4.43616,9.41443,2.668a6.57147,6.57147,0,0,0,3.785-8.60382C1551.40749,99.37582,1547.56557,97.74265,1543.73049,99.58652Z" transform="translate(-98.74896 1.43694)"/><path id="b7845409-0f54-473e-b6d5-e674540f2e9a" data-name="eye" class="b1391335-13f1-4c5b-83c3-16efb788d447" d="M1545.724,106.66074a1.39544,1.39544,0,0,0-.80261,2.05261,1.50558,1.50558,0,0,0,2.07373.85767c.82129-.42322,1.00537-1.35273.52246-2.42072C1547.10549,106.23892,1546.45705,106.32645,1545.724,106.66074Z" transform="translate(-98.74896 1.43694)"/></g><g id="b7f6fae9-18b3-4fb6-956a-081c50a29444" data-name="righteye"><path id="b3f937f4-0103-4dfd-9348-8fc2ebba7300" data-name="eyebackground" class="e531a923-2dbb-4972-a945-fa5c82cc294d" d="M1564.62358,91.48044a8.63229,8.63229,0,0,0-7.93188,3.31366,3.64838,3.64838,0,0,0-.88233,1.80389,9.63671,9.63671,0,0,0,3.04346,8.35266,4.02024,4.02024,0,0,0,3.90772,1.04907c.62585-.13165,1.27075-.17486,1.89428-.31518,5.32471-1.19855,6.38184-6.03949,4.79468-10.16138C1568.29888,93.68368,1567.14311,91.7814,1564.62358,91.48044Z" transform="translate(-98.74896 1.43694)"/><path id="b2d63309-5d7b-40e5-b018-ce1bf737d5ef" data-name="eye" class="b1391335-13f1-4c5b-83c3-16efb788d447" d="M1560.99468,99.42068a1.553,1.553,0,0,0-.77,2.30622c.46.80609,1.1,1.28656,2.08789.81524a1.57613,1.57613,0,0,0,.6499-2.34259A1.35109,1.35109,0,0,0,1560.99468,99.42068Z" transform="translate(-98.74896 1.43694)"/></g><path id="b2faf931-e28a-4b06-8070-edea67f0eaac" data-name="rightbatbodywing" class="b1391335-13f1-4c5b-83c3-16efb788d447" d="M1609.35474,95.12623c-5.20424-5.85887-14.45658-8.453-20.73132-6.2458-5.79337,2.03785-7.68152,8.12284-7.70475,12.97628-.01681,3.5114-1.17674,7.83308-3.52708,13.714s.12533,6.51242,1.3622,3.44705c4.39643-8.68147,11.45166-4.72295,11.45166-4.72295s-.43663-5.78587,4.53152-8.03422c2.4536-1.11039,7.30916,1.72824,7.30916,1.72824a16.1769,16.1769,0,0,0-.30632-3.53675,5.05785,5.05785,0,0,1,4.81123-6.60382c3.51141.01681,4.7518,1.31852,4.96324,1.01287C1611.69993,98.59261,1610.03454,95.89167,1609.35474,95.12623Z" transform="translate(-98.74896 1.43694)"/><path id="a8d43646-5e41-4288-af55-abc646dc58f7" data-name="leftbatbodywing" class="b1391335-13f1-4c5b-83c3-16efb788d447" d="M1519.18864,146.54632c-2.46437-7.4389-.07544-16.74633,4.97771-21.07178,4.66552-3.99362,10.87794-2.5801,15.09034-.16928,3.04763,1.74419,7.36912,2.90482,13.63639,3.81608s5.57388,3.37033,2.30123,2.90553c-9.716-.543-9.82358,7.54614-9.82358,7.54614s-4.78912-3.27586-9.2235-.10192c-2.19,1.56749-2.16507,7.19187-2.16507,7.19187a16.17653,16.17653,0,0,1-2.90772-2.03656,5.05786,5.05786,0,0,0-8.12556.85661c-1.74419,3.04763-1.2388,4.77321-1.60924,4.80312C1521.01425,150.31234,1519.51066,147.51809,1519.18864,146.54632Z" transform="translate(-98.74896 1.43694)"/></g><g id="e0211e42-0be0-408a-8cd9-0859da5e4512" data-name="starfive"><polygon id="b73da351-320e-4d42-9d9a-ad85d251f66b" data-name="startlight5" class="a14900af-bf0d-4cfd-9d57-53fe2a2a2bf6" points="1261.251 88.404 1266.035 98.097 1276.731 99.651 1268.991 107.195 1270.818 117.849 1261.251 112.819 1251.684 117.849 1253.511 107.195 1245.771 99.651 1256.467 98.097 1261.251 88.404"/><polygon id="e8d18eb1-3854-4f4b-a384-4acc7425b59d" data-name="star5" class="b1391335-13f1-4c5b-83c3-16efb788d447" points="1261.251 88.404 1266.035 98.097 1276.731 99.651 1268.991 107.195 1270.818 117.849 1261.251 112.819 1251.684 117.849 1253.511 107.195 1245.771 99.651 1256.467 98.097 1261.251 88.404"/></g><g id="a5e49c61-5f5c-4bee-b25c-7bb1fdeb3400" data-name="spider2"><path id="a4d3b570-fbc7-490c-977c-c1520191c3ad" data-name="leftleg4" class="b1391335-13f1-4c5b-83c3-16efb788d447" d="M1306.44314,173.10928c-3.0806,3.41324-6.73382,10.66573-2.37,18.57193.78246-6.01934.9701-10.98717,6.56752-16.78966C1314.112,171.293,1309.52373,169.69605,1306.44314,173.10928Z" transform="translate(-98.74896 1.43694)"/><path id="a3af88cf-d519-4b89-aed0-973017a350cd" data-name="leftleg3" class="b1391335-13f1-4c5b-83c3-16efb788d447" d="M1306.1671,170.29605c-4.37692,1.40811-11.17462,5.85062-11.3641,14.8792,3.69561-4.81531,6.34928-9.01918,14.10186-11.23222C1313.7128,172.57056,1310.544,168.888,1306.1671,170.29605Z" transform="translate(-98.74896 1.43694)"/><path id="e6a40f43-b91b-4f37-a725-1338790f1674" data-name="leftleg2" class="b1391335-13f1-4c5b-83c3-16efb788d447" d="M1306.9459,168.26149c-4.57876-.41858-12.57332,1.00677-16.28365,9.23991,5.28627-2.98328,9.37438-5.812,17.37438-4.812C1312.998,173.30953,1311.52466,168.68007,1306.9459,168.26149Z" transform="translate(-98.74896 1.43694)"/><path id="eabcd46f-4348-49ed-8104-c48351dc2b6d" data-name="leftleg1" class="b1391335-13f1-4c5b-83c3-16efb788d447" d="M1307.3468,164.51822c-3-2-11-10-10-21-4,6-5,8,7,24,.51564.68752,2.41887,2.58114,4,1C1309.3468,167.51822,1308.5941,165.34975,1307.3468,164.51822Z" transform="translate(-98.74896 1.43694)"/><path id="be6d9d6e-974c-405f-a6ba-a4aa00781acf" data-name="righleg4" class="b1391335-13f1-4c5b-83c3-16efb788d447" d="M1323.64845,173.10928c3.0806,3.41324,6.73382,10.66573,2.37,18.57193-.78245-6.01934-.9701-10.98717-6.56751-16.78966C1315.97955,171.293,1320.56785,169.69605,1323.64845,173.10928Z" transform="translate(-98.74896 1.43694)"/><path id="b8d618d5-f04a-463b-9881-bfe7e8d721d2" data-name="righleg3" class="b1391335-13f1-4c5b-83c3-16efb788d447" d="M1323.92448,170.29605c4.37693,1.40811,11.17462,5.85062,11.3641,14.8792-3.6956-4.81531-6.34927-9.01918-14.10185-11.23222C1316.37879,172.57056,1319.54755,168.888,1323.92448,170.29605Z" transform="translate(-98.74896 1.43694)"/><path id="a5568219-fb29-469b-9bba-cd9b03ceee38" data-name="righleg2" class="b1391335-13f1-4c5b-83c3-16efb788d447" d="M1323.14569,168.26149c4.57876-.41858,12.57332,1.00677,16.28365,9.23991-5.28627-2.98328-9.37438-5.812-17.37438-4.812C1317.09357,173.30953,1318.56693,168.68007,1323.14569,168.26149Z" transform="translate(-98.74896 1.43694)"/><path id="af4edea2-f6d6-437b-a894-e07e1884c7c3" data-name="righleg1" class="b1391335-13f1-4c5b-83c3-16efb788d447" d="M1322.74478,164.51822c3-2,11-10,10-21,4,6,5,8-7,24-.51563.68752-2.41886,2.58114-4,1C1320.74478,167.51822,1321.49749,165.34975,1322.74478,164.51822Z" transform="translate(-98.74896 1.43694)"/><path id="b32d31d2-2d5d-49a2-b004-83fa0268ddd9" data-name="spiderbody" class="b1391335-13f1-4c5b-83c3-16efb788d447" d="M1323.07492,170.22433c2-3.27524,4.99053-7.87373,5-15.28447.01468-11.4445-13.14329-21.2505-13.14329-21.2505s-12.1818,9.26013-12.19641,20.70463c-.00939,7.36649,4.33586,13.63843,5.33972,15.83034,1,2.18349,1.40993,3.66857,1,5.45874-1,4.367.58805,8.734,3,8.734,2,0,1-4.367,3-4.367s2,4.367,4,4.367,4-4.367,2.59154-9.82573C1321.49969,173.62125,1321.83457,172.25555,1323.07492,170.22433Z" transform="translate(-98.74896 1.43694)"/></g><line id="e890f2ca-e096-4315-a63a-57447ee28012" data-name="spiderline2" class="bd17f7a5-d509-41d3-9fb0-913e962c39bb" x1="1215.36558" y1="3" x2="1215.36558" y2="158.1263"/><g id="bc1b1b27-5654-4d68-9dc3-2e631e7ed1d3" data-name="starfour"><polygon id="bef79375-fca0-4e8e-976b-c65278131033" data-name="startlight4" class="a14900af-bf0d-4cfd-9d57-53fe2a2a2bf6" points="941.251 63.404 946.035 73.097 956.731 74.651 948.991 82.195 950.818 92.849 941.251 87.819 931.684 92.849 933.511 82.195 925.771 74.651 936.467 73.097 941.251 63.404"/><polygon id="bfbd1507-5f1c-4bb2-b12d-44cbe4e00157" data-name="star4" class="b1391335-13f1-4c5b-83c3-16efb788d447" points="941.251 63.404 946.035 73.097 956.731 74.651 948.991 82.195 950.818 92.849 941.251 87.819 931.684 92.849 933.511 82.195 925.771 74.651 936.467 73.097 941.251 63.404"/></g><g id="bd133c62-a350-4d52-9709-abe1d73808d2" data-name="starthree"><polygon id="e2cac703-1c49-4ceb-a4e5-98b424d96aac" data-name="startlight3" class="a14900af-bf0d-4cfd-9d57-53fe2a2a2bf6" points="861.251 84.642 867.257 96.811 880.687 98.763 870.969 108.235 873.263 121.611 861.251 115.296 849.239 121.611 851.533 108.235 841.815 98.763 855.245 96.811 861.251 84.642"/><polygon id="afce1143-c994-4bea-b8ce-c00dbe710532" data-name="star3" class="b1391335-13f1-4c5b-83c3-16efb788d447" points="861.251 84.642 867.257 96.811 880.687 98.763 870.969 108.235 873.263 121.611 861.251 115.296 849.239 121.611 851.533 108.235 841.815 98.763 855.245 96.811 861.251 84.642"/></g><g id="be6ec149-66aa-4ca4-86a5-3ec091ce62a1" data-name="starsecond"><polygon id="f023798e-d2c3-455a-b1dd-a9d05cfb577c" data-name="startlight2" class="a14900af-bf0d-4cfd-9d57-53fe2a2a2bf6" points="621.251 88.404 626.035 98.097 636.731 99.651 628.991 107.195 630.818 117.849 621.251 112.819 611.684 117.849 613.511 107.195 605.771 99.651 616.467 98.097 621.251 88.404"/><polygon id="f40887fd-a2d5-47ee-99ad-0278f9a01ff9" data-name="star2" class="b1391335-13f1-4c5b-83c3-16efb788d447" points="621.251 88.404 626.035 98.097 636.731 99.651 628.991 107.195 630.818 117.849 621.251 112.819 611.684 117.849 613.511 107.195 605.771 99.651 616.467 98.097 621.251 88.404"/></g><path id="eed27d82-cec3-4eae-bb81-bbf856b77ccd" data-name="candy" class="b1391335-13f1-4c5b-83c3-16efb788d447" d="M573.74292,123.41354c3.94452-1.22119,6.81635-3.24048,6.42285-4.52374-.38251-1.24732-3.71008-1.33826-7.524-.24073,2.31434-3.17529,3.35755-6.28979,2.327-7.07458-1.07336-.81732-3.98572,1.2019-6.50494,4.51013a19.863,19.863,0,0,0-2.25678,3.68939A12.71875,12.71875,0,0,0,543.71,129.86361a18.15618,18.15618,0,0,0-4.73242-2.31781c-3.9408-1.32708-7.48444-1.36639-7.915-.08783-.41339,1.2276,2.1966,3.22187,5.89307,4.55365-3.77344,1.22931-6.47785,3.17017-6.09534,4.41742.39356,1.28333,3.90369,1.3454,7.85461.14521-2.49285,3.29187-3.649,6.60669-2.581,7.41986,1.0733.81738,3.98566-1.20191,6.50488-4.51014a16.94765,16.94765,0,0,0,2.79322-5.09973,12.71982,12.71982,0,0,0,23.49578-7.72912,21.0455,21.0455,0,0,0,3.19733,1.36767c3.94074,1.32709,7.48444,1.36646,7.915.08789C580.46844,126.83859,577.65271,124.74179,573.74292,123.41354Z" transform="translate(-98.74896 1.43694)"/><line id="af0a0912-8994-4b66-868f-1e2b333294f1" data-name="candyline1" class="bd17f7a5-d509-41d3-9fb0-913e962c39bb" x1="457.49419" x2="457.49419" y2="129.1263"/><g id="b1add030-3127-4fd6-9c49-7eeaf9bcf0c2" data-name="spider1"><path id="f4e7b7e7-9178-4122-b9d9-36011594bb09" data-name="leftleg4" class="b1391335-13f1-4c5b-83c3-16efb788d447" d="M407.51791,250.86275a12.22756,12.22756,0,0,0-1.81733,14.24121c.6-4.61572.74388-8.42511,5.03606-12.87455C413.39853,249.47,409.88016,248.24543,407.51791,250.86275Z" transform="translate(-98.74896 1.43694)"/><path id="bbe2091d-3e4d-4411-9c8a-afde68b790d2" data-name="leftleg3" class="b1391335-13f1-4c5b-83c3-16efb788d447" d="M407.30625,248.70552a12.22758,12.22758,0,0,0-8.71415,11.40958c2.83384-3.69245,4.86871-6.916,10.81349-8.613C413.09239,250.44965,410.66253,247.62577,407.30625,248.70552Z" transform="translate(-98.74896 1.43694)"/><path id="b52da607-5e55-450b-9f2e-9a9591cf2cb4" data-name="leftleg2" class="b1391335-13f1-4c5b-83c3-16efb788d447" d="M407.90344,247.14539a12.22757,12.22757,0,0,0-12.48653,7.08529c4.05359-2.28762,7.1884-4.45675,13.32291-3.68994C412.54429,251.0163,411.41449,247.46636,407.90344,247.14539Z" transform="translate(-98.74896 1.43694)"/><path id="bb48df8a-6202-493b-b4f5-e9278b5a7f5c" data-name="leftleg1" class="b1391335-13f1-4c5b-83c3-16efb788d447" d="M408.21086,244.275c-2.30044-1.53363-8.435-7.66814-7.66814-16.10309-3.06726,4.60088-3.83407,6.13451,5.3677,18.40353.39539.52719,1.85481,1.97925,3.06725.76681C409.74448,246.57545,409.1673,244.91263,408.21086,244.275Z" transform="translate(-98.74896 1.43694)"/><path id="b9560999-07b8-458a-bb46-bda39f6e9a84" data-name="righleg4" class="b1391335-13f1-4c5b-83c3-16efb788d447" d="M420.71118,250.86275a12.22756,12.22756,0,0,1,1.81734,14.24121c-.6-4.61572-.74389-8.42511-5.03606-12.87455C414.83057,249.47,418.34894,248.24543,420.71118,250.86275Z" transform="translate(-98.74896 1.43694)"/><path id="a4fa4e74-4392-4ce5-8662-3a0044d4a4ba" data-name="righleg3" class="b1391335-13f1-4c5b-83c3-16efb788d447" d="M420.92285,248.70552A12.22759,12.22759,0,0,1,429.637,260.1151c-2.83384-3.69245-4.86871-6.916-10.8135-8.613C415.1367,250.44965,417.56656,247.62577,420.92285,248.70552Z" transform="translate(-98.74896 1.43694)"/><path id="b75e059b-1b36-4c8f-b7fb-9f55db117c8e" data-name="righleg2" class="b1391335-13f1-4c5b-83c3-16efb788d447" d="M420.32566,247.14539a12.22758,12.22758,0,0,1,12.48653,7.08529c-4.05359-2.28762-7.18841-4.45675-13.32292-3.68994C415.68481,251.0163,416.8146,247.46636,420.32566,247.14539Z" transform="translate(-98.74896 1.43694)"/><path id="a116c1a8-6ae7-4461-87f7-84f608f6a3fe" data-name="righleg1" class="b1391335-13f1-4c5b-83c3-16efb788d447" d="M420.01824,244.275c2.30044-1.53363,8.435-7.66814,7.66814-16.10309,3.06725,4.60088,3.83406,6.13451-5.3677,18.40353-.3954.52719-1.85482,1.97925-3.06726.76681C418.48461,246.57545,419.0618,244.91263,420.01824,244.275Z" transform="translate(-98.74896 1.43694)"/><path id="a7aa5088-47a3-42a5-9e31-6b34d7ff800b" data-name="spiderbody" class="b1391335-13f1-4c5b-83c3-16efb788d447" d="M420.27139,248.65053c1.53363-2.51151,3.82681-6.03769,3.83406-11.72035C424.1167,228.15439,414.027,220.635,414.027,220.635s-9.34117,7.10079-9.35238,15.87659c-.0072,5.64873,3.3248,10.45814,4.09457,12.13893a6.129,6.129,0,0,1,.76682,4.18583c-.76682,3.34867.45093,6.69734,2.30044,6.69734,1.53363,0,.76681-3.34867,2.30044-3.34867s1.53363,3.34867,3.06725,3.34867,3.06726-3.34867,1.98724-7.53451C419.06349,251.25533,419.32027,250.20809,420.27139,248.65053Z" transform="translate(-98.74896 1.43694)"/></g><line id="e82368d6-0b72-459d-b382-e34f285d91a8" data-name="spiderline1" class="bd17f7a5-d509-41d3-9fb0-913e962c39bb" x1="317.44967" y1="2.00156" x2="317.14399" y2="227.8891"/><g id="e1a8d536-09e3-4e7c-bca9-1b8b6b49af5a" data-name="starfirst"><polygon id="bb11d263-0e12-46b8-ae8d-6a904cdac203" data-name="startlight1" class="a14900af-bf0d-4cfd-9d57-53fe2a2a2bf6" points="221.251 73.682 230.818 93.067 252.211 96.175 236.731 111.265 240.385 132.571 221.251 122.511 202.117 132.571 205.771 111.265 190.291 96.175 211.684 93.067 221.251 73.682"/><polygon id="a9a491ef-7488-45f2-99ea-1ae067ec8b59" data-name="star1" class="b1391335-13f1-4c5b-83c3-16efb788d447" points="221.251 73.682 230.818 93.067 252.211 96.175 236.731 111.265 240.385 132.571 221.251 122.511 202.117 132.571 205.771 111.265 190.291 96.175 211.684 93.067 221.251 73.682"/></g></g></svg>